<svg id="Layer_1" data-name="Layer 1" xmlns="http://www.w3.org/2000/svg" viewBox="0 0 204.28 199"><defs><style>.cls-1,.cls-2{fill:none;stroke:#f37b6d;stroke-width:4px;}.cls-1{stroke-linecap:round;stroke-linejoin:round;}.cls-2{stroke-miterlimit:10;}</style></defs><path class="cls-1" d="M91.74,114.23H21V21.89H133v18.3"/><path class="cls-1" d="M2,141.83V18.5A16.53,16.53,0,0,1,18.53,2H135.47A16.53,16.53,0,0,1,152,18.5V36.8m0,124.7v19A16.53,16.53,0,0,1,135.47,197H61.94"/><path class="cls-1" d="M152.28,50a50,50,0,1,1-50,50,50,50,0,0,1,50-50"/><path class="cls-1" d="M152.28,60a40,40,0,1,1-40,40,40,40,0,0,1,40-40m0,13.61v52.74M178.65,100H125.91M38.14,141.83H2L61.94,197V166A24,24,0,0,0,38.14,141.83Z"/><path class="cls-2" d="M56.93,87.54a3,3,0,0,0,3.68.87L96,70.7a3,3,0,0,0,0-5.28L60.61,47.71a3,3,0,0,0-3.71.9,3.2,3.2,0,0,0-.56,1.91v35A3.27,3.27,0,0,0,56.93,87.54Z"/></svg>