<svg xmlns="http://www.w3.org/2000/svg" viewBox="0 0 512 390"><defs><style>.cls-1{fill:#fff;}.cls-2{fill:#60cd59;}.cls-3{fill:#ffcf66;}</style></defs><g id="OBJECT"><rect class="cls-1" x="15" y="15" width="482" height="360" rx="40"/><path class="cls-2" d="M26.17,362.71A39.88,39.88,0,0,0,55,375H415L215,155Z"/><path class="cls-2" d="M485.65,362.9,347,215,197,375H457A39.85,39.85,0,0,0,485.65,362.9Z"/><circle class="cls-3" cx="392" cy="120" r="45"/><path d="M457,0H55A55.06,55.06,0,0,0,0,55V335a55.06,55.06,0,0,0,55,55H457a55.06,55.06,0,0,0,55-55V55A55.06,55.06,0,0,0,457,0ZM30,55A25,25,0,0,1,55,30H457a25,25,0,0,1,25,25V335c0,.67,0,1.32-.09,2l-124-132.24A15,15,0,0,0,347,200h0a15,15,0,0,0-10.94,4.74l-28.21,30.09L226.1,144.91a15,15,0,0,0-22.2,0L30,336.17q0-.59,0-1.17ZM55,360a25.2,25.2,0,0,1-5.53-.62L215,177.3l72.26,79.49-32.37,34.53a15,15,0,1,0,21.89,20.51L347,236.93,461.92,359.51A25,25,0,0,1,457,360Z"/><path d="M392,180a60,60,0,1,0-60-60A60.07,60.07,0,0,0,392,180Zm0-90a30,30,0,1,1-30,30A30,30,0,0,1,392,90Z"/></g></svg>