<svg xmlns="http://www.w3.org/2000/svg" viewBox="0 0 418.26 410.43"><defs><style>.cls-1{fill:#ebebeb;}.cls-2{fill:#fff;}.cls-3{fill:#dbdbdb;}.cls-4{fill:#c7c7c7;}.cls-5,.cls-7{fill:none;stroke-miterlimit:10;}.cls-5{stroke:#dbdbdb;}.cls-15,.cls-6{fill:#263238;}.cls-7{stroke:#ebebeb;}.cls-8{fill:#a6a6a6;}.cls-9{fill:#f37b6d;}.cls-10{fill:#455a64;}.cls-11{fill:#65a8af;}.cls-12{fill:#eb9481;}.cls-13,.cls-15{opacity:0.1;}.cls-14{fill:#37474f;}</style></defs><g id="Background_Complete" data-name="Background Complete"><rect class="cls-1" x="22.48" y="331.94" width="35.16" height="11.19"/><rect class="cls-1" x="136.02" y="58.52" width="35.16" height="11.19"/><path class="cls-1" d="M38,357.24l-17.46.29-8.83.12-8.87.05H2.42v-.46l0-11.19v-.5h.5l17.58.07,8.79.09,8.79.1h.24v.23Zm0,0-.24-11.19.24.24-8.79.11-8.79.08-17.58.07.5-.5,0,11.19-.46-.45,8.71,0,8.75.12Z"/><path class="cls-1" d="M378.6,251.63c-5.86.1-20.63.35-26.29.42l-8.87,0H343v-.46l0-11.19v-.5h.5L361,240c4.38,0,13.2.13,17.58.2h.24v.23l-.23,11.19Zm0,0-.24-11.19.24.24c-4.39.06-13.2.16-17.58.19l-17.58.07.5-.5,0,11.19-.46-.45,8.71,0c5.57.06,20.68.32,26.45.41Z"/><path class="cls-1" d="M359,265.74c-5.86.1-20.63.35-26.29.42l-8.87,0h-.46v-.46l0-11.19v-.5h.5l17.58.07c4.37,0,13.2.13,17.58.2h.24v.23L359,265.74Zm0,0-.24-11.19.24.24-8.79.11c-5.58.08-20.6.13-26.37.15l.5-.5-.05,11.19-.45-.45,8.71,0c5.57.06,20.68.32,26.45.41Z"/><rect class="cls-1" x="304.29" y="240.44" width="35.16" height="11.19"/><rect class="cls-1" x="381.39" y="346.05" width="35.16" height="11.19"/><rect class="cls-1" x="361.78" y="0.5" width="35.16" height="11.19"/><path class="cls-1" d="M416.55,25.8l-17.46.29-8.83.12-8.87.05h-.45V25.8l0-11.19v-.5h.5l17.58.07,8.79.08,8.79.11h.24v.23Zm0,0-.24-11.19.24.24-8.79.11L399,15l-17.58.07.5-.5,0,11.19-.46-.45,8.72,0,8.74.12Z"/><path class="cls-1" d="M57.64,11.69,40.18,12l-8.83.12-8.87.05H22v-.46L22,.5V0h.5L40.06.07l8.79.08,8.79.11h.24V.5Zm0,0L57.4.5l.24.24L48.85.85,40.06.93,22.48,1,23,.5l0,11.19-.46-.45,8.71,0,8.75.12Z"/><path class="cls-1" d="M17.08,3.38V181H132.56V3.38ZM128.3,176.78h-107V7.64h107Z"/><rect class="cls-2" x="21.35" y="7.64" width="106.95" height="169.14"/><rect class="cls-1" x="21.34" y="90.08" width="106.95" height="4.26" transform="translate(149.64 184.42) rotate(180)"/><rect class="cls-3" x="9.24" y="181.04" width="131.16" height="12.23" transform="translate(149.64 374.3) rotate(180)"/><path class="cls-3" d="M21.34,7.64h107V117.07H21.34Zm103,3.94H25.29V113.12h99.06Z"/><rect class="cls-3" x="92.03" y="7.64" width="2.13" height="105.48"/><rect class="cls-3" x="55.48" y="7.64" width="2.13" height="105.48"/><path class="cls-1" d="M286.87,3.38V181H402.35V3.38Zm111.21,173.4H291.13V7.64h107Z"/><rect class="cls-2" x="291.13" y="7.64" width="106.95" height="169.14"/><rect class="cls-1" x="291.13" y="90.08" width="106.95" height="4.26" transform="translate(689.21 184.42) rotate(180)"/><rect class="cls-3" x="279.02" y="181.04" width="131.16" height="12.23" transform="translate(689.21 374.3) rotate(180)"/><path class="cls-3" d="M291.13,7.64h107V117.07H291.13Zm103,3.94H295.07V113.12h99.07Z"/><rect class="cls-3" x="361.82" y="7.64" width="2.13" height="105.48"/><rect class="cls-3" x="325.26" y="7.64" width="2.13" height="105.48"/><rect class="cls-1" y="233.93" width="146.12" height="8.92"/><rect class="cls-1" x="13.03" y="242.85" width="120.06" height="24.61"/><polygon class="cls-4" points="133.09 247.71 13.03 250.09 13.03 242.85 133.09 242.85 133.09 247.71"/><rect class="cls-5" x="31.62" y="248.01" width="82.89" height="14.3"/><rect class="cls-3" x="59.4" y="253.09" width="27.33" height="4.13"/><polygon class="cls-1" points="12.06 409.02 8.09 409.02 19.65 267.46 29.79 267.46 12.06 409.02"/><polygon class="cls-4" points="29.79 267.47 28.6 276.94 18.88 276.94 19.65 267.47 29.79 267.47"/><polygon class="cls-1" points="134.06 409.02 138.04 409.02 126.47 267.46 116.33 267.46 134.06 409.02"/><polygon class="cls-4" points="116.33 267.47 117.52 276.94 127.24 276.94 126.47 267.47 116.33 267.47"/></g><g id="Floor"><polygon class="cls-6" points="1.16 409.02 53.3 408.77 105.44 408.69 209.71 408.52 313.99 408.68 366.12 408.77 418.26 409.02 366.12 409.26 313.99 409.35 209.71 409.51 105.44 409.35 53.3 409.26 1.16 409.02"/></g><g id="Device"><path class="cls-6" d="M294.23,26.17h-169a17.26,17.26,0,0,0-17.1,17.42v348A17.27,17.27,0,0,0,125.18,409H294.23a17.28,17.28,0,0,0,17.12-17.42v-348A17.27,17.27,0,0,0,294.23,26.17Zm6.43,354.67c0,9.16-6.86,16.57-15.32,16.57H134.1c-8.48,0-15.34-7.41-15.34-16.57V56.78c0-18.66,6.86-19.57,15.34-19.57h30.29c1.76,0,3.2,2,3.2,4.48v1.07c0,5.81,3.18,5.83,7.09,5.83h70.06c3.94,0,7.09,0,7.09-5.83V41.69c0-2.48,1.42-4.48,3.21-4.48h30.3c8.46,0,15.32,2.48,15.32,19.57Z"/><path class="cls-2" d="M219.26,41.33H200.15A1.18,1.18,0,0,1,199,40.15h0A1.18,1.18,0,0,1,200.15,39h19.11a1.18,1.18,0,0,1,1.18,1.18h0A1.18,1.18,0,0,1,219.26,41.33Z"/><path class="cls-2" d="M300.66,56.78V380.84c0,9.16-6.86,16.57-15.32,16.57H134.1c-8.48,0-15.34-7.41-15.34-16.57V56.78c0-18.66,6.86-19.57,15.34-19.57h30.29c1.76,0,3.2,2,3.2,4.48v1.07c0,5.81,3.18,5.83,7.09,5.83h70.06c3.94,0,7.09,0,7.09-5.83V41.69c0-2.48,1.42-4.48,3.21-4.48h30.3C293.8,37.21,300.66,39.69,300.66,56.78Z"/><polygon class="cls-4" points="137.17 78.41 131.79 73.38 137.17 68.34 138 69.23 133.58 73.38 138 77.52 137.17 78.41"/><path class="cls-4" d="M286.57,70.24a1.06,1.06,0,1,1-1.06-1.06A1.06,1.06,0,0,1,286.57,70.24Z"/><path class="cls-4" d="M286.57,74a1.06,1.06,0,1,1-1.06-1.06A1.06,1.06,0,0,1,286.57,74Z"/><path class="cls-4" d="M286.57,77.76a1.06,1.06,0,1,1-1.06-1.06A1.06,1.06,0,0,1,286.57,77.76Z"/><path class="cls-4" d="M195.4,76.54a.37.37,0,0,1,.51-.05,2.28,2.28,0,0,0,1.34.54,1.45,1.45,0,0,0,.87-.26.62.62,0,0,0,.3-.5.44.44,0,0,0-.06-.23.69.69,0,0,0-.21-.21,2.94,2.94,0,0,0-1-.33h0a3.58,3.58,0,0,1-.91-.27,1.51,1.51,0,0,1-.65-.55,1.08,1.08,0,0,1-.16-.57,1.3,1.3,0,0,1,.56-1,2.07,2.07,0,0,1,1.21-.37,2.78,2.78,0,0,1,1.53.56.36.36,0,0,1,.1.49.36.36,0,0,1-.5.11,2,2,0,0,0-1.13-.45,1.34,1.34,0,0,0-.78.24.55.55,0,0,0-.27.44.42.42,0,0,0,0,.2.83.83,0,0,0,.19.18,2.53,2.53,0,0,0,.88.31h0a4.26,4.26,0,0,1,1,.29,1.72,1.72,0,0,1,.7.58,1.19,1.19,0,0,1,.16.6,1.34,1.34,0,0,1-.6,1.08,2.13,2.13,0,0,1-1.29.4,3,3,0,0,1-1.8-.7A.37.37,0,0,1,195.4,76.54Z"/><path class="cls-4" d="M200.27,73.24a.38.38,0,0,1,.38-.38.4.4,0,0,1,.4.38v4.13a.4.4,0,0,1-.4.39.38.38,0,0,1-.38-.39Z"/><path class="cls-4" d="M202.14,75.25a2.55,2.55,0,0,1,2.58-2.53,2.59,2.59,0,0,1,1.6.54.4.4,0,1,1-.49.63,1.83,1.83,0,0,0-1.11-.37,1.72,1.72,0,0,0-1.26.51,1.67,1.67,0,0,0,0,2.42,1.76,1.76,0,0,0,1.26.51,1.94,1.94,0,0,0,1-.26v-1h-1a.41.41,0,0,1-.4-.4.39.39,0,0,1,.4-.4h1.39a.4.4,0,0,1,.41.4v1.54a.43.43,0,0,1,0,.12l0,0h0a.32.32,0,0,1-.13.16,2.58,2.58,0,0,1-4.17-2Z"/><path class="cls-4" d="M208.82,77.37a.38.38,0,1,1-.76,0V73.3h0a.37.37,0,0,1,.15-.32.39.39,0,0,1,.54.08L211,76.19V73.3a.38.38,0,0,1,.76,0v4.07a.38.38,0,0,1-.67.25l0,0-2.24-3.11Z"/><path class="cls-4" d="M217.58,77.76a2,2,0,0,1-2-2v-2.5a.38.38,0,0,1,.38-.38.39.39,0,0,1,.39.38v2.5a1.25,1.25,0,0,0,2.5,0v-2.5a.39.39,0,0,1,.78,0v2.5A2,2,0,0,1,217.58,77.76Z"/><path class="cls-4" d="M222.89,75.85H222v1.52a.39.39,0,1,1-.77,0V73.24a.38.38,0,0,1,.38-.38h1.26a1.5,1.5,0,1,1,0,3Zm-.87-.77h.87a.72.72,0,0,0,.72-.72.73.73,0,0,0-.72-.73H222Z"/><g id="u5Zjqx"><path class="cls-4" d="M159.16,44.48l-.29.3-.17.16a4,4,0,0,0-5.64,0,1.29,1.29,0,0,0-.16-.17l-.29-.29h0l0,0,.37-.33a4.7,4.7,0,0,1,.85-.54,4.14,4.14,0,0,1,1.14-.38,5,5,0,0,1,.56-.08h.5l.39,0a4.77,4.77,0,0,1,1,.25,4.66,4.66,0,0,1,1.37.8l.31.28Z"/><path class="cls-4" d="M154,45.86l-.46-.46a3.33,3.33,0,0,1,4.71,0l-.47.46a2.61,2.61,0,0,0-1.89-.78A2.65,2.65,0,0,0,154,45.86Z"/><path class="cls-4" d="M157.31,46.32l-.46.46a1.34,1.34,0,0,0-1-.4,1.32,1.32,0,0,0-1,.41c-.15-.16-.3-.31-.46-.46A2,2,0,0,1,157.31,46.32Z"/><path class="cls-4" d="M156.3,47.2a.42.42,0,0,1-.42.42.41.41,0,0,1-.41-.42.41.41,0,0,1,.41-.41A.41.41,0,0,1,156.3,47.2Z"/></g><path class="cls-4" d="M130.62,45.37a1.21,1.21,0,1,1,1.2,1.2A1.21,1.21,0,0,1,130.62,45.37Z"/><path class="cls-4" d="M134.42,45.37a1.21,1.21,0,1,1,1.2,1.2A1.21,1.21,0,0,1,134.42,45.37Z"/><path class="cls-4" d="M138.21,45.37a1.21,1.21,0,1,1,1.21,1.2A1.21,1.21,0,0,1,138.21,45.37Z"/><path class="cls-4" d="M142,45.37a1.21,1.21,0,1,1,1.21,1.2A1.21,1.21,0,0,1,142,45.37Z"/><path class="cls-4" d="M145.81,45.37a1.21,1.21,0,1,1,1.2,1.2A1.21,1.21,0,0,1,145.81,45.37Z"/><path class="cls-4" d="M287,48h-9.83V43.45H287Zm-9.32-.52h8.8V44h-8.8Z"/><rect class="cls-4" x="278.01" y="44.23" width="6.33" height="3"/><rect class="cls-4" x="287.02" y="44.51" width="0.87" height="2.43"/><polygon class="cls-1" points="141.93 379.9 141.04 379.9 141.04 383.98 139.38 383.98 139.38 381.9 136.44 381.9 136.44 383.98 134.78 383.98 134.78 379.9 133.89 379.9 137.91 375.75 141.93 379.9"/><rect class="cls-1" x="276.22" y="375.74" width="9.69" height="1.38"/><rect class="cls-1" x="276.22" y="379.17" width="9.69" height="1.39"/><rect class="cls-1" x="276.22" y="382.6" width="9.69" height="1.39"/><polygon class="cls-1" points="212.75 380.01 209.99 382.95 207.24 380.01 207.72 379.55 209.99 381.97 212.26 379.55 212.75 380.01"/><path class="cls-1" d="M210,386a5,5,0,1,1,5-5A5,5,0,0,1,210,386Zm0-9.36a4.35,4.35,0,1,0,4.35,4.35A4.35,4.35,0,0,0,210,376.63Z"/><path class="cls-6" d="M152.21,168.86a1.94,1.94,0,0,1-1.94-1.94v-2.39a.36.36,0,0,1,.36-.37.37.37,0,0,1,.38.37v2.39a1.2,1.2,0,0,0,2.39,0v-2.39a.38.38,0,0,1,.75,0v2.39A2,2,0,0,1,152.21,168.86Z"/><path class="cls-6" d="M155.49,167.9a.35.35,0,0,1,.5-.06,1.23,1.23,0,0,0,.74.3.89.89,0,0,0,.46-.13.29.29,0,0,0,.12-.2.14.14,0,0,0,0-.07s0,0-.09-.08a1.8,1.8,0,0,0-.54-.19h0a2.7,2.7,0,0,1-.59-.17,1.15,1.15,0,0,1-.46-.39.86.86,0,0,1-.12-.42,1,1,0,0,1,.4-.74,1.48,1.48,0,0,1,.83-.25,1.68,1.68,0,0,1,1,.37.37.37,0,0,1,.11.5.36.36,0,0,1-.5.09,1.14,1.14,0,0,0-.61-.25.77.77,0,0,0-.41.12.21.21,0,0,0-.1.16.09.09,0,0,0,0,0,.43.43,0,0,0,.07.07,1.46,1.46,0,0,0,.49.16h0a2.49,2.49,0,0,1,.62.19,1.08,1.08,0,0,1,.48.4.87.87,0,0,1,.13.44,1,1,0,0,1-.43.78,1.5,1.5,0,0,1-.87.27,1.91,1.91,0,0,1-1.19-.47A.35.35,0,0,1,155.49,167.9Z"/><path class="cls-6" d="M158.72,167.18a1.66,1.66,0,0,1,1.64-1.68,1.6,1.6,0,0,1,1.61,1.56v.09a.32.32,0,0,1-.35.27h-2.14a.89.89,0,0,0,.23.44,1,1,0,0,0,.65.31,1.05,1.05,0,0,0,.69-.17.38.38,0,0,1,.51,0,.31.31,0,0,1,0,.43,1.69,1.69,0,0,1-2.84-1.23Zm.73-.33h1.9a1.1,1.1,0,0,0-1-.71A.93.93,0,0,0,159.45,166.85Z"/><path class="cls-6" d="M165,165.86a.36.36,0,0,1-.36.35.62.62,0,0,0-.4.13,1,1,0,0,0-.31.32,2.38,2.38,0,0,0-.28.57v1.27a.36.36,0,0,1-.72,0v-2.64a.36.36,0,0,1,.72,0v0a.93.93,0,0,1,.15-.13,1.42,1.42,0,0,1,.84-.26A.35.35,0,0,1,165,165.86Z"/><path class="cls-6" d="M168.65,166.9v1.6a.36.36,0,0,1-.35.36.36.36,0,0,1-.36-.36v-1.6a.69.69,0,0,0-.7-.68.67.67,0,0,0-.67.68v1.6a.2.2,0,0,1,0,.07.38.38,0,0,1-.36.29.35.35,0,0,1-.35-.36v-2.64a.35.35,0,0,1,.35-.36.36.36,0,0,1,.33.21,1.32,1.32,0,0,1,.71-.21A1.41,1.41,0,0,1,168.65,166.9Z"/><path class="cls-6" d="M172.8,167.19v1.31a.36.36,0,0,1-.35.36.36.36,0,0,1-.35-.29,1.56,1.56,0,0,1-.9.29,1.58,1.58,0,0,1-1.14-.49,1.79,1.79,0,0,1,0-2.37,1.59,1.59,0,0,1,1.14-.5,1.5,1.5,0,0,1,.9.3.36.36,0,0,1,.35-.3.36.36,0,0,1,.35.36Zm-.71,0a1,1,0,0,0-.26-.7.83.83,0,0,0-.63-.27.8.8,0,0,0-.62.27,1,1,0,0,0-.26.7,1,1,0,0,0,.26.69.82.82,0,0,0,.62.26.86.86,0,0,0,.63-.26A1,1,0,0,0,172.09,167.19Z"/><path class="cls-6" d="M176.92,166.89v1.61a.36.36,0,0,1-.35.36.36.36,0,0,1-.36-.36v-1.61a.7.7,0,0,0-.7-.67.68.68,0,0,0-.67.69v1.59a.43.43,0,0,1,0,.05v0s0,0,0,0v0a.41.41,0,0,1-.34.22h-.06a.35.35,0,0,1-.29-.35v-1.59h0v-1a.35.35,0,0,1,.35-.36.35.35,0,0,1,.33.2,1.36,1.36,0,0,1,.71-.2,1.4,1.4,0,0,1,1.06.46,1.37,1.37,0,0,1,1.05-.46,1.41,1.41,0,0,1,1.4,1.41v1.59a.36.36,0,0,1-.36.36.36.36,0,0,1-.36-.36v-1.59a.69.69,0,0,0-.68-.69A.7.7,0,0,0,176.92,166.89Z"/><path class="cls-6" d="M180.27,167.18a1.65,1.65,0,0,1,1.63-1.68,1.6,1.6,0,0,1,1.62,1.56v.09a.32.32,0,0,1-.35.27H181a.89.89,0,0,0,.23.44,1,1,0,0,0,.64.31,1.06,1.06,0,0,0,.7-.17.38.38,0,0,1,.51,0,.31.31,0,0,1,0,.43,1.68,1.68,0,0,1-1.21.45A1.66,1.66,0,0,1,180.27,167.18Zm.73-.33h1.9a1.1,1.1,0,0,0-1-.71A.92.92,0,0,0,181,166.85Z"/><rect class="cls-1" x="149.13" y="173.98" width="121.16" height="14.39"/><path class="cls-6" d="M150.26,203v-4a.36.36,0,0,1,.37-.37h2.19a.37.37,0,0,1,0,.74H151v1.23h1.57a.38.38,0,0,1,.37.37.38.38,0,0,1-.37.38H151v1.23h1.82a.38.38,0,0,1,0,.75h-2.19A.37.37,0,0,1,150.26,203Z"/><path class="cls-6" d="M157,201.38V203a.36.36,0,0,1-.35.36.37.37,0,0,1-.37-.36v-1.61a.68.68,0,0,0-.69-.67.69.69,0,0,0-.68.69v1.66s0,0,0,0v0a.41.41,0,0,1-.34.22h-.07a.36.36,0,0,1-.28-.35V201.4h0v-1a.36.36,0,0,1,.35-.36.33.33,0,0,1,.32.2,1.43,1.43,0,0,1,1.78.26,1.41,1.41,0,0,1,2.45,1V203a.36.36,0,0,1-.36.36.36.36,0,0,1-.36-.36V201.4a.69.69,0,0,0-.68-.69A.7.7,0,0,0,157,201.38Z"/><path class="cls-6" d="M163.39,201.68V203a.36.36,0,0,1-.36.36.38.38,0,0,1-.35-.29,1.5,1.5,0,0,1-.89.29,1.58,1.58,0,0,1-1.14-.49,1.76,1.76,0,0,1,0-2.37,1.59,1.59,0,0,1,1.14-.5,1.51,1.51,0,0,1,.89.3.38.38,0,0,1,.35-.3.36.36,0,0,1,.36.36Zm-.71,0a1,1,0,0,0-.26-.7.85.85,0,0,0-.63-.27.8.8,0,0,0-.62.27,1,1,0,0,0-.26.7,1,1,0,0,0,.26.69.82.82,0,0,0,.62.26.88.88,0,0,0,.63-.26A1,1,0,0,0,162.68,201.68Z"/><path class="cls-6" d="M165.44,199.15a.37.37,0,1,1-.73,0V199a.37.37,0,0,1,.73,0Zm0,1.22V203a.37.37,0,0,1-.73,0v-2.62a.37.37,0,1,1,.73,0Z"/><path class="cls-6" d="M166.87,198.65a.38.38,0,0,1,.37.37v4a.37.37,0,1,1-.74,0v-4A.38.38,0,0,1,166.87,198.65Z"/><rect class="cls-1" x="149.13" y="208.47" width="121.16" height="14.39"/><path class="cls-6" d="M151.83,236H151v1.46a.37.37,0,0,1-.37.37.38.38,0,0,1-.37-.37v-4a.37.37,0,0,1,.37-.37h1.2a1.44,1.44,0,1,1,0,2.87Zm-.83-.74h.83a.7.7,0,1,0,0-1.39H151Z"/><path class="cls-6" d="M156.94,236.17v1.31a.36.36,0,0,1-.36.36.37.37,0,0,1-.35-.29,1.5,1.5,0,0,1-.89.29,1.56,1.56,0,0,1-1.14-.49,1.76,1.76,0,0,1,0-2.37,1.57,1.57,0,0,1,1.14-.5,1.51,1.51,0,0,1,.89.3.37.37,0,0,1,.35-.3.36.36,0,0,1,.36.36Zm-.71,0a.93.93,0,0,0-.27-.69.79.79,0,0,0-.62-.28.77.77,0,0,0-.62.28,1,1,0,0,0-.26.69,1,1,0,0,0,.26.69.82.82,0,0,0,.62.26.84.84,0,0,0,.62-.26A1,1,0,0,0,156.23,236.17Z"/><path class="cls-6" d="M158.09,236.88a.36.36,0,0,1,.51-.06,1.17,1.17,0,0,0,.73.3.86.86,0,0,0,.46-.13.26.26,0,0,0,.12-.2.08.08,0,0,0,0-.07s0,0-.09-.08a1.52,1.52,0,0,0-.53-.18h0a3,3,0,0,1-.58-.18,1.18,1.18,0,0,1-.47-.39.85.85,0,0,1-.11-.42.93.93,0,0,1,.4-.74,1.42,1.42,0,0,1,.82-.25,1.74,1.74,0,0,1,1,.37.38.38,0,0,1,.11.5.35.35,0,0,1-.5.09,1.17,1.17,0,0,0-.62-.25.73.73,0,0,0-.4.12.21.21,0,0,0-.11.16.07.07,0,0,0,0,.05.19.19,0,0,0,.08.07,1.38,1.38,0,0,0,.49.16h0a2.7,2.7,0,0,1,.63.19,1,1,0,0,1,.47.4.87.87,0,0,1,.13.44,1,1,0,0,1-.42.78,1.53,1.53,0,0,1-.88.27,2,2,0,0,1-1.19-.46A.36.36,0,0,1,158.09,236.88Z"/><path class="cls-6" d="M161.33,236.88a.35.35,0,0,1,.5-.06,1.23,1.23,0,0,0,.74.3A.89.89,0,0,0,163,237a.29.29,0,0,0,.12-.2.14.14,0,0,0,0-.07s0,0-.09-.08a1.51,1.51,0,0,0-.54-.18h0a3.39,3.39,0,0,1-.59-.18,1.15,1.15,0,0,1-.46-.39.85.85,0,0,1-.11-.42,1,1,0,0,1,.39-.74,1.48,1.48,0,0,1,.83-.25,1.68,1.68,0,0,1,1,.37.37.37,0,0,1,.11.5.35.35,0,0,1-.5.09,1.14,1.14,0,0,0-.61-.25.77.77,0,0,0-.41.12.22.22,0,0,0-.1.16.07.07,0,0,0,0,.05l.07.07a1.46,1.46,0,0,0,.49.16h0a2.49,2.49,0,0,1,.62.19,1.08,1.08,0,0,1,.48.4.87.87,0,0,1,.13.44,1,1,0,0,1-.43.78,1.5,1.5,0,0,1-.87.27,2,2,0,0,1-1.19-.46A.36.36,0,0,1,161.33,236.88Z"/><path class="cls-6" d="M169,235l-1.11,2.6s0,0,0,.06h0l0,0h0l0,0s0,0,0,0,0,0-.06,0h-.27s0,0-.06,0h0s0,0,0,0h0l0,0h0a.14.14,0,0,1,0-.06l-.49-1.16-.48,1.16,0,.06h0l0,0h0l0,0s0,0-.06,0h0s0,0,0,0h-.22a.08.08,0,0,1-.06,0s0,0,0,0l0,0h0l0,0h0l0-.06-1.1-2.6a.34.34,0,0,1,.19-.46.33.33,0,0,1,.45.2l.79,1.8.47-1.12a.36.36,0,0,1,.66,0l.47,1.12.79-1.8a.33.33,0,0,1,.45-.2A.35.35,0,0,1,169,235Z"/><path class="cls-6" d="M170.61,237.35a1.67,1.67,0,0,1-.46-1.18,1.73,1.73,0,0,1,.46-1.18,1.6,1.6,0,0,1,1.16-.51,1.51,1.51,0,0,1,1.12.51,1.69,1.69,0,0,1,.47,1.18,1.64,1.64,0,0,1-.47,1.18,1.51,1.51,0,0,1-1.12.51A1.6,1.6,0,0,1,170.61,237.35Zm.27-1.18a1.11,1.11,0,0,0,.24.71.92.92,0,0,0,.65.25.9.9,0,0,0,.62-.25,1.07,1.07,0,0,0,.26-.71,1,1,0,0,0-.26-.7,1,1,0,0,0-.62-.26,1,1,0,0,0-.65.26A1.08,1.08,0,0,0,170.88,236.17Z"/><path class="cls-6" d="M176.43,234.84a.35.35,0,0,1-.35.35.65.65,0,0,0-.41.13,1.14,1.14,0,0,0-.3.32,1.79,1.79,0,0,0-.28.57v1.27a.37.37,0,0,1-.37.36.36.36,0,0,1-.35-.36v-2.64a.35.35,0,0,1,.35-.35.36.36,0,0,1,.37.35v0a.86.86,0,0,1,.14-.13,1.43,1.43,0,0,1,.85-.26A.34.34,0,0,1,176.43,234.84Z"/><path class="cls-6" d="M180.19,237.48a.37.37,0,0,1-.37.36.36.36,0,0,1-.35-.29,1.7,1.7,0,0,1-.92.29,1.68,1.68,0,0,1,0-3.36,1.6,1.6,0,0,1,.9.28V233.5a.37.37,0,0,1,.74,0v2.66h0Zm-1.64-2.27a.86.86,0,0,0-.63.28,1,1,0,0,0-.26.68,1,1,0,0,0,.26.66.86.86,0,0,0,1.27,0,1,1,0,0,0,.26-.66,1,1,0,0,0-.26-.68A.86.86,0,0,0,178.55,235.21Z"/><rect class="cls-1" x="149.13" y="242.96" width="121.16" height="14.39"/><path class="cls-6" d="M156.45,273.47a.13.13,0,0,1,.13-.13.14.14,0,0,1,.15.13v3.65a.15.15,0,0,1-.15.14.13.13,0,0,1-.13-.14Z"/><path class="cls-6" d="M162,274.65v2.47a.14.14,0,0,1-.14.14.13.13,0,0,1-.13-.14v-.41a1.28,1.28,0,0,1-1,.55,1.38,1.38,0,0,1,0-2.75,1.3,1.3,0,0,1,1,.54v-.4a.13.13,0,0,1,.13-.14A.14.14,0,0,1,162,274.65Zm-.27,1.24a1,1,0,1,0-1,1.1A1.07,1.07,0,0,0,161.77,275.89Z"/><path class="cls-6" d="M165.79,277a1.29,1.29,0,0,1-1.29,1.29,1.41,1.41,0,0,1-.58-.13.16.16,0,0,1,0-.18.12.12,0,0,1,.18-.06,1,1,0,0,0,.45.1,1,1,0,0,0,1-1v-.34a1.24,1.24,0,0,1-1,.54,1.37,1.37,0,0,1,0-2.73,1.26,1.26,0,0,1,1,.54v-.4a.14.14,0,0,1,.14-.14.13.13,0,0,1,.13.14Zm-.27-1.17a1,1,0,1,0-2,0,1,1,0,1,0,2,0Z"/><path class="cls-6" d="M167.08,274.65a.13.13,0,0,1,.14-.13.13.13,0,0,1,.13.13v.61l0-.07a1.34,1.34,0,0,1,1.1-.67.13.13,0,0,1,.13.13.13.13,0,0,1-.13.14,1,1,0,0,0-.79.45,2.35,2.35,0,0,0-.34.63.13.13,0,0,0,0,.05v1.2a.13.13,0,0,1-.13.14.14.14,0,0,1-.14-.14Z"/><path class="cls-6" d="M169.06,275.89a1.33,1.33,0,0,1,2.66-.1h0a.13.13,0,0,1-.14.13h-2.25A1.09,1.09,0,0,0,170.4,277a1,1,0,0,0,.88-.5.12.12,0,0,1,.18,0,.14.14,0,0,1,0,.19,1.33,1.33,0,0,1-1.11.62A1.36,1.36,0,0,1,169.06,275.89Zm.29-.22h2.08a1.05,1.05,0,0,0-2.08,0Z"/><path class="cls-6" d="M172.47,275.89a1.33,1.33,0,0,1,2.66-.1h0a.13.13,0,0,1-.14.13h-2.25a1.09,1.09,0,0,0,1.07,1.05,1,1,0,0,0,.88-.5.12.12,0,0,1,.18,0,.14.14,0,0,1,0,.19,1.3,1.3,0,0,1-1.1.62A1.36,1.36,0,0,1,172.47,275.89Zm.29-.22h2.08a1.05,1.05,0,0,0-2.08,0Z"/><path class="cls-6" d="M178.71,274.65a.14.14,0,0,1-.13.13h-.36v2a.21.21,0,0,0,.21.2.17.17,0,0,1,.14.14.16.16,0,0,1-.14.14.47.47,0,0,1-.49-.48v-2h-.34c-.13,0-.13-.06-.13-.13s0-.14.13-.14h.34v-1a.14.14,0,0,1,.28,0v1h.36A.15.15,0,0,1,178.71,274.65Z"/><path class="cls-6" d="M181.08,274.51a1.38,1.38,0,1,1-1.3,1.38A1.35,1.35,0,0,1,181.08,274.51Zm0,2.48a1.11,1.11,0,1,0-1-1.1A1.07,1.07,0,0,0,181.08,277Z"/><path class="cls-6" d="M187.38,274.65v2.47a.13.13,0,0,1-.13.14.14.14,0,0,1-.14-.14v-.41a1.27,1.27,0,0,1-1,.55,1.38,1.38,0,0,1,0-2.75,1.28,1.28,0,0,1,1,.54v-.4a.14.14,0,0,1,.14-.14A.13.13,0,0,1,187.38,274.65Zm-.27,1.24a1,1,0,1,0-1,1.1A1.07,1.07,0,0,0,187.11,275.89Z"/><path class="cls-6" d="M188.66,273.47a.14.14,0,0,1,.28,0v3.65a.14.14,0,0,1-.28,0Z"/><path class="cls-6" d="M190.05,273.47a.14.14,0,0,1,.14-.13.13.13,0,0,1,.14.13v3.65a.14.14,0,0,1-.14.14.14.14,0,0,1-.14-.14Z"/><path class="cls-6" d="M192.9,276.69a.13.13,0,0,1,.19,0,1.46,1.46,0,0,0,.84.32.85.85,0,0,0,.52-.17.39.39,0,0,0,0-.67,1.29,1.29,0,0,0-.58-.2h0a1.56,1.56,0,0,1-.63-.21.57.57,0,0,1-.29-.49.69.69,0,0,1,.29-.54,1.24,1.24,0,0,1,.68-.19,1.48,1.48,0,0,1,.81.3.14.14,0,0,1,0,.19.13.13,0,0,1-.18,0,1.24,1.24,0,0,0-.67-.27.88.88,0,0,0-.53.15.41.41,0,0,0-.17.32.32.32,0,0,0,.16.27,1.45,1.45,0,0,0,.56.19h0a2.11,2.11,0,0,1,.67.22.67.67,0,0,1,0,1.12,1.11,1.11,0,0,1-.68.22,1.77,1.77,0,0,1-1-.39A.13.13,0,0,1,192.9,276.69Z"/><path class="cls-6" d="M196.88,274.65a.14.14,0,0,1-.13.13h-.36v2a.21.21,0,0,0,.21.2.17.17,0,0,1,.14.14.16.16,0,0,1-.14.14.47.47,0,0,1-.49-.48v-2h-.34c-.13,0-.13-.06-.13-.13s0-.14.13-.14h.34v-1a.14.14,0,0,1,.28,0v1h.36A.15.15,0,0,1,196.88,274.65Z"/><path class="cls-6" d="M200.29,274.65v2.47a.13.13,0,1,1-.26,0v-.41a1.28,1.28,0,0,1-1,.55,1.38,1.38,0,0,1,0-2.75,1.3,1.3,0,0,1,1,.54v-.4a.13.13,0,1,1,.26,0Zm-.26,1.24a1,1,0,1,0-1,1.1A1.07,1.07,0,0,0,200,275.89Z"/><path class="cls-6" d="M202.41,274.65a.13.13,0,0,1-.13.13h-.35v2a.21.21,0,0,0,.2.2.17.17,0,0,1,.14.14.16.16,0,0,1-.14.14.46.46,0,0,1-.48-.48v-2h-.35c-.13,0-.13-.06-.13-.13s0-.14.13-.14h.35v-1a.14.14,0,0,1,.13-.13.16.16,0,0,1,.15.13v1h.35A.14.14,0,0,1,202.41,274.65Z"/><path class="cls-6" d="M203.27,275.89a1.33,1.33,0,0,1,2.66-.1h0a.13.13,0,0,1-.14.13h-2.25a1.09,1.09,0,0,0,1.07,1.05,1,1,0,0,0,.88-.5.12.12,0,0,1,.18,0,.15.15,0,0,1,.05.19,1.33,1.33,0,0,1-1.11.62A1.36,1.36,0,0,1,203.27,275.89Zm.29-.22h2.08a1.05,1.05,0,0,0-2.08,0Z"/><path class="cls-6" d="M210.8,275.63a.86.86,0,0,0-.85-.85.85.85,0,0,0-.84.85v1.52h0a.16.16,0,0,1-.07.07l-.07,0h0l0,0h0v0h0v0h0v-1.5a.85.85,0,1,0-1.69,0v1.5a.11.11,0,0,1-.06.1l0,0h0a.14.14,0,0,1-.11-.1v-2.51a.12.12,0,0,1,.12-.13.13.13,0,0,1,.14.13v.26a1.08,1.08,0,0,1,.84-.39,1.1,1.1,0,0,1,1,.58,1.14,1.14,0,0,1,1-.58,1.11,1.11,0,0,1,1.11,1.11v1.5a.13.13,0,0,1-.13.13.13.13,0,0,1-.13-.13Z"/><path class="cls-6" d="M212,275.89a1.33,1.33,0,0,1,2.66-.1h0a.13.13,0,0,1-.14.13h-2.25a1.09,1.09,0,0,0,1.06,1.05,1,1,0,0,0,.89-.5.12.12,0,0,1,.18,0,.14.14,0,0,1,0,.19,1.31,1.31,0,0,1-1.11.62A1.35,1.35,0,0,1,212,275.89Zm.29-.22h2.07a1,1,0,0,0-2.07,0Z"/><path class="cls-6" d="M217.56,275.63a.84.84,0,0,0-.84-.84.85.85,0,0,0-.85.84v1.52s0,0,0,.06a.12.12,0,0,1-.1.05h0a.14.14,0,0,1-.09-.08h0v-2.51a.13.13,0,0,1,.14-.13.13.13,0,0,1,.13.13v.27a1.11,1.11,0,0,1,2,.71v1.49a.13.13,0,0,1-.13.14.14.14,0,0,1-.14-.14Z"/><path class="cls-6" d="M220,274.65a.14.14,0,0,1-.13.13h-.36v2a.21.21,0,0,0,.2.2.17.17,0,0,1,.15.14.16.16,0,0,1-.15.14.47.47,0,0,1-.48-.48v-2h-.34c-.13,0-.13-.06-.13-.13s0-.14.13-.14h.34v-1a.14.14,0,0,1,.28,0v1h.36A.15.15,0,0,1,220,274.65Z"/><path class="cls-6" d="M221.08,276.69a.13.13,0,0,1,.19,0,1.46,1.46,0,0,0,.84.32.83.83,0,0,0,.52-.17.4.4,0,0,0,.21-.34.46.46,0,0,0-.2-.33,1.29,1.29,0,0,0-.58-.2h0a1.46,1.46,0,0,1-.62-.21.56.56,0,0,1-.3-.49.67.67,0,0,1,.3-.54,1.18,1.18,0,0,1,.67-.19,1.55,1.55,0,0,1,.82.3.16.16,0,0,1,0,.19.14.14,0,0,1-.19,0,1.21,1.21,0,0,0-.67-.27.87.87,0,0,0-.52.15.43.43,0,0,0-.18.32.34.34,0,0,0,.16.27,1.51,1.51,0,0,0,.56.19h0a2,2,0,0,1,.67.22.66.66,0,0,1,0,1.12,1.11,1.11,0,0,1-.68.22,1.74,1.74,0,0,1-1-.39A.12.12,0,0,1,221.08,276.69Z"/><path class="cls-6" d="M225.71,273.75a.13.13,0,0,1,.13-.13.13.13,0,0,1,.14.13v.13a.14.14,0,1,1-.27,0Zm0,.9a.13.13,0,0,1,.13-.14.14.14,0,0,1,.14.14v2.47a.14.14,0,0,1-.14.14.13.13,0,0,1-.13-.14Z"/><path class="cls-6" d="M229.23,275.63a.84.84,0,0,0-.84-.84.85.85,0,0,0-.85.84v1.52l0,.06a.12.12,0,0,1-.1.05h0a.14.14,0,0,1-.09-.08h0v-2.51a.13.13,0,0,1,.14-.13.13.13,0,0,1,.13.13v.27a1.11,1.11,0,0,1,2,.71v1.49a.13.13,0,0,1-.13.14.14.14,0,0,1-.14-.14Z"/><path class="cls-6" d="M233.34,274.65a.14.14,0,0,1-.14.13h-.35v2a.21.21,0,0,0,.2.2.16.16,0,0,1,.14.14.15.15,0,0,1-.14.14.47.47,0,0,1-.48-.48v-2h-.34c-.13,0-.13-.06-.13-.13s0-.14.13-.14h.34v-1a.14.14,0,0,1,.28,0v1h.35A.15.15,0,0,1,233.34,274.65Z"/><path class="cls-6" d="M234.2,275.89a1.35,1.35,0,0,1,1.33-1.38,1.34,1.34,0,0,1,1.32,1.28h0a.13.13,0,0,1-.13.13h-2.25a1.09,1.09,0,0,0,1.06,1.05,1,1,0,0,0,.89-.5.12.12,0,0,1,.18,0,.14.14,0,0,1,0,.19,1.32,1.32,0,0,1-1.11.62A1.35,1.35,0,0,1,234.2,275.89Zm.28-.22h2.08a1.07,1.07,0,0,0-1-.89A1.08,1.08,0,0,0,234.48,275.67Z"/><path class="cls-6" d="M237.68,274.65a.13.13,0,0,1,.14-.13.13.13,0,0,1,.13.13v.61a.25.25,0,0,1,0-.07,1.34,1.34,0,0,1,1.1-.67.13.13,0,0,1,.13.13.13.13,0,0,1-.13.14,1,1,0,0,0-.8.45,2.56,2.56,0,0,0-.33.63.13.13,0,0,0,0,.05v1.2a.13.13,0,0,1-.13.14.14.14,0,0,1-.14-.14Z"/><path class="cls-6" d="M244.06,275.63a.86.86,0,0,0-.85-.85.85.85,0,0,0-.84.85v1.52h0s0,.05-.06.07l-.07,0h0l0,0h0v0h0v0h0v-1.5a.85.85,0,0,0-.84-.85.86.86,0,0,0-.85.85v1.5a.11.11,0,0,1-.06.1l0,0h-.06a.16.16,0,0,1-.11-.1v-2.51a.13.13,0,0,1,.13-.13.12.12,0,0,1,.13.13v.26a2.38,2.38,0,0,0,2.81-.39,1.12,1.12,0,0,1,1.12,1.11v1.5a.13.13,0,0,1-.14.13.13.13,0,0,1-.13-.13Z"/><path class="cls-6" d="M245.27,276.69a.13.13,0,0,1,.19,0,1.46,1.46,0,0,0,.84.32.83.83,0,0,0,.52-.17.43.43,0,0,0,.21-.34.46.46,0,0,0-.2-.33,1.29,1.29,0,0,0-.58-.2h0a1.46,1.46,0,0,1-.62-.21.56.56,0,0,1-.3-.49.67.67,0,0,1,.3-.54,1.18,1.18,0,0,1,.67-.19,1.55,1.55,0,0,1,.82.3.16.16,0,0,1,0,.19.14.14,0,0,1-.19,0,1.21,1.21,0,0,0-.67-.27.85.85,0,0,0-.52.15.43.43,0,0,0-.18.32.34.34,0,0,0,.16.27,1.45,1.45,0,0,0,.56.19h0a2,2,0,0,1,.67.22.66.66,0,0,1,0,1.12,1.11,1.11,0,0,1-.68.22,1.74,1.74,0,0,1-1-.39A.12.12,0,0,1,245.27,276.69Z"/><path class="cls-6" d="M251.06,274.51a1.38,1.38,0,1,1-1.3,1.38A1.35,1.35,0,0,1,251.06,274.51Zm0,2.48a1.11,1.11,0,1,0-1-1.1A1.07,1.07,0,0,0,251.06,277Z"/><path class="cls-6" d="M254.4,273.48a.13.13,0,0,1-.13.14.47.47,0,0,0-.35.1.72.72,0,0,0-.11.46v.29h.38a.13.13,0,0,1,.14.13.14.14,0,0,1-.14.14h-.38v2.39a.14.14,0,0,1-.28,0v-2.39h-.36a.14.14,0,0,1-.14-.14.14.14,0,0,1,.14-.13h.36v-.29a1,1,0,0,1,.18-.64.73.73,0,0,1,.56-.2A.13.13,0,0,1,254.4,273.48Z"/><path class="cls-6" d="M256.7,276.69a.13.13,0,0,1,.19,0,1.49,1.49,0,0,0,.84.32.86.86,0,0,0,.53-.17.39.39,0,0,0,0-.67,1.34,1.34,0,0,0-.59-.2h0a1.56,1.56,0,0,1-.62-.21.58.58,0,0,1-.3-.49.7.7,0,0,1,.3-.54,1.18,1.18,0,0,1,.67-.19,1.49,1.49,0,0,1,.82.3.14.14,0,0,1,0,.19.13.13,0,0,1-.18,0,1.27,1.27,0,0,0-.68-.27.87.87,0,0,0-.52.15.41.41,0,0,0-.17.32.32.32,0,0,0,.16.27,1.39,1.39,0,0,0,.56.19h0a2.05,2.05,0,0,1,.66.22.7.7,0,0,1,.31.56.72.72,0,0,1-.31.56,1.14,1.14,0,0,1-.69.22,1.74,1.74,0,0,1-1-.39A.13.13,0,0,1,256.7,276.69Z"/><path class="cls-6" d="M259.45,275.89a1.33,1.33,0,0,1,2.66-.1h0a.13.13,0,0,1-.14.13h-2.25a1.09,1.09,0,0,0,1.06,1.05,1,1,0,0,0,.89-.5.12.12,0,0,1,.18,0,.14.14,0,0,1,0,.19,1.31,1.31,0,0,1-1.11.62A1.35,1.35,0,0,1,259.45,275.89Zm.29-.22h2.07a1,1,0,0,0-2.07,0Z"/><path class="cls-6" d="M262.94,274.65a.13.13,0,0,1,.14-.13.13.13,0,0,1,.13.13v.61l0-.07a1.35,1.35,0,0,1,1.1-.67.13.13,0,0,1,.14.13.14.14,0,0,1-.14.14,1,1,0,0,0-.79.45,2.25,2.25,0,0,0-.33.63.13.13,0,0,0,0,.05v1.2a.14.14,0,0,1-.13.14.14.14,0,0,1-.14-.14Z"/><path class="cls-6" d="M266.27,277.23a.09.09,0,0,1,0-.06l-1-2.45a.13.13,0,0,1,.06-.17.14.14,0,0,1,.18.07l.91,2.16.91-2.16a.14.14,0,0,1,.18-.07.13.13,0,0,1,.06.17l-1,2.43a.25.25,0,0,1,0,.07.1.1,0,0,1-.08,0h-.06Z"/><path class="cls-6" d="M268.65,273.75a.14.14,0,0,1,.28,0v.13a.14.14,0,1,1-.28,0Zm0,.9a.14.14,0,1,1,.28,0v2.47a.14.14,0,0,1-.28,0Z"/><path class="cls-6" d="M270,275.88a1.39,1.39,0,0,1,1.42-1.37,1.42,1.42,0,0,1,.87.31.12.12,0,0,1,0,.18.13.13,0,0,1-.18,0,1.16,1.16,0,0,0-.7-.24,1.11,1.11,0,1,0,0,2.21,1.16,1.16,0,0,0,.7-.24.13.13,0,0,1,.18,0,.13.13,0,0,1,0,.2,1.41,1.41,0,0,1-.86.29A1.39,1.39,0,0,1,270,275.88Z"/><path class="cls-6" d="M273.13,275.89a1.33,1.33,0,0,1,2.66-.1h0a.13.13,0,0,1-.14.13H273.4a1.09,1.09,0,0,0,1.07,1.05,1,1,0,0,0,.88-.5.12.12,0,0,1,.18,0,.15.15,0,0,1,.05.19,1.33,1.33,0,0,1-1.11.62A1.36,1.36,0,0,1,273.13,275.89Zm.29-.22h2.08a1.05,1.05,0,0,0-2.08,0Z"/><rect class="cls-7" x="143.21" y="271.63" width="6.92" height="6.92"/><path class="cls-8" d="M263.7,179.9a1.46,1.46,0,1,1-1.46-1.45A1.46,1.46,0,0,1,263.7,179.9Z"/><path class="cls-8" d="M264.77,183.91h-5a2.53,2.53,0,0,1,5,0Z"/><path class="cls-8" d="M259.73,214.22c-.29-.23-.57-.47-.86-.69h6.75c-.29.22-.58.46-.86.69l-.86.7-.95.8h0l-.71.6-.7-.6h0l-.94-.8Z"/><path class="cls-8" d="M265.62,213.53v4.28h-6.75v-4.28l.82.77.84.75.87.77,0,0,0,0-.06,0-.55.34-.68.46-.65.47c-.22.17-.43.33-.63.51q.35-.19.69-.42c.23-.14.45-.3.68-.45s.44-.31.65-.48.35-.27.52-.41l0,0,.74.64,0,0,0,0,.74-.64,0,0c.17.15.34.28.52.41s.43.33.65.48.45.31.68.45a7.92,7.92,0,0,0,.69.42c-.2-.18-.41-.34-.63-.51l-.66-.47-.67-.46-.55-.34-.06,0,0,0,0,0,.87-.77.83-.75Z"/><path class="cls-8" d="M262.24,248.49a4.93,4.93,0,0,0-3.37,1.67,4.26,4.26,0,0,0,6.75,0A4.94,4.94,0,0,0,262.24,248.49Zm0,2.85a1.19,1.19,0,1,1,1.19-1.19A1.18,1.18,0,0,1,262.24,251.34Z"/><path class="cls-8" d="M263,250.16a.76.76,0,1,1-.75-.75A.75.75,0,0,1,263,250.16Z"/><rect class="cls-9" x="180.77" y="296.06" width="57.89" height="17.46"/><path class="cls-2" d="M191.41,306.19a.46.46,0,0,1,.65-.06,3,3,0,0,0,1.71.69,2,2,0,0,0,1.12-.33.81.81,0,0,0,.39-.65.55.55,0,0,0-.08-.29.84.84,0,0,0-.27-.26,3.41,3.41,0,0,0-1.23-.43h0a4.84,4.84,0,0,1-1.15-.34,2.06,2.06,0,0,1-.84-.7,1.44,1.44,0,0,1-.2-.74,1.65,1.65,0,0,1,.72-1.31,2.65,2.65,0,0,1,1.54-.47,3.51,3.51,0,0,1,2,.72.45.45,0,0,1,.12.63.45.45,0,0,1-.63.14,2.59,2.59,0,0,0-1.45-.58,1.7,1.7,0,0,0-1,.31.71.71,0,0,0-.34.56.46.46,0,0,0,.06.25,1.16,1.16,0,0,0,.25.24,3.06,3.06,0,0,0,1.12.39h0a5.31,5.31,0,0,1,1.24.38,2.12,2.12,0,0,1,.9.74,1.47,1.47,0,0,1,.21.76,1.73,1.73,0,0,1-.77,1.39,2.82,2.82,0,0,1-1.66.51,3.83,3.83,0,0,1-2.29-.9A.47.47,0,0,1,191.41,306.19Z"/><path class="cls-2" d="M197.64,302a.48.48,0,0,1,.49-.49.49.49,0,0,1,.5.49v5.29a.5.5,0,0,1-.5.49.48.48,0,0,1-.49-.49Z"/><path class="cls-2" d="M200,304.53a3.26,3.26,0,0,1,3.3-3.23,3.34,3.34,0,0,1,2,.7.51.51,0,1,1-.63.8,2.38,2.38,0,0,0-1.42-.48,2.22,2.22,0,0,0-1.61.65,2.15,2.15,0,0,0-.67,1.56,2.13,2.13,0,0,0,.67,1.54,2.19,2.19,0,0,0,1.61.66,2.54,2.54,0,0,0,1.23-.34v-1.23h-1.28a.51.51,0,0,1-.51-.51.5.5,0,0,1,.51-.5h1.78a.5.5,0,0,1,.52.5v2a.66.66,0,0,1,0,.15.09.09,0,0,1,0,.05h0a.4.4,0,0,1-.17.22,3.33,3.33,0,0,1-2,.7A3.25,3.25,0,0,1,200,304.53Z"/><path class="cls-2" d="M208.58,307.26a.5.5,0,0,1-.49.49.48.48,0,0,1-.49-.49v-5.21h0a.47.47,0,0,1,.2-.41.49.49,0,0,1,.68.11l2.89,4v-3.69a.49.49,0,0,1,.49-.48.5.5,0,0,1,.49.48v5.21a.5.5,0,0,1-.49.49.47.47,0,0,1-.37-.18l-.05-.05-2.86-4Z"/><path class="cls-2" d="M219.78,307.75a2.58,2.58,0,0,1-2.59-2.59V302a.48.48,0,0,1,.49-.49.49.49,0,0,1,.5.49v3.19a1.6,1.6,0,0,0,3.19,0V302a.49.49,0,0,1,.5-.49.48.48,0,0,1,.49.49v3.19A2.59,2.59,0,0,1,219.78,307.75Z"/><path class="cls-2" d="M226.56,305.31h-1.1v1.95a.5.5,0,0,1-1,0V302a.49.49,0,0,1,.5-.49h1.6a1.92,1.92,0,1,1,0,3.83Zm-1.1-1h1.1a.93.93,0,1,0,0-1.85h-1.1Z"/><circle class="cls-10" cx="235.49" cy="99.87" r="11.52"/><circle class="cls-1" cx="182.21" cy="142.55" r="8.08"/><path class="cls-11" d="M226.13,147.15a30.71,30.71,0,0,1-9,3.76,31.18,31.18,0,1,1,9-3.76Z"/><path class="cls-2" d="M219.23,117.06a9.49,9.49,0,1,1-9.49-9.49A9.49,9.49,0,0,1,219.23,117.06Z"/><path class="cls-2" d="M226.13,143.23v3.92a30.71,30.71,0,0,1-9,3.76,31,31,0,0,1-23.8-3.77v-3.91a16.4,16.4,0,0,1,32.79,0Z"/></g><g id="Lines"><path class="cls-6" d="M246.85,173.39a23.58,23.58,0,0,1,0-8.46,23.13,23.13,0,0,1,0,8.46Z"/><path class="cls-6" d="M240.84,176.06a23.25,23.25,0,0,1-6-6,23.25,23.25,0,0,1,6,6Z"/><path class="cls-6" d="M238.48,182.2a23.3,23.3,0,0,1-8.45,0,23.08,23.08,0,0,1,8.45,0Z"/><path class="cls-6" d="M241.16,188.21a23.25,23.25,0,0,1-6,6,23.09,23.09,0,0,1,6-6Z"/><path class="cls-6" d="M247.3,190.57a23.53,23.53,0,0,1,0,8.45,23.08,23.08,0,0,1,0-8.45Z"/><path class="cls-6" d="M253.31,187.89a23.41,23.41,0,0,1,6,6,23.09,23.09,0,0,1-6-6Z"/><path class="cls-6" d="M255.66,181.75a23.58,23.58,0,0,1,8.46,0,23.13,23.13,0,0,1-8.46,0Z"/><path class="cls-6" d="M253,175.75a23.13,23.13,0,0,1,6-6,23.44,23.44,0,0,1-6,6Z"/></g><g id="Character"><path class="cls-9" d="M298.1,87s7,48.69,6.52,53.32-6.18,49.51-6.18,49.51-12.82-2.76-16.52-5c-2.66-1.59-12.08-9.71-12.08-9.71s16-31.31,17.33-37.65,2.19-37.14,3.71-43.34a12.6,12.6,0,0,1,7.36-8.32"/><path class="cls-6" d="M283,154.54a10.61,10.61,0,0,0,3.94,4.28c.87.6,2.55,1.86,3.08.23a2.87,2.87,0,0,0-.22-1.89,10.47,10.47,0,0,0-1.82-3.09c-.94-1.15-2.5-2.67-4.14-2.38S282.54,153.43,283,154.54Z"/><path class="cls-6" d="M293.29,162.38a10,10,0,0,0,2.35,5.8c.69.72,1.49.95,2.11.45s.95-1.59,1.05-2.44a10.81,10.81,0,0,0-1.1-6c-.59-1.14-1.63-2.74-3.16-2.39C292.57,158.29,293.09,161,293.29,162.38Z"/><path class="cls-6" d="M285.46,161.6c-.87.68,0,3.3.81,4.54,1,1.58,2.73,3.37,4.16,2.69.72-.34.83-2.29-.76-4.74C288.19,161.81,286.18,161,285.46,161.6Z"/><path class="cls-6" d="M281.08,176c.34.67,1.08,1.85,1.95,1.89s1-.84,1-1.48a9.16,9.16,0,0,0-.55-2.93c-.41-1.28-1.16-2.39-2.39-2.46C278.65,170.9,280.64,175.15,281.08,176Z"/><path class="cls-12" d="M358,314s21.8,38.55,21.81,38.58c3.51,7.77,6.44,14.65,7.62,18.35a.14.14,0,0,1,0,.06,6,6,0,0,1,.51,2.66s0,.05,0,.07c-1.6,2.61-62.92,32.41-65.4,32.72s-3.6-6.74-2.14-9.8,19.84-25,19.84-25l-21.41-38.71Z"/><path class="cls-1" d="M323.52,406.19c2.48-.32,62.82-29.89,64.42-32.5,0,0,0-.05,0-.07a6,6,0,0,0-.51-2.66.11.11,0,0,0,0-.06c-1.19-3.7-4.12-10.58-7.61-18.36,0,0-3.68-6.73-5.14-9.07l-39,20.16,4.54,8s-17.38,21.68-18.85,24.73S321,406.52,323.52,406.19Z"/><path class="cls-9" d="M322.4,405.36c2.5-.38,63.59-31.85,65.15-34.53.61-1-3.45-10.17-8.69-21.11l-.16-.34-39.64,19.86.36.66s-18,22.51-19.41,25.63S319.9,405.75,322.4,405.36Z"/><path class="cls-2" d="M321.87,402.63c10.16-5.55,51.7-27,62.17-31.73.09,0,.11,0,0,.06-9.95,5.73-51.66,26.85-62.12,31.84C321.73,402.91,321.65,402.75,321.87,402.63Z"/><path class="cls-6" d="M336.17,371.73c3.66-2.85,8.94-4.78,13.52-3.49.18.05.1.31-.05.33a64.22,64.22,0,0,0-13.19,3.66A.29.29,0,0,1,336.17,371.73Z"/><path class="cls-6" d="M334.15,375c3.66-2.85,8.94-4.78,13.52-3.49.18.05.11.31,0,.33a64.49,64.49,0,0,0-13.2,3.66A.29.29,0,0,1,334.15,375Z"/><path class="cls-6" d="M332.13,378.27c3.67-2.85,8.94-4.78,13.53-3.49.17.05.1.31-.05.33a64.49,64.49,0,0,0-13.2,3.66A.29.29,0,0,1,332.13,378.27Z"/><path class="cls-2" d="M372.13,361.42c3.29-4.5,10.29.6,7,5.11S368.84,365.92,372.13,361.42Z"/><path class="cls-13" d="M336.73,373.28l-4.39,27.43a108.44,108.44,0,0,1-9.94,4.65c-2.5.39-3.78-6.72-2.39-9.83C321.08,393.17,331.66,379.68,336.73,373.28Z"/><path class="cls-6" d="M320.34,403.65c-.88,1,1.25,4.53,2.19,4.42s67.39-34.72,68.4-35.56-1.51-4.68-2.93-4.21S320.34,403.65,320.34,403.65Z"/><path class="cls-14" d="M374.78,339.87l-43.93,23.46s-55.46-79-56.57-99.81c-1.54-28.68,23-119.72,23-119.72l39.06-.27s-15.88,93.64-14.59,109.61C322.38,261.5,374.78,339.87,374.78,339.87Z"/><path class="cls-6" d="M327,354.24c2.26-1.62,23.09-13.69,38.95-21.4a.09.09,0,0,1,.08.16c-4.81,3.18-35.9,20.21-38.91,21.41C327,354.45,326.91,354.32,327,354.24Z"/><path class="cls-6" d="M316.28,233.13c1.81-13.7,3.81-27.38,6.09-41s4.69-27.38,7.56-41c.35-1.66.71-3.31,1.08-5a.2.2,0,0,1,.39.08c-2.4,13.48-4.88,27-7.09,40.46s-4.28,27.05-6.14,40.62c-.45,3.35-.9,6.72-1.34,10.08a91.83,91.83,0,0,0-1,10.46,26.9,26.9,0,0,0,1.67,9.81,57.55,57.55,0,0,0,4.5,8.81c7.07,12,38.71,64.2,39.54,65.72.05.1-.09.2-.15.1-7.6-11.78-31.16-49.42-38.32-61.57-3.23-5.48-6.94-11-8-17.42C314,246.68,315.41,239.73,316.28,233.13Z"/><path class="cls-12" d="M327.53,339.87s.45,44.56.45,44.59c-.24,8.52-.6,16-1.15,19.84a.06.06,0,0,1,0,.06,5.92,5.92,0,0,1-.71,2.61s0,0-.05.06c-2.58,1.64-70.75,1.75-73.13,1s-.29-7.64,2.35-9.75S284,384.4,284,384.4l0-44.53Z"/><path class="cls-1" d="M327.88,375.31s.1,9.12.1,9.15c-.24,8.52-.6,16-1.15,19.84a.06.06,0,0,1,0,.06,11.12,11.12,0,0,1-.71,2.61s0,0-.05.06c-2.58,1.64-70.75,1.75-73.13,1s-.29-7.64,2.35-9.75S284,384.4,284,384.4v-9.29Z"/><path class="cls-9" d="M252.91,407.9c2.41.76,71.12-.45,73.7-2.16,1-.63,1.4-10.65,1.55-22.77v-.38l-44.34.28,0,.75S257.76,395.85,255.12,398,250.49,407.14,252.91,407.9Z"/><path class="cls-2" d="M253.64,405.22c11.57-.49,58.31-1.37,69.8-1,.09,0,.09.07,0,.07-11.47.74-58.21,1.23-69.8,1.09C253.4,405.4,253.39,405.23,253.64,405.22Z"/><path class="cls-6" d="M280.13,383.82c4.54-.93,10.13-.33,13.67,2.86.14.12,0,.32-.19.27a63.9,63.9,0,0,0-13.45-2.55A.29.29,0,0,1,280.13,383.82Z"/><path class="cls-6" d="M276.88,385.86c4.54-.93,10.13-.33,13.67,2.86.13.12,0,.32-.19.27a64,64,0,0,0-13.45-2.55A.29.29,0,0,1,276.88,385.86Z"/><path class="cls-6" d="M273.62,387.9c4.54-.93,10.13-.33,13.67,2.86.14.12,0,.32-.19.27a64.54,64.54,0,0,0-13.45-2.55A.29.29,0,0,1,273.62,387.9Z"/><path class="cls-6" d="M251.81,405.45c-1.22.5-.88,4.62,0,4.94s75.8-1.34,77.07-1.64.71-4.87-.77-5.08S251.81,405.45,251.81,405.45Z"/><path class="cls-2" d="M317,390.48c4.94-2.58,8.95,5.09,4,7.67S312,393.06,317,390.48Z"/><path class="cls-14" d="M297.72,143.71a.11.11,0,0,1,0,0c.26.81,14.3,39.27,15.62,39.88,1.49.69-31,55.3-32.93,80.66-1.23,16.23,1.18,108,1.18,108h47.52s-2.28-82.54-3.37-108.7c-.42-10.14,32.63-60.63,33-92.08.13-9.91-7-28-7-28Z"/><path class="cls-6" d="M325.49,262.93c0-.42.33-.56.36-.13,1.07,14.15,1.32,28.23,2,42.41s.29,17.54.92,31.68c.36,8,0,16,.2,24,0,.12-.18.14-.19,0C327.3,346.83,325.5,270.94,325.49,262.93Z"/><path class="cls-6" d="M280.43,264.85a68.66,68.66,0,0,1,1-10.42,51.43,51.43,0,0,1,2.93-9.78c2.63-6.62,5.73-13.08,8.7-19.55s6.07-13.09,9.24-19.57q2.67-5.46,5.37-10.91c1.83-3.67,3.8-7.28,5.71-10.91a.13.13,0,0,1,.23.11c-3.05,6.54-6.05,13.1-9.1,19.64s-6,13.11-9,19.67-5.89,12.92-8.67,19.45a65.24,65.24,0,0,0-3.39,9.61A57.24,57.24,0,0,0,282,262.54c-.46,8.12-.68,16.26-1.48,24.36,0,.1-.18.09-.18,0C280.09,279.56,280.2,272.18,280.43,264.85Z"/><path class="cls-6" d="M285.05,362.94c2.76-.36,23.82-1.09,41.43-.34a.09.09,0,0,1,0,.18c-5.74.51-38.18.73-41.41.36C285,363.13,284.92,363,285.05,362.94Z"/><path class="cls-6" d="M306.79,181.5a91,91,0,0,1,14.86,5.15.16.16,0,0,1-.1.31c-5-1.57-10.07-3-15-4.86A.32.32,0,0,1,306.79,181.5Z"/><path class="cls-6" d="M302,148.92c0-.16.28-.23.3,0a160,160,0,0,0,2.43,15.88c.48,2.44,3.85,15.83,8,14.41.69-.24,1-1,1-2.07a17.2,17.2,0,0,0-1-4.12c-.76-2.79-1.43-5.61-2-8.46a78.49,78.49,0,0,1-1.48-16.11.14.14,0,0,1,.28,0,148.51,148.51,0,0,0,3.57,22.08c.9,3.48,3.23,8.62-.42,9.54s-7.06-7.73-7.77-10.12A81.59,81.59,0,0,1,302,148.92Z"/><path class="cls-6" d="M312.67,179.53a23.78,23.78,0,0,1,1.25,2.72,6.42,6.42,0,0,1,.63,2.28.16.16,0,0,1-.28.09,8.17,8.17,0,0,1-1.23-2.15c-.41-.84-.84-1.67-1.23-2.52A.48.48,0,0,1,312.67,179.53Z"/><path class="cls-6" d="M320.62,276.89c-.24-6.76-1-13.84,1.22-20.36a67.71,67.71,0,0,1,4.34-9.25q2.47-4.77,4.85-9.58c6.35-12.82,12.33-25.85,17.68-39.13,2.57-6.39,4.87-12.95,5.79-19.81a60.9,60.9,0,0,0-1.33-21.56c-.4-1.76-.82-3.51-1.31-5.25,0-.13.16-.2.2-.07a71,71,0,0,1,3.71,20.62,58.21,58.21,0,0,1-3.58,19.7c-2.28,6.63-5.13,13.08-7.94,19.5q-4.35,9.93-9,19.71c-3.11,6.48-6.42,12.85-9.71,19.24a35.07,35.07,0,0,0-3.64,9.71,49.16,49.16,0,0,0-.39,10.64c.56,14.95,1.84,64.69,2,79.6,0,1.89.05,3.78.07,5.67a.13.13,0,0,1-.26,0C322.37,341.42,321.16,291.79,320.62,276.89Z"/><path class="cls-6" d="M331.28,153.39c0-.11.17-.08.18,0,.56,4.11.88,8.38,2.87,12.11,1.82,3.43,5,5.63,8.46,7.18A61.59,61.59,0,0,0,349,175c.15,0,.12.29,0,.25-3.93-.81-7.92-1.73-11.34-3.94-3.66-2.36-5.54-6.14-6.14-10.38A36.16,36.16,0,0,1,331.28,153.39Z"/><path class="cls-1" d="M354.21,146.72c-.09.19-62.6,17.22-63.3,16.76-.06,0-2.65-1.43-3.21-6.27-.15-1.32,1.63-7,1.67-11.26.14-14.81-.44-42.31,3.59-57.08,1.08-4,9.63-8.52,14.32-5.63C328.42,96.23,354.33,146.47,354.21,146.72Z"/><path class="cls-9" d="M304.14,82.08s2.33,31.53,3.16,35.19c.58,2.56,7.66,28.3,11.3,46.9,1.56,8,.84,20.51.84,20.51s21.76-7.07,28.43-11.61c3.87-2.63,12.47-14,12.47-14S346.56,128.49,338.75,117,316,85.67,309,82.77C305.8,81.45,304.14,82.08,304.14,82.08Z"/><path class="cls-6" d="M343.11,135.14a3.52,3.52,0,0,0-1.86,2.75,11.13,11.13,0,0,0-.47,5c.13.91.53,2.24,1.71,2s1.81-2.24,2.12-3.25S345.84,134,343.11,135.14Zm-9.27,7.66c-1.28,1.06-1.14,3.24-.87,4.69a10.35,10.35,0,0,0,1.16,3.39,3,3,0,0,0,1.3,1.4c1.59.65,1.72-1.45,1.83-2.5a10.63,10.63,0,0,0-.7-5.77C336,142.92,335,141.82,333.84,142.8Zm4.49-12.18c-1-.12-1.53.63-1.81,1.62a9.32,9.32,0,0,0-.39,3.56c.08.73.24,2,1.05,2.3s1.46-.53,1.75-1.18C339.45,135.72,340.49,130.9,338.33,130.62Zm-15.16,50.95c-.77,1.57-2.34.27-3.6-1.26h0c0-1.81.05-4,0-6.36l.34.28a11.15,11.15,0,0,1,2.89,4.05A3.52,3.52,0,0,1,323.17,181.57Zm7.19-.7-2.29.83a9.91,9.91,0,0,1-2.91-4.21c-.2-.68-.29-1.75.55-2s1.76.56,2.3,1.05a9.13,9.13,0,0,1,2,2.95A2.74,2.74,0,0,1,330.36,180.87Zm-5.89-54c1-.05,1.84,1.3,2.26,2a9.78,9.78,0,0,1,1.24,3.8c.1.77.38,2.39-.34,3s-1.71-.1-2.33-1.21a8.82,8.82,0,0,1-1.85-5.55C323.46,128.2,323.54,126.93,324.47,126.87Zm7.12,28c-1.26.93-.71,2.76-.23,4a10.73,10.73,0,0,0,3.83,4.7c.71.49,1.78,1.07,2.54.79s1.12-.9,1-1.9a10,10,0,0,0-2.89-5.55C334.93,155.84,333.22,153.7,331.59,154.91Zm7.92.34c.84,2.8,2.39,4,3.12,3.66,1.45-.64,1.19-3.1.65-4.91-.42-1.42-1.84-3.78-2.93-3.56C339.45,150.62,338.74,152.66,339.51,155.25Zm-28.92-49a10.25,10.25,0,0,1-1.65,3.18,7.64,7.64,0,0,1-2.34,2.25c-.17-1.65-.35-3.56-.52-5.58h0a16.47,16.47,0,0,1,1.56-1.34c.84-.65,2.44-2,3.07-.4A3,3,0,0,1,310.59,106.25Zm4.67-.94c1.55.27,2.49-1.39,3-2.56a10.72,10.72,0,0,0,.76-6c-.14-.85-.46-2-1.18-2.38s-1.43-.19-2.08.57a10,10,0,0,0-2,5.92C313.64,102.25,313.26,105,315.26,105.31Zm-5.22-6c-1.34,2.35-3.31,3.24-4.06,2.72a.8.8,0,0,1-.29-.4s0,0,0,0c0-.39-.07-.79-.11-1.19v0a8.53,8.53,0,0,1,.95-3c.94-1.64,2.55-3.52,4-2.92C311.28,94.86,311.49,96.8,310,99.34Zm42.18,55.1c-.75,1-.4,2.28.32,3.42a9.48,9.48,0,0,0,1.87,2.33c.48.42,1.27.85,1.77.2s.12-2-.17-2.72C355.64,156.78,353.7,152.5,352.22,154.44Zm-19.59-33.58a2.45,2.45,0,0,0-.68,2.73,7.54,7.54,0,0,0,.82,2.3c.26.46.75,1,1.32.63s.63-1.53.59-2.14C334.64,123.59,334.29,119.77,332.63,120.86Z"/><path class="cls-12" d="M297.46,98.26c3.53-.84,6.51-10.12,6.68-15.1,0-.34-1.32-2-3.39-5.27-1.25-2-2.6-4.25-3.68-6.4L285.25,81.54a38.24,38.24,0,0,1,5.45,7.58,5.63,5.63,0,0,1,.35.93s0,.1.06.16C291.68,92,294.05,99.07,297.46,98.26Z"/><path class="cls-6" d="M292.62,92.16c-.24.13-.48.24-.71.35-.38-1-.66-1.82-.81-2.3a1.56,1.56,0,0,0-.05-.16,5.63,5.63,0,0,0-.35-.93,38.24,38.24,0,0,0-5.45-7.58l11.82-10.05c.23.45.46.9.71,1.36C299.15,77.78,300.72,87.86,292.62,92.16Z"/><path class="cls-12" d="M291.37,57c3.88,4,8.39,19.05,6.57,23.84-2.64,7-10.46,11.48-17.24,7.5C274.12,84.5,268.59,64.81,271,60.1,274.43,53.15,285.64,51.07,291.37,57Z"/><path class="cls-6" d="M282.27,72.68s.1,0,.11.06c.33,1,.89,2.1,1.9,2.1,0,0,.05,0,0,0C283.14,75.14,282.43,73.69,282.27,72.68Z"/><path class="cls-6" d="M282.78,71.32c1.55-.71,2.85,2.44,1.41,3.1S281.48,71.91,282.78,71.32Z"/><path class="cls-6" d="M276.67,75.05s-.06.08,0,.12c.43,1,.77,2.14,0,2.83,0,0,0,.07,0,0C277.69,77.45,277.23,75.89,276.67,75.05Z"/><path class="cls-6" d="M275.37,74.39c-1.62.53-.44,3.73,1.06,3.24S276.73,74,275.37,74.39Z"/><path class="cls-6" d="M283.22,68.76a10.87,10.87,0,0,1-1.4.12,2.29,2.29,0,0,1-1.44-.15.72.72,0,0,1-.25-.85,1.77,1.77,0,0,1,1.57-.9,2.6,2.6,0,0,1,1.84.41A.77.77,0,0,1,283.22,68.76Z"/><path class="cls-6" d="M273.07,72.24a12.93,12.93,0,0,0,1.11-.84,2.28,2.28,0,0,0,1-1.08.73.73,0,0,0-.37-.8,1.82,1.82,0,0,0-1.78.37,2.67,2.67,0,0,0-1.1,1.55A.77.77,0,0,0,273.07,72.24Z"/><path class="cls-6" d="M287.15,80.85c-.14.32-.25.73-.59.91a2.81,2.81,0,0,1-1.15.19s-.05,0,0,.07a1.42,1.42,0,0,0,1.46,0,1.12,1.12,0,0,0,.41-1.18C287.25,80.79,287.17,80.8,287.15,80.85Z"/><path class="cls-6" d="M284.91,78.35a3.63,3.63,0,0,1-1.61,2.4,4.45,4.45,0,0,1-1.17.54.73.73,0,0,1-.24.07l-.23.06a.26.26,0,0,1-.28-.14h0l0-.1h0l0-.08c-.33-.75-.73-1.92-.73-1.92-.22.25-1.36,1.46-1.5,1.06a54.07,54.07,0,0,1-2.87-10.6.1.1,0,0,1,.19-.05c1.23,3.16,1.9,6.51,3.09,9.71a6.56,6.56,0,0,1,1.37-1.13c.12,0,.74,2.28.91,2.61l0,0a5,5,0,0,0,3-2.49C284.83,78.21,284.94,78.25,284.91,78.35Z"/><path class="cls-6" d="M296.89,71.49C294,72,291.64,65,291.64,65s-3.87-.16-7.05-6.16c0,0-.29,7-12.23,9.43a10.37,10.37,0,0,1-1.13-6.26,43.45,43.45,0,0,0-.86,7.14s-5.89-8.64,1.16-14.69c2.8-2.4,7.81-3.75,16.52-2.51,0,0,0-5,1-4.65s.77,5,.77,5,3-2.1,3.73-1.6-2.22,2.31-2.22,2.31a6.86,6.86,0,0,1,6.63,6C299,64.7,298.32,71.23,296.89,71.49Z"/><path class="cls-6" d="M290.41,53.31a6.27,6.27,0,0,1,7.73,3,11.66,11.66,0,0,1,.94,5.19,21.71,21.71,0,0,1-.89,5.48c0,.1-.18,0-.15-.06a16.53,16.53,0,0,0,.5-5.06,15.31,15.31,0,0,0-.77-4.8,6,6,0,0,0-7.31-3.61C290.37,53.51,290.32,53.35,290.41,53.31Z"/><path class="cls-6" d="M277.56,50.76a24.17,24.17,0,0,1,6.3.22,17.58,17.58,0,0,1,5.73,1.71.08.08,0,0,1-.06.15,31.78,31.78,0,0,0-11.36-1.31c-3.53.14-7.36,1.4-9,4.84a0,0,0,0,1-.09,0C270.41,52.85,274.08,51.14,277.56,50.76Z"/><path class="cls-12" d="M294.18,70.21s1-6,3.54-5.89,3.38,7.79,1.42,9.84a2.7,2.7,0,0,1-3.89.27Z"/><path class="cls-6" d="M297.9,66.52s.07,0,0,.06c-1.35,1.49-1.48,3.48-1.31,5.39a1.49,1.49,0,0,1,1.83-1.34c.06,0,.05.1,0,.11a1.68,1.68,0,0,0-1.4,1.32,8.21,8.21,0,0,0-.14,1.72c0,.18-.31.24-.34,0v0C295.49,71.65,295.7,67.85,297.9,66.52Z"/><path class="cls-12" d="M316.85,97.37c5.07,17.76,8.29,51.21,5.72,57.29-2.28,5.37-19.41,17.88-29.26,24.56-3.21,2.18-18.75-22.38-15.2-24.52,4.84-2.91,22.19-14.37,22.61-15.61s2-26.38,4.67-40.79C307.79,85.23,314.94,90.65,316.85,97.37Z"/><path class="cls-12" d="M245.34,183.66c2.42,2.47,8-4,8-4A6.39,6.39,0,0,0,254,184c1.33,2.27,5.48,1.17,5.48,1.17a7.88,7.88,0,0,0,1.35,4.44c1.5,2,5.84,1.53,5.84,1.53a6.91,6.91,0,0,0,3.65,3.15c4.22,1.38,9.13-3.36,12.76-5.7A52,52,0,0,0,294.24,178L279.66,154.3s-20.64,5.14-24.11,8.91C252.63,166.38,241.63,179.87,245.34,183.66Z"/><path class="cls-6" d="M253.34,179.52c2.29-4.12,5.57-7.68,8.77-11.08.07-.08.18,0,.11.11-3.22,3.35-5.62,7.64-8.7,11.1A.11.11,0,0,1,253.34,179.52Z"/><path class="cls-6" d="M259.28,184.78a11.85,11.85,0,0,1,2.15-2.38c.82-.79,1.66-1.57,2.51-2.33,1.69-1.53,3.42-3,5.19-4.45.08-.07.19,0,.12.11-1.69,1.52-3.35,3.07-5,4.67-.81.79-1.62,1.6-2.42,2.41A14.33,14.33,0,0,1,259.5,185,.16.16,0,0,1,259.28,184.78Z"/><path class="cls-6" d="M266.7,191a8.45,8.45,0,0,1,2.05-2l2.35-2c1.56-1.38,3.11-2.76,4.62-4.19a.09.09,0,0,1,.12.12c-1.53,1.46-3,2.94-4.57,4.38-.75.71-1.51,1.42-2.28,2.12a7.82,7.82,0,0,1-2.23,1.74S266.68,191.06,266.7,191Z"/><path class="cls-9" d="M325.89,138.37l-27.57.34s3.55-30.39,7.35-43.62c3.2-11.12,9.86-10.1,13.52,4.25C322.65,112.93,325.89,138.37,325.89,138.37Z"/><path class="cls-6" d="M325.39,134.59l-.09-.15a8.8,8.8,0,0,1-1.85-5.55c0-.63.08-1.77.83-2C324.74,129.93,325.11,132.6,325.39,134.59Zm-21.45-25.35a10.66,10.66,0,0,1,3.7-4.5c.84-.64,2.45-2,3.07-.4a3,3,0,0,1-.12,1.91,10,10,0,0,1-1.65,3.18c-.86,1.2-2.34,2.8-4,2.61S303.52,110.37,303.94,109.24Zm9.81-8.4a10,10,0,0,1,2-5.92c.65-.76,1.44-1,2.08-.57s1,1.53,1.18,2.38a10.72,10.72,0,0,1-.76,6c-.53,1.17-1.47,2.83-3,2.56C313.26,105,313.64,102.25,313.75,100.84ZM306,102.06c-.91-.64-.19-3.3.55-4.58.93-1.64,2.54-3.52,4-2.92.74.3.95,2.24-.5,4.78C308.7,101.69,306.74,102.58,306,102.06Zm-1.64,28.22c-.15.73-.56,2.06-1.4,2.33s-1.18-.56-1.34-1.18a9.27,9.27,0,0,1-.22-3c.06-1.34.51-2.61,1.68-3C305.39,124.71,304.56,129.33,304.35,130.28Z"/><path class="cls-6" d="M302,133a42.79,42.79,0,0,1,5.28-.4c1.82-.1,3.64-.13,5.46-.17s9.06.08,10.87.11c.08,0,.07.14,0,.15-1.83.1-9.05.51-10.84.54s-3.56.08-5.34.05a46.52,46.52,0,0,1-5.42-.19S302,133,302,133Z"/><path class="cls-6" d="M320.34,104.32c2.47,11.27,4.83,22.65,5.67,34.17-1,0-1.93-.05-2.9-.09l2.78-.15c-1.83-10.43-4-22.94-5.55-33.93Z"/><path class="cls-6" d="M321.58,105.84a9.62,9.62,0,0,1,0,5.24,23.54,23.54,0,0,1,0-5.24Z"/></g><g id="Plant"><path class="cls-11" d="M58.92,346.26s17.1-3.88,26.47-12.51S100,309.64,100,309.64a146.05,146.05,0,0,0-19.18,5,32.29,32.29,0,0,0-5.8,8.2A39.44,39.44,0,0,1,75,317a26.16,26.16,0,0,0-6.09,3.69C61.11,327.51,58.92,346.26,58.92,346.26Z"/><path class="cls-6" d="M89.32,317.16c2.33-1.61,4.7-3.17,7-4.8.14-.09,0-.31-.15-.22-4.4,2.63-8.75,5.44-13,8.39-1.46,1-2.9,2.09-4.32,3.18.09-.17.19-.34.29-.5.52-.86,1.06-1.71,1.6-2.55a35.74,35.74,0,0,1,3.63-4.84c0-.06,0-.14-.09-.08-1.33,1.53-2.66,3.05-3.87,4.68-.58.77-1.11,1.58-1.63,2.4-.26.42-.52.85-.77,1.29l-.25.44c-2.21,1.74-4.37,3.55-6.42,5.46-1.27,1.18-2.49,2.41-3.67,3.67.66-2.07,1.24-4.16,2-6.2,0-.07-.09-.1-.11,0-.75,2.14-1.56,4.29-2.14,6.48-1.31,1.42-2.56,2.88-3.74,4.41l.06-.28c.2-.8.4-1.61.61-2.41.42-1.55.88-3.08,1.4-4.6a26.68,26.68,0,0,1,4.59-8.67c0-.06,0-.14-.08-.08A33.31,33.31,0,0,0,63.79,336c-.19.73-.36,1.46-.52,2.19-.09.39-.19.79-.26,1.18-.52.7-1,1.41-1.51,2.13a74.68,74.68,0,0,0-7.24,14.19,167.2,167.2,0,0,0-5.48,17.08.09.09,0,0,0,.18.05c3.34-10,6.76-20.16,12.48-29.1a66,66,0,0,1,3.91-5.46,32.26,32.26,0,0,0,8.31-1.66,36.48,36.48,0,0,0,8.34-4,51.29,51.29,0,0,0,4.27-3.22c.06-.05,0-.15-.07-.09A34.43,34.43,0,0,1,78.36,334a42.3,42.3,0,0,1-8.63,2.89c-1.26.28-2.54.48-3.82.66a72,72,0,0,1,5-5.59c.58-.58,1.18-1.13,1.77-1.68A39.57,39.57,0,0,1,79,326.63c2.8-1.36,5.56-2.79,8.33-4.2,1.57-.8,3.12-1.61,4.7-2.38.07,0,0-.14-.06-.1-2.81,1.35-5.67,2.62-8.5,3.92-2.67,1.23-5.37,2.45-7.94,3.89l-.32.2c2.32-2,4.71-3.94,7.17-5.8Q85.81,319.59,89.32,317.16Z"/><path class="cls-6" d="M88.35,326c-1.39.61-2.81,1.15-4.18,1.79s-2.76,1.44-4.11,2.23a.05.05,0,0,0,.06.09c1.36-.65,2.74-1.26,4.09-1.94s2.75-1.44,4.17-2.06C88.45,326.06,88.42,326,88.35,326Z"/><path class="cls-11" d="M3.37,260.09a24.4,24.4,0,0,1,5.11,14.2c.06,1.53-.19,3.67-.36,6.18A40.47,40.47,0,0,1,19.27,290,20.13,20.13,0,0,0,8,287.31a34.52,34.52,0,0,0,.65,5.11,19.15,19.15,0,0,1,7.25,1.43,16.31,16.31,0,0,0-6.54,1.3c3.05,9.7,12.11,19.66,37.13,23.89a52.48,52.48,0,0,0-4.43-35.21C34.56,269.09,3.37,260.09,3.37,260.09Z"/><path class="cls-6" d="M55.15,360.54c-.43-4.15-1-8.28-1.62-12.39a248.4,248.4,0,0,0-5-24.49,98.85,98.85,0,0,0-3.62-11.16,16.91,16.91,0,0,0,.1-2c0-.8,0-1.6,0-2.4,0-1.6-.09-3.2-.23-4.8a57.35,57.35,0,0,0-1.54-9.38c-.46-1.78-1-3.54-1.51-5.3a.06.06,0,0,0-.11,0A71.05,71.05,0,0,1,43.44,298a89.47,89.47,0,0,1,.84,9.39c0,.86,0,1.72,0,2.58,0,.37,0,.74,0,1.11a83.41,83.41,0,0,0-4.22-8.73,106.59,106.59,0,0,0-8.56-12.81,5.16,5.16,0,0,0-.21-1.4L31,286.47c-.26-1.14-.55-2.28-.86-3.41-.62-2.27-1.44-4.46-2.15-6.7,0-.07-.13,0-.11,0,.66,2.21,1.1,4.51,1.61,6.76.25,1.12.49,2.24.74,3.35l.36,1.68a.5.5,0,0,0,0,.12q-1.51-1.9-3.1-3.77c-4.78-5.6-10-10.77-15.29-15.9-.65-.63-1.31-1.25-2-1.87,0,0-.13,0-.08.09,5,5.25,10,10.57,14.7,16.13q1.68,2,3.3,4l-1.71-1.13C25,284.93,23.48,284,22,283.15s-3.05-1.68-4.61-2.45-3.32-1.45-4.86-2.35c-.07,0-.13.08-.06.1A36.79,36.79,0,0,1,17,281c1.53.91,3.05,1.82,4.54,2.76s2.95,1.86,4.41,2.81c1.22.79,2.42,1.65,3.68,2.38a117.65,117.65,0,0,1,8,11.67,85.21,85.21,0,0,1,4.14,7.85l-.9-.38-2.29-1c-1.47-.66-3-1.29-4.43-1.93-2.8-1.22-5.65-2.35-8.4-3.68a37.94,37.94,0,0,1-4.5-2.5c-.06,0-.11.06-.05.1,5.13,3.54,10.88,6,16.56,8.54l2.46,1.09c.67.3,1.35.64,2.05.9a88.09,88.09,0,0,1,4.23,11.59A235.81,235.81,0,0,1,52,345.37c1.44,8.17,2.41,16.39,3.16,24.66q.14,1.55.3,3.09a.33.33,0,0,0,.65,0C56,368.91,55.59,364.7,55.15,360.54Z"/><path class="cls-6" d="M39.93,291.44c-.46-2.54-1.14-5-1.82-7.52,0-.07-.13,0-.11,0,.63,2.44,1.08,4.93,1.54,7.41s.89,5.07,1.24,7.62c0,0,.07,0,.07,0A65.93,65.93,0,0,0,39.93,291.44Z"/><path class="cls-6" d="M29.15,298.34a45.37,45.37,0,0,0-5.44-3.06c-.91-.47-1.84-.92-2.76-1.37s-1.94-.84-2.89-1.32c-.07,0-.12.07,0,.1.91.46,1.78,1,2.68,1.51l2.78,1.52c1.82,1,3.62,2.07,5.54,2.87A.14.14,0,0,0,29.15,298.34Z"/><path class="cls-15" d="M59.23,316.64s15.82-3.78,23.09-14.4c6.94-10.13,9.18-27.41,9.36-28.93-.29,1.39-3.55,16.49-14.33,23.53C69.11,302.23,61.14,306.66,59.23,316.64Z"/><path class="cls-6" d="M73.83,289.3A20.2,20.2,0,0,0,68,298.91a0,0,0,1,0,0,0,23.61,23.61,0,0,1,5.86-9.53C74,289.33,73.89,289.25,73.83,289.3Z"/><path class="cls-11" d="M59.23,316.64s15.82-3.78,23.09-14.4c6.94-10.13,9.18-27.41,9.36-28.93a.87.87,0,0,0,0-.11S84.11,284,76.13,286.74,56.94,299,59.23,316.64Z"/><path class="cls-6" d="M88.89,279.15A66,66,0,0,1,84,287.52a33.56,33.56,0,0,1-6.51,6.69c-2.15,1.71-4.42,3.26-6.6,4.93l0-.08c.41-.6.85-1.19,1.3-1.77.9-1.16,1.89-2.25,2.89-3.33,2-2.13,4-4.23,5.73-6.54a23.57,23.57,0,0,0,2.54-4.08c0-.07-.08-.11-.11,0-2.56,5.35-7.69,8.77-11.35,13.29a22.25,22.25,0,0,0-1.46,2,7.62,7.62,0,0,0-.91,1.6,33.6,33.6,0,0,0-5.4,5.46,21.18,21.18,0,0,1,.64-3.07,15.33,15.33,0,0,1,1.67-4c0-.06-.06-.13-.09-.06a18.94,18.94,0,0,0-1.85,4,14.32,14.32,0,0,0-.58,3.42h0a31.28,31.28,0,0,0-2.14,3.32c.06-.34.13-.68.2-1,.31-1.58.66-3.15,1.07-4.71a28.27,28.27,0,0,1,3.8-8.91.06.06,0,0,0-.1-.07,34,34,0,0,0-4.21,8.73c-.51,1.55-.91,3.13-1.27,4.72-.17.78-.33,1.56-.47,2.34-.08.41-.17.82-.24,1.24A56.77,56.77,0,0,0,57,322.3a155.51,155.51,0,0,0-3.38,20,167.6,167.6,0,0,0-1.09,21.25c0,.89.07,1.77.12,2.66,0,.23.35.27.36,0,.16-3.51.25-7,.46-10.53s.51-7,.89-10.51a186.19,186.19,0,0,1,3.29-20.46c1.29-5.78,3-11.61,6.11-16.67a31.49,31.49,0,0,1,5.71-6.79c2.22-2,4.64-3.74,7-5.58a38.55,38.55,0,0,0,6.41-6.16,50.37,50.37,0,0,0,5-8.17L89,279.22C89,279.15,88.92,279.08,88.89,279.15Z"/><path class="cls-6" d="M86.16,281.47a53.6,53.6,0,0,1-3.53,6.16,0,0,0,0,0,.08.05,43.92,43.92,0,0,0,3.56-6.17C86.3,281.44,86.19,281.4,86.16,281.47Z"/><path class="cls-11" d="M1.16,309.64s-.25,22.49,13.2,29S35,339.7,44.15,341.88h0c-.35-.54-6.87-9.91-17.24-12.49C16.22,326.72,4.4,319,1.16,309.64Z"/><path class="cls-13" d="M1.16,309.64s-.25,22.49,13.2,29S35,339.7,44.15,341.88h0a50.44,50.44,0,0,0-15.29-4.51C20.37,336.34,4.17,330.81,1.16,309.64Z"/><path class="cls-6" d="M45,342.28a22.31,22.31,0,0,0-5.35-3.62c-.28-.14-.58-.25-.87-.38s-.3-.35-.46-.52q-.6-.63-1.26-1.2a20,20,0,0,0-2.71-1.95c-2.22-1.31-4.66-2.22-6.94-3.44-.07,0-.12.07-.06.1,1.13.59,2.22,1.23,3.31,1.87s2.16,1.21,3.2,1.88a24.64,24.64,0,0,1,2.66,2l.69.66a35.88,35.88,0,0,0-4.55-1.21c-2.46-.5-4.95-.85-7.4-1.37a36.1,36.1,0,0,1-3.57-1c-1.12-.9-2.23-1.8-3.29-2.77A27.57,27.57,0,0,1,15,327.52c-.05-.06-.15,0-.1.06a41.24,41.24,0,0,0,5.51,6.08c-.58-.22-1.15-.45-1.72-.71a27.82,27.82,0,0,1-11.46-9.53.05.05,0,1,0-.09.06,31.39,31.39,0,0,0,9.26,8.89,27.83,27.83,0,0,0,5.86,2.78,55,55,0,0,0,7.28,1.72,50.84,50.84,0,0,1,7.12,1.69,21.41,21.41,0,0,1,6,3.15,27.89,27.89,0,0,1,8.06,10,50.09,50.09,0,0,1,4.43,16.44c0,.24.4.24.39,0C54.84,358.68,52.32,348.84,45,342.28Z"/><path class="cls-6" d="M29.43,334.94a7.8,7.8,0,0,0-2.76-2.5,10.19,10.19,0,0,1-3.29-2.72c-.05-.06-.15,0-.1.06a11.08,11.08,0,0,0,2.9,2.6A10.18,10.18,0,0,1,29.35,335C29.38,335.05,29.46,335,29.43,334.94Z"/><polygon class="cls-10" points="36.56 358.87 37.17 371.24 39.05 409.02 67.25 409.02 69.13 371.24 69.74 358.87 36.56 358.87"/><polygon class="cls-6" points="36.56 358.87 37.17 371.24 69.13 371.24 69.74 358.87 36.56 358.87"/><rect class="cls-10" x="34.59" y="353.71" width="37.13" height="11.8" transform="translate(106.3 719.22) rotate(180)"/></g></svg>