<svg xmlns="http://www.w3.org/2000/svg" viewBox="0 0 429.51 442.1"><defs><style>.cls-1{fill:#ebebeb;}.cls-2{fill:#fff;}.cls-3{fill:#c7c7c7;}.cls-4,.cls-5{fill:none;stroke-miterlimit:10;}.cls-4{stroke:#ebebeb;}.cls-5{stroke:#dbdbdb;}.cls-6{fill:#65a8af;}.cls-7{fill:#263238;}.cls-8{fill:#37474f;}.cls-9{fill:#455a64;}.cls-10{fill:#a6a6a6;}.cls-11{fill:#f37b6d;}.cls-12{fill:#ffc4c0;}.cls-13,.cls-17{opacity:0.1;}.cls-14{opacity:0.2;}.cls-15{fill:#ff9bbc;}.cls-16{fill:#dbdbdb;}</style></defs><g id="Background_Complete" data-name="Background Complete"><path class="cls-1" d="M64.38,190.75a28.28,28.28,0,0,1-29.73,0,28.26,28.26,0,1,1,29.73,0Z"/><path class="cls-2" d="M58.12,163.48a8.6,8.6,0,1,1-8.6-8.6A8.6,8.6,0,0,1,58.12,163.48Z"/><path class="cls-2" d="M64.38,187.2v3.55a28.28,28.28,0,0,1-29.73,0V187.2a14.87,14.87,0,0,1,29.73,0Z"/><path class="cls-1" d="M26.63,73.41a3.16,3.16,0,0,1,3.3,0c.28.17.56.33.85.48s.58.3.88.44a3.16,3.16,0,0,1,1.84,2.73l.12,4.07,13.24-.42-.13-4.06a3.16,3.16,0,0,1,1.66-2.85,18.07,18.07,0,0,0,1.68-1,3.15,3.15,0,0,1,3.29-.21l3.57,1.92,6.26-11.67-3.57-1.92A3.16,3.16,0,0,1,58,58.06a16.37,16.37,0,0,0-.06-2,3.16,3.16,0,0,1,1.46-3L62.82,51l-7-11.25-3.47,2.15a3.14,3.14,0,0,1-3.29,0c-.27-.17-.56-.33-.84-.48l-.87-.44a3.17,3.17,0,0,1-1.85-2.74l-.12-4.06-13.24.41.13,4.05a3.13,3.13,0,0,1-1.66,2.85A19.6,19.6,0,0,0,29,42.49a3.15,3.15,0,0,1-3.29.21l-3.57-1.92L15.83,52.46l3.57,1.91A3.13,3.13,0,0,1,21,57.23a18.72,18.72,0,0,0,.07,2,3.16,3.16,0,0,1-1.46,3L16.2,64.3l7,11.25Zm3.31-20.89A10.85,10.85,0,1,1,34.38,67.2,10.87,10.87,0,0,1,29.94,52.52Z"/><path class="cls-1" d="M391.52,311.57a2.23,2.23,0,0,1,2.05-1.08c.23,0,.45,0,.68,0s.46,0,.69,0a2.22,2.22,0,0,1,2,1.08L398.4,314l8-4.64L405,306.93a2.19,2.19,0,0,1,.08-2.31,12.71,12.71,0,0,0,.69-1.19,2.21,2.21,0,0,1,2-1.22h2.84v-9.28h-2.84a2.21,2.21,0,0,1-2-1.22,12.71,12.71,0,0,0-.69-1.19,2.21,2.21,0,0,1-.08-2.32l1.42-2.46-8-4.64L397,283.58a2.17,2.17,0,0,1-2,1.07h-1.37a2.2,2.2,0,0,1-2.05-1.08l-1.42-2.47-8,4.64,1.42,2.46a2.19,2.19,0,0,1-.08,2.31q-.37.58-.69,1.2a2.21,2.21,0,0,1-2,1.22h-2.84v9.28h2.84a2.21,2.21,0,0,1,2,1.22q.31.61.69,1.2a2.19,2.19,0,0,1,.08,2.31l-1.42,2.46,8,4.64Zm-4.87-14a7.6,7.6,0,1,1,7.6,7.6A7.61,7.61,0,0,1,386.65,297.57Z"/><path class="cls-1" d="M60.55,97a2.21,2.21,0,0,1,1.08,2c0,.23,0,.46,0,.69s0,.46,0,.68a2.2,2.2,0,0,1-1.08,2l-2.46,1.43,4.63,8,2.47-1.42a2.19,2.19,0,0,1,2.31.08,11.7,11.7,0,0,0,1.2.69,2.2,2.2,0,0,1,1.21,2v2.84h9.28v-2.84a2.21,2.21,0,0,1,1.22-2q.61-.31,1.2-.69a2.19,2.19,0,0,1,2.31-.08l2.46,1.42,4.64-8-2.48-1.43a2.21,2.21,0,0,1-1.07-2c0-.23,0-.46,0-.68s0-.46,0-.69a2.21,2.21,0,0,1,1.08-2L91,95.56l-4.64-8L83.92,89a2.19,2.19,0,0,1-2.31-.08,11.7,11.7,0,0,0-1.2-.69,2.21,2.21,0,0,1-1.22-2V83.38H69.91v2.84a2.2,2.2,0,0,1-1.22,2q-.61.31-1.2.69a2.19,2.19,0,0,1-2.31.08l-2.46-1.42-4.63,8Zm14-4.88A7.6,7.6,0,1,1,67,99.72,7.61,7.61,0,0,1,74.55,92.11Z"/><rect class="cls-1" x="353.85" y="26.19" width="55.45" height="67.26"/><rect class="cls-2" x="360.18" y="32.33" width="42.78" height="54.98"/><rect class="cls-3" x="360.18" y="32.33" width="1.67" height="54.98"/><rect class="cls-3" x="409.29" y="26.19" width="1.67" height="67.26"/><rect class="cls-1" x="382.52" y="45.04" width="10.09" height="30.05" transform="translate(775.13 120.13) rotate(180)"/><rect class="cls-4" x="370.12" y="39.91" width="26.89" height="14.72" transform="translate(767.13 94.53) rotate(180)"/><rect class="cls-1" x="353.85" y="191.93" width="55.45" height="67.26"/><rect class="cls-2" x="360.18" y="198.07" width="42.78" height="54.98"/><rect class="cls-3" x="360.18" y="198.07" width="1.67" height="54.98"/><rect class="cls-3" x="409.29" y="191.93" width="1.67" height="67.26"/><rect class="cls-1" x="374.52" y="210.79" width="10.09" height="30.05"/><rect class="cls-4" x="370.12" y="205.65" width="26.89" height="14.72"/><rect class="cls-1" x="353.85" y="109.36" width="55.45" height="67.26"/><rect class="cls-2" x="360.18" y="115.5" width="42.78" height="54.98"/><rect class="cls-3" x="360.18" y="115.5" width="1.67" height="54.98"/><rect class="cls-3" x="409.29" y="109.36" width="1.67" height="67.26"/><rect class="cls-1" x="377.43" y="129.71" width="8.64" height="21.85"/><rect class="cls-5" x="371.95" y="142.99" width="23.21" height="15.06"/></g><g id="Plant"><path class="cls-6" d="M35.89,368s8.16-29.28,14.68-39.23,18.66-20.87,18.66-20.87S68.94,353,35.89,368Z"/><path class="cls-7" d="M36.48,367.46a140.59,140.59,0,0,0,7.44-14.19,98.59,98.59,0,0,1,4-15.4c0-.09.16,0,.14.06-1.08,4.62-2.34,9.21-3.49,13.82,3.3-7.13,6.43-14.34,10.35-21.08a44.62,44.62,0,0,1,3.78-9.37c0-.09.19,0,.15.05a60.33,60.33,0,0,0-2.55,7,70.53,70.53,0,0,1,6.2-8.56c.14-.17.43,0,.29.19-5.25,6.7-8.87,14.31-12.31,22a117.46,117.46,0,0,0,10.23-12.79c0-.05.1,0,.07.05a104.81,104.81,0,0,1-11,14.21c-2.51,5.65-5,11.32-8,16.69,6-5.05,10.58-11.6,15.14-17.91a.14.14,0,0,1,.22.16C52.7,349.36,48,355.88,41.43,361a71.54,71.54,0,0,1-4.38,6.85A.35.35,0,0,1,36.48,367.46Z"/><path class="cls-6" d="M34.34,368S49,341,44.75,314.82s-8.82-35.5-8.82-35.5S12.87,320,34.34,368Z"/><path class="cls-7" d="M28.32,325.56A128.58,128.58,0,0,0,34,347.36c0-9.61.23-19.22.48-28.82a74.67,74.67,0,0,1-2.76-17.89c0-.18.26-.17.27,0a101.22,101.22,0,0,0,2.57,15.4q.33-11.9.77-23.78a.11.11,0,0,1,.21,0c0,12.38,0,24.76-.08,37.14a98.64,98.64,0,0,0,4.22-14.71s.09,0,.09,0a57.49,57.49,0,0,1-4.33,16.73c-.06,7.92-.14,15.83-.32,23.74,2.48-8.41,5.13-16.56,5.85-25.45a.1.1,0,0,1,.19,0c-.2,9.81-2.73,19.76-6,29A.67.67,0,0,1,35,359c-.08,2.89-.16,5.79-.26,8.68a.32.32,0,0,1-.64,0Q34,358.75,34,349.87a79.46,79.46,0,0,1-5.79-24.3C28.19,325.5,28.31,325.48,28.32,325.56Z"/><path class="cls-7" d="M29.33,321.38a50.59,50.59,0,0,1,1,7.13c0,.08-.12.1-.14,0a50.26,50.26,0,0,1-1.2-7.11C29,321.23,29.29,321.2,29.33,321.38Z"/><path class="cls-7" d="M37.9,301.64c0-.08.14-.05.14,0a18.59,18.59,0,0,1-.73,4.92.1.1,0,0,1-.2-.05C37.43,304.9,37.62,303.27,37.9,301.64Z"/><path class="cls-6" d="M29,368s.6-28.18-7.48-42.19S0,304.66,0,304.66,5.41,354.34,29,368Z"/><path class="cls-7" d="M14.25,343.9a105.59,105.59,0,0,0,10.94,13.87c-1.61-5.76-3.49-11.43-5.6-17-4.53-4-9-8.09-11.81-13.53a.08.08,0,0,1,.14-.08c3,4.82,7,8.67,11.19,12.38A218.21,218.21,0,0,0,7.86,315a.18.18,0,0,1,.31-.18,131.44,131.44,0,0,1,7.05,12.86c-.75-3-1.36-6.09-2.14-9.08a.07.07,0,0,1,.13,0,50.84,50.84,0,0,1,3.32,12,143.37,143.37,0,0,1,7.12,19.29c-.21-4.23-.47-8.44-.91-12.65,0-.08.13-.1.14,0a68.37,68.37,0,0,1,1.23,14.2q1.74,6.3,2.93,12.73c0,.12-.15.17-.18,0q-.66-2.7-1.4-5.35s-.06,0-.09,0a57.06,57.06,0,0,1-11.16-14.83A0,0,0,1,1,14.25,343.9Z"/><path class="cls-7" d="M4.88,321c.9,1,1.73,2,2.6,3a23.92,23.92,0,0,1,2.33,2.72.05.05,0,0,1-.07.07,14.12,14.12,0,0,1-2.69-2.66,23.14,23.14,0,0,1-2.3-3C4.7,321,4.82,320.9,4.88,321Z"/><path class="cls-8" d="M52,370.07l-1,13.35L48,423.78H21.16l-3.07-40.36-1-13.35H52Z"/><path class="cls-7" d="M52,370.07l-.62,8.11-33.63,1.35-.72-9.46H52Z"/><rect class="cls-8" x="14.69" y="363.52" width="39.73" height="10.24" transform="translate(69.11 737.27) rotate(180)"/></g><g id="Floor"><path class="cls-7" d="M0,423.78c136.6-.62,289.82-.62,426.42,0-136.6.61-289.83.61-426.42,0Z"/></g><g id="Device"><rect class="cls-9" x="9.95" y="88.02" width="402.34" height="269.18" rx="12.89" transform="translate(433.73 11.49) rotate(90)"/><rect class="cls-2" x="88.2" y="49.6" width="246.15" height="346.26"/><rect class="cls-7" x="209.02" y="8.49" width="4.18" height="58.58" rx="1.25" transform="translate(248.9 -173.33) rotate(90)"/><circle class="cls-7" cx="211.12" cy="409.46" r="7.58"/><rect class="cls-2" x="88.2" y="49.6" width="246.15" height="346.26"/><circle class="cls-10" cx="211.24" cy="156.12" r="42.5"/><rect class="cls-1" x="158.61" y="233.72" width="105.25" height="15.25"/><path class="cls-10" d="M174.87,238.35a.22.22,0,0,1,.2-.2.21.21,0,0,1,.21.2v3.26a1.94,1.94,0,1,0,3.88,0v-3.26a.21.21,0,0,1,.2-.2.21.21,0,0,1,.21.2v3.26a2.35,2.35,0,1,1-4.7,0Z"/><path class="cls-10" d="M181.24,243.11a.19.19,0,0,1,.28,0,2.15,2.15,0,0,0,1.24.47,1.25,1.25,0,0,0,.78-.25.56.56,0,0,0,0-1,2.06,2.06,0,0,0-.86-.3h0a2.49,2.49,0,0,1-.92-.31.87.87,0,0,1-.44-.73,1,1,0,0,1,.44-.8,1.72,1.72,0,0,1,1-.27,2.19,2.19,0,0,1,1.21.44.2.2,0,0,1-.22.34,1.76,1.76,0,0,0-1-.41,1.22,1.22,0,0,0-.77.23.6.6,0,0,0-.26.47.47.47,0,0,0,.23.4,1.87,1.87,0,0,0,.83.28h0a2.77,2.77,0,0,1,1,.34,1,1,0,0,1,.46.83,1,1,0,0,1-.46.82,1.74,1.74,0,0,1-1,.32,2.54,2.54,0,0,1-1.5-.58A.19.19,0,0,1,181.24,243.11Z"/><path class="cls-10" d="M185.31,241.94a2,2,0,0,1,3.93-.15h0v0a.18.18,0,0,1-.2.18h-3.33a1.59,1.59,0,0,0,1.57,1.56,1.51,1.51,0,0,0,1.31-.74.2.2,0,0,1,.27-.06.21.21,0,0,1,.06.28,1.93,1.93,0,0,1-1.64.92A2,2,0,0,1,185.31,241.94Zm.42-.33h3.08a1.57,1.57,0,0,0-1.53-1.32A1.59,1.59,0,0,0,185.73,241.61Z"/><path class="cls-10" d="M190.47,240.1a.2.2,0,0,1,.21-.2.2.2,0,0,1,.19.2v.9a.53.53,0,0,1,.06-.1,2,2,0,0,1,1.62-1,.2.2,0,0,1,0,.4,1.48,1.48,0,0,0-1.18.67,3.42,3.42,0,0,0-.48.94.11.11,0,0,0,0,.07v1.78a.19.19,0,0,1-.19.2.2.2,0,0,1-.21-.2Z"/><path class="cls-10" d="M197,241.55a1.25,1.25,0,0,0-1.25-1.25,1.28,1.28,0,0,0-1.26,1.25v2.24a.3.3,0,0,1,0,.1.21.21,0,0,1-.15.07h-.05a.21.21,0,0,1-.13-.11v0a0,0,0,0,0,0,0V240.1a.2.2,0,1,1,.39,0v.39a1.65,1.65,0,0,1,2.91,1.06v2.21a.2.2,0,1,1-.4,0Z"/><path class="cls-10" d="M202.6,240.1v3.66a.2.2,0,1,1-.4,0v-.6a1.89,1.89,0,0,1-1.53.8,2,2,0,0,1,0-4.06,1.88,1.88,0,0,1,1.53.79v-.59a.2.2,0,0,1,.4,0Zm-.4,1.83a1.53,1.53,0,1,0-1.53,1.63A1.59,1.59,0,0,0,202.2,241.93Z"/><path class="cls-10" d="M210.13,241.55a1.26,1.26,0,1,0-2.51,0v2.24a0,0,0,0,1,0,0v0a.19.19,0,0,1-.1.1.17.17,0,0,1-.1,0h-.06l0,0,0,0,0,0s0,0,0,0v0h0a0,0,0,0,0,0,0v-2.26a1.25,1.25,0,1,0-2.5,0v2.22a.2.2,0,0,1-.09.16l-.05,0h-.09a.2.2,0,0,1-.16-.15V240.1a.2.2,0,0,1,.19-.2.19.19,0,0,1,.2.2v.39a1.61,1.61,0,0,1,1.25-.59,1.64,1.64,0,0,1,1.45.87,1.68,1.68,0,0,1,1.46-.87,1.65,1.65,0,0,1,1.65,1.65v2.22a.19.19,0,0,1-.2.19.2.2,0,0,1-.19-.19Z"/><path class="cls-10" d="M211.91,241.94a2,2,0,0,1,3.93-.15h0v0a.18.18,0,0,1-.2.18h-3.33a1.6,1.6,0,0,0,1.57,1.56,1.51,1.51,0,0,0,1.31-.74.2.2,0,0,1,.27-.06.22.22,0,0,1,.07.28,2,2,0,0,1-1.65.92A2,2,0,0,1,211.91,241.94Zm.42-.33h3.08a1.57,1.57,0,0,0-1.53-1.32A1.59,1.59,0,0,0,212.33,241.61Z"/><path class="cls-10" d="M167.47,240.07a1.46,1.46,0,1,1-1.46-1.46A1.46,1.46,0,0,1,167.47,240.07Z"/><path class="cls-10" d="M168.54,244.08h-5a2.53,2.53,0,0,1,5,0Z"/><rect class="cls-1" x="158.61" y="255.86" width="105.25" height="15.25"/><path class="cls-10" d="M178.35,261.69a13,13,0,0,1-3.6,3.6,12.73,12.73,0,0,1,3.6-3.6Z"/><path class="cls-10" d="M174.75,261.69a12.6,12.6,0,0,1,3.6,3.6,13,13,0,0,1-3.6-3.6Z"/><path class="cls-10" d="M179.1,263.49a12.88,12.88,0,0,1-5.1,0,12.69,12.69,0,0,1,5.1,0Z"/><path class="cls-10" d="M176.55,260.94a12.83,12.83,0,0,1,0,5.09,12.83,12.83,0,0,1,0-5.09Z"/><path class="cls-10" d="M187.14,261.69a13,13,0,0,1-3.6,3.6,12.6,12.6,0,0,1,3.6-3.6Z"/><path class="cls-10" d="M183.54,261.69a12.73,12.73,0,0,1,3.6,3.6,12.86,12.86,0,0,1-3.6-3.6Z"/><path class="cls-10" d="M187.89,263.49a12.88,12.88,0,0,1-5.1,0,12.69,12.69,0,0,1,5.1,0Z"/><path class="cls-10" d="M185.34,260.94a12.83,12.83,0,0,1,0,5.09,12.65,12.65,0,0,1,0-5.09Z"/><path class="cls-10" d="M195.93,261.69a12.89,12.89,0,0,1-3.61,3.6,12.76,12.76,0,0,1,3.61-3.6Z"/><path class="cls-10" d="M192.32,261.69a12.76,12.76,0,0,1,3.61,3.6,12.89,12.89,0,0,1-3.61-3.6Z"/><path class="cls-10" d="M196.67,263.49a12.83,12.83,0,0,1-5.09,0,12.65,12.65,0,0,1,5.09,0Z"/><path class="cls-10" d="M194.12,260.94a12.47,12.47,0,0,1,0,5.09,12.83,12.83,0,0,1,0-5.09Z"/><path class="cls-10" d="M204.71,261.69a13,13,0,0,1-3.6,3.6,12.73,12.73,0,0,1,3.6-3.6Z"/><path class="cls-10" d="M201.11,261.69a12.6,12.6,0,0,1,3.6,3.6,13,13,0,0,1-3.6-3.6Z"/><path class="cls-10" d="M205.46,263.49a12.88,12.88,0,0,1-5.1,0,12.69,12.69,0,0,1,5.1,0Z"/><path class="cls-10" d="M202.91,260.94a12.65,12.65,0,0,1,0,5.09,12.83,12.83,0,0,1,0-5.09Z"/><path class="cls-10" d="M167.72,261.84v1.85h-.52v-1.85a1.19,1.19,0,1,0-2.37,0v1.85h-.53v-1.85a1.71,1.71,0,1,1,3.42,0Z"/><path class="cls-10" d="M163.64,263V267h4.75V263Zm2.77,2.89h-.84l.2-.95a.41.41,0,0,1-.2-.36.42.42,0,0,1,.84,0,.41.41,0,0,1-.2.36Z"/><path class="cls-7" d="M193.39,222v-6.89a.65.65,0,0,1,1.3,0v6.23h3.16a.65.65,0,1,1,0,1.3H194A.64.64,0,0,1,193.39,222Z"/><path class="cls-7" d="M206,215.49a4.29,4.29,0,0,1,0,5.91,3.83,3.83,0,0,1-2.79,1.25,3.93,3.93,0,0,1-2.86-1.25,4.34,4.34,0,0,1,0-5.91,3.9,3.9,0,0,1,2.86-1.25A3.79,3.79,0,0,1,206,215.49Zm-.15,2.95a3,3,0,0,0-.8-2,2.53,2.53,0,0,0-1.84-.83,2.55,2.55,0,0,0-1.89.83,3,3,0,0,0,0,4.08,2.49,2.49,0,0,0,3.73,0A3,3,0,0,0,205.8,218.44Z"/><path class="cls-7" d="M209.07,218.46a4.26,4.26,0,0,1,4.31-4.22,4.32,4.32,0,0,1,2.66.91.67.67,0,0,1,.13.95.67.67,0,0,1-.94.1,3.1,3.1,0,0,0-1.85-.63,2.91,2.91,0,0,0-2.1.85,2.8,2.8,0,0,0-.88,2,2.75,2.75,0,0,0,.88,2,2.88,2.88,0,0,0,2.1.86,3.23,3.23,0,0,0,1.6-.45v-1.6h-1.67a.67.67,0,0,1-.67-.66.66.66,0,0,1,.67-.66h2.32a.66.66,0,0,1,.68.66v2.58a1.2,1.2,0,0,1,0,.2.13.13,0,0,0,0,.05v0a.52.52,0,0,1-.22.28,4.31,4.31,0,0,1-2.65.91A4.25,4.25,0,0,1,209.07,218.46Z"/><path class="cls-7" d="M219,215.12a.64.64,0,0,1,.65-.65.65.65,0,0,1,.65.65V222a.65.65,0,0,1-.65.64A.63.63,0,0,1,219,222Z"/><path class="cls-7" d="M223.79,222a.64.64,0,1,1-1.27,0v-6.79h0a.63.63,0,0,1,1.14-.4l3.77,5.22v-4.81a.63.63,0,0,1,.63-.63.64.64,0,0,1,.65.63V222a.65.65,0,0,1-.65.64.62.62,0,0,1-.47-.24.13.13,0,0,1-.06-.07l-3.74-5.18Z"/><rect class="cls-11" x="193.8" y="280.44" width="34.88" height="10.85"/><path class="cls-2" d="M202.32,287.49V284a.32.32,0,0,1,.32-.33.33.33,0,0,1,.33.33v3.12h1.58a.32.32,0,0,1,.32.33.33.33,0,0,1-.32.32h-1.91A.32.32,0,0,1,202.32,287.49Z"/><path class="cls-2" d="M208.6,284.22a2.15,2.15,0,0,1,0,3,1.93,1.93,0,0,1-1.4.63,2,2,0,0,1-1.43-.63,2.18,2.18,0,0,1,0-3,2,2,0,0,1,1.43-.62A1.92,1.92,0,0,1,208.6,284.22Zm-.08,1.48a1.51,1.51,0,0,0-.4-1,1.26,1.26,0,0,0-.92-.42,1.31,1.31,0,0,0-.95.42,1.5,1.5,0,0,0-.39,1,1.48,1.48,0,0,0,.39,1,1.31,1.31,0,0,0,.95.42,1.26,1.26,0,0,0,.92-.42A1.49,1.49,0,0,0,208.52,285.7Z"/><path class="cls-2" d="M210.16,285.71a2.13,2.13,0,0,1,2.15-2.11,2.23,2.23,0,0,1,1.34.45.35.35,0,0,1,.06.48.33.33,0,0,1-.47.05,1.58,1.58,0,0,0-.93-.32,1.44,1.44,0,0,0-1.05.43,1.38,1.38,0,0,0,0,2,1.44,1.44,0,0,0,1.05.43,1.65,1.65,0,0,0,.8-.22v-.8h-.83a.34.34,0,0,1-.34-.34.33.33,0,0,1,.34-.32h1.16a.33.33,0,0,1,.34.32v1.3a.36.36,0,0,1,0,.1v0h0a.29.29,0,0,1-.11.14,2.15,2.15,0,0,1-3.48-1.64Z"/><path class="cls-2" d="M215.13,284a.32.32,0,0,1,.32-.33.33.33,0,0,1,.33.33v3.45a.32.32,0,0,1-.33.32.32.32,0,0,1-.32-.32Z"/><path class="cls-2" d="M217.52,287.49a.33.33,0,0,1-.32.32.32.32,0,0,1-.32-.32v-3.4h0a.31.31,0,0,1,.13-.27.32.32,0,0,1,.44.07l1.89,2.62v-2.41a.32.32,0,0,1,.32-.32.33.33,0,0,1,.32.32v3.4a.33.33,0,0,1-.32.32.3.3,0,0,1-.24-.12s0,0,0,0l-1.87-2.59Z"/></g><g id="Character_2" data-name="Character 2"><path class="cls-12" d="M235.9,190.73c-.88.63-1.78,1.22-2.7,1.79a42.57,42.57,0,0,1-7,3.37c-.57.22-1.15.42-1.73.62-1.31.43-2.66.8-4,1.1h0c-1.2.26-2.42.48-3.66.64-1.63-2.43-3-4.54-3.89-6.17-.62-1.08-1.44-2.59-2.27-4.29-2.57-5.21-5.28-12.22-2.77-14.13l.14-.1.2-.11.13-.06a2.3,2.3,0,0,1,.73-.19,4.12,4.12,0,0,1,1.06,0,15.47,15.47,0,0,1,5.19,1.82h0c.47.23,1,.49,1.47.78l.2.11C221.26,178.34,228.57,184.42,235.9,190.73Z"/><path class="cls-11" d="M237.4,189.61c-.49.39-1,.76-1.5,1.12-.88.63-1.78,1.22-2.7,1.79a42.57,42.57,0,0,1-7,3.37c-.57.22-1.15.42-1.73.62-1.31.43-2.66.8-4,1.1h0c-1.2.26-2.42.48-3.66.64l-.74.09c-2.61-4.1-4.81-7.8-6.34-10.69h0l-.26-.49q-.81-1.57-1.41-3-.45-1-.78-2-.21-.63-.39-1.23c-.1-.35-.18-.68-.26-1s-.13-.65-.18-1a8.8,8.8,0,0,1-.12-2.24,4.9,4.9,0,0,1,.35-1.58,3.45,3.45,0,0,1,.35-.66l.21-.28a3.07,3.07,0,0,1,.25-.26,2,2,0,0,1,.27-.22l.12-.08.14-.1.2-.11.13-.06,0,0a4,4,0,0,1,.64-.23,9.26,9.26,0,0,1,5.16.58,0,0,0,0,0,0,0,23.14,23.14,0,0,1,2.77,1.15h0a42.55,42.55,0,0,1,5.08,3C226.59,180.9,232.06,185.21,237.4,189.61Z"/><path class="cls-2" d="M218.75,180.56c-.24-.23-.48-.45-.74-.67h0l-.27-.22-.2-.15a2.54,2.54,0,0,0-.34-.23l-.34-.22h0l-.2-.11-.13-.06s0,0,0,0l-.42-.19a6.5,6.5,0,0,0,.34.7,10.16,10.16,0,0,0,1.52,2l.67.61.55.43,0,0a0,0,0,0,0,0,0,6.84,6.84,0,0,0,1.4.79A8.6,8.6,0,0,0,218.75,180.56Zm0,0c-.24-.23-.48-.45-.74-.67h0l-.27-.22-.2-.15a2.54,2.54,0,0,0-.34-.23l-.34-.22h0l-.2-.11-.13-.06s0,0,0,0l-.42-.19a6.5,6.5,0,0,0,.34.7,10.16,10.16,0,0,0,1.52,2l.67.61.55.43,0,0a0,0,0,0,0,0,0,6.84,6.84,0,0,0,1.4.79A8.6,8.6,0,0,0,218.75,180.56Z"/><path class="cls-13" d="M233.2,192.52a42.57,42.57,0,0,1-7,3.37c-.57.22-1.15.42-1.73.62-1.31.43-2.66.8-4,1.1h0c-1.2.26-2.42.48-3.66.64l-.74.09c-2.61-4.1-4.81-7.8-6.34-10.69h0l-.26-.49q-.81-1.57-1.41-3-.45-1-.78-2-.21-.63-.39-1.23c-.1-.35-.18-.68-.26-1s-.13-.65-.18-1a9.83,9.83,0,0,1-.12-2.24,4.9,4.9,0,0,1,.35-1.58,3.45,3.45,0,0,1,.35-.66l.21-.28a3.07,3.07,0,0,1,.25-.26,2,2,0,0,1,.27-.22l.12-.08.14-.1.2-.11.13-.06,0,0a4.13,4.13,0,0,1,.65-.22,4.74,4.74,0,0,1,.89-.14l.22.18,3.54,3h0l2.87,2.4,1.37,1.15Z"/><path class="cls-11" d="M224.51,196.51c-1.31.43-2.66.8-4,1.1h0c-1.2.26-2.42.48-3.66.64l-.74.09a42.78,42.78,0,0,1-18.55-2l-.11,0-.1,0-.48-.17a42.62,42.62,0,0,1-11.64-6.42c1.19-2.09,2.29-3.93,3.32-5.54.74-1.16,1.43-2.2,2.09-3.13,0,0,0,0,0,0h0c3.49-5,5.9-7,7.78-8l.35-.17a3,3,0,0,1,.41-.19c.25-.11.49-.19.72-.27a20.83,20.83,0,0,1,7.93-.77,12,12,0,0,1,6.37,2.15,0,0,0,0,0,0,0,5.32,5.32,0,0,1,1.14,1.28h0q.52.83,1,1.71l.36.64c.42.76.83,1.54,1.23,2.36a.51.51,0,0,1,.07.15h0c.2.41.4.82.6,1.25s.4.84.59,1.28a0,0,0,0,0,0,0,132.76,132.76,0,0,1,5.19,13.74C224.44,196.28,224.47,196.39,224.51,196.51Z"/><path class="cls-2" d="M210,194.76a8.56,8.56,0,0,0-3.19.56,8.37,8.37,0,0,0,3.19.56,8.54,8.54,0,0,0,3.2-.56A8.54,8.54,0,0,0,210,194.76ZM191.84,180.2c-.15.07-.29.16-.43.24a3.62,3.62,0,0,0-.41.27.83.83,0,0,0-.18.13l-.21.15h0s0,0,0,0l0,0c-.32.25-.61.52-.9.79a8.8,8.8,0,0,0-1.87,2.66,6,6,0,0,0,.72-.35,9.61,9.61,0,0,0,1.94-1.51A8.48,8.48,0,0,0,192.3,180Zm26.77.94c-.2-.42-.4-.84-.61-1.25l-.27-.22-.2-.15a2.54,2.54,0,0,0-.34-.23l-.34-.22h0l-.2-.11-.13-.07-.42-.19a6.5,6.5,0,0,0,.34.7,10.16,10.16,0,0,0,1.52,2l.67.61.55.43,0,0C219,182,218.81,181.56,218.61,181.14Zm0,0c-.2-.42-.4-.84-.61-1.25l-.27-.22-.2-.15a2.54,2.54,0,0,0-.34-.23l-.34-.22h0l-.2-.11-.13-.07-.42-.19a6.5,6.5,0,0,0,.34.7,10.16,10.16,0,0,0,1.52,2l.67.61.55.43,0,0C219,182,218.81,181.56,218.61,181.14Z"/><path class="cls-12" d="M201.42,180.05a49.05,49.05,0,0,1-2.06,8.68c-.86,2.68-1.71,5.13-2.54,7.38a42.62,42.62,0,0,1-11.64-6.42c-.84-.65-1.66-1.34-2.44-2.05,1.42-1.89,2.85-3.72,4.27-5.47,4.72-5.81,8.76-9,11.38-9.19l.3,0C200.92,173,202,175.26,201.42,180.05Z"/><path class="cls-11" d="M202,180.89a42.62,42.62,0,0,1-1,5.36,67.07,67.07,0,0,1-2.56,7.47h0l-1.06,2.59-.1,0-.48-.17a42.62,42.62,0,0,1-11.64-6.42c-.84-.65-1.66-1.34-2.44-2.05l-.81-.75a72.74,72.74,0,0,1,8.6-9.43c3.86-3.4,6.49-4.76,8.26-4.84h.36C202.2,172.79,202.39,177.14,202,180.89Z"/><path class="cls-2" d="M191.84,180.2c-.15.07-.29.16-.43.24a3.62,3.62,0,0,0-.41.27.83.83,0,0,0-.18.13l-.23.18,0,0c-.32.25-.61.52-.9.79a8.8,8.8,0,0,0-1.87,2.66,6,6,0,0,0,.72-.35,9.61,9.61,0,0,0,1.94-1.51A8.48,8.48,0,0,0,192.3,180Z"/><path class="cls-7" d="M198.46,193.72h0v0c-.31.87-.63,1.74-1,2.6l-.11,0-.1,0c.37-.85.74-1.7,1.09-2.56A0,0,0,0,1,198.46,193.72Z"/><path class="cls-12" d="M211,187.81c-4.51.16-10.61-7.88-12.48-13.79-.12-.41,1.2-4.15,2.59-8.78.83-2.81,1.69-6,2.27-8.9.12-.6,17.51,8.1,17.51,8.1a47.78,47.78,0,0,0-4,10.9,6.69,6.69,0,0,0-.11,1.23c0,.06,0,.13,0,.2C216.66,179.13,215.33,187.64,211,187.81Z"/><path class="cls-7" d="M204.47,156.64c-.13,5.13.59,17.71,10.36,19.87a11.57,11.57,0,0,0,1.9.27,2.06,2.06,0,0,0,0-.21,7.55,7.55,0,0,1,.1-1.23,47.54,47.54,0,0,1,4-10.91S208.31,158.16,204.47,156.64Z"/><path class="cls-12" d="M200.22,137.06c-1.88,6.68,2,25.8,6.85,30,7,6.06,18.2,6.41,23.3-1.93,4.94-8.09-.6-32.92-6-36.69C216.51,122.86,203,127.18,200.22,137.06Z"/><path class="cls-7" d="M217,149.13s-.09.09-.08.14c.35,1.27.53,2.78-.52,3.48,0,0,0,.09,0,.07C217.75,152.28,217.49,150.28,217,149.13Z"/><path class="cls-7" d="M215.49,148.07c-2.09.34-1.26,4.5.68,4.19S217.25,147.79,215.49,148.07Z"/><path class="cls-7" d="M224.35,147.65c0-.05.11,0,.12.09.21,1.3.68,2.75,1.93,2.95,0,0,0,.07,0,.07C224.94,150.84,224.34,148.91,224.35,147.65Z"/><path class="cls-7" d="M225.23,146.07c2-.56,3,3.56,1.14,4.09S223.52,146.55,225.23,146.07Z"/><path class="cls-7" d="M213.54,146c.54-.26,1-.58,1.51-.88s1.06-.56,1.36-1.19a.9.9,0,0,0-.35-1,2.23,2.23,0,0,0-2.25.2,3.32,3.32,0,0,0-1.58,1.74A1,1,0,0,0,213.54,146Z"/><path class="cls-7" d="M226.77,144.38a17,17,0,0,1-1.75,0,2.81,2.81,0,0,1-1.78-.31A.9.9,0,0,1,223,143a2.22,2.22,0,0,1,2-1,3.29,3.29,0,0,1,2.26.67A1,1,0,0,1,226.77,144.38Z"/><path class="cls-7" d="M217.75,160.43c.27.35.51.82,1,.93a3.36,3.36,0,0,0,1.44-.11,0,0,0,0,1,.05.08,1.81,1.81,0,0,1-1.76.45,1.41,1.41,0,0,1-.84-1.31C217.61,160.39,217.71,160.38,217.75,160.43Z"/><path class="cls-7" d="M218.86,156.66a4.43,4.43,0,0,0,3.32,1.37,5.43,5.43,0,0,0,1.59-.24,1.4,1.4,0,0,0,.29-.09l.28-.1a.33.33,0,0,0,.2-.34h0a.5.5,0,0,0,0-.13h0l0-.11c-.17-1-.56-2.49-.56-2.49.39.11,2.41.57,2.28.06a67.52,67.52,0,0,0-4.34-12.95.12.12,0,0,0-.23.08c.9,4.12,2.52,8.05,3.5,12.18a7.89,7.89,0,0,0-2.2-.22c-.13.07.82,2.87.86,3.32V157a6.21,6.21,0,0,1-4.82-.51C218.84,156.47,218.76,156.57,218.86,156.66Z"/><path class="cls-7" d="M199.47,152c5.07.25,7.59-5.85,6.3-10.69,0,0,13.51,1.51,13.93-9.32a10.6,10.6,0,0,0,8.86,4.67l1.59,3.95c1.37-.43,2.76-4.39-.69-7.39,0,0-.35-5.39-4.39-8.54a7.36,7.36,0,0,0-7.94-.94,11.11,11.11,0,0,0-8.17-1.83,9.51,9.51,0,0,0-6.9,5.3s-6.64,1.42-7.68,6.19a9.82,9.82,0,0,0,1.48,7.89s-1.64,1.89-.7,5.92C195.76,149.82,197.94,151.94,199.47,152Z"/><path class="cls-7" d="M219.38,131.05a13,13,0,0,1,.08,2.64,10.55,10.55,0,0,1-.43,2.57,6.83,6.83,0,0,1-3,4,11.11,11.11,0,0,1-4.94,1.35c-.87,0-1.75,0-2.63,0s-1.76-.16-2.65-.22c.86.2,1.74.35,2.62.52s1.78.12,2.68.19a10.88,10.88,0,0,0,5.24-1.3,7.11,7.11,0,0,0,3.18-4.35A11,11,0,0,0,219.38,131.05Z"/><path class="cls-7" d="M226.45,137.16a14.16,14.16,0,0,1-4.13-2.12,8.19,8.19,0,0,1-1.61-1.61,10.29,10.29,0,0,1-1.18-2,5.94,5.94,0,0,0,.78,2.29,6.23,6.23,0,0,0,1.63,1.84,7.72,7.72,0,0,0,2.15,1.16A7.38,7.38,0,0,0,226.45,137.16Z"/><path class="cls-12" d="M204.65,152.61s-4.59-6-7.34-4.36.88,10.52,4.24,11.61a3.36,3.36,0,0,0,4.43-2Z"/><path class="cls-7" d="M198.42,150.76a0,0,0,0,0,0,.09c2.36.85,3.67,2.94,4.61,5.13a1.86,1.86,0,0,0-2.79-.39.07.07,0,0,0,.06.12,2.09,2.09,0,0,1,2.31.63,10.24,10.24,0,0,1,1.16,1.8c.12.2.49.07.4-.16l0-.06C204.07,155,201.6,150.93,198.42,150.76Z"/><g class="cls-14"><path d="M210.74,154.4a.31.31,0,1,1-.3-.32A.32.32,0,0,1,210.74,154.4Z"/><path d="M217.17,154.38a.31.31,0,0,1-.61,0,.3.3,0,0,1,.32-.29A.31.31,0,0,1,217.17,154.38Z"/><path d="M214.81,156.53a.32.32,0,0,1-.32.3.3.3,0,0,1-.29-.32.31.31,0,1,1,.61,0Z"/><path d="M211,151.88a.31.31,0,0,1-.32.29.3.3,0,0,1-.29-.32.3.3,0,0,1,.32-.29A.3.3,0,0,1,211,151.88Z"/><path d="M214,153.73a.31.31,0,0,1-.32.3.3.3,0,0,1-.29-.32.32.32,0,0,1,.32-.3A.3.3,0,0,1,214,153.73Z"/><path d="M230,150a.3.3,0,0,1-.32.29.31.31,0,0,1-.29-.32.31.31,0,1,1,.61,0Z"/><path d="M227.49,151.62a.3.3,0,0,1-.32.29.32.32,0,0,1-.3-.32.3.3,0,0,1,.32-.29A.32.32,0,0,1,227.49,151.62Z"/><path d="M228,153.67a.31.31,0,1,1-.61,0,.31.31,0,1,1,.61,0Z"/><path d="M230.16,152.35a.3.3,0,0,1-.32.29.31.31,0,0,1-.3-.32.3.3,0,0,1,.32-.29A.32.32,0,0,1,230.16,152.35Z"/></g></g><g id="Character_1" data-name="Character 1"><path class="cls-12" d="M156.76,423c2.79,1,85.33,2.64,88.43.74.37-.19,1.71-27.5,1.71-27.5-.1-.39,1.28-3,3.39-6.67,5.88-10.27,17.38-28.67,17.38-28.67l-49-14.81-20.12,40.31-5.13,10.29s-11.25,4.39-21.07,8.78c0,0,0,0,0,0-6,2.69-11.3,5.15-12.53,6.07C156.66,414,154,422,156.76,423Z"/><path class="cls-2" d="M156.76,423c2.79,1,85.33,2.64,88.43.74.37-.19,1.71-27.5,1.71-27.5-.1-.39,1.28-3,3.39-6.67l-51.72-3.17-5.13,10.29s-11.25,4.39-21.07,8.78c0,0,0,0,0,0-6,2.69-11.3,5.15-12.53,6.07C156.66,414,154,422,156.76,423Z"/><path class="cls-11" d="M156.42,423.28c2.87,1,85.51,2.43,88.7.49,1.21-.73,2.67-13.45,1.78-27.56l-53.28-.85S162.76,409,159.49,411.5,153.55,422.26,156.42,423.28Z"/><path class="cls-13" d="M245.11,423.77c-1.16.7-12.9,1-27.49,1l28-28.55h0l1.3,0C247.79,410.32,246.33,423.05,245.11,423.77Z"/><path class="cls-7" d="M157.66,420c13.86-.1,69.77.79,83.48,1.75.11,0,.11.08,0,.08-13.73.4-69.63-.94-83.48-1.6C157.36,420.21,157.37,420,157.66,420Z"/><path class="cls-7" d="M164.86,408.62a11.11,11.11,0,0,1,8.23,3.53,10.79,10.79,0,0,1,3,7.45c0,.08-.16.08-.17,0a12.88,12.88,0,0,0-11-10.8A.09.09,0,1,1,164.86,408.62Z"/><path class="cls-7" d="M189.25,396.68c5.54,0,11.94,2.08,15.31,6.68.13.18-.13.36-.29.27a76.39,76.39,0,0,0-15.13-6.27A.35.35,0,0,1,189.25,396.68Z"/><path class="cls-7" d="M184.94,398.27c5.54,0,11.94,2.09,15.31,6.68.13.18-.13.36-.29.28A77,77,0,0,0,184.83,399,.35.35,0,0,1,184.94,398.27Z"/><path class="cls-7" d="M180.63,399.87c5.54,0,11.94,2.08,15.31,6.68.13.18-.13.36-.29.27a76.39,76.39,0,0,0-15.13-6.27A.35.35,0,0,1,180.63,399.87Z"/><path class="cls-7" d="M176.32,401.46c5.54,0,11.94,2.09,15.31,6.68.13.18-.13.36-.29.28a77,77,0,0,0-15.13-6.28A.35.35,0,0,1,176.32,401.46Z"/><path class="cls-7" d="M237.83,408.52c6.22.12,6,9.79-.19,9.67S231.6,408.39,237.83,408.52Z"/><path class="cls-7" d="M183.81,389.91c2.93,3.92,7.44,6.42,11.34,9.22a.68.68,0,0,0,1-.43.15.15,0,0,0,.18-.15,29.08,29.08,0,0,0-4.8-14.27c-1.69-2.45-5.19-4.78-8-2.5S182.1,387.63,183.81,389.91Zm-.18-4.59c.66-6,6-1.3,7.19.55a31.52,31.52,0,0,1,2,3.78,86.69,86.69,0,0,1,3,8.27c-1.83-1.49-3.78-2.82-5.66-4.24C187.86,392,183.27,388.64,183.63,385.32Z"/><path class="cls-7" d="M216.09,395.35c-.38-3.63-4.49-4.48-7.42-4A29.06,29.06,0,0,0,195.14,398a.14.14,0,0,0,0,.23.68.68,0,0,0,.4,1c4.73.82,9.69,2.28,14.53,1.62C212.9,400.45,216.44,398.78,216.09,395.35ZM203,399c-2.33-.34-4.64-.8-7-1.06a87.28,87.28,0,0,1,8-3.67A30.41,30.41,0,0,1,208,393c2.14-.46,9.27.05,5.44,4.74C211.37,400.33,205.76,399.4,203,399Z"/><path class="cls-7" d="M254,389l-58.11-8.8s27.93-55.68,45.22-85.89c9.62-16.8,35.92-17.62,48.71,2.5,17.09,26.89,30.35,52.09,37.95,66.06L341,364l-2.85,21.54-43.81,9.81c-16.78,2-28.56-27.87-28.83-27.36C263.35,371.9,254,389,254,389Z"/><path class="cls-8" d="M265.17,368.11c1.65-3.38,2.94-7,4.41-10.44s2.85-6.71,4.26-10.07c2.85-6.79,5.8-13.55,8.57-20.37,1.55-3.83,3-7.71,4.43-11.58a.08.08,0,0,1,.15.05c-1.13,3.65-2.29,7.3-3.52,10.92.33-.62.65-1.25,1-1.86.93-1.67,1.9-3.31,2.86-5a.06.06,0,1,1,.1.06c-.89,1.65-1.78,3.3-2.71,4.94-.46.81-1,1.62-1.45,2.43A255.07,255.07,0,0,1,271.21,357c-1.85,3.79-4,7.42-5.86,11.21C265.29,368.34,265.11,368.23,265.17,368.11Z"/><path class="cls-8" d="M252.71,378.67c2.8-4.32,9.48-17.41,11.87-21.93,4.83-9.15,9.25-18.49,13.44-27.95,2.36-5.35,4.57-10.75,6.76-16.17,0,0,.07,0,.06,0a305,305,0,0,1-11.47,28.71c-4.26,9.39-18,34.7-20.48,37.43C252.8,378.88,252.64,378.78,252.71,378.67Z"/><path class="cls-8" d="M288.79,319.85c5,8.94,10.12,17.82,15.15,26.75q3.81,6.78,7.6,13.56c1.18,2.13,2.33,4.28,3.56,6.39a12,12,0,0,0,4.59,4.76,35.81,35.81,0,0,0,7.29,2.55c2.82.82,5.63,1.71,8.47,2.49a.1.1,0,0,1-.06.2c-2.53-.67-5.09-1.26-7.63-1.89a66.16,66.16,0,0,1-6.93-1.86,11.25,11.25,0,0,1-5.13-3.55,42.37,42.37,0,0,1-3.6-6q-7.53-13.78-14.93-27.63c-2.81-5.25-5.59-10.51-8.43-15.74C288.73,319.85,288.77,319.82,288.79,319.85Z"/><path class="cls-8" d="M255.33,380.85c-3.48-.64-7.05-.94-10.56-1.39l-10.56-1.37c-7-.91-30.93-4.72-32.73-5.32-.12,0-.08-.22,0-.23,1.71-.05,17.36,2,20.87,2.55,7,1,14,2.28,21,3.46,2,.34,4,.72,6,1.07s4,.78,6,1A.1.1,0,0,1,255.33,380.85Z"/><path class="cls-12" d="M218.55,435.41c1-2.77,53.68-66.37,57.14-67.49.39-.15,21.95,16.65,21.95,16.65.87,1.26,43.55-5.83,43.55-5.83l-1.8,51-77-5S251.75,430.45,242,435h0c-6,2.84-11.29,5.21-12.78,5.53C225.3,441.37,217.48,438.16,218.55,435.41Z"/><path class="cls-2" d="M229.2,440.55c1.5-.31,6.79-2.69,12.78-5.53h0c9.73-4.57,20.4-10.24,20.4-10.24l17.13,1.12,28.72-42.15c-5.93.79-10.35,1.22-10.63.82,0,0-21.55-16.8-21.95-16.65-3.46,1.12-56.08,64.71-57.14,67.48S225.3,441.38,229.2,440.55Z"/><path class="cls-11" d="M218.09,435.47c1.11-2.83,54-66.38,57.51-67.53,1.34-.45,11.93,6.75,22,16.63L263.52,425.5S233.05,440,229,440.83,217,438.31,218.09,435.47Z"/><path class="cls-7" d="M221.39,436.68c9.12-10.44,44.93-53.39,53.15-64.4.07-.09,0-.14-.07,0-9.26,10.14-44.72,53.38-53.25,64.3C221,436.76,221.2,436.9,221.39,436.68Z"/><path class="cls-7" d="M234.71,438.64a11.15,11.15,0,0,0,2.7-8.54A10.84,10.84,0,0,0,233.7,423c-.07-.05-.17.07-.11.13a12.85,12.85,0,0,1,1,15.41A.09.09,0,0,0,234.71,438.64Z"/><path class="cls-7" d="M259.67,428c3.61-4.21,6.21-10.41,4.93-16-.05-.21-.36-.14-.4,0a76.22,76.22,0,0,1-5.11,15.56A.34.34,0,0,0,259.67,428Z"/><path class="cls-7" d="M255.65,430.18c3.61-4.22,6.21-10.41,4.93-16-.05-.22-.36-.14-.4,0a75.84,75.84,0,0,1-5.12,15.56A.35.35,0,0,0,255.65,430.18Z"/><path class="cls-7" d="M251.63,432.4c3.6-4.21,6.21-10.41,4.93-16-.05-.21-.36-.14-.4,0A76.25,76.25,0,0,1,251,432,.35.35,0,0,0,251.63,432.4Z"/><path class="cls-7" d="M247.61,434.63c3.6-4.22,6.21-10.41,4.93-16,0-.22-.36-.14-.4,0A76.36,76.36,0,0,1,247,434.26.35.35,0,0,0,247.61,434.63Z"/><path class="cls-7" d="M282.4,383.41c4-4.79-3.48-11-7.45-6.16S278.43,388.21,282.4,383.41Z"/><path class="cls-7" d="M267.22,442c3.58-.67,4.09-4.85,3.34-7.72a29.05,29.05,0,0,0-7.68-12.95.15.15,0,0,0-.23,0,.68.68,0,0,0-1,.49c-.43,4.78-1.48,9.84-.42,14.61C261.87,439.27,263.83,442.66,267.22,442Zm-4.72-12.77c.16-2.36.42-4.7.49-7.06,1.49,2.53,3.08,5,4.32,7.66a31.28,31.28,0,0,1,1.58,3.95c.64,2.1.72,9.25-4.27,5.81C261.87,437.73,262.32,432.07,262.5,429.26Z"/><path class="cls-7" d="M270.11,409.45c-3.66,3.24-5.79,7.95-8.25,12.07a.68.68,0,0,0,.51,1,.15.15,0,0,0,.17.16,29,29,0,0,0,13.82-6c2.3-1.88,4.34-5.56,1.83-8.21S272.25,407.56,270.11,409.45Zm4.57-.55c6.06.16,1.79,5.89,0,7.21a32.16,32.16,0,0,1-3.61,2.27,87.11,87.11,0,0,1-8,3.65c1.33-1.95,2.49-4,3.76-6C268.38,413.66,271.34,408.81,274.68,408.9Z"/><path class="cls-7" d="M316.38,365.85s66-8.86,87.61-3.05c30.12,8.12,33.58,44.31,10.38,58.09C385,438.34,283,428.61,283,428.61l28.46-48s42.73-8,81-4.87l-77.27,9.56Z"/><path class="cls-8" d="M309.48,383.86a2,2,0,0,0,.07-.26c0-.07,0-.14.05-.21l.15-.49a9,9,0,0,1,.36-1,10.38,10.38,0,0,1,.43-1,7.34,7.34,0,0,1,.55-.89s.05,0,.08-.05l.05,0,.07,0a.15.15,0,0,1,.07,0c4.69-.75,36.51-4.36,41.24-4.74s9.54-.67,14.31-.9a254.48,254.48,0,0,1,28.57.11c.89.05,1.78.13,2.67.2.19-.06.4-.09.59-.13.46-.1.92-.21,1.39-.28.87-.15,1.74-.25,2.61-.36,1.81-.22,3.62-.35,5.43-.64.11,0,.15.16,0,.18-1.82.36-3.62.86-5.44,1.22l-1.58.29c3.48.35,6.95.8,10.42,1.3.11,0,.11.2,0,.19-4.72-.51-9.49-.76-14.24-.87s-9.43-.21-14.15-.12c-9.54.19-19.09.71-28.62,1.39-5.34.38-37.8,4.16-43.15,4.17,0,0,0,0-.06,0a3.42,3.42,0,0,1-.17.4c-.16.31-.32.62-.49.92s-.33.59-.52.87-.18.28-.28.41l-.14.21a1.07,1.07,0,0,0-.15.22C309.59,384.07,309.41,384,309.48,383.86Z"/><path class="cls-8" d="M297.61,425.62c1.68-2.76,3.14-5.72,4.7-8.57l4.68-8.58c3.12-5.71,14.25-24.86,15.33-26.19.07-.08.19,0,.16.12-.55,1.5-7.54,14.2-9.14,17-3.21,5.66-6.56,11.2-9.87,16.78-.94,1.59-1.92,3.16-2.87,4.75s-2,3.13-2.86,4.76C297.69,425.82,297.55,425.72,297.61,425.62Z"/><path class="cls-8" d="M324.05,387.54c2.84-.62,5.74-1,8.6-1.44s5.73-.94,8.6-1.39q8.61-1.38,17.24-2.6c11.48-1.61,23-2.86,34.52-3.58,6.52-.4,13-.57,19.56-.81.14,0,.13.24,0,.24-11.6.07-23.23,1.29-34.77,2.6S355,383.35,343.56,385l-9.65,1.39c-3.27.48-6.54,1.1-9.82,1.41C324,387.76,323.92,387.57,324.05,387.54Z"/><path class="cls-12" d="M324,304.93c-6.32,11-31.49,45.05-39.41,46.18-8.24,1.18-38.62-1.42-44.16-7.95-2.71-3.19,1.66-30.58,5.88-29.05s30.2,7.81,33.54,7.32,30.27-26.57,40.2-32.19C337.2,279.54,327.45,299,324,304.93Z"/><path class="cls-11" d="M253,315l-6.41,33.94s30.43,6.23,39.4,3.61,34.05-38.28,41.36-52.38.93-17.81-12.2-9S281,319.6,279,319.69,253,315,253,315Z"/><path class="cls-2" d="M318.37,293.74a8.53,8.53,0,0,0-1.8,2.58,8.36,8.36,0,0,0,2.58-1.8,8.56,8.56,0,0,0,1.81-2.58A8.46,8.46,0,0,0,318.37,293.74Zm-65.65,51.72a8.41,8.41,0,0,0-3.1.54,9,9,0,0,0,6.2,0A8.48,8.48,0,0,0,252.72,345.46Zm49.73-10.14a8.5,8.5,0,0,0-3.11.54,8.31,8.31,0,0,0,3.11.55h.41c.25-.33.53-.66.79-1C303.24,335.35,302.85,335.33,302.45,335.32Zm-21.66,8.13a9.17,9.17,0,0,0,0,6.2,8.46,8.46,0,0,0,.55-3.1A8.26,8.26,0,0,0,280.79,343.45Zm25.49-33.17a8.21,8.21,0,0,0-.54,3.1,8.45,8.45,0,0,0,.54,3.1,8.46,8.46,0,0,0,.55-3.1A8.22,8.22,0,0,0,306.28,310.28Zm12.09-16.54a8.53,8.53,0,0,0-1.8,2.58,8.36,8.36,0,0,0,2.58-1.8,8.56,8.56,0,0,0,1.81-2.58A8.46,8.46,0,0,0,318.37,293.74Zm-32.73,28a8.16,8.16,0,0,0-1.81,2.58,9.2,9.2,0,0,0,4.39-4.4A8.46,8.46,0,0,0,285.64,321.71Zm-30.72-6.35h0c-.1.08-.19.18-.28.26a8.13,8.13,0,0,0-1.8,2.58,8.37,8.37,0,0,0,2.58-1.82c.24-.25.48-.51.7-.78Zm12.25,16.8a8.41,8.41,0,0,0-2.58-1.8,8.27,8.27,0,0,0,1.81,2.58,8.56,8.56,0,0,0,2.58,1.81A8.61,8.61,0,0,0,267.17,332.16Zm35.28,3.16a8.5,8.5,0,0,0-3.11.54,8.31,8.31,0,0,0,3.11.55h.41c.25-.33.53-.66.79-1C303.24,335.35,302.85,335.33,302.45,335.32Zm3.83-25a8.21,8.21,0,0,0-.54,3.1,8.45,8.45,0,0,0,.54,3.1,8.46,8.46,0,0,0,.55-3.1A8.22,8.22,0,0,0,306.28,310.28Z"/><path class="cls-7" d="M258.53,333.49c.52-2.69,2.51-13.45,2.8-16.16,0,0-.06-.06-.08,0-.78,2.53-3.06,13.09-3.58,15.78A148,148,0,0,0,255,349.28c0,.09.14.15.17,0C256.66,344.13,257.51,338.78,258.53,333.49Z"/><path class="cls-13" d="M327.39,300.14C320.07,314.25,295,349.9,286,352.52c-6.8,2-25.88-1.1-34.75-2.72L327,286.42C331.2,286.73,331.88,291.47,327.39,300.14Z"/><path class="cls-11" d="M300.86,367.43l74.83,4.35c-.1-1.53-11.8-44.45-20.22-60.79-10.79-20.95-15.58-24.15-18.78-25.22-4.1-1.37-12.51-1.36-15,2.6C308.33,309.73,299.84,366.48,300.86,367.43Z"/><path class="cls-2" d="M319.1,293.09c-.4.8-.79,1.61-1.18,2.47a12.29,12.29,0,0,0,1.23-1,8.56,8.56,0,0,0,1.81-2.58A7,7,0,0,0,319.1,293.09Zm22.52,69.32a8.41,8.41,0,0,0-1.8,2.58,8.24,8.24,0,0,0,2.58-1.8,8.69,8.69,0,0,0,1.81-2.58A8.58,8.58,0,0,0,341.62,362.41ZM319.1,293.09c-.4.8-.79,1.61-1.18,2.47a12.29,12.29,0,0,0,1.23-1,8.56,8.56,0,0,0,1.81-2.58A7,7,0,0,0,319.1,293.09Zm43.95,36.55h0a6.19,6.19,0,0,0-.58-.28,7.06,7.06,0,0,0,1.12,1.81C363.41,330.66,363.22,330.14,363.05,329.64ZM346.6,295a10.34,10.34,0,0,0-.92-.82h0a7.2,7.2,0,0,0-1.64-1,8.27,8.27,0,0,0,1.81,2.58,9.47,9.47,0,0,0,1.86,1.45,5.37,5.37,0,0,0,.72.36A8.3,8.3,0,0,0,346.6,295Zm-20.27,35a8.13,8.13,0,0,0-2.58-1.8,8.41,8.41,0,0,0,1.82,2.58,8.29,8.29,0,0,0,2.58,1.8A8.59,8.59,0,0,0,326.33,330Zm18.78,10.36a8.26,8.26,0,0,0-3.1.55,9.17,9.17,0,0,0,6.2,0A8.22,8.22,0,0,0,345.11,340.33Zm-18.25-32.81a8.22,8.22,0,0,0-3.1.55,8.41,8.41,0,0,0,3.1.54,8.28,8.28,0,0,0,3.1-.54A8.29,8.29,0,0,0,326.86,307.52Zm-8.1,44.69a8.22,8.22,0,0,0-.55,3.1,8.5,8.5,0,0,0,.55,3.1,9.17,9.17,0,0,0,0-6.2Zm42.81-3.11a9,9,0,0,0,0,6.21,9.2,9.2,0,0,0,0-6.21Zm-15.34-33.46a8.86,8.86,0,0,0,0,6.2,8.7,8.7,0,0,0,.54-3.1A8.41,8.41,0,0,0,346.23,315.64Z"/><path class="cls-12" d="M349.17,295.31c18.91,23.24,39.56,61.85,29.45,69.32-9.24,6.82-41.18-1.84-61.08-10.87-3.78-1.71,13.72-35.09,17.56-32.84a112.15,112.15,0,0,0,12.55,6.47c1.09.36-4.62-7.42-10.46-25.72C331.25,283.08,338.37,282,349.17,295.31Z"/><path class="cls-12" d="M285.86,315.74c-.23,4,9.62,3.71,9.62,3.71a7.36,7.36,0,0,0-3.2,3.84c-.9,2.89,3.24,5.57,3.24,5.57a9,9,0,0,0-2.73,4.58c-.58,2.86,3.22,6.15,3.22,6.15a8,8,0,0,0,.14,5.54c2.09,4.66,9.92,5.17,14.71,6.44a104.3,104.3,0,0,1,15.61,5.9l10.9-35.24S317,308.65,311.15,308.62C306.19,308.59,286.21,309.66,285.86,315.74Z"/><path class="cls-7" d="M295.56,319.35c5.28-1.24,10.84-1.21,16.21-1.12.12,0,.11.19,0,.19-5.33-.15-10.84,1.12-16.17,1.18A.13.13,0,0,1,295.56,319.35Z"/><path class="cls-7" d="M295.69,328.46a14.24,14.24,0,0,1,3.69,0c1.31.09,2.61.2,3.91.33q3.91.39,7.8,1c.12,0,.12.2,0,.19-2.6-.25-5.2-.47-7.81-.62-1.31-.07-2.61-.13-3.92-.18a16.8,16.8,0,0,1-3.68-.32A.19.19,0,0,1,295.69,328.46Z"/><path class="cls-7" d="M296.12,339.6a9.54,9.54,0,0,1,3.32.17l3.56.41c2.38.26,4.75.51,7.13.69.12,0,.12.2,0,.19-2.42-.17-4.85-.31-7.27-.49l-3.56-.3a9.1,9.1,0,0,1-3.2-.56C296.05,339.69,296.07,339.61,296.12,339.6Z"/><path class="cls-11" d="M338.33,321.88l-9.79,38S376,375,381.61,363.1s-20.24-58.6-35.85-72.37-10.59,6.88-10.18,8.53c1.82,7.33,11.07,26.7,11.07,26.7Z"/><path class="cls-2" d="M346.23,315.64a8.86,8.86,0,0,0,0,6.2,8.7,8.7,0,0,0,.54-3.1A8.41,8.41,0,0,0,346.23,315.64Zm15.34,33.46a9,9,0,0,0,0,6.21,9.2,9.2,0,0,0,0-6.21Zm-16.46-8.77a8.26,8.26,0,0,0-3.1.55,9.17,9.17,0,0,0,6.2,0A8.22,8.22,0,0,0,345.11,340.33ZM346.6,295a8.22,8.22,0,0,0-2.57-1.81,9.12,9.12,0,0,0,4.39,4.39A8.3,8.3,0,0,0,346.6,295Zm32.86,65.23a8.39,8.39,0,0,0-2.57-1.81,9,9,0,0,0,4.39,4.39A8.3,8.3,0,0,0,379.46,360.22ZM365,331.16a8.53,8.53,0,0,0-2.58-1.8,8.41,8.41,0,0,0,1.8,2.58,8.56,8.56,0,0,0,2.58,1.81A8.41,8.41,0,0,0,365,331.16Zm-23.42,31.25c-.27.3-.55.6-.8.91l1.13.28c.15-.14.31-.27.45-.41a8.69,8.69,0,0,0,1.81-2.58A8.58,8.58,0,0,0,341.62,362.41Z"/><path class="cls-7" d="M339.16,322c5.42,2.24,19.51,10.23,22.53,13.37.09.09,0,.24-.12.16-3-2.37-20.44-12.08-23.18-13.31a3.54,3.54,0,0,1-.22.43c-.1.13-.16,0-.15-.08a6.31,6.31,0,0,1,.25-.93Z"/><path class="cls-7" d="M342.13,343.67c.66-2.65,3.24-13.29,3.68-16,0-.05-.06-.07-.08,0-.92,2.49-3.77,12.9-4.44,15.56a149.16,149.16,0,0,0-3.54,16c0,.09.14.15.17.05C339.67,354.2,340.82,348.9,342.13,343.67Z"/><path class="cls-7" d="M347,326.21c-1.33-3.35-3-6.56-4.49-9.85s-3-6.53-4.4-9.85a0,0,0,1,0-.07,0c.82,2.26,1.63,4.5,2.52,6.73-.29-.36-.56-.73-.82-1.1-.47-.69-.9-1.4-1.32-2.11,0-.05-.09,0-.08,0a11.55,11.55,0,0,0,1.22,2.24,15.9,15.9,0,0,0,1.21,1.48c.37.91.74,1.81,1.14,2.71,1.47,3.32,2.57,6.6,4.53,9.66C346.53,326.29,347.07,326.32,347,326.21Z"/><path class="cls-7" d="M374.56,367.08c-9.8,1.37-40.59-5.76-45.84-7.13.1-.56.09-.76.23-1.55,0-.1-.14-.16-.17,0-.19.75-.78,2.22-.57,2.31,2.5,1.14,36.79,9,46.34,6.65C374.7,367.28,374.71,367.06,374.56,367.08Z"/><polygon class="cls-8" points="298.54 352.58 258.47 357.11 244.49 301.25 284.56 296.73 298.54 352.58"/><polygon class="cls-9" points="296.57 352.8 256.5 357.33 242.53 301.47 282.6 296.95 296.57 352.8"/><path class="cls-2" d="M264,325.25a4.36,4.36,0,0,0,4.67,3.42,3.54,3.54,0,0,0,3.12-4.3,4.37,4.37,0,0,0-4.68-3.42A3.53,3.53,0,0,0,264,325.25Z"/><path class="cls-12" d="M242.68,312.93c-1.76,4.64-6.66,10.61-6.8,14.3a4.22,4.22,0,0,0,2.69,4.27s-3.49,2.1-3.07,5.47c.21,1.73,3.17,2.91,3.17,2.91s-2.73,1.81-2.17,4.78c.44,2.37,3.34,3.19,3.34,3.19s-1.81,3-.58,5.23c2.48,4.59,23.09,2.94,25.66-4.9,1.2-3.66-3.81-3-3.81-3s7-2.72,6.74-7-6.69-3-6.69-3,6.73-2.69,6-7.07c-.72-4.57-7-2.19-7-2.19s4.33-3.48,3-6.72c-2.14-5.35-10.26,2.25-14.87,1.53l-3.1-7.26Z"/><path class="cls-12" d="M239.07,319.75c1.29-4.54-4.61-9.54-4-14.06.82-6.11,8.05-.76,10.25,7.84l.54,7Z"/><path class="cls-7" d="M240.28,348.05a.06.06,0,0,0,0,.11,35.78,35.78,0,0,0,21.12-3c.21-.1.13-.48-.12-.41A73.58,73.58,0,0,1,240.28,348.05Z"/><path class="cls-7" d="M238.57,339.93c-.08,0-.08.13,0,.15,7.12,1.1,16-.16,22.84-4.67.23-.15.29-.53,0-.37C256.67,337.7,245.25,340,238.57,339.93Z"/><path class="cls-7" d="M260.65,325.49c-6.7,4.07-14,5.59-21.79,6.07-.1,0-.08.15,0,.16,3.85.8,8.76,0,12.53-1a20.66,20.66,0,0,0,9.39-5C260.89,325.63,260.79,325.4,260.65,325.49Z"/><path class="cls-12" d="M325.92,300.77c4.38.17,10.3-7.64,12.11-13.38.12-.39-1.16-4-2.51-8.51-.81-2.73-1.64-5.79-2.2-8.63-.12-.59-17,7.85-17,7.85a46.37,46.37,0,0,1,3.88,10.58,7.22,7.22,0,0,1,.11,1.19,1.48,1.48,0,0,0,0,.2C320.4,292.36,321.69,300.61,325.92,300.77Z"/><path class="cls-7" d="M332.23,270.54c.12,5-.58,17.18-10.05,19.27a10.94,10.94,0,0,1-1.85.26.7.7,0,0,1,0-.2,8.43,8.43,0,0,0-.1-1.19,46.64,46.64,0,0,0-3.89-10.59S328.5,272,332.23,270.54Z"/><path class="cls-12" d="M336.35,251.54c1.83,6.48-2,25-6.64,29.08-6.77,5.88-17.66,6.23-22.61-1.87-4.79-7.85.59-31.93,5.79-35.6C320.55,237.76,333.65,242,336.35,251.54Z"/><path class="cls-7" d="M317.88,262.52s.08.09.07.14c-.34,1.23-.51,2.69.51,3.37,0,0,0,.09,0,.07C317.11,265.58,317.36,263.64,317.88,262.52Z"/><path class="cls-7" d="M319.3,261.49c2,.33,1.23,4.37-.65,4.07S317.59,261.22,319.3,261.49Z"/><path class="cls-7" d="M310.87,261.17c0-.05-.11,0-.12.09-.21,1.26-.66,2.67-1.87,2.86,0,0-.05.07,0,.07C310.3,264.27,310.88,262.4,310.87,261.17Z"/><path class="cls-7" d="M310,259.65c-2-.56-2.94,3.45-1.1,4S311.67,260.11,310,259.65Z"/><path class="cls-7" d="M321.25,259.24a15.38,15.38,0,0,1-1.46-.85,2.75,2.75,0,0,1-1.32-1.15.89.89,0,0,1,.34-1,2.17,2.17,0,0,1,2.18.19,3.18,3.18,0,0,1,1.53,1.7A.92.92,0,0,1,321.25,259.24Z"/><path class="cls-7" d="M308.52,257.25a13.65,13.65,0,0,0,1.69,0,2.71,2.71,0,0,0,1.73-.29.86.86,0,0,0,.24-1,2.16,2.16,0,0,0-2-1,3.18,3.18,0,0,0-2.19.65A.93.93,0,0,0,308.52,257.25Z"/><path class="cls-7" d="M318.16,274.21c-.25.34-.49.8-.94.91a3.56,3.56,0,0,1-1.41-.11,0,0,0,0,0,0,.07,1.72,1.72,0,0,0,1.71.44,1.35,1.35,0,0,0,.81-1.27C318.3,274.17,318.2,274.16,318.16,274.21Z"/><path class="cls-7" d="M317.09,270.56a4.37,4.37,0,0,1-3.22,1.33,5.44,5.44,0,0,1-1.54-.24,1.4,1.4,0,0,1-.29-.09,1.81,1.81,0,0,1-.27-.1.31.31,0,0,1-.19-.32h0a.5.5,0,0,1,0-.13h0l0-.11c.17-1,.55-2.41.55-2.41-.38.1-2.34.56-2.21.06A65.3,65.3,0,0,1,314.19,256c.06-.13.26-.06.22.07-.88,4-2.45,7.82-3.39,11.82a7.39,7.39,0,0,1,2.13-.22c.13.07-.79,2.79-.83,3.23,0,0,0,0,0,0a6,6,0,0,0,4.68-.49C317.1,270.37,317.19,270.47,317.09,270.56Z"/><path class="cls-7" d="M313.37,271.76a4.75,4.75,0,0,0,1.84,1.59,2.15,2.15,0,0,0,1.31.15c1-.2,1-1.06.9-1.82a5.06,5.06,0,0,0-.37-1.16A6.22,6.22,0,0,1,313.37,271.76Z"/><path class="cls-15" d="M315.21,273.35a2.15,2.15,0,0,0,1.31.15c1-.2,1-1.06.9-1.82A2.24,2.24,0,0,0,315.21,273.35Z"/><path class="cls-7" d="M337.08,266.05c-4.92.24-7.36-5.67-6.11-10.36,0,0-13.11,1.45-13.51-9.05a10.31,10.31,0,0,1-8.6,4.53L307.32,255c-1.33-.41-2.68-4.25.66-7.17,0,0,.34-5.23,4.26-8.29a7.16,7.16,0,0,1,7.71-.91,10.81,10.81,0,0,1,7.92-1.77,9.18,9.18,0,0,1,6.69,5.15s6.45,1.37,7.46,6a9.56,9.56,0,0,1-1.44,7.66s1.59,1.84.68,5.75C340.68,263.92,338.56,266,337.08,266.05Z"/><path class="cls-7" d="M317.77,245.71a12.22,12.22,0,0,0-.09,2.56,10.38,10.38,0,0,0,.42,2.49,6.65,6.65,0,0,0,2.95,3.83,10.49,10.49,0,0,0,4.79,1.31c.85,0,1.71,0,2.56,0s1.7-.15,2.57-.2c-.84.18-1.69.33-2.54.5s-1.73.12-2.6.18a10.57,10.57,0,0,1-5.09-1.26,6.9,6.9,0,0,1-3.08-4.22A10.32,10.32,0,0,1,317.77,245.71Z"/><path class="cls-7" d="M310.9,251.63a13.57,13.57,0,0,0,4-2,8.23,8.23,0,0,0,1.56-1.56,10.25,10.25,0,0,0,1.14-2,5.47,5.47,0,0,1-.75,2.22,6,6,0,0,1-1.58,1.78,7.79,7.79,0,0,1-2.08,1.13A7,7,0,0,1,310.9,251.63Z"/><path class="cls-12" d="M332.05,266.63s4.46-5.85,7.12-4.23-.85,10.2-4.11,11.26a3.26,3.26,0,0,1-4.29-1.93Z"/><path class="cls-7" d="M338.1,264.83a0,0,0,0,1,0,.09c-2.29.82-3.56,2.85-4.48,5a1.81,1.81,0,0,1,2.72-.38c.05,0,0,.13-.07.12a2,2,0,0,0-2.24.61,9.62,9.62,0,0,0-1.13,1.74c-.11.19-.47.07-.38-.16l0-.05C332.62,268.91,335,265,338.1,264.83Z"/><g class="cls-14"><path d="M325,268.36a.3.3,0,1,0,.59,0,.3.3,0,0,0-.31-.29A.3.3,0,0,0,325,268.36Z"/><path d="M318.73,268.34a.31.31,0,0,0,.31.29.3.3,0,0,0,.28-.31A.29.29,0,0,0,319,268,.3.3,0,0,0,318.73,268.34Z"/><path d="M321,270.43a.3.3,0,1,0,.59,0,.3.3,0,0,0-.31-.29A.3.3,0,0,0,321,270.43Z"/><path d="M324.7,265.91a.3.3,0,0,0,.31.29.3.3,0,0,0,.28-.31.31.31,0,0,0-.31-.29A.3.3,0,0,0,324.7,265.91Z"/><path d="M321.83,267.72a.3.3,0,0,0,.59,0,.3.3,0,1,0-.59,0Z"/><path d="M306.32,264.07a.31.31,0,0,0,.32.29.3.3,0,0,0,.28-.31.3.3,0,0,0-.6,0Z"/><path d="M308.72,265.66a.3.3,0,1,0,.59,0,.3.3,0,0,0-.31-.29A.3.3,0,0,0,308.72,265.66Z"/><path d="M308.21,267.65a.3.3,0,0,0,.31.28.3.3,0,0,0,.29-.31.3.3,0,0,0-.6,0Z"/><path d="M306.13,266.37a.3.3,0,1,0,.59,0,.3.3,0,0,0-.31-.29A.3.3,0,0,0,306.13,266.37Z"/></g></g><g id="Speech_Bubble" data-name="Speech Bubble"><path class="cls-2" d="M397.17,223.67a24.67,24.67,0,0,1-39.38,19.81l-12.08,3.09,5-11.26a24.67,24.67,0,1,1,46.43-11.64Z"/><path class="cls-7" d="M397.17,223.67c.17,14.27-12.63,26.05-26.82,24.82a24.89,24.89,0,0,1-12.77-4.72l.3.06L345.81,247l-.88.23.38-.83,5-11.27v.42c-5.68-10.11-2.92-23.77,6.06-31,16.23-13.36,40.74-1.86,40.8,19.15Zm0,0c.08-15.77-15.36-27.81-30.61-23.64a24.38,24.38,0,0,0-15.4,35.05l.11.22-.09.21-5.07,11.24-.51-.61,12.11-3,.16,0a24.08,24.08,0,0,0,15.89,5c12.85-.31,23.5-11.61,23.41-24.41Z"/><path class="cls-6" d="M371.78,210.12a9.45,9.45,0,1,0,13.36,0A9.46,9.46,0,0,0,371.78,210.12Zm11.44,4.42a1.77,1.77,0,0,1-2.5,0,1.79,1.79,0,0,1,0-2.5,1.77,1.77,0,0,1,2.5,0A1.75,1.75,0,0,1,383.22,214.54Z"/><rect class="cls-6" x="371.12" y="218.38" width="2.85" height="8.67" transform="translate(-48.37 328.67) rotate(-45)"/><polygon class="cls-1" points="369.45 221.63 373.61 225.79 372.58 226.81 370.87 226.28 371.39 228 369.71 229.69 367.43 229.21 367.9 231.5 367.52 231.88 365.8 231.35 366.33 233.07 364.61 232.54 365.14 234.26 363.8 235.59 361.52 235.12 361.99 237.4 360.82 238.57 356.19 239.04 356.66 234.42 369.45 221.63"/><rect class="cls-16" x="356.46" y="229.91" width="16.85" height="0.41" transform="translate(-55.85 325.41) rotate(-45)"/><g class="cls-17"><path d="M386.55,216.93a9.45,9.45,0,0,1-8.52,8.92c-8.1.68-11.59-9-6.07-14.46,5.23-5.47,14.89-2.42,14.59,5.54Zm0,0a7.76,7.76,0,0,0-8.51-8.06c-6.92.45-11.19,9.51-6,14.56s14.35.56,14.5-6.5Z"/></g></g></svg>