<svg id="Layer_1" data-name="Layer 1" xmlns="http://www.w3.org/2000/svg" viewBox="0 0 95.34 95.32"><defs><style>.cls-1{fill:#fff;}.cls-2{fill:#231f20;}</style></defs><ellipse class="cls-1" cx="48.28" cy="44.46" rx="43.7" ry="41.31"/><ellipse class="cls-1" cx="23.2" cy="76.06" rx="19.22" ry="9.91" transform="translate(-47.28 39.24) rotate(-45.46)"/><path class="cls-2" d="M47.66,0C21.38,0,0,20,0,44.46A42.05,42.05,0,0,0,8.16,69.33L6.59,91.86a3.24,3.24,0,0,0,4.48,3.21l20.61-8.72a50.29,50.29,0,0,0,16,2.58c26.28,0,47.66-20,47.66-44.47S73.94,0,47.66,0Zm0,82.46a44.11,44.11,0,0,1-15-2.63,3.18,3.18,0,0,0-2.66.22l-16.56,7,1.23-18a3.24,3.24,0,0,0-.61-2.57,35.7,35.7,0,0,1-7.59-22c0-20.95,18.48-38,41.19-38A42.46,42.46,0,0,1,80.14,21.13H68.65a3.24,3.24,0,0,0,0,6.47H84.56a35.47,35.47,0,0,1,4.29,16.86C88.85,65.41,70.38,82.46,47.66,82.46Z"/><circle class="cls-2" cx="26.66" cy="44.89" r="6.74"/><circle class="cls-2" cx="47.66" cy="44.88" r="6.74"/><circle class="cls-2" cx="68.65" cy="44.88" r="6.74"/></svg>