<svg id="Layer_1" data-name="Layer 1" xmlns="http://www.w3.org/2000/svg" viewBox="0 0 204.28 199.03"><defs><style>.cls-1{fill:none;stroke:#f37b6d;stroke-linecap:round;stroke-linejoin:round;stroke-width:4px;}</style></defs><path class="cls-1" d="M91.74,114.23H21V21.89H133v18.3M65.13,82.91V40.19m45.93,18v-18m-45.93,0h45.93"/><circle class="cls-1" cx="51.13" cy="82.91" r="14"/><path class="cls-1" d="M91.74,95.87a14,14,0,1,1,10.54-25.95M2,141.83V18.5A16.53,16.53,0,0,1,18.53,2H135.47A16.53,16.53,0,0,1,152,18.5V36.8m0,124.7v19A16.53,16.53,0,0,1,135.47,197H61.94"/><path class="cls-1" d="M152.28,50a50,50,0,1,1-50,50,50,50,0,0,1,50-50"/><path class="cls-1" d="M152.28,60a40,40,0,1,1-40,40,40,40,0,0,1,40-40m0,13.61v52.74M178.65,100H125.91M38.14,141.83H2L61.94,197V166A24,24,0,0,0,38.14,141.83Z"/></svg>