<svg id="Layer_1" data-name="Layer 1" xmlns="http://www.w3.org/2000/svg" viewBox="0 0 95.32 95.32"><defs><style>.cls-1{fill:#231f20;}</style></defs><path class="cls-1" d="M47.66,0C21.38,0,0,20,0,44.46A42.07,42.07,0,0,0,8.16,69.33L6.59,91.86a3.24,3.24,0,0,0,4.48,3.21l20.61-8.72a50.5,50.5,0,0,0,16,2.58c26.28,0,47.66-20,47.66-44.47S73.94,0,47.66,0Zm0,82.46a44,44,0,0,1-15-2.63,3.2,3.2,0,0,0-2.66.22l-16.56,7L14.67,69a3.25,3.25,0,0,0-.61-2.57A35.68,35.68,0,0,1,6.47,44.46c0-20.95,18.48-38,41.19-38A42.46,42.46,0,0,1,80.14,21.13H68.65a3.24,3.24,0,0,0,0,6.47H84.56a35.42,35.42,0,0,1,4.29,16.86C88.85,65.41,70.38,82.46,47.66,82.46Z"/><circle class="cls-1" cx="26.67" cy="44.88" r="6.74" transform="translate(-15.01 13.44) rotate(-22.24)"/><circle class="cls-1" cx="47.66" cy="44.88" r="6.74" transform="translate(-13.62 21.84) rotate(-22.67)"/><circle class="cls-1" cx="68.65" cy="44.88" r="6.74" transform="translate(-8.68 17.55) rotate(-13.71)"/></svg>