<svg width="128" height="129" viewBox="0 0 128 129" fill="none" xmlns="http://www.w3.org/2000/svg">
<rect x="4.57129" y="5.25098" width="120" height="120" rx="53" fill="#EBEBEB"/>
<rect x="0.5" y="1.17969" width="127" height="127" rx="52.5" stroke="#AEDCFF"/>
<path d="M86.3051 46.3383C88.61 46.7838 91.2865 45.7442 92.3274 43.665C93.3683 41.5858 92.4018 38.5412 90.1713 37.8729C90.7661 37.2046 91.8813 37.1304 92.5505 36.462C93.1453 35.868 93.294 34.9769 93.1453 34.1601C92.9222 33.3432 92.4018 32.6749 91.807 32.0809C89.6509 29.8531 86.3795 28.665 83.2568 29.0363C85.1899 28.1452 85.5616 25.3234 84.5207 23.467C83.4055 21.6106 81.398 20.571 79.3163 19.9769C75.004 18.6403 70.32 18.7145 65.859 19.4571C62.662 19.9769 59.465 20.868 56.9371 22.9472C57.5319 22.2046 58.1267 21.462 58.5728 20.6452C58.7215 20.3482 58.9445 19.9026 58.7215 19.6056C58.4985 19.3086 57.978 19.3828 57.6063 19.6056C55.1527 20.7195 52.9222 22.5759 51.4352 24.8779C51.7326 23.3927 52.03 21.7591 51.5096 20.3482C51.4352 20.1997 51.3609 20.0512 51.2122 19.9026C50.8404 19.6056 50.32 19.9769 50.0226 20.3482C48.2382 22.3531 47.123 25.0264 46.9743 27.6997C44.149 28.5908 41.175 30.3729 39.1676 32.6749C38.7215 33.1205 38.4241 33.9373 38.8702 34.3086C39.0189 34.4571 39.3163 34.4571 39.5393 34.5313C40.7289 34.6056 41.8442 34.1601 42.7364 33.4175C40.7289 34.9769 39.0932 37.0561 37.978 39.3581C37.1601 41.1403 36.7141 43.071 36.9371 45.0759C37.1602 47.0066 38.201 48.863 39.9111 49.9026C40.952 50.4967 42.662 50.5709 43.0337 49.3828L86.3051 46.3383Z" fill="#382D21"/>
<path d="M64 103.517C74.6319 103.517 81.2491 97.5017 84.7435 92.8234C78.052 82.1304 79.0929 61.8581 79.0929 61.4868L63.9256 77.6007L48.7583 61.4868C48.7583 61.9324 49.7992 82.0561 43.1821 92.7492C45.9331 96.9076 52.1784 103.517 64 103.517Z" fill="#F0B9B6"/>
<path d="M104.892 108.566C104.818 108.64 104.669 108.789 104.595 108.863C104.372 109.086 104.149 109.234 104 109.457C93.3681 118.962 79.3904 124.68 64.0001 124.68C48.3124 124.68 34.0373 118.665 23.4053 108.863C23.331 108.789 23.1823 108.64 23.1079 108.566C29.2046 105.15 37.2343 100.917 42.2901 94.1599C42.6618 93.7144 42.9592 93.2688 43.2566 92.749C46.0075 96.9074 52.2529 103.516 64.1488 103.516C74.7808 103.516 81.3978 97.5015 84.8923 92.8233C85.1897 93.2688 85.4871 93.7144 85.7845 94.1599C90.7659 100.917 98.7956 105.15 104.892 108.566Z" fill="#DC653D"/>
<path d="M85.487 51.6848C86.0075 49.8284 87.4944 48.269 89.3532 47.8234C90.171 47.6006 91.1376 47.6006 91.8811 47.9719C92.6989 48.3432 93.2194 49.1601 93.5168 49.9769C94.2603 51.8333 93.9628 54.061 93.0707 55.8432C92.1041 57.6254 90.5428 59.0363 88.7584 60.0759C87.1971 60.967 85.3383 61.561 83.7026 60.8927L85.487 51.6848Z" fill="#F0B9B6"/>
<path d="M85.2641 53.0215C85.6358 51.6106 86.8254 50.4225 88.238 50.0512C88.9072 49.9027 89.5764 49.9027 90.1712 50.1997C90.7659 50.4967 91.2121 51.0908 91.4351 51.6848C92.0299 53.0957 91.8068 54.8036 91.0634 56.2145C90.3199 57.5512 89.1302 58.665 87.792 59.4076C86.6024 60.0759 85.1897 60.5215 83.9258 60.0759L85.2641 53.0215Z" fill="#F0B9B6"/>
<path d="M42.3642 51.6848C41.8438 49.8284 40.3568 48.269 38.498 47.8234C37.6802 47.6006 36.7136 47.6006 35.9701 47.9719C35.1523 48.3432 34.6319 49.1601 34.3345 49.9769C33.591 51.8333 33.8884 54.061 34.7806 55.8432C35.7471 57.6254 37.3084 59.0363 39.0928 60.0759C40.6542 60.967 42.5129 61.561 44.1486 60.8927L42.3642 51.6848Z" fill="#F0B9B6"/>
<path d="M42.5871 53.0215C42.2153 51.6106 41.0257 50.4225 39.6131 50.0512C38.944 49.9027 38.2748 49.9027 37.68 50.1997C37.0852 50.4967 36.6391 51.0908 36.4161 51.6848C35.8213 53.0957 36.0443 54.8036 36.7878 56.2145C37.5313 57.5512 38.7209 58.665 40.0592 59.4076C41.2488 60.0759 42.6614 60.5215 43.9254 60.0759L42.5871 53.0215Z" fill="#F0B9B6"/>
<path d="M47.4943 44.1851C48.9813 40.695 49.5017 36.8336 49.7248 33.0464C52.0296 35.8682 55.0779 38.1702 58.4237 39.5811C59.985 40.2494 61.695 40.695 63.2564 40.1751C63.6281 40.1009 63.9255 39.8781 64.1486 39.5811C64.446 39.1355 64.3716 38.5415 64.2973 37.9474C63.9999 36.8336 63.4795 35.794 62.8103 34.8286C67.5687 38.8385 73.6653 40.695 79.9107 40.5464C81.0259 44.8534 83.0333 49.3088 86.4534 52.1306C86.6765 50.4969 86.8252 48.9375 86.8252 47.5266C86.8252 34.8286 76.4906 24.5068 63.7768 24.5068C51.0631 24.5068 40.7285 34.8286 40.7285 47.5266C40.7285 48.8633 40.8029 50.2742 41.0259 51.7593C44.0742 50.1256 46.2304 47.3039 47.4943 44.1851Z" fill="#382D21"/>
<path d="M80.0593 40.6206C73.8139 40.7691 67.7173 38.9127 62.9589 34.9028C63.6281 35.7939 64.1485 36.9077 64.4459 38.0216C64.5946 38.5414 64.669 39.2097 64.2972 39.6553C64.0742 39.9523 63.7768 40.1008 63.405 40.2493C61.8437 40.7691 60.0593 40.3236 58.5723 39.6553C55.2266 38.2444 52.1039 35.9424 49.8734 33.1206C49.576 36.9077 49.1299 40.7691 47.6429 44.2592C46.379 47.378 44.2229 50.1998 41.3232 51.9077C43.182 65.0513 52.6244 84.581 63.9998 84.581C75.3009 84.581 84.669 65.4226 86.6764 52.279C83.182 49.383 81.1745 44.9275 80.0593 40.6206Z" fill="#F0B9B6"/>
<path d="M47.6431 70.8434C49.7992 73.9622 52.104 76.8582 54.7806 79.2345C56.1189 80.4226 57.6059 81.4622 59.1672 82.2048C59.9851 82.5761 60.7286 82.8731 61.5464 83.0959C62.3643 83.3186 63.1821 83.3929 63.9999 83.3929C65.6356 83.3929 67.3457 82.8731 68.8327 82.1305C70.394 81.3879 71.8066 80.2741 73.1449 79.086C75.8215 76.6355 78.1263 73.7394 80.2081 70.6206C79.6133 72.4028 78.7211 74.1107 77.7546 75.7444C76.788 77.378 75.6728 78.9374 74.3345 80.3483C73.6654 81.0909 72.9962 81.7592 72.2527 82.3533C71.5092 82.9473 70.6914 83.5414 69.7992 84.0612C68.0892 85.0266 66.0074 85.6949 63.9999 85.6949C62.9591 85.6949 61.9182 85.5464 60.9516 85.3236C59.9851 85.0266 59.0185 84.6553 58.1263 84.2097C56.3419 83.2444 54.855 81.982 53.5167 80.5711C50.9145 77.6751 48.907 74.4077 47.6431 70.8434Z" fill="#382D21"/>
<path d="M56.1193 49.7543C57.3922 49.7543 58.4241 48.7237 58.4241 47.4524C58.4241 46.181 57.3922 45.1504 56.1193 45.1504C54.8464 45.1504 53.8145 46.181 53.8145 47.4524C53.8145 48.7237 54.8464 49.7543 56.1193 49.7543Z" fill="#382D21"/>
<path d="M73.071 49.7543C74.3439 49.7543 75.3758 48.7237 75.3758 47.4524C75.3758 46.181 74.3439 45.1504 73.071 45.1504C71.798 45.1504 70.7661 46.181 70.7661 47.4524C70.7661 48.7237 71.798 49.7543 73.071 49.7543Z" fill="#382D21"/>
<path d="M65.1156 66.6849C61.3981 66.6849 57.978 65.571 57.978 65.571C57.978 65.571 59.1676 67.576 60.8033 69.2839C63.4055 68.17 66.5282 68.3186 69.0561 69.5809C70.9148 67.6502 72.1044 65.1255 72.1044 65.1255C72.1044 65.1255 68.833 66.6849 65.1156 66.6849Z" fill="#382D21"/>
<path d="M60.8032 69.2096C62.0672 70.472 63.6285 71.5858 65.1898 71.5858C66.6024 71.5858 67.9407 70.6205 69.056 69.4324C66.5281 68.2443 63.4798 68.0957 60.8032 69.2096Z" fill="#DC653D"/>
<g opacity="0.47">
<g opacity="0.47">
<path opacity="0.47" d="M47.5688 33.1948C47.5688 35.7196 46.974 38.1701 46.0818 40.5463C45.1152 42.8483 43.7769 45.076 42.0669 46.8582C43.3308 44.7047 44.4461 42.5513 45.4126 40.2493C46.3048 38.0216 46.974 35.6453 47.5688 33.1948Z" fill="#B66D46"/>
</g>
<g opacity="0.47">
<path opacity="0.47" d="M39.8364 41.2143C41.3234 39.7292 42.5874 38.1698 43.7026 36.4618C44.8178 34.7539 45.71 32.8975 46.4535 30.9668C46.3048 33.046 45.487 35.051 44.3717 36.8331C43.1821 38.6153 41.6952 40.1747 39.8364 41.2143Z" fill="#B66D46"/>
</g>
<g opacity="0.47">
<path opacity="0.47" d="M52.4014 27.6994C53.0705 28.8133 53.814 30.0014 54.7805 30.9667C55.2266 31.4123 55.8214 31.7836 56.3419 32.0806C56.9367 32.3034 57.6058 32.4519 58.0519 32.0806C58.498 31.7836 58.498 31.041 58.498 30.3727C58.498 29.7044 58.4236 29.0361 58.2749 28.442C57.9775 27.1796 57.4571 25.9915 56.6392 24.9519L57.1597 24.5806C58.3493 26.437 60.2824 27.6994 62.2155 28.739C64.2229 29.7786 66.3047 30.6697 68.4608 31.338C70.617 32.0063 72.8475 32.4519 75.0779 32.5261C77.3084 32.6004 79.6132 32.3776 81.8437 31.7093C79.6876 32.5262 77.3828 32.8974 75.0779 32.8974C72.7731 32.8974 70.4683 32.5261 68.2378 31.9321C66.0073 31.338 63.8511 30.4469 61.8437 29.3331C59.8363 28.2935 57.8289 26.8826 56.5649 24.8776L57.0854 24.5063C57.9032 25.6202 58.498 26.9568 58.7954 28.2935C58.9441 28.9618 58.9441 29.7044 58.9441 30.3727C58.9441 30.744 58.8698 31.041 58.7954 31.4123C58.7211 31.7836 58.5724 32.1549 58.2006 32.3776C57.9032 32.6004 57.4571 32.6747 57.0854 32.6747C56.7136 32.6747 56.3419 32.5261 56.0445 32.3776C55.3753 32.0806 54.8549 31.6351 54.4088 31.1153C53.5909 30.1499 52.9962 28.8875 52.4014 27.6994Z" fill="#B66D46"/>
</g>
<g opacity="0.47">
<path opacity="0.47" d="M62.0669 23.3184C63.0334 24.4322 64.2973 25.2491 65.5613 25.8431C66.8996 26.4372 68.3122 26.8085 69.7249 26.957C72.6245 27.254 75.5241 26.7342 78.4981 26.2887C75.7472 27.3283 72.6988 27.9966 69.6505 27.6995C68.1635 27.551 66.6765 27.1055 65.2639 26.3629C64 25.6203 62.8847 24.5807 62.0669 23.3184Z" fill="#B66D46"/>
</g>
<g opacity="0.47">
<path opacity="0.47" d="M69.8735 35.348C71.7323 36.2391 73.7397 36.9075 75.7471 37.2787C76.2676 37.353 76.788 37.4273 77.2341 37.5015L77.9776 37.5758C78.2006 37.5758 78.4981 37.65 78.6468 37.5758C78.8698 37.5758 79.0185 37.4273 79.0185 37.4273C79.0185 37.4273 79.0185 37.4273 79.0185 37.353C79.0185 37.2787 78.9442 37.2045 78.8698 37.056L78.052 35.7193L77.3828 34.6055L78.5724 35.1995C79.9107 35.8678 81.249 36.4619 82.736 36.9075C83.4795 37.1302 84.2229 37.2787 84.8921 37.4273C85.6356 37.5758 86.3791 37.65 87.1226 37.7985C86.3791 37.8728 85.5613 37.7985 84.8178 37.7985C84.0743 37.7243 83.3308 37.5758 82.5129 37.4273C81.026 37.1302 79.5389 36.6104 78.2006 35.8678L78.6468 35.348L79.4646 36.6847C79.5389 36.7589 79.6133 36.9074 79.6876 37.056C79.762 37.2045 79.8364 37.5015 79.762 37.7243C79.6877 37.9471 79.4646 38.0956 79.3159 38.1698C79.1672 38.2441 79.0185 38.2441 78.7955 38.3183C78.4981 38.3183 78.2006 38.3183 77.9776 38.3183C77.6802 38.3183 77.4572 38.2441 77.1598 38.2441C76.6393 38.1698 76.1189 38.0956 75.5984 37.9471C73.5166 37.4273 71.5836 36.5362 69.8735 35.348Z" fill="#B66D46"/>
</g>
<g opacity="0.47">
<path opacity="0.47" d="M82.8848 40.0264C83.8513 40.9917 84.8922 41.7343 86.0818 42.2541C87.2714 42.7739 88.5353 42.9967 89.8736 42.9224C88.6096 43.5165 87.0483 43.4422 85.7844 42.9224C84.5204 42.4026 83.3309 41.363 82.8848 40.0264Z" fill="#B66D46"/>
</g>
</g>
<path d="M57.3085 58.8137C57.3085 60.5959 55.1524 62.0067 52.4758 62.0067C49.7992 62.0067 47.6431 60.5959 47.6431 58.8137C47.6431 57.0315 49.7992 55.6206 52.4758 55.6206C55.1524 55.6206 57.3085 57.0315 57.3085 58.8137Z" fill="#F0B9B6"/>
<path d="M80.8031 58.8137C80.8031 60.5959 78.647 62.0067 75.9704 62.0067C73.2938 62.0067 71.1377 60.5959 71.1377 58.8137C71.1377 57.0315 73.2938 55.6206 75.9704 55.6206C78.647 55.6206 80.8031 57.0315 80.8031 58.8137Z" fill="#F0B9B6"/>
<path d="M64.1486 45.1504C64.8921 46.5613 65.4869 47.9722 66.0817 49.3831C66.6765 50.794 67.1226 52.2791 67.643 53.7642C68.0891 55.2494 68.5352 56.7345 68.9069 58.2197C69.2787 59.7048 69.5761 61.2642 69.8735 62.7494L70.0222 63.4177H69.3531C68.3122 63.492 67.2713 63.5662 66.156 63.6405C65.1152 63.7147 63.9999 63.789 62.959 63.7147L66.0817 62.8979C67.1226 62.6751 68.1634 62.3781 69.2787 62.2296L68.7583 62.9722C68.3122 61.487 67.9404 60.0019 67.5687 58.5167L66.3791 54.0613C66.0073 52.5761 65.6356 51.091 65.2638 49.6058C64.8177 48.1949 64.446 46.6355 64.1486 45.1504Z" fill="#382D21"/>
</svg>
