<svg width="128" height="129" viewBox="0 0 128 129" fill="none" xmlns="http://www.w3.org/2000/svg">
<rect x="4.57129" y="5.25098" width="120" height="120" rx="53" fill="#EBEBEB"/>
<rect x="0.5" y="1.17969" width="127" height="127" rx="52.5" stroke="#AEDCFF"/>
<path d="M61.4752 103.442C72.094 103.442 78.7029 97.427 82.193 92.7487C75.5098 82.0557 76.5494 61.7834 76.5494 61.4121L61.4009 77.4517L46.2524 61.4121C46.2524 61.8577 47.292 81.9814 40.6831 92.6745C43.4306 96.8329 49.6683 103.442 61.4752 103.442Z" fill="#F0B9B6"/>
<path d="M103.95 109.456C93.3315 118.961 79.3711 124.679 63.9998 124.679C47.6632 124.679 32.886 118.145 22.1187 107.6C27.9107 104.333 35.0394 100.249 39.7177 94.0852C40.0889 93.6397 40.386 93.1199 40.683 92.6743C43.4305 96.8327 49.6681 103.442 61.5493 103.442C72.1681 103.442 78.7771 97.4268 82.2672 92.7486C82.5642 93.1941 82.8612 93.6397 83.1582 94.0852C88.6533 101.511 97.7127 105.818 103.95 109.456Z" fill="#3F51DB"/>
<path d="M82.9355 51.6101C83.4553 49.7537 84.9404 48.1943 86.7969 47.7487C87.6137 47.5259 88.5791 47.5259 89.3216 47.8972C90.1385 48.2685 90.6583 49.0853 90.9553 49.9022C91.6979 51.7586 91.4008 53.9863 90.5098 55.7685C89.5444 57.5507 87.985 58.9616 86.2028 60.0012C84.6434 60.8923 82.787 61.4863 81.1533 60.818L82.9355 51.6101Z" fill="#F0B9B6"/>
<path d="M82.7126 52.9468C83.0839 51.5359 84.272 50.3477 85.6829 49.9765C86.3512 49.8279 87.0195 49.8279 87.6136 50.125C88.2077 50.422 88.6532 51.0161 88.876 51.6101C89.47 53.021 89.2473 54.7289 88.5047 56.1398C87.7621 57.4765 86.574 58.5903 85.2374 59.3329C84.0492 60.0012 82.6384 60.4468 81.376 60.0012L82.7126 52.9468Z" fill="#F0B9B6"/>
<path d="M39.866 51.6101C39.3462 49.7537 37.861 48.1943 36.0046 47.7487C35.1877 47.5259 34.2224 47.5259 33.4798 47.8972C32.663 48.2685 32.1432 49.0853 31.8462 49.9022C31.1036 51.7586 31.4006 53.9863 32.2917 55.7685C33.2571 57.5507 34.8165 58.9616 36.5986 60.0012C38.158 60.8923 40.0145 61.4863 41.6481 60.818L39.866 51.6101Z" fill="#F0B9B6"/>
<path d="M40.0888 52.9468C39.7175 51.5359 38.5294 50.3477 37.1185 49.9765C36.4502 49.8279 35.7818 49.8279 35.1878 50.125C34.5937 50.422 34.1482 51.0161 33.9254 51.6101C33.3313 53.021 33.5541 54.7289 34.2967 56.1398C35.0393 57.4765 36.2274 58.5903 37.564 59.3329C38.7521 60.0012 40.163 60.4468 41.4254 60.0012L40.0888 52.9468Z" fill="#F0B9B6"/>
<path d="M44.9899 44.1103C46.475 40.6203 46.9948 36.7589 47.2176 32.9717C49.5196 35.7935 52.5641 38.0955 55.9057 39.5064C57.4651 40.1747 59.173 40.6203 60.7324 40.1005C61.1037 40.0262 61.4007 39.8034 61.6235 39.5064C61.9205 39.0608 61.8463 38.4668 61.772 37.8727C61.475 36.7589 60.9552 35.7193 60.2869 34.7539C65.0394 38.7638 71.1285 40.6203 77.3661 40.4717C78.48 44.7787 80.4849 49.2341 83.9007 52.0559C84.1235 50.4222 84.272 48.8628 84.272 47.4519C84.272 34.7539 73.9502 24.4321 61.2522 24.4321C48.5542 24.4321 38.2324 34.7539 38.2324 47.4519C38.2324 48.7886 38.3067 50.1995 38.5295 51.6846C41.574 50.0509 43.7275 47.2292 44.9899 44.1103Z" fill="#F19A5E"/>
<path d="M77.4406 40.5459C71.2029 40.6944 65.1138 38.838 60.3614 34.8281C61.0297 35.7192 61.5495 36.833 61.8465 37.9469C61.995 38.4667 62.0693 39.135 61.698 39.5806C61.4752 39.8776 61.1782 40.0261 60.8069 40.1746C59.2475 40.6944 57.4653 40.2489 55.9802 39.5806C52.6386 38.1697 49.5198 35.8677 47.292 33.0459C46.995 36.833 46.5495 40.6944 45.0643 44.1845C43.8019 47.3033 41.6485 50.1251 38.7524 51.833C40.6089 64.9766 50.0396 84.5063 61.401 84.5063C72.6881 84.5063 82.0445 65.3479 84.0495 52.2043C80.6336 49.3083 78.5544 44.8528 77.4406 40.5459Z" fill="#F0B9B6"/>
<path d="M45.1387 70.7687C47.2921 73.8875 49.5941 76.7835 52.2674 79.1598C53.604 80.3479 55.0892 81.3875 56.6486 82.1301C57.4654 82.5013 58.208 82.7984 59.0248 83.0211C59.8416 83.2439 60.6585 83.3182 61.4753 83.3182C63.109 83.3182 64.8169 82.7984 66.302 82.0558C67.8614 81.3132 69.2723 80.1994 70.609 79.0112C73.2822 76.5607 75.5842 73.6647 77.6634 70.5459C77.0694 72.3281 76.1783 74.036 75.2129 75.6697C74.2476 77.3033 73.1337 78.8627 71.7971 80.2736C71.1288 81.0162 70.4604 81.6845 69.7179 82.2786C68.9753 82.8726 68.1585 83.4667 67.2674 83.9865C65.5595 84.9518 63.4803 85.6201 61.4753 85.6201C60.4357 85.6201 59.3961 85.4716 58.4307 85.2489C57.4654 84.9518 56.5001 84.5805 55.609 84.135C53.8268 83.1697 52.3416 81.9073 51.005 80.4964C48.406 77.6003 46.401 74.333 45.1387 70.7687Z" fill="#382D21"/>
<path d="M45.1384 31.7091C44.6186 29.6299 44.6186 27.4022 45.2126 25.323C45.4354 24.6547 45.6582 23.9864 46.1037 23.4666C46.2522 23.3181 46.5492 23.0953 46.772 23.2438C46.9948 23.3181 47.0691 23.6151 47.1433 23.8379C47.4403 25.1745 47.4403 26.5854 47.1433 27.8478C47.2918 26.9567 47.6631 26.1398 48.1087 25.323C48.5542 24.5804 49.2225 23.9121 50.0394 23.9121C50.1879 23.9121 50.2621 23.9121 50.3364 23.9864C50.4849 24.0606 50.4849 24.2834 50.4849 24.5062C50.5592 26.3626 50.1879 28.2933 49.2968 30.0012L45.1384 31.7091Z" fill="#F19A5E"/>
<path d="M53.6037 49.6796C54.8751 49.6796 55.9057 48.649 55.9057 47.3777C55.9057 46.1063 54.8751 45.0757 53.6037 45.0757C52.3324 45.0757 51.3018 46.1063 51.3018 47.3777C51.3018 48.649 52.3324 49.6796 53.6037 49.6796Z" fill="#382D21"/>
<path d="M70.5344 49.6796C71.8058 49.6796 72.8364 48.649 72.8364 47.3777C72.8364 46.1063 71.8058 45.0757 70.5344 45.0757C69.2631 45.0757 68.2324 46.1063 68.2324 47.3777C68.2324 48.649 69.2631 49.6796 70.5344 49.6796Z" fill="#382D21"/>
<path d="M62.9603 45.2241C63.2573 46.7835 63.4059 48.2687 63.6286 49.8281C63.7772 51.3875 63.9257 52.8726 64.1484 54.432L64.5197 59.036C64.6682 60.5954 64.7425 62.0806 64.891 63.64L64.9653 64.4568L64.2227 64.234C63.7771 64.0855 63.3316 63.937 62.8861 63.7142C62.4405 63.4914 62.0692 63.2687 61.6237 63.0459C60.8069 62.5261 60.1385 61.932 59.4702 61.2637C60.287 61.7093 61.1039 62.1548 61.9207 62.4518C62.3663 62.6004 62.7375 62.7489 63.1831 62.8974C63.6286 63.0459 63.9999 63.1202 64.4455 63.1944L63.7771 63.7885C63.4801 62.3033 63.2573 60.7439 63.1088 59.1845C62.9603 57.6251 62.8118 56.14 62.7375 54.5806C62.6633 53.0211 62.589 51.4617 62.6633 49.9023C62.6633 48.3429 62.8118 46.7835 62.9603 45.2241Z" fill="#382D21"/>
<path d="M62.5892 66.6102C58.8763 66.6102 55.4604 65.4963 55.4604 65.4963C55.4604 65.4963 56.6486 67.5013 58.2822 69.2092C60.8812 68.0953 64.0001 68.2438 66.5248 69.5062C68.3812 67.5755 69.5694 65.0508 69.5694 65.0508C69.5694 65.0508 66.302 66.6102 62.5892 66.6102Z" fill="#382D21"/>
<path d="M58.2822 69.1349C59.5446 70.3973 61.104 71.5111 62.6634 71.5111C64.0743 71.5111 65.4109 70.5458 66.5248 69.3577C64 68.1695 60.8812 68.021 58.2822 69.1349Z" fill="#DC653D"/>
<path d="M50.9307 29.2588C51.5247 30.4469 52.2673 31.635 53.1584 32.6004C53.6039 33.1202 54.1237 33.4915 54.6435 33.937C55.1633 34.3083 55.7574 34.7538 56.3515 34.9023C56.6485 34.9766 56.9455 34.9766 57.1683 34.9023C57.3911 34.7538 57.4653 34.5311 57.4653 34.3083C57.4653 33.7142 57.1683 33.0459 57.0198 32.4518C56.5742 31.1895 56.0544 30.0014 55.3119 28.8875L54.3465 27.4023L55.7574 28.4419C57.4653 29.7043 59.3218 30.7439 61.1782 31.635C63.1089 32.5261 65.0396 33.2687 67.1188 33.8627C69.1237 34.3825 71.2772 34.8281 73.3564 35.0509C75.4356 35.2736 77.5891 35.2736 79.7426 35.1251C77.6633 35.4221 75.5099 35.5707 73.3564 35.4221C71.2029 35.2736 69.0495 34.9766 66.9703 34.4568C64.8911 33.937 62.8119 33.1944 60.8812 32.3033C58.9505 31.4122 57.094 30.2984 55.3119 29.036L55.8317 28.5905C56.5742 29.7786 57.094 31.041 57.5396 32.3033C57.6138 32.6004 57.7623 32.9716 57.8366 33.2687C57.9109 33.5657 57.9851 33.937 57.9851 34.3083C57.9851 34.6796 57.7624 35.1994 57.3911 35.3479C56.9455 35.5707 56.5742 35.4964 56.2029 35.3479C55.8317 35.2736 55.5346 35.0509 55.2376 34.8281C54.9406 34.6053 54.6435 34.4568 54.4208 34.234C53.901 33.7885 53.3812 33.3429 52.9356 32.8231C52.1188 31.7093 51.3762 30.5212 50.9307 29.2588Z" fill="#B66D46"/>
<path d="M58.4307 26.7339C60.9554 27.922 63.5544 28.9616 66.1534 29.7784C68.7524 30.5953 71.5 31.2636 74.2475 31.7834C71.4257 31.8576 68.6039 31.3378 65.9307 30.521C63.3317 29.6299 60.7326 28.3676 58.4307 26.7339Z" fill="#B66D46"/>
<path d="M45.0644 33.1201C45.0644 35.6449 44.4703 38.0954 43.5792 40.4716C42.6139 42.7736 41.2773 45.0013 39.5693 46.7835C40.8317 44.63 41.9456 42.4766 42.9109 40.1746C43.802 37.9468 44.4703 35.5706 45.0644 33.1201Z" fill="#B66D46"/>
<path d="M79.6682 36.6104C80.0395 38.541 80.4108 40.3975 81.0048 42.1797C81.5989 43.9618 82.3415 45.744 83.2326 47.4519C81.8959 46.041 80.9306 44.2589 80.3365 42.4024C79.7425 40.546 79.4454 38.541 79.6682 36.6104Z" fill="#B66D46"/>
<path d="M54.7921 58.739C54.7921 60.5212 52.6387 61.932 49.9654 61.932C47.2921 61.932 45.1387 60.5212 45.1387 58.739C45.1387 56.9568 47.2921 55.5459 49.9654 55.5459C52.5644 55.5459 54.7921 56.9568 54.7921 58.739Z" fill="#F0B9B6"/>
<path d="M78.2575 58.739C78.2575 60.5212 76.104 61.932 73.4307 61.932C70.7575 61.932 68.604 60.4469 68.604 58.739C68.604 56.9568 70.7575 55.5459 73.4307 55.5459C76.104 55.5459 78.2575 56.9568 78.2575 58.739Z" fill="#F0B9B6"/>
</svg>
