<svg width="128" height="129" viewBox="0 0 128 129" fill="none" xmlns="http://www.w3.org/2000/svg">
<rect x="4.57129" y="5.25098" width="120" height="120" rx="53" fill="#EBEBEB"/>
<rect x="0.5" y="1.17969" width="127" height="127" rx="52.5" stroke="#AEDCFF"/>
<path d="M32.9606 111.091C29.0249 111.313 25.1635 107.972 23.8269 104.333C21.3764 103.442 19.2229 101.437 18.4804 98.9125C17.7378 96.3877 18.7774 93.1204 20.8566 91.561C18.0348 89.9273 17.1437 86.0659 18.1091 82.9471C19.0744 79.8283 21.5249 77.3778 24.1982 75.5214C26.7972 73.5907 29.7675 72.0313 32.218 69.9521C35.9309 66.8333 38.6041 62.6006 39.718 57.9224H57.1685V111.61L32.9606 111.091Z" fill="#DC653D"/>
<path d="M96.2279 111.239C100.164 111.462 104.025 108.12 105.362 104.482C107.812 103.591 109.966 101.586 110.708 99.0609C111.451 96.5361 110.411 93.2688 108.332 91.7094C111.154 90.0757 112.045 86.2144 111.079 83.0955C110.114 79.9767 107.664 77.5262 104.99 75.6698C102.391 73.7391 99.421 72.1797 96.9705 70.1005C93.2577 66.9817 90.5844 62.749 89.4705 58.0708H72.02V111.907L96.2279 111.239Z" fill="#DC653D"/>
<path d="M82.5644 111.759L84.4951 97.3527C83.3812 96.3131 82.3416 95.1993 81.4505 94.0854C73.802 83.8379 74.9159 61.8577 74.9159 61.4121L64 77.4517L53.0842 61.3379C53.0842 61.7834 54.1981 83.7636 46.5495 94.0112C45.5842 95.2735 44.5446 96.3874 43.2822 97.5013L45.9555 111.684H82.5644V111.759Z" fill="#E1A0A1"/>
<path d="M104.545 108.862C104.322 109.085 104.099 109.234 103.951 109.456C93.3318 118.961 79.3714 124.679 64.0001 124.679C48.3318 124.679 34.0744 118.664 23.4556 108.862C24.2724 108.491 25.0892 108.12 25.9061 107.749C31.6239 105.15 38.4556 101.956 43.3566 97.5753L45.9556 111.387L46.0298 111.758H82.5645V111.536L84.4209 97.3525C89.6189 102.105 97.0447 105.372 102.985 108.12C103.579 108.417 104.099 108.64 104.545 108.862Z" fill="#F1CE76"/>
<path d="M85.5351 51.6106C86.0549 49.7542 87.54 48.1947 89.3965 47.7492C90.2133 47.5264 91.1787 47.5264 91.9213 47.8977C92.7381 48.269 93.2579 49.0858 93.5549 49.9027C94.2975 51.7591 94.0004 53.9868 93.1094 55.769C92.144 57.5512 90.5846 58.9621 88.8024 60.0017C87.243 60.8928 85.3866 61.4868 83.7529 60.8185L85.5351 51.6106Z" fill="#E1A0A1"/>
<path d="M85.3122 52.9472C85.6835 51.5364 86.8716 50.3482 88.2825 49.9769C88.9508 49.8284 89.6191 49.8284 90.2132 50.1255C90.8073 50.4225 91.2528 51.0166 91.4756 51.6106C92.0696 53.0215 91.8469 54.7294 91.1043 56.1403C90.3617 57.4769 89.1736 58.5908 87.837 59.3334C86.6489 60.0017 85.238 60.4472 83.9756 60.0017L85.3122 52.9472Z" fill="#E1A0A1"/>
<path d="M42.4656 51.6106C41.9458 49.7542 40.4606 48.1947 38.6042 47.7492C37.7874 47.5264 36.822 47.5264 36.0794 47.8977C35.2626 48.269 34.7428 49.0858 34.4458 49.9027C33.7032 51.7591 34.0002 53.9868 34.8913 55.769C35.8567 57.5512 37.4161 58.9621 39.1983 60.0017C40.7577 60.8928 42.6141 61.4868 44.2478 60.8185L42.4656 51.6106Z" fill="#E1A0A1"/>
<path d="M42.6884 52.9472C42.3171 51.5364 41.129 50.3482 39.7181 49.9769C39.0498 49.8284 38.3814 49.8284 37.7874 50.1255C37.1933 50.4225 36.7478 51.0166 36.525 51.6106C35.931 53.0215 36.1537 54.7294 36.8963 56.1403C37.6389 57.4769 38.827 58.5908 40.1636 59.3334C41.3517 60.0017 42.7626 60.4472 44.025 60.0017L42.6884 52.9472Z" fill="#E1A0A1"/>
<path d="M45.5844 49.6796C46.3269 47.2292 46.624 44.6301 46.6982 42.0311C50.4111 43.2193 54.5695 42.6995 57.9854 40.843C61.4755 38.9866 64.1487 35.7193 65.2626 31.9321C66.2279 35.1995 68.3072 38.4668 71.129 40.3975C73.9507 42.3282 77.4408 43.2935 80.8567 42.9965C81.525 45.2985 82.3418 47.749 83.5299 49.8282C84.2725 51.1648 85.2379 52.3529 86.5002 53.3183C86.5745 52.8727 86.6488 52.5014 86.723 52.0559C86.9458 50.4222 87.0943 48.8628 87.0943 47.4519C87.0943 34.7539 76.7725 24.4321 64.0745 24.4321C51.3765 24.4321 41.0547 34.7539 41.0547 47.4519C41.0547 48.7886 41.1289 50.1994 41.3517 51.6846C41.5002 52.947 41.7973 54.2836 42.0943 55.6945C43.728 54.0608 44.8418 51.9816 45.5844 49.6796Z" fill="#DC653D"/>
<path d="M83.4557 49.9766C82.2675 47.8974 81.4507 45.4469 80.7824 43.1449C77.3666 43.4419 73.8765 42.4766 71.0547 40.5459C68.2329 38.6152 66.1537 35.3479 65.1883 32.0806C64.0745 35.8677 61.4012 39.135 57.9111 40.9915C54.421 42.8479 50.3369 43.3677 46.624 42.1796C46.5497 44.7786 46.2527 47.3776 45.5101 49.8281C44.8418 52.0558 43.6537 54.2093 42.02 55.8429C44.9161 68.6152 53.6784 84.5063 63.926 84.5063C74.8418 84.5063 83.9755 66.536 86.3517 53.4667C85.2379 52.5014 84.1982 51.239 83.4557 49.9766Z" fill="#E1A0A1"/>
<path d="M47.7378 70.7687C49.8913 73.8875 52.1932 76.7835 54.8665 79.1598C56.2031 80.3479 57.6883 81.3875 59.2477 82.1301C60.0645 82.5014 60.8071 82.7984 61.6239 83.0212C62.4407 83.2439 63.2576 83.3182 64.0744 83.3182C65.7081 83.3182 67.416 82.7984 68.9012 82.0558C70.4606 81.3132 71.8714 80.1994 73.2081 79.0112C75.8813 76.5608 78.1833 73.6647 80.2625 70.5459C79.6685 72.3281 78.7774 74.036 77.812 75.6697C76.8467 77.3033 75.7328 78.8627 74.3962 80.2736C73.7279 81.0162 73.0596 81.6845 72.317 82.2786C71.5744 82.8726 70.7576 83.4667 69.8665 83.9865C68.1586 84.9518 66.0794 85.6202 64.0744 85.6202C63.0348 85.6202 61.9952 85.4716 61.0299 85.2489C60.0645 84.9518 59.0992 84.5806 58.2081 84.135C56.4259 83.1697 54.9408 81.9073 53.6041 80.4964C51.0051 77.6004 49.0002 74.333 47.7378 70.7687Z" fill="#382D21"/>
<path d="M56.2034 49.6796C57.4747 49.6796 58.5053 48.649 58.5053 47.3777C58.5053 46.1063 57.4747 45.0757 56.2034 45.0757C54.932 45.0757 53.9014 46.1063 53.9014 47.3777C53.9014 48.649 54.932 49.6796 56.2034 49.6796Z" fill="#382D21"/>
<path d="M73.134 49.6796C74.4054 49.6796 75.436 48.649 75.436 47.3777C75.436 46.1063 74.4054 45.0757 73.134 45.0757C71.8627 45.0757 70.832 46.1063 70.832 47.3777C70.832 48.649 71.8627 49.6796 73.134 49.6796Z" fill="#382D21"/>
<path d="M57.3913 58.739C57.3913 60.5211 55.2378 61.932 52.5645 61.932C49.8913 61.932 47.7378 60.5211 47.7378 58.739C47.7378 56.9568 49.8913 55.5459 52.5645 55.5459C55.2378 55.5459 57.3913 56.9568 57.3913 58.739Z" fill="#F0B9B6"/>
<path d="M80.8566 58.739C80.8566 60.5211 78.7031 61.932 76.0299 61.932C73.3566 61.932 71.2031 60.5211 71.2031 58.739C71.2031 56.9568 73.3566 55.5459 76.0299 55.5459C78.7031 55.5459 80.8566 56.9568 80.8566 58.739Z" fill="#F0B9B6"/>
<path d="M65.4852 46.041C66.0051 47.8975 66.3763 49.6796 67.4159 51.0905C67.9357 51.8331 68.5298 52.5014 69.1239 53.3182C69.7179 54.1351 70.1635 55.0262 70.5347 55.9915C70.8318 56.9569 71.0545 57.9965 70.9803 59.0361C70.906 60.0757 70.609 61.1153 70.015 62.0064C69.4209 62.8975 68.6041 63.5658 67.6387 63.9371C66.6734 64.3083 65.6338 64.3083 64.7427 63.9371C66.6734 64.0856 68.2328 62.8975 69.0496 61.4123C69.4209 60.6697 69.6437 59.8529 69.6437 59.0361C69.6437 58.2192 69.4951 57.3281 69.1981 56.5113C68.9011 55.6945 68.5298 54.8777 68.0843 54.1351C67.6387 53.3925 67.0447 52.5757 66.5991 51.7588C66.0793 50.8678 65.8565 49.9024 65.708 48.9371C65.411 47.9717 65.411 47.0064 65.4852 46.041Z" fill="#382D21"/>
<path d="M59.396 66.9072C60.4356 67.5756 61.4752 68.2439 62.5148 68.7637C63.5544 69.2835 64.594 69.729 65.5594 69.6548C66.5247 69.5063 67.4901 68.9122 68.4554 68.1696C69.4208 67.5013 70.3861 66.6845 71.3514 65.9419C70.8316 67.13 70.0891 68.0954 69.198 69.0607C68.7524 69.5063 68.3069 69.9518 67.7128 70.3231C67.1188 70.6944 66.4505 70.9914 65.7079 71.1399C64.9653 71.2142 64.1485 71.0657 63.5544 70.8429C62.8861 70.5459 62.3663 70.1746 61.8465 69.8033C60.8812 68.9864 59.9901 68.0211 59.396 66.9072Z" fill="#382D21"/>
<path d="M66.5991 27.6992C67.1932 29.2586 68.01 30.7438 69.0496 32.1547C70.015 33.4913 71.2031 34.6794 72.5397 35.719C73.8763 36.7586 75.2872 37.5755 76.8466 38.1695C77.5892 38.4665 78.4061 38.7636 79.2229 38.9121C80.0397 39.1349 80.8565 39.2834 81.7476 39.3576C80.9308 39.4319 80.0397 39.3576 79.1486 39.2834C78.3318 39.1349 77.4407 38.9863 76.6239 38.6893C74.9902 38.1695 73.4308 37.3527 72.0199 36.2388C70.6833 35.1992 69.4209 33.8626 68.5298 32.3774C67.6387 30.9665 66.8962 29.3329 66.5991 27.6992Z" fill="#382D21"/>
<path d="M69.5693 27.1055C70.9802 29.1104 72.6881 30.8926 74.6188 32.3035C76.5495 33.7144 78.7773 34.8282 81.0792 35.6451C78.5545 35.4223 76.1782 34.3827 74.1733 32.8975C72.1683 31.4867 70.4604 29.4074 69.5693 27.1055Z" fill="#382D21"/>
<path d="M44.6187 38.0953C45.4355 38.3924 46.2523 38.6151 47.1434 38.7636C47.9602 38.9122 48.8513 38.9864 49.6681 38.9122C51.3761 38.8379 53.0097 38.4666 54.5691 37.724C56.1285 37.0557 57.4652 35.9419 58.579 34.7537C59.1731 34.1597 59.6929 33.4171 60.0642 32.6745C60.5097 31.932 60.881 31.1894 61.178 30.3726C61.0295 31.2636 60.7325 32.0805 60.3612 32.8973C59.9899 33.7141 59.4701 34.4567 58.9503 35.125C57.8365 36.5359 56.4256 37.6498 54.7919 38.3924C53.1583 39.1349 51.3761 39.5062 49.5939 39.432C48.7028 39.432 47.8117 39.2834 46.9949 39.0607C46.1781 38.8379 45.3612 38.5409 44.6187 38.0953Z" fill="#382D21"/>
<path d="M47.8862 35.7935C50.4852 35.4964 52.7872 34.3826 54.6437 32.6746C56.5001 30.9667 57.8367 28.8133 58.8021 26.437C58.3565 28.9618 57.0942 31.4123 55.0892 33.2687C54.1239 34.1598 52.9357 34.8281 51.6734 35.3479C50.5595 35.7192 49.1486 35.942 47.8862 35.7935Z" fill="#382D21"/>
<path d="M86.6484 61.1895C86.797 62.6746 87.1682 64.1597 87.688 65.5706C88.2078 66.9815 88.9504 68.3182 89.8415 69.5805C91.5494 72.031 93.9999 73.8875 96.6732 75.2984C99.2722 76.7835 102.168 78.1201 104.322 80.4221C105.361 81.6102 106.178 83.0211 106.475 84.5805C106.624 85.3231 106.698 86.1399 106.624 86.9568C106.475 87.7736 106.252 88.5162 105.807 89.1845V88.8875C106.475 89.63 106.846 90.5954 106.995 91.5607C107.143 92.5261 107.218 93.4914 107.143 94.3825C107.069 96.3132 106.178 98.1696 104.842 99.432C106.104 98.0211 106.846 96.2389 106.772 94.3825C106.772 93.4914 106.698 92.5261 106.549 91.635C106.327 90.7439 106.03 89.9271 105.361 89.2587L105.213 89.1102L105.287 88.9617C106.03 87.6993 106.104 86.1399 105.807 84.729C105.51 83.3182 104.767 81.9815 103.728 80.9419C101.723 78.7885 98.9752 77.3776 96.3019 75.8924C94.9653 75.1498 93.6286 74.333 92.4405 73.2934C91.2524 72.2538 90.2128 71.0657 89.3959 69.8033C87.688 67.2786 86.7227 64.234 86.6484 61.1895Z" fill="#382D21"/>
<path d="M82.8613 71.8823C83.4554 74.4071 84.198 77.0061 85.5346 79.1596C86.8712 81.3873 89.0247 82.8724 91.0296 84.6546C92.9603 86.4368 94.8168 88.516 95.7821 91.0407C96.2277 92.3031 96.5247 93.6397 96.4504 94.9764C96.3762 96.313 96.0791 97.6496 95.3366 98.7635C95.8564 97.5754 96.1534 96.2388 96.0791 94.9764C96.0049 93.714 95.7079 92.4516 95.1881 91.2635C94.1485 88.8873 92.4405 86.9566 90.4356 85.2487C89.4702 84.3576 88.4306 83.5407 87.4653 82.6496C86.5 81.7586 85.6088 80.719 84.9405 79.5308C84.2722 78.3427 83.8267 77.0803 83.4554 75.818C83.2326 74.4813 83.0098 73.219 82.8613 71.8823Z" fill="#382D21"/>
<path d="M45.3613 75.521C44.8415 77.9715 43.8762 80.3477 42.4653 82.5012C41.797 83.5408 40.9801 84.5804 40.0891 85.4715C39.198 86.3626 38.2326 87.1794 37.193 87.9962C36.2277 88.7388 35.2623 89.5556 34.3712 90.4467C33.5544 91.3378 32.8861 92.3774 32.4405 93.4913C31.995 94.6051 31.7722 95.8675 31.698 97.0556C31.6237 98.318 31.8465 99.5061 32.292 100.694C31.7722 99.5804 31.4009 98.318 31.4009 97.0556C31.3267 95.7933 31.5494 94.4566 31.9207 93.2685C32.292 92.0061 33.0346 90.8923 33.8514 89.9269C34.7425 88.9616 35.7079 88.1448 36.6732 87.4022C38.6782 85.917 40.4603 84.2091 41.9455 82.2042C42.6881 81.2388 43.3564 80.125 43.8762 79.0111C44.5445 77.8972 44.99 76.7091 45.3613 75.521Z" fill="#382D21"/>
<path d="M42.0197 65.7192C41.6484 68.0955 40.4603 70.3975 38.6039 72.0311C36.7474 73.6648 34.5197 74.7044 32.4405 75.8925C31.4009 76.4866 30.4356 77.1549 29.6187 77.9717C28.8019 78.7885 28.1336 79.7539 27.6138 80.7935C26.6484 82.947 26.4257 85.3975 27.1682 87.6252L27.2425 87.9222L26.9455 87.9965C26.1286 88.2935 25.6088 89.1846 25.0148 90.0014C24.495 90.8182 24.1979 91.7836 24.0494 92.7489C23.9009 93.7143 23.9752 94.7539 24.1979 95.7192C24.4207 96.6846 24.8663 97.5757 25.4603 98.3925C24.792 97.6499 24.2722 96.7588 23.9752 95.7935C23.6781 94.8281 23.5296 93.7885 23.6039 92.7489C23.6781 91.7093 23.9752 90.6697 24.495 89.7786C24.792 89.3331 25.0148 88.8876 25.3118 88.5163C25.6088 88.0707 26.0544 87.6994 26.5742 87.4767L26.3514 87.8479C25.5346 85.4717 25.6831 82.7984 26.7227 80.4965C27.2425 79.3083 27.9851 78.2687 28.8762 77.4519C29.7673 76.5608 30.8068 75.8925 31.8465 75.2984C33.9257 74.0361 36.2277 73.145 38.0841 71.6598C40.089 70.1747 41.4257 68.0955 42.0197 65.7192Z" fill="#382D21"/>
</svg>
