<svg width="128" height="129" viewBox="0 0 128 129" fill="none" xmlns="http://www.w3.org/2000/svg">
<rect x="4.57129" y="5.25098" width="120" height="120" rx="53" fill="#EBEBEB"/>
<rect x="0.5" y="1.17969" width="127" height="127" rx="52.5" stroke="#AEDCFF"/>
<path d="M39.2723 107.664C37.1188 108.184 34.8911 107.887 32.9604 106.847C31.0297 105.881 29.5445 104.172 28.7277 102.166C28.5049 101.497 28.2079 100.605 28.3564 99.8624C27.2425 100.085 26.0544 99.7881 25.0148 99.268C23.5297 98.5249 22.2673 97.3361 21.7475 95.7757C21.2277 94.2897 22.0445 92.5064 23.1584 91.3175C19.9653 89.9058 17.7376 86.5621 17.8119 83.1442C17.8119 79.7262 20.7822 76.4569 24.0495 75.1194C22.7128 74.7479 21.7475 73.4104 21.3019 72.1473C20.7821 70.5869 20.7079 68.7293 21.3762 67.169C22.0445 65.6086 23.3069 64.1225 24.9406 63.751C23.6039 61.9677 23.0841 59.59 23.5297 57.4352C23.6782 56.9151 23.8267 56.395 24.0495 55.9492C24.3465 55.429 24.7921 55.0575 25.2376 54.686C26.5 53.6457 28.4307 52.8284 29.9901 52.4569C32.2921 48.816 33.7772 44.7293 35.2624 40.717C36.8218 36.7046 38.3812 32.6179 40.8317 29.1257C43.2822 25.6334 46.7723 22.5127 51.0049 21.2495C55.2376 19.9863 60.2129 20.878 63.2574 23.9987C65.7822 21.2495 69.6435 19.5405 73.4306 19.5405C77.2178 19.5405 81.0049 21.1752 83.5297 23.9244C85.6832 26.2278 86.8713 29.2 87.9851 32.0978C90.3614 38.4136 92.2178 44.9522 94.297 51.3423C95.0396 53.5714 95.7822 55.8005 97.0445 57.7324C99.0495 60.8532 102.391 63.4538 103.059 67.0946C103.505 69.4724 102.614 72.1473 100.757 73.7819C102.614 74.3764 104.099 76.7541 103.95 78.686C103.728 80.6179 102.317 82.3268 100.609 83.2185C101.574 83.59 102.168 84.8531 102.688 85.8191C103.579 87.5281 103.728 89.5343 103.208 91.3918C102.688 93.2494 101.426 94.8098 99.7178 95.85C100.683 97.1132 100.46 99.6395 100.089 101.2C99.7178 102.686 98.8267 104.098 97.8614 105.287C96.4505 106.996 94.5198 108.556 92.2178 108.704L39.2723 107.664Z" fill="#382D21"/>
<path d="M80.4854 90.5745C76.1042 79.5033 76.921 62.7851 76.921 62.4136L63.1834 78.5374L49.4458 62.4136C49.4458 62.7851 50.2626 79.8005 45.7329 90.946C56.6488 96.073 69.7923 95.9244 80.4854 90.5745Z" fill="#B66D46"/>
<path d="M103.431 109.893C103.356 109.967 103.282 110.042 103.208 110.042C92.6634 119.181 79.0001 124.68 64.0001 124.68C48.8516 124.68 35.0397 119.107 24.4951 109.819C26.5743 108.63 28.9506 107.293 31.401 105.806C35.9308 102.983 40.4604 99.6393 43.505 95.1068C44.3218 93.8437 45.0644 92.4319 45.7327 90.8715C56.6486 95.9984 69.7921 95.8498 80.5595 90.5C81.2278 92.1347 81.9703 93.695 82.8614 95.0325C86.1288 99.8622 91.4753 103.354 96.6733 106.252C99.0496 107.664 101.352 108.853 103.431 109.893Z" fill="#3F51DB"/>
<path d="M84.1982 52.68C84.718 50.8224 86.2031 49.262 88.0596 48.8162C88.8764 48.5933 89.8418 48.5933 90.5843 48.9648C91.4012 49.3363 91.921 50.1536 92.218 50.971C92.9606 52.8286 92.6635 55.0577 91.7724 56.841C90.8071 58.6242 89.2477 60.036 87.4655 61.0762C85.9061 61.9679 84.0497 62.5623 82.416 61.8936L84.1982 52.68Z" fill="#B66D46"/>
<path d="M83.9753 53.9433C84.3466 52.5315 85.5347 51.3427 86.9456 50.9711C87.6139 50.8225 88.2823 50.8225 88.8763 51.1198C89.4704 51.417 89.9159 52.0114 90.1387 52.6058C90.7327 54.0176 90.5099 55.7266 89.7674 57.1383C89.0248 58.4758 87.8367 59.5903 86.5001 60.3334C85.3119 61.0021 83.901 61.4479 82.6387 61.0021L83.9753 53.9433Z" fill="#B66D46"/>
<path d="M41.1287 52.68C40.6089 50.8224 39.1237 49.262 37.2673 48.8162C36.4504 48.5933 35.4851 48.5933 34.7425 48.9648C33.9257 49.3363 33.4059 50.1536 33.1089 50.971C32.3663 52.8286 32.6633 55.0577 33.5544 56.841C34.5198 58.6242 36.0792 60.036 37.8613 61.0762C39.4208 61.9679 41.2772 62.5623 42.9108 61.8936L41.1287 52.68Z" fill="#B66D46"/>
<path d="M41.3515 53.9433C40.9802 52.5315 39.792 51.3427 38.3812 50.9711C37.7128 50.8225 37.0445 50.8225 36.4505 51.1198C35.8564 51.417 35.4109 52.0114 35.1881 52.6058C34.594 54.0176 34.8168 55.7266 35.5594 57.1383C36.302 58.4758 37.4901 59.5903 38.8267 60.3334C40.0148 61.0021 41.4257 61.4479 42.6881 61.0021L41.3515 53.9433Z" fill="#B66D46"/>
<path d="M42.5395 50.3021C43.3564 47.9244 43.4306 45.3238 43.5049 42.7974C45.7326 43.4662 48.0346 43.3176 50.1138 42.0544C52.193 40.8656 53.9009 38.7851 54.792 36.2588C56.797 37.9677 59.1732 38.6365 61.6979 38.4879C64.2227 38.3392 66.599 37.0761 68.4554 35.0699C69.9405 37.299 71.7227 38.7851 74.0989 39.6024C76.4752 40.3454 78.9999 40.2711 81.3019 39.3052C81.1534 44.5064 82.5643 49.782 85.3861 53.8687C85.3861 53.6457 85.4603 53.4228 85.4603 53.1999C85.6831 51.5652 85.8316 50.0049 85.8316 48.5931C85.8316 35.8872 75.5098 25.5591 62.8118 25.5591C50.1138 25.5591 39.792 35.8872 39.792 48.5931C39.792 49.9306 39.8663 51.3423 40.089 52.8284C40.1633 53.2742 40.2375 53.7943 40.3118 54.3145C41.2771 53.1999 42.0197 51.7881 42.5395 50.3021Z" fill="#382D21"/>
<path d="M81.1532 39.3051C78.8512 40.2711 76.3265 40.4197 73.9502 39.6023C71.574 38.8593 69.7918 37.2989 68.3067 35.0698C66.5245 37.076 64.074 38.2649 61.5492 38.4878C59.0245 38.6364 56.6483 37.9677 54.6433 36.2587C53.7522 38.7107 52.0443 40.8655 49.9651 42.0543C47.8859 43.2432 45.6582 43.4661 43.3562 42.7974C43.3562 45.3237 43.2077 47.9243 42.3908 50.302C41.871 51.7881 41.1285 53.1998 40.0889 54.3144C42.3908 67.4661 51.5245 85.5218 62.5146 85.5218C73.6532 85.5218 82.8611 67.0203 85.0146 53.8686C82.4156 49.7819 81.0047 44.5064 81.1532 39.3051Z" fill="#B66D46"/>
<path d="M46.4009 71.8499C48.5543 74.9706 50.8563 77.8684 53.5296 80.2461C54.8662 81.435 56.3514 82.4752 57.9108 83.2183C58.7276 83.5898 59.4702 83.887 60.287 84.1099C61.1039 84.3328 61.9207 84.4071 62.7375 84.4071C64.3712 84.4071 66.0791 83.887 67.5642 83.144C69.1236 82.4009 70.5345 81.2864 71.8712 80.0975C74.5444 77.6455 76.8464 74.7477 78.9256 71.627C78.3316 73.4102 77.4405 75.1192 76.4751 76.7539C75.5098 78.3886 74.3959 79.9489 73.0593 81.3607C72.3909 82.1037 71.7226 82.7724 70.9801 83.3669C70.2375 83.9613 69.4207 84.5557 68.5296 85.0759C66.8217 86.0418 64.7425 86.7105 62.7375 86.7105C61.6979 86.7105 60.6583 86.5619 59.6929 86.339C58.7276 86.0418 57.7622 85.6703 56.8712 85.2245C55.089 84.2585 53.6038 82.9954 52.2672 81.5836C49.6682 78.6858 47.6633 75.3421 46.4009 71.8499Z" fill="#382D21"/>
<path d="M57.0942 48.3703C57.0942 49.6334 56.0546 50.6737 54.7922 50.6737C53.5298 50.6737 52.4902 49.6334 52.4902 48.3703C52.4902 47.1071 53.5298 46.0669 54.7922 46.0669C56.0546 46.0669 57.0942 47.1071 57.0942 48.3703Z" fill="#382D21"/>
<path d="M74.0249 48.3703C74.0249 49.6334 72.9852 50.6737 71.7229 50.6737C70.4605 50.6737 69.4209 49.6334 69.4209 48.3703C69.4209 47.1071 70.4605 46.0669 71.7229 46.0669C73.0595 46.1412 74.0249 47.1071 74.0249 48.3703Z" fill="#382D21"/>
<path d="M56.0543 59.7385C56.0543 61.5218 53.9009 62.9335 51.2276 62.9335C48.5543 62.9335 46.4009 61.5218 46.4009 59.7385C46.4009 57.9552 48.5543 56.5435 51.2276 56.5435C53.9009 56.5435 56.0543 58.0295 56.0543 59.7385Z" fill="#F0B9B6"/>
<path d="M79.5197 59.7385C79.5197 61.5218 77.3662 62.9335 74.6929 62.9335C72.0197 62.9335 69.8662 61.5218 69.8662 59.7385C69.8662 57.9552 72.0197 56.5435 74.6929 56.5435C77.3662 56.5435 79.5197 58.0295 79.5197 59.7385Z" fill="#F0B9B6"/>
<path d="M56.9453 67.3176C58.2077 67.9863 59.3215 68.7294 60.5097 69.2495C61.6978 69.8439 62.8859 70.1411 64.074 70.1411C64.6681 70.1411 65.2621 69.9925 65.7819 69.8439C66.3017 69.621 66.8215 69.2495 67.4156 68.878C68.4552 68.0606 69.5691 67.2433 70.6087 66.2773C70.0146 67.5405 69.0493 68.5807 68.1582 69.6953C67.7126 70.2154 67.1185 70.7355 66.376 71.1071C65.7077 71.4786 64.8908 71.6272 64.1482 71.7015C62.5888 71.7758 61.1037 71.1814 59.9156 70.364C58.7275 69.4724 57.7621 68.4321 56.9453 67.3176Z" fill="#382D21"/>
<g opacity="0.5">
<g opacity="0.5">
<path opacity="0.5" d="M65.9307 24.8159C66.5247 25.7819 67.0445 26.7478 67.6386 27.7137C68.2326 28.6054 68.9752 29.4227 69.8663 30.0171C70.7574 30.6116 71.797 30.9831 72.8366 30.9831C73.8762 30.9831 74.9158 30.6859 75.8069 30.1658L76.1782 29.9428L76.3267 30.3887C76.6237 31.2803 76.995 32.0976 77.5148 32.915C78.0346 33.658 78.6287 34.3267 79.4455 34.7726C81.0792 35.6642 82.9356 36.0357 84.8663 35.8128C83.0099 36.3329 81.0049 36.11 79.2228 35.2927C78.3317 34.8469 77.5148 34.1781 76.995 33.3608C76.401 32.5435 76.0297 31.6518 75.7326 30.7602L76.2525 30.9088C75.2871 31.5775 74.0247 31.8747 72.8366 31.8747C71.6485 31.8747 70.4604 31.3546 69.5693 30.6859C68.6782 29.9428 67.9356 29.0512 67.3416 28.0853C66.7475 26.8964 66.302 25.8562 65.9307 24.8159Z" fill="#B66D46"/>
</g>
<g opacity="0.5">
<path opacity="0.5" d="M72.8369 21.0264C73.431 23.0326 74.5449 24.7415 76.1043 26.0047C77.6637 27.2678 79.5201 28.0852 81.525 28.6053C79.4458 28.6796 77.2924 27.9366 75.5844 26.5991C74.7676 25.9304 74.025 25.0387 73.5795 24.0728C73.1339 23.1069 72.8369 22.0666 72.8369 21.0264Z" fill="#B66D46"/>
</g>
<g opacity="0.5">
<path opacity="0.5" d="M59.3219 24.5928C59.3962 25.7073 59.1734 26.8219 58.8021 27.8621C58.4309 28.9024 57.7625 29.8683 57.02 30.6856C55.4605 32.3203 53.1586 33.2119 50.9308 33.2119L51.3021 32.9147C50.6338 35.0695 49.1487 36.8528 47.3665 38.0417C46.4754 38.6361 45.4358 39.1562 44.3962 39.3791C43.3566 39.6763 42.2427 39.7506 41.2031 39.6763C42.2427 39.602 43.2823 39.4534 44.3219 39.0819C45.2873 38.7104 46.2526 38.2646 47.0694 37.5958C48.7031 36.3327 50.0398 34.6237 50.6338 32.6918L50.7081 32.3946H51.0051C53.0843 32.3946 55.1635 31.5773 56.7229 30.1655C57.4655 29.4225 58.1338 28.6051 58.5793 27.6392C58.9506 26.6733 59.2477 25.633 59.3219 24.5928Z" fill="#B66D46"/>
</g>
<g opacity="0.5">
<path opacity="0.5" d="M53.3814 23.7754C52.8616 25.8559 51.5992 27.7878 49.8913 29.1252C48.1834 30.4627 46.1041 31.3543 43.9507 31.4286C46.0299 30.8342 47.8121 29.8683 49.4457 28.5308C51.0794 27.2677 52.3418 25.633 53.3814 23.7754Z" fill="#B66D46"/>
</g>
<g opacity="0.5">
<path opacity="0.5" d="M90.1387 61.9673C90.4357 63.379 90.8812 64.7165 91.6238 65.9054C92.3664 67.0942 93.7773 67.54 94.8912 68.5803C96.005 69.5462 96.8961 70.8837 97.1189 72.3697C97.4159 73.8558 97.1189 75.4905 96.1535 76.6793L96.0793 76.1592C96.8961 76.6793 97.4902 77.4224 97.8614 78.1654C98.307 78.9827 98.5298 79.8001 98.7525 80.6174C99.1238 82.3264 98.604 84.2583 97.4902 85.5214C98.4555 84.1097 98.6783 82.3264 98.307 80.6917C98.0842 79.8744 97.7872 79.1313 97.3416 78.3883C96.8961 77.7196 96.3763 77.0508 95.708 76.6793L95.3367 76.4564L95.5595 76.1592C96.3763 75.119 96.5991 73.7072 96.3763 72.3697C96.1535 71.0323 95.4109 69.8434 94.3713 68.9518C93.8515 68.506 93.2575 68.1344 92.7377 67.6886C92.1436 67.2428 91.6238 66.7227 91.2525 66.054C90.51 64.7908 90.2872 63.379 90.1387 61.9673Z" fill="#B66D46"/>
</g>
<g opacity="0.5">
<path opacity="0.5" d="M84.1982 68.1348C85.3864 69.0264 86.426 70.141 87.2428 71.3298C88.0597 72.593 88.8022 73.9304 89.322 75.3422C89.8418 76.754 90.2131 78.24 90.1388 79.8004C90.0646 81.3608 89.5448 82.9211 88.3567 84.0357L88.2824 83.4413C89.4705 84.0357 90.3616 85.0016 91.0299 85.9676C91.7725 87.0078 92.3666 88.0481 92.8121 89.1626C93.8517 91.3917 94.0002 94.0666 93.2577 96.37C93.7032 93.9923 93.4062 91.5403 92.2923 89.3855C91.7725 88.3453 91.1785 87.305 90.4359 86.3391C89.6933 85.4474 88.8765 84.5558 87.8369 84.0357L87.3913 83.8128L87.7626 83.4413C88.728 82.4753 89.2478 81.0635 89.322 79.6518C89.3963 78.24 89.0992 76.8283 88.6537 75.4165C88.2081 74.0047 87.5398 72.6673 86.7973 71.4041C86.2032 70.2896 85.3121 69.175 84.1982 68.1348Z" fill="#B66D46"/>
</g>
<g opacity="0.5">
<path opacity="0.5" d="M40.9062 69.8438C39.2725 70.884 38.0844 72.5187 37.6389 74.3019C37.1933 76.0852 37.4161 78.0914 38.2329 79.7261L38.3814 80.0976L38.0101 80.2462C37.1933 80.6177 36.5992 81.4351 36.1537 82.2524C35.7082 83.0697 35.3369 84.0357 35.1884 85.0016C34.9656 85.9676 34.9656 86.9335 35.1884 87.8994C35.3369 88.8654 35.7824 89.757 36.3765 90.5001L36.525 90.6487L36.3765 90.7973C35.8567 91.466 35.4854 92.2833 35.4111 93.175C35.3369 94.0666 35.4854 94.9583 35.9309 95.7756C35.3369 95.0326 35.1141 94.0666 35.1141 93.175C35.1141 92.209 35.4111 91.3174 36.0052 90.5001V90.7973C35.2626 90.0542 34.8171 89.0883 34.5201 88.0481C34.2973 87.0078 34.2973 85.9676 34.4458 84.9273C34.6686 83.8871 34.9656 82.9211 35.4854 81.9552C36.0052 81.0635 36.6735 80.0976 37.7131 79.6518L37.5646 80.1719C36.6735 78.3886 36.525 76.2338 37.1191 74.3019C37.7874 72.2958 39.124 70.6611 40.9062 69.8438Z" fill="#B66D46"/>
</g>
<g opacity="0.5">
<path opacity="0.5" d="M33.1832 62.9336C31.2525 63.6766 29.8417 65.3856 29.2476 67.3175C28.6535 69.2494 28.8763 71.3299 29.4704 73.1875L29.5446 73.4847L29.2476 73.6333C28.505 74.0048 27.8367 74.6735 27.3912 75.4166C26.9456 76.1596 26.5743 77.0512 26.3516 77.9429C25.906 79.6518 26.2773 81.5837 27.3912 82.9955L27.5397 83.1441L27.4654 83.2927C27.0941 83.9614 26.8714 84.7045 26.8714 85.4475C26.7971 86.1905 26.8714 87.0079 27.0941 87.7509C27.3169 88.4939 27.7624 89.1627 28.2822 89.6828C28.802 90.2029 29.5446 90.6487 30.2872 90.946C29.4704 90.7973 28.8021 90.3515 28.1337 89.8314C27.5397 89.3113 27.0199 88.6425 26.7229 87.8252C26.4258 87.0822 26.2773 86.1905 26.3516 85.3732C26.3516 84.5559 26.5743 83.7385 26.9456 82.9212V83.2927C25.6832 81.7323 25.1634 79.5776 25.6832 77.6457C25.906 76.6797 26.2773 75.7881 26.7971 74.9707C27.3169 74.1534 28.0595 73.3361 28.9506 72.8902L28.8021 73.3361C28.208 71.3299 28.0595 69.1008 28.8021 67.0946C29.1733 66.1286 29.6931 65.1627 30.51 64.4197C31.2525 63.7509 32.1436 63.2308 33.1832 62.9336Z" fill="#B66D46"/>
</g>
</g>
<path d="M63.6288 46.9585C63.9258 48.8904 64.0743 50.748 64.7426 52.4569C65.0396 53.2743 65.4852 54.0173 66.0792 54.686C66.6733 55.4291 67.2673 56.1721 67.7872 57.1381C68.2327 58.104 68.3812 59.2185 68.2327 60.3331C68.0842 61.3733 67.5644 62.4879 66.6733 63.1566C65.7822 63.8997 64.6684 64.1225 63.6288 64.0482C62.5891 63.8996 61.6238 63.3795 61.1782 62.4879C62.5891 63.8253 64.8169 63.4538 65.8565 62.3393C66.9703 61.1504 67.0446 59.2185 66.3762 57.8068C66.0792 57.0637 65.4852 56.395 64.8911 55.5777C64.297 54.7603 63.7772 53.7944 63.5545 52.8284C63.1089 50.8223 63.3317 48.8161 63.6288 46.9585Z" fill="#382D21"/>
</svg>
