<svg id="Layer_1" data-name="Layer 1" xmlns="http://www.w3.org/2000/svg" xmlns:xlink="http://www.w3.org/1999/xlink" viewBox="0 0 269.9 256"><defs><style>.cls-1,.cls-6{fill:none;}.cls-2{clip-path:url(#clip-path);}.cls-3{fill:#239f40;}.cls-4{fill:#fff;}.cls-5{fill:#da0000;}.cls-6{stroke:#fff;stroke-linecap:square;stroke-width:1.72px;}.cls-7{fill:url(#linear-gradient);}.cls-8{opacity:0.1;}.cls-9{fill:#231f20;}</style><clipPath id="clip-path"><rect class="cls-1" x="9.79" width="256" height="256" rx="30"/></clipPath><linearGradient id="linear-gradient" x1="29.68" y1="21.9" x2="245.9" y2="238.1" gradientTransform="matrix(1, 0, 0, -1, 0, 258)" gradientUnits="userSpaceOnUse"><stop offset="0" stop-color="#fff" stop-opacity="0.1"/><stop offset="0.37" stop-color="#fff" stop-opacity="0.11"/><stop offset="0.59" stop-color="#fff" stop-opacity="0.14"/><stop offset="0.77" stop-color="#fff" stop-opacity="0.2"/><stop offset="0.93" stop-color="#fff" stop-opacity="0.28"/><stop offset="0.97" stop-color="#fff" stop-opacity="0.3"/><stop offset="1" stop-color="#fff" stop-opacity="0.2"/></linearGradient></defs><g class="cls-2"><rect id="_51" data-name=" 51" class="cls-3" x="4.57" width="264.47" height="85.33"/><rect id="_50" data-name=" 50" class="cls-4" x="7.5" y="85.33" width="261.54" height="85.33"/><rect id="_49" data-name=" 49" class="cls-5" x="4.57" y="170.67" width="264.47" height="85.33"/><path id="_48" data-name=" 48" class="cls-6" d="M113.33,72.39h22.53m-22.48,8v-4h7.49v4h7.44v-4h-3.78m11.24,4H132v-4h7.5v-4m0,4v4H147v-8m-3.78,0v8m-26.24,0h0"/><path id="_47" data-name=" 47" class="cls-6" d="M113.33,84.76h15m3.78,0h15"/><path id="_46" data-name=" 46" class="cls-6" d="M113.33,175.64h22.53m-22.48,8v-4h7.49v4h7.44v-4h-3.78m11.24,4H132v-4h7.5v-4m0,4v4H147v-8m-3.78,0v8m-26.24,0h0"/><path id="_45" data-name=" 45" class="cls-6" d="M113.33,171.24h15m3.78,0h15"/><path id="_44" data-name=" 44" class="cls-6" d="M150.82,72.39h22.49m-22.49,8v-4h7.5v4h7.5v-4H162m11.24,4H169.5v-4H177v-4m0,4v4h7.5v-8m-3.78,0v8m-26.24,0h0"/><path id="_43" data-name=" 43" class="cls-6" d="M150.82,84.76h15m3.77,0h15"/><path id="_42" data-name=" 42" class="cls-6" d="M150.82,175.64h22.49m-22.49,8v-4h7.5v4h7.5v-4H162m11.24,4H169.5v-4H177v-4m0,4v4h7.5v-8m-3.78,0v8m-26.24,0h0"/><path id="_41" data-name=" 41" class="cls-6" d="M150.82,171.24h15m3.77,0h15"/><path id="_40" data-name=" 40" class="cls-6" d="M38.35,72.39H60.84m-22.49,8v-4h7.5v4h7.5v-4H49.57m11.24,4H57v-4h7.5v-4m0,4v4H72v-8m-3.78,0v8M42,80.39h0"/><path id="_39" data-name=" 39" class="cls-6" d="M38.35,84.76h15m3.78,0h15"/><path id="_38" data-name=" 38" class="cls-6" d="M38.35,175.64H60.84m-22.49,8v-4h7.5v4h7.5v-4H49.57m11.24,4H57v-4h7.5v-4m0,4v4H72v-8m-3.78,0v8m-26.24,0h0"/><path id="_37" data-name=" 37" class="cls-6" d="M38.35,171.24h15m3.78,0h15"/><path id="_36" data-name=" 36" class="cls-6" d="M75.84,72.39H98.33m-22.49,8v-4h7.5v4h7.5v-4H87.06m11.24,4H94.52v-4H102v-4m0,4v4h7.5v-8m-3.78,0v8m-26.24,0h0"/><path id="_35" data-name=" 35" class="cls-6" d="M75.84,84.76h15m3.78,0h15"/><path id="_34" data-name=" 34" class="cls-6" d="M75.84,175.64H98.33m-22.49,8v-4h7.5v4h7.5v-4H87.06m11.24,4H94.52v-4H102v-4m0,4v4h7.5v-8m-3.78,0v8m-26.24,0h0"/><path id="_33" data-name=" 33" class="cls-6" d="M75.84,171.24h15m3.78,0h15"/><path id="_32" data-name=" 32" class="cls-6" d="M209,72.39H228m-18.94,8v-4h6.31v4h6.32v-4h-3.18m9.47,4h-3.19v-4h6.32v-4m0,4v4h6.32v-8m-3.19,0v8m-22.1,0h0"/><path id="_31" data-name=" 31" class="cls-6" d="M209,84.76h12.63m3.18,0h12.64"/><path id="_30" data-name=" 30" class="cls-6" d="M209,175.64H228m-18.94,8v-4h6.31v4h6.32v-4h-3.18m9.47,4h-3.19v-4h6.32v-4m0,4v4h6.32v-8m-3.19,0v8m-22.1,0h0"/><path id="_29" data-name=" 29" class="cls-6" d="M209,171.24h12.63m3.18,0h12.64"/><path id="_28" data-name=" 28" class="cls-6" d="M240.59,72.39h18.94m-18.94,8v-4h6.32v4h6.32v-4H250m9.47,4h-3.18v-4h6.31v-4m0,4v4H269v-8m-3.18,0v8m-22.1,0h0"/><path id="_27" data-name=" 27" class="cls-6" d="M240.59,84.76h12.64m3.18,0H269"/><path id="_26" data-name=" 26" class="cls-6" d="M240.59,175.64h18.94m-18.94,8v-4h6.32v4h6.32v-4H250m9.47,4h-3.18v-4h6.31v-4m0,4v4H269v-8m-3.18,0v8m-22.1,0h0"/><path id="_25" data-name=" 25" class="cls-6" d="M240.59,171.24h12.64m3.18,0H269"/><path id="_24" data-name=" 24" class="cls-6" d="M145.87,72.39h18.94m-18.94,8v-4h6.32v4h6.31v-4h-3.18m9.47,4H161.6v-4h6.32v-4m0,4v4h6.32v-8m-3.18,0v8m-22.1,0h0"/><path id="_23" data-name=" 23" class="cls-6" d="M145.87,84.76H158.5m3.18,0h12.64"/><path id="_22" data-name=" 22" class="cls-6" d="M145.87,175.64h18.94m-18.94,8v-4h6.32v4h6.31v-4h-3.18m9.47,4H161.6v-4h6.32v-4m0,4v4h6.32v-8m-3.18,0v8m-22.1,0h0"/><path id="_21" data-name=" 21" class="cls-6" d="M145.87,171.24H158.5m3.18,0h12.64"/><path id="_20" data-name=" 20" class="cls-6" d="M177.44,72.39h18.93m-18.94,8v-4h6.31v4h6.32v-4h-3.18m9.47,4h-3.19v-4h6.39v-4m0,4v4h6.32v-8m-3.18,0v8m-22.1,0h0"/><path id="_19" data-name=" 19" class="cls-6" d="M177.44,84.76h12.64m3.18,0h12.63"/><path id="_18" data-name=" 18" class="cls-6" d="M177.44,175.64h18.93m-18.94,8v-4h6.31v4h6.32v-4h-3.18m9.47,4h-3.19v-4h6.39v-4m0,4v4h6.32v-8m-3.18,0v8m-22.1,0h0"/><path id="_17" data-name=" 17" class="cls-6" d="M177.44,171.24h12.64m3.18,0h12.63"/><path id="_16" data-name=" 16" class="cls-6" d="M.86,72.39H23.35m-22.49,8v-4H8.35v4h7.56v-4H12.13m11.24,4H19.59v-4h7.5v-4m0,4v4h7.5v-8m-3.78,0v8m-26.24,0h0"/><path id="_15" data-name=" 15" class="cls-6" d="M.86,84.76H15.91m3.77,0H34.6"/><path id="_14" data-name=" 14" class="cls-6" d="M.86,175.64H23.35m-22.49,8v-4H8.35v4h7.56v-4H12.13m11.24,4H19.59v-4h7.5v-4m0,4v4h7.5v-8m-3.78,0v8m-26.24,0h0"/><path id="_13" data-name=" 13" class="cls-6" d="M.86,171.24H15.91m3.77,0H34.6"/><path id="_4" data-name=" 4" class="cls-5" d="M142.48,105.12s21.8,18.11,5.78,44.13C163.33,139.46,164.64,112.52,142.48,105.12Z"/><path id="_3" data-name=" 3" class="cls-5" d="M130.2,102.55a4.36,4.36,0,0,1-7.39-4.5c3.59,6.83,7.39,1.31,7.39,1.31s3.78,5.52,7.38-1.31A4.35,4.35,0,0,1,130.2,102.55Z"/><path id="_2" data-name=" 2" class="cls-5" d="M130.2,159l-2.5-3.46s-5.86,2.08-13.6-.79c6.34,0,9.88-1.19,11.19-1.88,0,0-14.35-8.21-14.07-24.94.83-16.92,9.31-22.06,9.31-22.06s-15.11,23.35,7.08,42.87l-1-24.15V106.81c1.26-.33,3.57-3.15,3.57-3.15s2.3,2.82,3.56,3.15v17.73l-.95,24.15c22.17-19.52,7.08-42.87,7.08-42.87s8.5,5.14,9.31,22.06c.28,16.72-14.06,24.94-14.06,24.94,1.3.69,4.84,1.88,11.17,1.88-7.73,2.87-13.59.79-13.59.79Z"/><path id="_1" data-name=" 1" class="cls-5" d="M117.92,105.12s-21.8,18.11-5.78,44.13C97.06,139.46,95.76,112.52,117.92,105.12Z"/></g><rect class="cls-7" x="25.29" y="15.5" width="225" height="225" rx="15"/><g class="cls-8"><path class="cls-9" d="M235.79,15.5A14.51,14.51,0,0,1,250.29,30V226a14.51,14.51,0,0,1-14.5,14.5h-196A14.51,14.51,0,0,1,25.29,226V30a14.51,14.51,0,0,1,14.5-14.5h196m0-15.5h-196a30.09,30.09,0,0,0-30,30V226a30.09,30.09,0,0,0,30,30h196a30.09,30.09,0,0,0,30-30V30A30.09,30.09,0,0,0,235.79,0Z"/></g></svg>