<svg id="Layer_1" data-name="Layer 1" xmlns="http://www.w3.org/2000/svg" viewBox="0 0 98.68 87.51"><defs><style>.cls-1{fill:#f7215e;}.cls-2{fill:#231f20;}</style></defs><ellipse class="cls-1" cx="35.81" cy="42.87" rx="26.19" ry="43.64" transform="translate(-18.38 29.3) rotate(-36.07)"/><ellipse class="cls-1" cx="61.69" cy="40.32" rx="43.64" ry="26.84" transform="translate(-8.57 62.55) rotate(-50.72)"/><path class="cls-2" d="M48.05,87.21a3,3,0,0,0,2.59,0C52,86.56,83.44,71,94.84,43.09V43C102.49,24.3,97,13.41,93.1,8.58,87.65,1.89,78.62-1.23,69.53.45c-9.89,1.82-16.72,9.21-20.18,14C45.88,9.66,39.06,2.27,29.16.45,20.08-1.23,11.05,1.89,5.59,8.58,1.66,13.41-3.79,24.3,3.83,43,15.22,71,46.72,86.56,48.05,87.21ZM10.2,12.33a17.74,17.74,0,0,1,14-6.4,21.28,21.28,0,0,1,3.9.36c11.7,2.15,18.56,14.86,18.63,15a3,3,0,0,0,4.07,1.18A2.94,2.94,0,0,0,52,21.29c.06-.12,6.87-12.81,18.63-15,7.06-1.3,13.74,1,17.89,6C93.57,18.56,94.1,28,90.07,39H75.58a3,3,0,0,0,0,5.94H87.49a62.63,62.63,0,0,1-5.16,8.38H61.92a3,3,0,0,0,0,5.94H77.54a109.5,109.5,0,0,1-28.19,22c-6-3.2-30.75-17.61-40-40.39C4.54,29,4.84,18.91,10.2,12.33Z"/></svg>