<?xml version="1.0" encoding="utf-8"?>
<!-- Generator: Adobe Illustrator 26.3.1, SVG Export Plug-In . SVG Version: 6.00 Build 0)  -->
<svg version="1.1" id="Layer_1" xmlns="http://www.w3.org/2000/svg" xmlns:xlink="http://www.w3.org/1999/xlink" x="0px" y="0px"
	 viewBox="0 0 94.5 97.2" style="enable-background:new 0 0 94.5 97.2;" xml:space="preserve">
<style type="text/css">
	.st0{fill:#83C0E9;}
	.st1{fill:none;}
</style>
<path class="st0" d="M48.8,9.7V20h19.4L54.2,34.1c-5.3-3.6-11.6-5.5-18-5.5c-17.7,0-32.1,14.4-32,32.2s14.4,32.1,32.2,32
	c17.7,0,32.1-14.4,32-32.2c0-4.3-0.9-8.5-2.5-12.4c-1.1-2.5-2.5-4.9-4.1-7.1l12.9-12.9v17.5h10.3V9.7H48.8z M51.6,76.1
	c-8.5,8.5-22.3,8.5-30.8,0s-8.5-22.3,0-30.8s22.3-8.5,30.8,0C55.7,49.4,58,55,58,60.7C58,66.5,55.7,72.1,51.6,76.1z"/>
<path class="st1" d="M94.5,33.8c-2.8,4.3-4.2,8.3-4.9,11c-3.4,12.6,0.5,23.4,1.6,26.1c0,0,0,0,0,0c0.2,0.4,0.3,0.8,0.5,1.2"/>
</svg>
