<svg id="Layer_1" data-name="Layer 1" xmlns="http://www.w3.org/2000/svg" viewBox="0 0 98.7 87.51"><defs><style>.cls-1{fill:#231f20;}</style></defs><path class="cls-1" d="M48.05,87.21a2.95,2.95,0,0,0,2.59,0C52,86.56,83.44,71,94.84,43.09V43C102.49,24.3,97,13.41,93.1,8.58,87.65,1.89,78.62-1.23,69.53.45c-9.89,1.82-16.72,9.21-20.18,14C45.88,9.66,39.06,2.27,29.16.45,20.08-1.23,11.05,1.89,5.59,8.58,1.66,13.41-3.79,24.3,3.83,43,15.22,71,46.72,86.56,48.05,87.21ZM10.2,12.33a17.75,17.75,0,0,1,14-6.4,20.89,20.89,0,0,1,3.9.36c11.7,2.15,18.56,14.86,18.63,15a3,3,0,0,0,5.26,0c.06-.12,6.87-12.81,18.63-15,7.06-1.3,13.74,1,17.89,6C93.57,18.56,94.1,28,90.07,39H75.58a3,3,0,0,0,0,5.94H87.49a61.92,61.92,0,0,1-5.16,8.38H61.92a3,3,0,0,0,0,5.94H77.54a109.43,109.43,0,0,1-28.19,22c-6-3.2-30.75-17.61-40-40.39C4.54,29,4.84,18.91,10.2,12.33Z"/></svg>