<svg id="Layer_1" data-name="Layer 1" xmlns="http://www.w3.org/2000/svg" viewBox="0 0 68.93 89.6"><defs><style>.cls-1{fill:#231f20;}</style></defs><path class="cls-1" d="M52.43,0H16.5C7.4,0,0,6.7,0,14.94V86.57a3,3,0,0,0,2,2.75,3.62,3.62,0,0,0,3.58-.45l28.94-22.4,28.94,22.4a3.61,3.61,0,0,0,3.57.45,3,3,0,0,0,2-2.75V14.94C68.93,6.7,61.53,0,52.43,0ZM36.64,60.18a3.61,3.61,0,0,0-4.35,0L6.7,80v-65c0-4.89,4.4-8.88,9.8-8.88H52.43c5.4,0,9.8,4,9.8,8.88V26.41H54.51a3.21,3.21,0,0,0-3.35,3,3.2,3.2,0,0,0,3.35,3h7.72v9.29H46.15a3,3,0,1,0,0,6.06H62.23V80Z"/></svg>