<?xml version="1.0" encoding="utf-8"?>
<!-- Generator: Adobe Illustrator 26.3.1, SVG Export Plug-In . SVG Version: 6.00 Build 0)  -->
<svg version="1.1" id="Layer_1" xmlns="http://www.w3.org/2000/svg" xmlns:xlink="http://www.w3.org/1999/xlink" x="0px" y="0px"
	 viewBox="0 0 69 89.6" style="enable-background:new 0 0 69 89.6;" xml:space="preserve">
<style type="text/css">
	.st0{fill:#45A7FF;}
	.st1{fill:#231F20;}
</style>
<path class="st0" d="M3.7,73.3l17.7-12.5c1.6-1.1,3.7-0.7,4.8,0.8l1.5,2.1c1.1,1.6,0.7,3.7-0.8,4.8L9.2,81.1
	c-1.6,1.1-3.7,0.7-4.8-0.8l-1.5-2.1C1.8,76.6,2.2,74.5,3.7,73.3z"/>
<path class="st0" d="M21.3,61.7l-6.8,11.9c-1,1.7-3.1,2.2-4.8,1.3l-4.4-2.5c-1.7-1-2.2-3.1-1.3-4.8l6.8-11.9c1-1.7,3.1-2.2,4.8-1.3
	l4.4,2.5C21.7,57.9,22.3,60,21.3,61.7z"/>
<rect x="6.7" y="5.2" class="st0" width="57.1" height="59.4"/>
<path class="st0" d="M55.1,55.2l11,8.7c1.5,1.2,1.8,3.5,0.6,5l-3.2,4.1c-1.2,1.5-3.5,1.8-5,0.6l-11-8.7c-1.5-1.2-1.8-3.5-0.6-5
	l3.2-4.1C51.3,54.2,53.6,53.9,55.1,55.2z"/>
<path class="st0" d="M45.8,60.3l18.1,14.4c1.5,1.2,1.8,3.4,0.6,4.9l-0.8,1.1c-1.2,1.5-3.4,1.8-4.9,0.6L40.7,66.8
	c-1.5-1.2-1.8-3.4-0.6-4.9l0.8-1.1C42.1,59.3,44.3,59.1,45.8,60.3z"/>
<path class="st1" d="M52.4,0H16.5C7.4,0,0,6.7,0,14.9v71.6c0,1.2,0.8,2.3,2,2.8c1.2,0.5,2.6,0.3,3.6-0.4l28.9-22.4l28.9,22.4
	c1,0.8,2.4,0.9,3.6,0.4c1.2-0.4,2-1.5,2-2.8V14.9C68.9,6.7,61.5,0,52.4,0z M36.6,60.2c-1.3-1-3.1-1-4.3,0L6.7,80V15
	c0-4.9,4.4-8.9,9.8-8.9h35.9c5.4,0,9.8,4,9.8,8.9v11.4h-7.7c-1.7-0.1-3.2,1.3-3.3,3c0.1,1.7,1.6,3.1,3.3,3h7.7v9.3H46.2
	c-1.7,0-3,1.4-3,3c0,1.7,1.4,3,3,3h16.1V80L36.6,60.2z"/>
</svg>
