<?xml version="1.0" encoding="utf-8"?>
<!-- Generator: Adobe Illustrator 26.3.1, SVG Export Plug-In . SVG Version: 6.00 Build 0)  -->
<svg version="1.1" id="圖層_1" xmlns="http://www.w3.org/2000/svg" xmlns:xlink="http://www.w3.org/1999/xlink" x="0px" y="0px"
	 viewBox="0 0 200 200" style="enable-background:new 0 0 200 200;" xml:space="preserve">
<style type="text/css">
	.st0{fill:none;}
	.st1{fill:#65A8AF;}
	.st2{fill:#F47E60;}
	.st3{fill:#F8B26A;}
</style>
<path class="st0" d="z"/>
<g>
	<path class="st1" d="M72.4,20h-21v130.8H33L62,180l29-29.2H72.4V20z"/>
	<g>
		<path class="st2" d="M145.6,62.6h-19.2l-1.4,4.2c-0.4,1.2-0.8,2.4-1,3.6s-0.4,2.4-0.4,3.6c0,3,1.6,4.6,4.6,4.8v3H109v-3
			c1.2-0.2,2-0.6,3-1.2c0.8-0.6,1.6-1.6,2.4-2.8c0.6-1.2,1.4-2.8,2.2-5l18.8-50.2h12L162,70.2c0.6,2.2,1.2,3.8,1.6,4.8
			c0.4,1,1,1.8,1.8,2.4s1.8,1,3,1.2v3h-24.8v-3c1.6-0.2,2.8-0.6,3.4-1.4c0.8-0.6,1.2-1.6,1.2-3c0-1-0.2-2-0.4-3.2s-0.6-2.6-1-4.4
			L145.6,62.6z M128,57.2h16.2L137,31.8L128,57.2z"/>
	</g>
	<g>
		<path class="st3" d="M132.4,170h13c1.6,0,3-0.4,4.2-1s2-1.8,3-3.2c0.8-1.4,1.6-4,2.6-7.6h6.2v17.4h-45.6v-3l29-53.6h-12.4
			c-2,0-3.6,0.4-4.8,1c-1.2,0.8-2.2,1.8-3,3.4s-1.6,3.8-2.2,6.4h-6.2v-16.4h45v3L132.4,170z"/>
	</g>
</g>
<path class="st0" d="z"/>
</svg>
