<?xml version="1.0" encoding="utf-8"?>
<!-- Generator: Adobe Illustrator 26.3.1, SVG Export Plug-In . SVG Version: 6.00 Build 0)  -->
<svg version="1.1" id="Layer_1" xmlns="http://www.w3.org/2000/svg" xmlns:xlink="http://www.w3.org/1999/xlink" x="0px" y="0px"
	 viewBox="0 0 98 98" style="enable-background:new 0 0 98 98;" xml:space="preserve">
<style type="text/css">
	.st0{fill:#95C23D;}
</style>
<path class="st0" d="M48.4,32.4c5.4,0,9.8,4.4,9.8,9.8c0,5.4-4.4,9.8-9.8,9.8c0,0,0,0,0,0c-5.4,0-9.8-4.3-9.8-9.7c0,0,0-0.1,0-0.1
	C38.6,36.8,43,32.4,48.4,32.4C48.4,32.4,48.4,32.4,48.4,32.4z M39,63c-0.3,0.6-1.1,0.9-1.8,0.6s-0.9-1.1-0.6-1.8l3.7-7.1
	c0.4-0.6,1.2-0.9,1.8-0.5c0.6,0.3,0.9,1.1,0.6,1.8c0,0,0,0,0,0L39,63z M26.3,47.9c-0.7,0.1-1.4-0.3-1.6-1c0,0,0,0,0,0
	c-0.1-0.7,0.4-1.4,1.1-1.5l7.8-1.6c0.7-0.1,1.4,0.3,1.6,1.1s-0.3,1.4-1.1,1.6L26.3,47.9z M60.6,61.5c0.4,0.6,0.3,1.4-0.4,1.8
	c-0.6,0.4-1.4,0.3-1.8-0.4c0-0.1-0.1-0.1-0.1-0.2l-3.8-7c-0.4-0.6-0.1-1.4,0.5-1.8c0.6-0.4,1.4-0.1,1.8,0.5l0,0L60.6,61.5z M71,44.9
	c0.7,0.1,1.2,0.8,1.1,1.5c0,0,0,0,0,0c-0.1,0.7-0.8,1.2-1.6,1.1l-7.8-1.4c-0.7-0.2-1.1-0.9-1-1.6c0.2-0.6,0.8-1.1,1.4-1L71,44.9z
	 M30.3,28.4c-0.6-0.5-0.6-1.3-0.2-1.9c0,0,0,0,0,0c0.5-0.5,1.3-0.6,1.9-0.2l6,5.2c0.5,0.5,0.6,1.3,0.1,1.8c0,0,0,0,0,0
	c-0.4,0.5-1.2,0.6-1.8,0.2c0,0,0,0-0.1,0L30.3,28.4z M65.1,26.7c0.6-0.4,1.4-0.4,1.8,0.2c0.5,0.6,0.4,1.4-0.2,1.9l-6.2,5.1
	c-0.5,0.5-1.3,0.4-1.8-0.1c0,0,0,0,0-0.1c-0.5-0.6-0.4-1.4,0.2-1.8c0,0,0,0,0,0L65.1,26.7z M47.1,19.5c0-0.7,0.6-1.3,1.3-1.3
	c0.7,0,1.3,0.6,1.3,1.3v8c0,0.7-0.6,1.3-1.3,1.3c-0.7,0-1.3-0.6-1.3-1.3V19.5z M53.3,74.9c1.7-0.7,3.5-1.1,5.3-1.1
	c1.8,0.1,3.2,0.8,3.7,2s0,2.7-1.2,4c-1.3,1.3-2.8,2.3-4.5,2.9c-1.7,0.7-3.5,1.1-5.3,1.1c-0.5,0-1.1-0.1-1.6-0.2v1.6
	c0.1,0.7-0.4,1.3-1.1,1.3c-0.7,0.1-1.3-0.4-1.3-1.1c0-0.1,0-0.1,0-0.2v-1.4c-0.5,0.1-0.9,0.2-1.4,0.2c-1.8,0-3.6-0.3-5.2-1.1
	c-1.7-0.6-3.2-1.6-4.5-2.9c-1.2-1.3-1.8-2.8-1.2-4s1.9-2,3.7-2c1.8,0,3.6,0.4,5.3,1.1c1.2,0.5,2.4,1.1,3.4,1.9v-9.7
	c-3,3.3-7.9,4.2-11.9,2.1c-4.8-2.5-6.6-8.4-4.2-13.2l0,0L31,55.7c-2.5,0.5-5.1-0.1-7.2-1.5h-0.1c-4.5-3.1-5.6-9.2-2.6-13.7
	c1.4-2,3.4-3.4,5.8-4c-3.9-3.4-4.4-9.3-1.2-13.4v-0.1C29,19,35,18.2,39.2,21.4c0-5.4,4.4-9.8,9.8-9.8s9.8,4.4,9.8,9.8
	c4.3-3.3,10.4-2.6,13.7,1.7c3.2,4.1,2.6,10.1-1.4,13.5c5.3,1.2,8.5,6.5,7.3,11.8c-0.6,2.4-2,4.5-4,5.8c-2.1,1.4-4.8,2-7.3,1.5
	l-0.5-0.1l0.2,0.4c1.2,2.3,1.5,5,0.7,7.4C66.7,66,65,68,62.8,69.3l0,0c-2.3,1.2-5,1.5-7.5,0.7c-2.4-0.7-4.4-2.3-5.6-4.5V77
	C50.8,76.1,52,75.4,53.3,74.9L53.3,74.9z M54.2,77.2c-1.4,0.5-2.6,1.3-3.6,2.3c-0.4,0.3-0.7,0.7-0.8,1.2v0.2
	c0.1,0.3,0.7,0.5,1.6,0.5c1.5,0,2.9-0.3,4.2-0.9c1.4-0.5,2.6-1.3,3.6-2.3c0.6-0.6,0.9-1.1,0.8-1.4s-0.7-0.5-1.6-0.5
	C57,76.2,55.5,76.5,54.2,77.2z M46.5,79.5c-1-1-2.3-1.8-3.6-2.3c-1.3-0.6-2.8-0.9-4.2-0.9c-0.8,0-1.4,0.2-1.6,0.5s0.2,0.8,0.8,1.4
	c1,1,2.3,1.8,3.6,2.3c1.3,0.6,2.8,0.9,4.2,0.9c0.5,0,1-0.1,1.5-0.4v-0.7C47,80,46.8,79.7,46.5,79.5L46.5,79.5z M48,61.8
	c0.1,0,0.3,0,0.4,0c0.1,0,0.2,0,0.3,0c0.4,0,0.7,0,1.1,0c0.6,0,1.2,0.4,1.3,1c0.2,0.5,0.3,0.8,0.5,1.3c0.9,1.7,2.5,3,4.4,3.6
	c1.8,0.6,3.8,0.4,5.5-0.5l0.2-0.1c1.7-0.9,2.9-2.4,3.5-4.3c0.6-1.8,0.4-3.8-0.5-5.5c-0.3-0.5-0.6-0.9-0.9-1.3
	c-0.3-0.5-0.3-1.1,0-1.5l0.8-1.1c0.3-0.5,0.9-0.7,1.4-0.5c0.5,0.2,1,0.4,1.5,0.5c4,0.7,7.8-1.9,8.6-5.9c0.7-4-1.9-7.8-5.9-8.6l0,0
	l-0.8-0.1h-0.7c-0.6,0-1.1-0.4-1.2-0.9l-0.2-0.6c-0.2-0.6,0.1-1.2,0.7-1.5c0.5-0.2,0.9-0.5,1.3-0.9c1.5-1.2,2.5-2.9,2.7-4.9
	c0.2-1.9-0.3-3.9-1.6-5.4c-1.2-1.5-3-2.5-5-2.7c-1.9-0.2-3.9,0.3-5.4,1.5L59.5,24L59,24.6c-0.4,0.5-1,0.6-1.6,0.3l-0.6-0.3
	c-0.5-0.3-0.8-0.8-0.6-1.4c0-0.3,0.1-0.5,0.2-0.9l0,0c0-0.3,0-0.5,0-0.9c0-4.1-3.3-7.4-7.3-7.4s-7.4,3.3-7.4,7.4
	c0,0.5,0,0.8,0.1,1.3c0.1,0.5-0.2,1-0.7,1.2l-0.9,0.4c-0.5,0.2-1,0.1-1.4-0.3l-0.3-0.4L38,23.5c-1.5-1.2-3.5-1.7-5.4-1.5
	c-1.9,0.2-3.7,1.2-4.9,2.7v0.1c-1.2,1.5-1.8,3.4-1.5,5.3c0.2,1.9,1.2,3.7,2.7,4.9l0.4,0.3c0.4,0.3,0.6,0.8,0.5,1.3l-0.4,1.3
	c-0.1,0.5-0.5,0.9-1,0.9l-0.5,0.1c-1.9,0.3-3.6,1.4-4.7,3.1c-2.3,3.3-1.5,7.8,1.8,10.1c0,0,0.1,0,0.1,0.1l0,0
	c1.6,1.1,3.6,1.5,5.5,1.1l0.7-0.2c0.5-0.1,1.1,0.1,1.3,0.5c0.3,0.5,0.7,0.9,1.1,1.4c0.4,0.4,0.4,1,0.1,1.5l-0.3,0.7
	c-0.9,1.7-1.1,3.7-0.5,5.6c0.6,1.9,1.8,3.4,3.6,4.3c1.7,0.9,3.7,1.1,5.6,0.6c1.9-0.6,3.4-1.9,4.3-3.6c0.3-0.4,0.5-0.9,0.7-1.3
	C47.1,62.2,47.6,61.9,48,61.8L48,61.8z M53.5,37.1c-2.8-2.8-7.4-2.9-10.3-0.1c0,0,0,0-0.1,0.1c-2.8,2.9-2.8,7.5,0,10.3
	c2.8,2.9,7.5,2.9,10.3,0C56.4,44.6,56.4,39.9,53.5,37.1L53.5,37.1z"/>
</svg>
