<svg id="圖層_1" data-name="圖層 1" xmlns="http://www.w3.org/2000/svg" viewBox="0 0 147.17 140.74"><defs><style>.cls-1{fill:#FFDE4D;stroke:#878787;stroke-miterlimit:20;stroke-width:3px;}</style></defs><path class="cls-1" d="M79.74,5.38l17,34.2a7.29,7.29,0,0,0,5.2,3.8l37.8,5.6a6.9,6.9,0,0,1,3.8,11.8l-27.4,26.6a7,7,0,0,0-2,6.2l6.4,37.6a6.84,6.84,0,0,1-10,7.2l-33.8-17.8a7.2,7.2,0,0,0-6.4,0l-33.8,17.8a6.89,6.89,0,0,1-10-7.2l6.4-37.6a7.17,7.17,0,0,0-2-6.2L3.54,60.78A7,7,0,0,1,7.34,49l37.8-5.4a7.29,7.29,0,0,0,5.2-3.8l17-34.2A6.82,6.82,0,0,1,79.74,5.38Z"/></svg>