<svg id="Layer_1" data-name="Layer 1" xmlns="http://www.w3.org/2000/svg" viewBox="0 0 98 98"><defs><style>.cls-1{fill:#fbd915;}</style></defs><path class="cls-1" d="M38.26,67.78a21.65,21.65,0,0,0,29.48-8v0A21.59,21.59,0,0,0,59.82,30.3l0,0a21.63,21.63,0,0,0-29.48,8l0,0a21.59,21.59,0,0,0,7.92,29.48ZM49,64.56a1.19,1.19,0,0,0-.9,2A1.09,1.09,0,0,0,49,67a17,17,0,0,0,5.06-.74,1.18,1.18,0,1,0-.67-2.27,16.8,16.8,0,0,1-4.39.62Zm-4.82,1.73c1.33.55,2.19-1.77.82-2.24a18.21,18.21,0,0,1-4.19-1.84,1.19,1.19,0,0,0-1.3,2,17.29,17.29,0,0,0,4.67,2.08ZM34,58.88a1.21,1.21,0,0,0,2-1.3,15.61,15.61,0,0,1-1.92-4,1.18,1.18,0,1,0-2.27.66A18.84,18.84,0,0,0,34,58.88ZM31.24,46.65a1.19,1.19,0,1,0,2.35.31,16.35,16.35,0,0,1,1.22-4.23,1.2,1.2,0,0,0-2.2-1,17.84,17.84,0,0,0-1.37,4.9Zm5.92-11.06a1.18,1.18,0,1,0,1.57,1.77,16.79,16.79,0,0,1,3.72-2.43,1.19,1.19,0,0,0-1-2.16,19,19,0,0,0-4.27,2.82Zm11.72-4.5a1.2,1.2,0,0,0,0,2.39,16.75,16.75,0,0,1,4.39.58,1.18,1.18,0,1,0,.67-2.27,18.55,18.55,0,0,0-5.06-.7Zm11.8,4.31c-1.06-1-2.74.66-1.64,1.72a18.21,18.21,0,0,1,3,3.45,1.22,1.22,0,0,0,2-1.33,18.4,18.4,0,0,0-3.37-3.84Zm6.08,11a1.21,1.21,0,0,0-2.39.32,15.65,15.65,0,0,1,0,4.43,1.21,1.21,0,0,0,2.39.35,18.93,18.93,0,0,0,0-5.1ZM64.09,58.68a1.19,1.19,0,1,0-2-1.29,14.69,14.69,0,0,1-2.9,3.33,1.21,1.21,0,0,0,1.57,1.84,18.47,18.47,0,0,0,3.33-3.88ZM50.25,85.14A1.23,1.23,0,0,1,49,86.36a1.25,1.25,0,0,1-1.25-1.22V77.66A1.29,1.29,0,0,1,49,76.4a1.26,1.26,0,0,1,1.25,1.26ZM47.75,12.9A1.25,1.25,0,0,1,49,11.68a1.23,1.23,0,0,1,1.25,1.22v7.48A1.26,1.26,0,0,1,49,21.64a1.29,1.29,0,0,1-1.25-1.26ZM80.91,66a1.22,1.22,0,0,1,.43,1.69,1.27,1.27,0,0,1-1.69.47l-6.46-3.76a1.27,1.27,0,0,1-.47-1.69,1.31,1.31,0,0,1,1.72-.47ZM17.13,32a1.2,1.2,0,0,1-.47-1.69,1.28,1.28,0,0,1,1.69-.47l6.46,3.76a1.23,1.23,0,0,1,.47,1.69,1.26,1.26,0,0,1-1.68.47Zm62.52-2.16a1.27,1.27,0,0,1,1.69.47A1.22,1.22,0,0,1,80.91,32l-6.47,3.76a1.31,1.31,0,0,1-1.72-.47,1.27,1.27,0,0,1,.47-1.69Zm-61.3,38.3a1.28,1.28,0,0,1-1.69-.47A1.2,1.2,0,0,1,17.13,66l6.47-3.76a1.26,1.26,0,0,1,1.68.47,1.23,1.23,0,0,1-.47,1.69Zm47.9,8.27a1.24,1.24,0,0,1-.43,1.69,1.21,1.21,0,0,1-1.69-.47l-1.88-3.22a1.25,1.25,0,0,1,2.16-1.25ZM31.75,21.6a1.24,1.24,0,0,1,.43-1.69,1.25,1.25,0,0,1,1.73.47l1.84,3.22a1.21,1.21,0,0,1-.43,1.68,1.26,1.26,0,0,1-1.73-.43ZM81.38,47.78a1.24,1.24,0,1,1,0,2.47H77.66a1.24,1.24,0,1,1,0-2.47ZM16.62,50.25a1.24,1.24,0,0,1,0-2.47h3.76a1.24,1.24,0,0,1,0,2.47ZM64.13,20.38a1.21,1.21,0,0,1,1.69-.47,1.24,1.24,0,0,1,.43,1.69l-1.84,3.25a1.25,1.25,0,0,1-2.16-1.25ZM33.91,77.66a1.25,1.25,0,0,1-1.73.47,1.24,1.24,0,0,1-.43-1.69l1.84-3.25a1.26,1.26,0,0,1,1.73-.43,1.21,1.21,0,0,1,.43,1.68Zm21.28-5.53a23.93,23.93,0,0,1-18.07-2.35l-.08,0a24,24,0,0,1-8.78-32.62l0-.08a23.9,23.9,0,0,1,32.58-8.78l.08,0A23.88,23.88,0,0,1,72.09,42.85a23.59,23.59,0,0,1-2.35,18.07l0,.08A24,24,0,0,1,55.19,72.13Z"/><path class="cls-1" d="M38.38,67.5a21.8,21.8,0,0,0,7.88,2.67,21.13,21.13,0,0,0,8.27-.59A21.74,21.74,0,0,0,62,65.93a21.22,21.22,0,0,0,5.48-6.27l0,0a21.36,21.36,0,0,0,2.08-16.11,21.07,21.07,0,0,0-9.92-12.93l0,0A21.28,21.28,0,0,0,36,32.1a21.39,21.39,0,0,0-5.48,6.28v0a20.65,20.65,0,0,0-2.67,7.84,21.7,21.7,0,0,0,.55,8.27A21,21,0,0,0,32.1,62a21.5,21.5,0,0,0,6.24,5.45Zm7.8,3.26a22,22,0,0,1-8.08-2.71L38,68a22.39,22.39,0,0,1-6.42-5.64,22,22,0,0,1-3.77-7.69A21.6,21.6,0,0,1,30,38.1l0,0a22,22,0,0,1,5.6-6.43,22.58,22.58,0,0,1,7.69-3.8,21.71,21.71,0,0,1,8.54-.55A22.52,22.52,0,0,1,59.94,30l0,0a22.39,22.39,0,0,1,6.42,5.64,21.24,21.24,0,0,1,3.77,7.69,22.29,22.29,0,0,1,.59,8.5A21.44,21.44,0,0,1,68,59.94l0,0a21.26,21.26,0,0,1-5.6,6.42,22.43,22.43,0,0,1-7.69,3.81,21.51,21.51,0,0,1-8.5.55ZM49,64.88a1,1,0,0,0-.55.15,1.65,1.65,0,0,0-.23.32,1.08,1.08,0,0,0-.08.39.94.94,0,0,0,.19.59,3.38,3.38,0,0,0,.32.23.75.75,0,0,0,.35.08,18.37,18.37,0,0,0,2.55-.2A15.43,15.43,0,0,0,54,65.93a.86.86,0,0,0,.63-.78,1.17,1.17,0,0,0,0-.39,1,1,0,0,0-.24-.32.72.72,0,0,0-.82-.23h0a10.53,10.53,0,0,1-2.16.47,15.45,15.45,0,0,1-2.31.2Zm-.9-.36a1.68,1.68,0,0,1,.9-.27,19.8,19.8,0,0,0,2.2-.16,18,18,0,0,0,2.11-.47A1.43,1.43,0,0,1,54.8,64a2.43,2.43,0,0,1,.32.51,1.85,1.85,0,0,1,.11.63,1.51,1.51,0,0,1-1.06,1.37h0a18.66,18.66,0,0,1-2.5.55,20.63,20.63,0,0,1-2.67.2,1.83,1.83,0,0,1-.67-.16,2.25,2.25,0,0,1-.47-.39h0a2,2,0,0,1-.31-1,1.28,1.28,0,0,1,.16-.67,1.21,1.21,0,0,1,.43-.55ZM44.3,66a.71.71,0,0,0,.82-.23.77.77,0,0,0,.2-.36,1.68,1.68,0,0,0,.07-.39.69.69,0,0,0-.51-.7l-.58-.2a16.15,16.15,0,0,1-3.65-1.65.83.83,0,0,0-1,0,.8.8,0,0,0-.27.28.62.62,0,0,0-.12.35.77.77,0,0,0,.39.86h0a16.22,16.22,0,0,0,2.23,1.18,15.09,15.09,0,0,0,2.36.82Zm1.29.2a1.3,1.3,0,0,1-1.49.39,19.6,19.6,0,0,1-2.43-.86,18.09,18.09,0,0,1-2.31-1.26A1.41,1.41,0,0,1,38.65,63a1.27,1.27,0,0,1,.24-.58,1,1,0,0,1,.39-.47,1.43,1.43,0,0,1,1.68,0h0a14.31,14.31,0,0,0,3.53,1.6l.59.2A1.28,1.28,0,0,1,46,65a2,2,0,0,1-.12.67,2.45,2.45,0,0,1-.31.55ZM34.3,58.72a.76.76,0,0,0,.82.39,1.24,1.24,0,0,0,.36-.11,1.18,1.18,0,0,0,.31-.28.88.88,0,0,0,0-1,14.6,14.6,0,0,1-1.1-2,12,12,0,0,1-.82-2.12.92.92,0,0,0-.79-.62.64.64,0,0,0-.39.08.89.89,0,0,0-.31.19.74.74,0,0,0-.24.83v0a22.74,22.74,0,0,0,.94,2.36,18.15,18.15,0,0,0,1.22,2.19Zm.94,1a1.42,1.42,0,0,1-1.45-.67A15.8,15.8,0,0,1,32.5,56.8a20.08,20.08,0,0,1-.94-2.43A1.38,1.38,0,0,1,32,52.84a2,2,0,0,1,.51-.31,1.56,1.56,0,0,1,.62-.12,1.53,1.53,0,0,1,1.38,1.06h0a13,13,0,0,0,.78,2,19,19,0,0,0,1.06,1.92h0a1.4,1.4,0,0,1,0,1.68,1.15,1.15,0,0,1-.47.4,1.5,1.5,0,0,1-.55.23ZM31.56,46.69a.82.82,0,0,0,.35.86.65.65,0,0,0,.39.12.53.53,0,0,0,.35,0,.89.89,0,0,0,.67-.75,15.94,15.94,0,0,1,.43-2.23,15.19,15.19,0,0,1,.79-2.12.89.89,0,0,0-.16-.94,1.28,1.28,0,0,0-.32-.23,1.26,1.26,0,0,0-.39,0,.74.74,0,0,0-.74.51h0a14.47,14.47,0,0,0-.82,2.35,12.61,12.61,0,0,0-.51,2.47Zm0,1.37a1.33,1.33,0,0,1-.67-1.45,18,18,0,0,1,.51-2.55,16.87,16.87,0,0,1,.9-2.47,1.38,1.38,0,0,1,1.33-.86,1.41,1.41,0,0,1,.59.12,2.11,2.11,0,0,1,.55.31,1.5,1.5,0,0,1,.27,1.69h0a18.9,18.9,0,0,0-.74,2c-.2.75-.31,1.46-.43,2.16v0a1.43,1.43,0,0,1-1.1,1.22,1.23,1.23,0,0,1-.63,0,1.56,1.56,0,0,1-.58-.23Zm5.76-12.27a.94.94,0,0,0-.28,1,.92.92,0,0,0,.24.31,2.09,2.09,0,0,0,.31.24.77.77,0,0,0,.86-.16l0,0a21.44,21.44,0,0,1,1.81-1.37c.62-.39,1.29-.74,2-1.1h0a.71.71,0,0,0,.47-.74.55.55,0,0,0-.08-.35.88.88,0,0,0-1.18-.51,19.44,19.44,0,0,0-2.19,1.25,13.85,13.85,0,0,0-2,1.49ZM36.53,37a1.4,1.4,0,0,1,.4-1.64h0A26.15,26.15,0,0,1,39,33.75a18.13,18.13,0,0,1,2.28-1.25h0a1.41,1.41,0,0,1,1.64.31,1.49,1.49,0,0,1,.36.51,1.76,1.76,0,0,1,.11.59,1.41,1.41,0,0,1-.86,1.33,18,18,0,0,0-1.92,1.06c-.59.39-1.14.82-1.72,1.29a1.29,1.29,0,0,1-1.53.28,1.13,1.13,0,0,1-.51-.36,1.4,1.4,0,0,1-.36-.51Zm12.35-5.6a.75.75,0,0,0-.78.51.69.69,0,0,0-.08.39.55.55,0,0,0,.08.35.71.71,0,0,0,.78.51,21.09,21.09,0,0,1,2.28.16,16.88,16.88,0,0,1,2.19.47h0a.76.76,0,0,0,.82-.2,1.37,1.37,0,0,0,.2-.35.56.56,0,0,0,.08-.35.93.93,0,0,0-.63-.82,14.64,14.64,0,0,0-2.39-.47,18.82,18.82,0,0,0-2.59-.2Zm-1.37.27a1.41,1.41,0,0,1,1.37-.9,20,20,0,0,1,2.67.2,17.72,17.72,0,0,1,2.51.51v0a1.45,1.45,0,0,1,1.06,1.37,1.59,1.59,0,0,1-.12.59,1.71,1.71,0,0,1-.32.51,1.39,1.39,0,0,1-1.52.39A13.51,13.51,0,0,0,51,34a12.47,12.47,0,0,0-2.16-.16,1.41,1.41,0,0,1-1.37-.9,1.56,1.56,0,0,1-.12-.59,1.76,1.76,0,0,1,.12-.63Zm12.94,4a.75.75,0,0,0-.87-.15.85.85,0,0,0-.31.23.92.92,0,0,0-.2.31.76.76,0,0,0,.16.91c.63.58,1.14,1.09,1.61,1.6a14.91,14.91,0,0,1,1.45,1.85v0a.75.75,0,0,0,.82.35.62.62,0,0,0,.39-.12c.08-.08.2-.16.28-.23a.9.9,0,0,0,0-1,16.09,16.09,0,0,0-1.49-2c-.59-.63-1.22-1.26-1.8-1.81Zm-1.1-.7a1.28,1.28,0,0,1,1.53.27A18.1,18.1,0,0,1,62.76,37a14.87,14.87,0,0,1,1.53,2h0a1.41,1.41,0,0,1,0,1.69,2.91,2.91,0,0,1-.43.43,3.42,3.42,0,0,1-.59.2,1.37,1.37,0,0,1-1.45-.67c-.51-.71-.94-1.26-1.37-1.77s-1-1-1.61-1.6h0a1.41,1.41,0,0,1-.31-1.61,1.21,1.21,0,0,1,.35-.47,1.46,1.46,0,0,1,.51-.35Zm7.09,11.52a.87.87,0,0,0-.66-.74h-.36l-.35.11a.84.84,0,0,0-.39.87h0A21.65,21.65,0,0,1,64.84,49a14.36,14.36,0,0,1-.16,2.27h0a.8.8,0,0,0,.39.83,1.15,1.15,0,0,0,.35.15h.4a.82.82,0,0,0,.62-.74,16.15,16.15,0,0,0,.2-2.43c0-.86-.08-1.76-.2-2.59Zm-.51-1.33A1.44,1.44,0,0,1,67,46.37h0a19.62,19.62,0,0,1,.2,2.67,17.35,17.35,0,0,1-.16,2.51v0a1.44,1.44,0,0,1-1.72,1.21,1,1,0,0,1-.59-.19,1.38,1.38,0,0,1-.67-1.49,16.73,16.73,0,0,0,0-4.32,1.37,1.37,0,0,1,.67-1.48,1.16,1.16,0,0,1,.59-.2,1.62,1.62,0,0,1,.62,0ZM63.86,58.53a.89.89,0,0,0,0-1,.63.63,0,0,0-.28-.28l-.35-.12a.75.75,0,0,0-.82.4h0A17.34,17.34,0,0,1,61,59.35,15.93,15.93,0,0,1,59.43,61a.87.87,0,0,0-.28,1,.92.92,0,0,0,.2.31,1.56,1.56,0,0,0,.31.23.86.86,0,0,0,.9-.15h0a18.8,18.8,0,0,0,1.77-1.81c.55-.62,1-1.29,1.53-2Zm.47-1.38a1.48,1.48,0,0,1,0,1.69h0a18.52,18.52,0,0,1-1.57,2.08A18,18,0,0,1,61,62.8a1.32,1.32,0,0,1-1.53.23,1.26,1.26,0,0,1-.51-.35,1.19,1.19,0,0,1-.36-.51A1.44,1.44,0,0,1,59,60.52h0A18.61,18.61,0,0,0,60.52,59a13,13,0,0,0,1.3-1.73,1.43,1.43,0,0,1,1.49-.7,1.4,1.4,0,0,1,.55.23,1.84,1.84,0,0,1,.47.39Zm-13.76,28a1.59,1.59,0,0,1-2.67,1.1,1.67,1.67,0,0,1-.47-1.1V77.66a1.57,1.57,0,0,1,3.14,0Zm-.9.63a1,1,0,0,0,.27-.63V77.66a1,1,0,0,0-.27-.67,1,1,0,0,0-.67-.28,1.11,1.11,0,0,0-.67.28,1,1,0,0,0-.27.67v7.48a1,1,0,0,0,.27.63A.9.9,0,0,0,49,86a.81.81,0,0,0,.67-.27ZM47.43,12.9a1.59,1.59,0,0,1,.47-1.1,1.62,1.62,0,0,1,2.2,0,1.67,1.67,0,0,1,.47,1.1v7.48a1.57,1.57,0,0,1-3.14,0Zm.9-.63a1,1,0,0,0-.27.63v7.48a1.06,1.06,0,0,0,.27.67,1.09,1.09,0,0,0,.67.27,1,1,0,0,0,.67-.27,1.06,1.06,0,0,0,.27-.67V12.9a1.16,1.16,0,0,0-.27-.67.92.92,0,0,0-1.34,0ZM81.07,65.74a1.69,1.69,0,0,1,.7.94,1.4,1.4,0,0,1-.16,1.18h0a1.37,1.37,0,0,1-.94.7,1.35,1.35,0,0,1-1.17-.16L73,64.68a1.35,1.35,0,0,1-.71-.94,1.63,1.63,0,0,1,.12-1.18h0a1.33,1.33,0,0,1,.94-.7,1.44,1.44,0,0,1,1.14.12c2.15,1.13,4.35,2.54,6.51,3.76Zm-.36.51-6.43-3.73a.91.91,0,0,0-.7-.07.86.86,0,0,0-.59.43h0a.87.87,0,0,0-.08.7.77.77,0,0,0,.43.55c1.61.9,5.14,2.75,6.47,3.76a.89.89,0,0,0,.71.08.87.87,0,0,0,.55-.43h0a1.07,1.07,0,0,0,.08-.7,1.21,1.21,0,0,0-.43-.59ZM17,32.3a1.51,1.51,0,0,1-.74-.94,1.76,1.76,0,0,1,.16-1.18,1.5,1.5,0,0,1,.94-.7,1.35,1.35,0,0,1,1.17.16L25,33.36a1.52,1.52,0,0,1,.75.94,1.86,1.86,0,0,1-.16,1.18,1.67,1.67,0,0,1-.94.7A1.37,1.37,0,0,1,23.44,36Zm-.15-1.1a1.26,1.26,0,0,0,.43.59l6.51,3.73a.89.89,0,0,0,.7.07.82.82,0,0,0,.55-.43.87.87,0,0,0,.08-.7.77.77,0,0,0-.43-.55l-6.47-3.77a.91.91,0,0,0-.71-.07.84.84,0,0,0-.55.43,1.16,1.16,0,0,0-.11.7ZM79.5,29.64a1.35,1.35,0,0,1,1.17-.16,1.52,1.52,0,0,1,1.1,1.88,1.59,1.59,0,0,1-.7.94l-6.51,3.76a1.44,1.44,0,0,1-1.14.12,1.33,1.33,0,0,1-.94-.7h0a1.63,1.63,0,0,1-.12-1.18,1.46,1.46,0,0,1,.71-.94Zm1,.43a.93.93,0,0,0-.71.07l-6.47,3.77a.77.77,0,0,0-.43.55.87.87,0,0,0,.08.7.81.81,0,0,0,.59.43.91.91,0,0,0,.7-.07l6.47-3.73a1.26,1.26,0,0,0,.43-.59.93.93,0,0,0-.11-.7.84.84,0,0,0-.55-.43ZM18.19,67.89l6.47-3.76a.77.77,0,0,0,.43-.55.87.87,0,0,0-.08-.7h0a.79.79,0,0,0-.55-.43.89.89,0,0,0-.7.07l-6.51,3.73a1.21,1.21,0,0,0-.43.59,1.16,1.16,0,0,0,.11.7h0a.93.93,0,0,0,1.26.35Zm.31.51a1.35,1.35,0,0,1-1.17.16,1.5,1.5,0,0,1-.94-.7,1.76,1.76,0,0,1-.16-1.18,1.48,1.48,0,0,1,.74-.94c2.12-1.26,4.28-2.55,6.47-3.73a1.4,1.4,0,0,1,1.18-.15,1.35,1.35,0,0,1,.9.7h0a1.86,1.86,0,0,1,.16,1.18,1.52,1.52,0,0,1-.75.94Zm48,7.88a1.38,1.38,0,0,1,.16,1.18,1.57,1.57,0,0,1-.71.94,1.76,1.76,0,0,1-1.17.16,1.5,1.5,0,0,1-.94-.75L62,74.6a1.75,1.75,0,0,1-.16-1.18,1.51,1.51,0,0,1,.74-.94,1.45,1.45,0,0,1,1.18-.16,1.9,1.9,0,0,1,.94.71Zm-.43,1a1.07,1.07,0,0,0-.08-.7l-1.88-3.26a1.22,1.22,0,0,0-.55-.43.86.86,0,0,0-.7.12.72.72,0,0,0-.43.55.91.91,0,0,0,.07.7l1.85,3.26A1.3,1.3,0,0,0,65,78a1.12,1.12,0,0,0,.71-.12,1,1,0,0,0,.43-.55ZM31.48,21.76a1.53,1.53,0,0,1-.16-1.18,1.49,1.49,0,0,1,.75-.94,1.7,1.7,0,0,1,1.17-.16,1.74,1.74,0,0,1,.94.75L36,23.44a1.39,1.39,0,0,1,.16,1.18,1.59,1.59,0,0,1-.7.94,1.68,1.68,0,0,1-1.18.16,1.52,1.52,0,0,1-.94-.75Zm.43-1a.89.89,0,0,0,.12.7l1.84,3.26a1.33,1.33,0,0,0,.59.43.91.91,0,0,0,.7-.12,1,1,0,0,0,.43-.55.93.93,0,0,0-.11-.7L33.63,20.5a1.12,1.12,0,0,0-.58-.43,1.17,1.17,0,0,0-.71.12,1,1,0,0,0-.43.55ZM81.38,47.47a1.58,1.58,0,0,1,1.1.43,1.57,1.57,0,0,1,0,2.24,1.58,1.58,0,0,1-1.1.43H77.66a1.54,1.54,0,0,1-1.1-.43A1.56,1.56,0,0,1,76.09,49a1.54,1.54,0,0,1,1.57-1.53Zm.67.9a.9.9,0,0,0-.67-.27H77.66a.83.83,0,0,0-.67.27.92.92,0,0,0-.28.63.82.82,0,0,0,.28.67.83.83,0,0,0,.67.27h3.72a1,1,0,0,0,.67-.27,1,1,0,0,0,.27-.67,1,1,0,0,0-.27-.63Zm-65.43,2.2a1.58,1.58,0,0,1-1.1-.43A1.75,1.75,0,0,1,15.09,49a1.73,1.73,0,0,1,.43-1.1,1.58,1.58,0,0,1,1.1-.43h3.76a1.55,1.55,0,1,1,0,3.1Zm-.67-.9a1,1,0,0,0,.67.27h3.76a.8.8,0,0,0,.63-.27.82.82,0,0,0,.28-.67.78.78,0,0,0-.28-.63.8.8,0,0,0-.63-.27H16.62a.92.92,0,0,0-.94.9,1,1,0,0,0,.27.67ZM63.86,20.23a1.5,1.5,0,0,1,.94-.75,1.76,1.76,0,0,1,1.17.16,1.43,1.43,0,0,1,.71.94,1.38,1.38,0,0,1-.16,1.18L64.68,25a1.77,1.77,0,0,1-.94.75,1.45,1.45,0,0,1-1.18-.16,1.51,1.51,0,0,1-.74-.94A1.75,1.75,0,0,1,62,23.44ZM65,20.07a1.3,1.3,0,0,0-.58.43l-1.85,3.26a.91.91,0,0,0-.07.7.72.72,0,0,0,.43.55.86.86,0,0,0,.7.12,1.22,1.22,0,0,0,.55-.43L66,21.44a1.07,1.07,0,0,0,.08-.7.85.85,0,0,0-.43-.55.91.91,0,0,0-.71-.12ZM34.18,77.81h0a1.5,1.5,0,0,1-.94.75,1.62,1.62,0,0,1-1.13-.16,1.49,1.49,0,0,1-.75-.94,1.38,1.38,0,0,1,.16-1.18l1.88-3.21a1.52,1.52,0,0,1,.94-.75,1.49,1.49,0,0,1,1.18.16,1.59,1.59,0,0,1,.7.94A1.39,1.39,0,0,1,36,74.6ZM33.05,78a1.3,1.3,0,0,0,.58-.43l1.85-3.26a.93.93,0,0,0,.11-.7,1,1,0,0,0-.43-.55.91.91,0,0,0-.7-.12,1.33,1.33,0,0,0-.59.43L32,76.6a.89.89,0,0,0-.12.7,1,1,0,0,0,.43.55.94.94,0,0,0,.71.12ZM55.27,72.4a23.62,23.62,0,0,1-9.41.63,24.05,24.05,0,0,1-8.89-3l-.08,0a24.74,24.74,0,0,1-7.1-6.23,24.27,24.27,0,0,1-4.19-8.51A25,25,0,0,1,25,45.9,24.57,24.57,0,0,1,28,37l0-.08a24,24,0,0,1,6.23-7.1,23.33,23.33,0,0,1,8.47-4.15A23.67,23.67,0,0,1,52.14,25,24.05,24.05,0,0,1,61,28l.08,0A24.3,24.3,0,0,1,73,52.14a23.84,23.84,0,0,1-3,8.93l0,.08a24.14,24.14,0,0,1-6.23,7.1,23.33,23.33,0,0,1-8.47,4.15Zm-9.33,0a24,24,0,0,0,9.18-.63,23.4,23.4,0,0,0,14.3-11l0-.08a23.64,23.64,0,0,0,2.35-17.84,24.3,24.3,0,0,0-4.07-8.27,23.57,23.57,0,0,0-6.94-6.07l-.08,0a23.56,23.56,0,0,0-8.66-2.94,24.23,24.23,0,0,0-9.18.62,23.47,23.47,0,0,0-14.3,11l0,.08a23.45,23.45,0,0,0-2.32,17.84,23.31,23.31,0,0,0,11,14.34l.08,0a23.81,23.81,0,0,0,8.66,2.94Z"/><path class="cls-1" d="M49,98A49,49,0,0,1,14.35,14.39a49,49,0,1,1,69.3,69.26A48.72,48.72,0,0,1,49,98ZM16,82A46.62,46.62,0,1,0,2.39,49,46.42,46.42,0,0,0,16,82Z"/></svg>