<?xml version="1.0" encoding="utf-8"?>
<!-- Generator: Adobe Illustrator 26.3.1, SVG Export Plug-In . SVG Version: 6.00 Build 0)  -->
<svg version="1.1" id="Layer_1" xmlns="http://www.w3.org/2000/svg" xmlns:xlink="http://www.w3.org/1999/xlink" x="0px" y="0px"
	 viewBox="0 0 98 98" style="enable-background:new 0 0 98 98;" xml:space="preserve">
<style type="text/css">
	.st0{fill:#808080;}
</style>
<path class="st0" d="M50.1,18.8v3l5.3-5.9c0.5-0.4,1.2-0.4,1.7,0c0.5,0.4,0.5,1.2,0.1,1.6l-7,7.7v3.5l5.3-5.8
	c0.4-0.5,1.2-0.5,1.6-0.1s0.5,1.2,0.1,1.6l-7,7.7v10c0.4,0,0.8,0.2,1.2,0.3l3.1-5.4c-0.6-0.7-0.9-1.6-0.9-2.5c0-1,0.3-1.9,1-2.6
	c1.4-1.4,3.7-1.5,5.2,0c0,0,0,0,0,0c1.4,1.5,1.4,3.8,0,5.2c-0.7,0.7-1.6,1.1-2.6,1.1c-0.3,0-0.5,0-0.8-0.1l-3.1,5.4l0.5,0.5l0.5,0.5
	l8.6-5l3.2-9.9c0.2-0.6,0.8-0.9,1.4-0.7c0,0,0,0,0,0c0.6,0.2,0.9,0.8,0.8,1.4c0,0,0,0,0,0l-2.4,7.5l3-1.7l3.2-10
	c0.2-0.6,0.8-0.9,1.4-0.7c0.6,0.2,0.9,0.8,0.7,1.5l-2.4,7.5l2.7-1.5c-0.4-1.6,0.4-3.2,1.8-4c0.8-0.5,1.9-0.6,2.8-0.4
	c0.9,0.2,1.8,0.9,2.2,1.7c0.5,0.8,0.6,1.8,0.3,2.8c-0.2,1-0.8,1.8-1.6,2.3c-0.9,0.5-1.9,0.6-2.8,0.3c-0.5-0.2-1.1-0.4-1.5-0.8
	L73,36.5l7.7,1.6c0.6,0.1,1,0.7,0.9,1.4c-0.1,0.6-0.7,1-1.3,0.9c0,0,0,0,0,0l-10.2-2.2l-3,1.8l7.7,1.6c0.6,0.1,1,0.7,0.9,1.4
	c0,0,0,0,0,0c-0.1,0.6-0.7,1-1.3,0.9c0,0,0,0,0,0l-10.2-2.2l-8.7,5c0.2,0.4,0.3,0.8,0.3,1.2H62c0.3-0.8,0.9-1.5,1.7-2
	c0.9-0.5,1.9-0.6,2.8-0.4c0.9,0.3,1.7,0.9,2.2,1.7c0.5,0.8,0.6,1.8,0.3,2.8c-0.2,0.9-0.9,1.8-1.7,2.2c-1.7,1-4,0.4-5-1.3
	c0,0,0,0,0-0.1c-0.1-0.2-0.2-0.5-0.3-0.7h-6.2c-0.1,0.4-0.2,0.8-0.3,1.2l8.7,5l10.2-2.2c0.6-0.2,1.2,0.2,1.4,0.8
	c0.2,0.6-0.2,1.2-0.8,1.4c0,0-0.1,0-0.1,0l-7.7,1.7l3,1.7l10.2-2.2c0.6-0.1,1.2,0.2,1.4,0.8c0,0,0,0,0,0c0.1,0.6-0.3,1.2-0.9,1.4
	L73,61.5l2.7,1.6c0.4-0.4,0.9-0.7,1.5-0.8c1-0.3,2-0.1,2.8,0.3c0.8,0.5,1.4,1.3,1.7,2.2c0.3,0.9,0.2,2-0.3,2.8c-1,1.7-3.2,2.3-5,1.3
	c-1.4-0.8-2.1-2.4-1.8-4l-2.7-1.5l2.4,7.5c0.2,0.6-0.2,1.2-0.7,1.4c-0.6,0.2-1.3-0.1-1.4-0.7c0,0,0,0,0,0L69,61.9l-3-1.8l2.4,7.5
	c0.2,0.6-0.1,1.3-0.7,1.4c0,0,0,0,0,0c-0.6,0.2-1.2-0.1-1.4-0.7c0,0,0,0,0,0L63,58.4l-8.6-5l-0.5,0.5l-0.5,0.5l3.1,5.4
	c0.9-0.2,1.8,0,2.6,0.4c0.8,0.5,1.4,1.3,1.7,2.2c0.3,0.9,0.1,1.9-0.3,2.8c-0.5,0.8-1.3,1.5-2.2,1.7c-0.9,0.2-1.9,0.1-2.8-0.4
	c-0.9-0.5-1.5-1.3-1.7-2.2c-0.2-0.8-0.1-1.7,0.2-2.5v-0.2l0.3-0.3c0.1-0.2,0.2-0.3,0.4-0.4l-3.1-5.4c-0.4,0.2-0.8,0.3-1.2,0.3v10
	l7,7.7c0.4,0.5,0.4,1.2-0.1,1.6c-0.5,0.4-1.2,0.4-1.6-0.1l-5.3-5.8v3.5l7,7.7c0.4,0.5,0.4,1.2-0.1,1.7c-0.5,0.4-1.2,0.4-1.7,0
	l-5.3-5.8v3.1c0.6,0.2,1.1,0.5,1.5,0.9c0.7,0.7,1.1,1.6,1.1,2.6c0,2-1.6,3.7-3.7,3.7s-3.7-1.6-3.7-3.7c0-1,0.4-1.9,1-2.6
	c0.4-0.4,0.9-0.7,1.5-0.9v-3.1L42.5,82c-0.4,0.5-1.1,0.5-1.6,0.1c0,0,0,0,0,0c-0.5-0.4-0.5-1.2-0.1-1.7l7-7.7v-3.5l-5.3,5.8
	c-0.4,0.5-1.1,0.5-1.6,0.1c0,0,0,0,0,0c-0.5-0.4-0.5-1.2-0.1-1.7l7-7.7v-10c-0.4,0-0.9-0.1-1.2-0.3l-3.1,5.4
	c0.6,0.7,0.9,1.6,0.9,2.5c0,1-0.3,1.9-1,2.6c-1.4,1.4-3.8,1.4-5.2,0c-0.7-0.7-1.1-1.6-1.2-2.6c0-1,0.4-1.9,1.1-2.6
	c0.7-0.7,1.6-1.1,2.6-1.1c0.2,0,0.5,0,0.7,0.1l3.1-5.4c-0.2-0.1-0.3-0.3-0.5-0.5c-0.2-0.1-0.3-0.3-0.5-0.5l-8.7,5l-3.2,9.9
	c-0.2,0.6-0.8,1-1.4,0.8c-0.6-0.2-1-0.8-0.8-1.4c0-0.1,0-0.1,0.1-0.2l2.4-7.5l-3,1.8l-3.2,9.9c-0.2,0.6-0.8,0.9-1.4,0.7c0,0,0,0,0,0
	c-0.6-0.2-0.9-0.8-0.7-1.4l2.4-7.5l-2.7,1.5c0.1,0.6,0.1,1.2,0,1.7c-0.3,0.9-0.9,1.7-1.7,2.2c-1.8,1-4,0.4-5-1.3
	c-0.5-0.9-0.6-1.9-0.4-2.8c0.3-0.9,0.9-1.7,1.7-2.2c0.8-0.5,1.9-0.6,2.8-0.3c0.6,0.2,1.1,0.4,1.5,0.8l2.6-1.6l-7.7-1.6
	c-0.6-0.1-1-0.7-0.9-1.4c0.1-0.6,0.7-1,1.3-0.9c0,0,0,0,0,0l10.2,2.2l3-1.7l-7.7-1.7c-0.6-0.1-1-0.7-0.9-1.3c0,0,0,0,0-0.1
	c0.1-0.6,0.7-1,1.3-0.9c0,0,0,0,0,0l10.2,2.2l8.7-5c-0.2-0.4-0.3-0.8-0.3-1.2H36c-0.3,0.8-0.9,1.6-1.7,2c-0.8,0.5-1.8,0.6-2.8,0.4
	c-0.9-0.3-1.7-0.9-2.2-1.7c-1-1.8-0.4-4,1.3-5c0.9-0.5,1.9-0.6,2.8-0.4c0.9,0.3,1.7,0.9,2.2,1.7c0.1,0.2,0.2,0.5,0.3,0.7h6.2
	c0.1-0.4,0.2-0.8,0.3-1.2l-8.7-5l-10.2,2.2c-0.6,0.1-1.2-0.2-1.3-0.8c0,0,0,0,0,0c-0.1-0.6,0.2-1.2,0.9-1.4c0,0,0,0,0,0l7.7-1.6
	l-3-1.8l-10.2,2.2c-0.6,0.1-1.2-0.2-1.4-0.8c0,0,0,0,0,0c-0.1-0.6,0.3-1.2,0.9-1.4l7.7-1.6l-2.7-1.6c-0.4,0.4-1,0.7-1.5,0.8
	c-0.9,0.3-1.9,0.1-2.8-0.3c-0.8-0.5-1.4-1.3-1.7-2.2c-0.2-0.9-0.1-1.9,0.4-2.8c0.5-0.9,1.3-1.5,2.2-1.7c0.9-0.3,1.9-0.1,2.8,0.4
	c0.8,0.5,1.5,1.3,1.7,2.2c0.1,0.6,0.1,1.2,0,1.7l2.7,1.5l-2.4-7.5c-0.2-0.6,0.1-1.2,0.7-1.5c0.6-0.2,1.2,0.1,1.5,0.7l3.2,9.9l3,1.8
	l-2.4-7.5c-0.2-0.6,0-1.2,0.6-1.5c0.6-0.2,1.2,0,1.5,0.6c0,0.1,0,0.1,0.1,0.2l3.2,9.9l8.7,5l0.5-0.5c0.1-0.2,0.3-0.3,0.5-0.5
	l-3.1-5.3c-0.9,0.2-1.8,0-2.6-0.4c-0.8-0.5-1.5-1.3-1.7-2.2c-0.2-0.9-0.1-1.9,0.4-2.8c0.5-0.8,1.3-1.5,2.2-1.7
	c0.9-0.2,1.9-0.1,2.8,0.4c0.9,0.5,1.5,1.3,1.7,2.2c0.2,0.8,0.1,1.7-0.2,2.5v0.2l-0.3,0.3l-0.4,0.5l3.1,5.4c0.4-0.2,0.8-0.3,1.2-0.3
	v-10l-7-7.7c-0.4-0.5-0.4-1.2,0.1-1.6c0.5-0.4,1.2-0.4,1.6,0.1c0,0,0,0,0,0l5.3,5.8v-3.5l-7-7.7c-0.4-0.5-0.4-1.2,0-1.6
	c0.5-0.4,1.2-0.4,1.6,0l0,0l5.3,5.8v-3c-0.6-0.1-1.1-0.4-1.5-0.8c-0.6-0.7-1-1.7-1-2.6c0-1,0.4-1.9,1-2.6c0.7-0.7,1.6-1.1,2.6-1.1
	c2,0,3.7,1.7,3.7,3.7c0,1-0.4,2-1.1,2.7C51.2,18.4,50.7,18.7,50.1,18.8L50.1,18.8z M19.5,30.9c-0.3,0.1-0.6,0.3-0.7,0.6
	c-0.2,0.3-0.3,0.7-0.2,1c0.1,0.3,0.3,0.6,0.6,0.8c0.3,0.2,0.7,0.3,1,0.1c0.3-0.1,0.6-0.3,0.7-0.6c0.2-0.3,0.3-0.7,0.2-1
	c-0.1-0.3-0.3-0.6-0.6-0.8C20.2,30.9,19.8,30.8,19.5,30.9z M78.5,67.1c0.3-0.1,0.6-0.3,0.8-0.6c0.2-0.3,0.3-0.7,0.2-1
	c-0.1-0.3-0.3-0.6-0.6-0.8c-0.3-0.2-0.7-0.2-1-0.1c-0.3,0.1-0.6,0.3-0.8,0.6c-0.4,0.6-0.2,1.4,0.4,1.8c0,0,0,0,0.1,0
	C77.8,67.2,78.2,67.2,78.5,67.1L78.5,67.1z M18.6,65.5c-0.1,0.3,0,0.7,0.2,1c0.2,0.3,0.4,0.5,0.8,0.6c0.3,0.1,0.7,0.1,0.9-0.1
	c0.3-0.2,0.5-0.4,0.6-0.8c0.1-0.3,0-0.7-0.2-1c-0.1-0.3-0.4-0.5-0.7-0.6C19.5,64.4,18.8,64.8,18.6,65.5z M79.4,32.5
	c0.1-0.3,0-0.7-0.2-1c-0.2-0.3-0.4-0.5-0.8-0.6c-0.3-0.1-0.7,0-1,0.1c-0.3,0.2-0.5,0.5-0.6,0.8c-0.1,0.3,0,0.7,0.1,1
	c0.2,0.3,0.5,0.5,0.8,0.6c0.3,0.1,0.7,0.1,1-0.1C79.1,33.1,79.3,32.8,79.4,32.5z M48.1,83.6c0.4,0.5,1.2,0.5,1.7,0.1
	c0,0,0.1-0.1,0.1-0.1c0.2-0.2,0.4-0.6,0.4-0.9c0-0.3-0.1-0.7-0.4-0.9c-0.5-0.5-1.2-0.5-1.7-0.1c0,0,0,0-0.1,0.1
	c-0.2,0.2-0.4,0.6-0.4,0.9C47.7,83,47.9,83.3,48.1,83.6z M49.9,14.4c-0.4-0.5-1.2-0.5-1.7-0.1c0,0-0.1,0.1-0.1,0.1
	c-0.2,0.2-0.4,0.6-0.4,0.9c0,0.3,0.1,0.7,0.4,0.9c0.5,0.5,1.2,0.5,1.7,0.1c0,0,0,0,0.1-0.1c0.2-0.2,0.4-0.6,0.4-0.9
	C50.3,15,50.1,14.7,49.9,14.4z M40.6,36c0.1-0.3,0.3-0.5,0.5-0.6c0.2-0.1,0.5-0.2,0.8-0.1c0.1-0.3,0.2-0.6,0.1-0.9
	c-0.1-0.3-0.3-0.6-0.6-0.8l0,0c-0.3-0.2-0.6-0.2-0.9-0.1c-0.3,0.1-0.6,0.3-0.8,0.6c-0.2,0.3-0.2,0.7-0.2,1c0.1,0.2,0.2,0.4,0.4,0.6
	H40l0.2,0.2C40.4,36,40.5,36,40.6,36L40.6,36z M57.4,62c-0.2,0.5-0.7,0.9-1.3,0.8C56,63,55.9,63.4,56,63.7c0.1,0.3,0.3,0.6,0.6,0.8
	l0,0c0.3,0.2,0.7,0.2,1,0.1c0.3-0.1,0.6-0.3,0.8-0.6c0.2-0.3,0.2-0.7,0.1-1c0-0.2-0.2-0.5-0.4-0.6H58l-0.2-0.2
	C57.6,62,57.5,62,57.4,62L57.4,62z M33.5,49.7c-0.4-0.4-0.4-1.1,0-1.5c-0.2-0.2-0.4-0.4-0.7-0.5c-0.3-0.1-0.7,0-1,0.1
	c-0.3,0.2-0.5,0.5-0.6,0.8c-0.1,0.3-0.1,0.7,0.1,1c0.2,0.3,0.5,0.5,0.8,0.6c0.3,0.1,0.7,0,1-0.1C33.3,50.1,33.4,49.9,33.5,49.7
	L33.5,49.7z M64.5,48.3c0.4,0.4,0.4,1.1,0,1.5c0.2,0.2,0.4,0.4,0.7,0.5c0.3,0.1,0.7,0,1-0.1c0.3-0.2,0.5-0.5,0.6-0.8
	c0.1-0.3,0-0.7-0.1-1c-0.2-0.3-0.5-0.5-0.8-0.6c-0.3-0.1-0.7,0-1,0.1C64.8,48,64.6,48.1,64.5,48.3L64.5,48.3z M41.9,62.8
	c-0.3,0-0.5,0-0.8-0.1c-0.2-0.1-0.4-0.4-0.5-0.6c-0.3,0-0.6,0.2-0.8,0.4c-0.2,0.2-0.4,0.6-0.4,0.9c0,0.3,0.1,0.7,0.4,0.9
	c0.5,0.5,1.2,0.5,1.7,0.1c0,0,0,0,0.1-0.1c0.2-0.2,0.4-0.6,0.4-0.9C42,63.1,42,62.9,41.9,62.8z M56.1,35.2c0.6-0.1,1.1,0.2,1.3,0.8
	c0.3,0,0.6-0.2,0.8-0.4c0.2-0.2,0.4-0.6,0.4-0.9c0-0.3-0.1-0.7-0.4-0.9c-0.2-0.2-0.6-0.4-0.9-0.4c-0.7,0-1.3,0.6-1.3,1.2
	c0,0,0,0,0,0C56,34.9,56,35.1,56.1,35.2L56.1,35.2z M52.2,45.8c-1.8-1.8-4.7-1.8-6.5,0c-1.8,1.8-1.8,4.7,0,6.5
	c1.8,1.8,4.7,1.8,6.5,0c0.9-0.9,1.4-2,1.4-3.3C53.6,47.8,53.1,46.6,52.2,45.8z"/>
</svg>
