<?xml version="1.0" encoding="utf-8"?>
<!-- Generator: Adobe Illustrator 26.3.1, SVG Export Plug-In . SVG Version: 6.00 Build 0)  -->
<svg version="1.1" id="Layer_1" xmlns="http://www.w3.org/2000/svg" xmlns:xlink="http://www.w3.org/1999/xlink" x="0px" y="0px"
	 viewBox="0 0 69.2 98.4" style="enable-background:new 0 0 69.2 98.4;" xml:space="preserve">
<style type="text/css">
	.st0{fill:#F2789F;}
	.st1{fill:none;}
</style>
<path class="st0" d="M58,21.7c-1.5-3.5-3.6-6.7-6.3-9.4C40.2,0.8,21.5,0.8,10,12.3c0,0,0,0,0,0C-1.6,23.9-1.6,42.6,10,54.1
	c2.7,2.7,5.9,4.8,9.3,6.3c2.2,0.9,4.4,1.6,6.7,2v5.2H15.3V77H26v10.6h9.5V77h10.7v-9.5H35.5v-5.2C45.6,60.7,54,54,58,44.7
	C61.1,37.3,61.1,29,58,21.7L58,21.7z M44.9,47.3c-7.8,7.8-20.5,7.8-28.3,0s-7.8-20.5,0-28.3s20.5-7.8,28.3,0
	c3.8,3.8,5.9,8.9,5.9,14.2C50.8,38.5,48.7,43.6,44.9,47.3L44.9,47.3z"/>
<path class="st1" d="M67.8,44.3c1.7-8.3,2.1-12.5,1.3-12.8c-0.6-0.2-1.8,1.7-3.6,5.6"/>
</svg>
