<svg id="Layer_1" data-name="Layer 1" xmlns="http://www.w3.org/2000/svg" viewBox="0 0 91.83 91.83"><defs><style>.cls-1,.cls-4{fill:#fff;}.cls-2{fill:#42a147;}.cls-2,.cls-3,.cls-4{fill-rule:evenodd;}.cls-3{fill:#cc292e;}</style></defs><rect class="cls-1" y="30.58" width="91.83" height="30.66"/><path class="cls-2" d="M0,30.58H91.83V14.63A14.69,14.69,0,0,0,77.28,0H14.54A14.63,14.63,0,0,0,0,14.63Z"/><path class="cls-3" d="M14.63,91.83H77.2A14.66,14.66,0,0,0,91.83,77.2v-16H0v16A14.66,14.66,0,0,0,14.63,91.83Z"/><path class="cls-4" d="M91.83,27v.75h-2v.74h1.42v.67H89.09V27Zm0,2.91v1.41H89.09V29.92Zm0,30.58v1.41H89.09V60.5Zm0,3.57v.75h-2v.75h1.42v.75H89.09V64.07ZM0,66.32v-.75H2v-.75H.58v-.75H2.74v2.25Zm0-3v-.66H5.57v.66Zm0-1.41V60.5H2.74v1.41ZM0,31.33V29.92H2.74v1.41Zm0-2.16V28.5H2v-.74H.58V27H2.74v2.16Zm0-2.91V25.6H5.57v.66ZM26.26,28.5H27v.67h-.75ZM24.85,27h3.57V28.5H30.5v-.74H29.09V27h2.16v2.16H27.67V27.76H25.51v1.41h-.66Zm9.31,1.49h-1.5v-.74h2.16v1.41h3.57V25.6h-.74v2.9H37V25.6h-.75v2.9h-.66V25.6h-.75V27H32v2.16h2.17Zm49.27,0h.67v.67h-.67ZM81.94,27h3.57V28.5h2.16v-.74H86.26V27h2.16v2.16H84.85V27.76H82.69v1.41h-.75ZM40.55,28.5h.67v.67h-.67ZM39.14,27h3.57V28.5h2.08v-.74H43.38V27h2.16v2.16H42V27.76H39.81v1.41h-.67Zm9.31,1.49H47v-.74h2.16v1.41h3.58V25.6h-.75v2.9h-.67V25.6h-.74v2.9h-.67V25.6h-.75V27H46.29v2.16h2.16Zm-42.88,0H4.16v-.74H6.32v1.41H9.89V25.6H9.14v2.9H8.48V25.6H7.73v2.9H7V25.6H6.32V27H3.41v2.16H5.57Zm49.28,0h.66v.67h-.66ZM53.35,27h3.57V28.5h2.17v-.74H57.67V27h2.16v2.16H56.26V27.76H54.1v1.41h-.75Zm9.31,1.49H61.25v-.74h2.16v1.41H67V25.6h-.75v2.9h-.66V25.6h-.75v2.9h-.75V25.6h-.66V27H60.58v2.16h2.08Zm-50.61,0h.66v.67h-.66ZM10.55,27h3.58V28.5h2.16v-.74H14.88V27H17v2.16H13.46V27.76H11.3v1.41h-.75Zm9.31,1.49H18.45v-.74h2.16v1.41h3.57V25.6h-.75v2.9h-.74V25.6H22v2.9h-.75V25.6h-.66V27H17.7v2.16h2.16Zm49.28,0h.67v.67h-.67ZM67.65,27h3.57V28.5h2.16v-.74H72V27h2.16v2.16H70.55V27.76H68.39v1.41h-.74ZM77,28.5H75.54v-.74H77.7v1.41h3.49V25.6h-.66v2.9h-.75V25.6h-.67v2.9h-.74V25.6H77.7V27H74.79v2.16H77ZM69.14,65.57h.67v.75h-.67Zm-1.49-1.5h3.57v1.5h2.16v-.75H72v-.75h2.16v2.25H70.55v-1.5H68.39v1.5h-.74Zm9.3,1.5H75.54v-.75H77.7v1.5h3.49V62.66h-.66v2.91h-.75V62.66h-.67v2.91h-.74V62.66H77.7v1.41H74.79v2.25H77Zm-9.3-2.91H77v.66h-9.3Zm0-37.06H77v.66h-9.3Zm-57.1,0h9.31v.66H10.55Zm42.8,0h9.31v.66H53.35Zm-14.21,0h9.31v.66H39.14Zm42.8,0h9.31v.66H81.94Zm-57.09,0h9.31v.66H24.85Zm-12.8,40h.66v.75h-.66Zm-1.5-1.5h3.58v1.5h2.16v-.75H14.88v-.75H17v2.25H13.46v-1.5H11.3v1.5h-.75Zm9.31,1.5H18.45v-.75h2.16v1.5h3.57V62.66h-.75v2.91h-.74V62.66H22v2.91h-.75V62.66h-.66v1.41H17.7v2.25h2.16Zm-9.31-2.91h9.31v.66H10.55Zm44.3,2.91h.66v.75h-.66Zm-1.5-1.5h3.57v1.5h2.17v-.75H57.67v-.75h2.16v2.25H56.26v-1.5H54.1v1.5h-.75Zm9.31,1.5H61.25v-.75h2.16v1.5H67V62.66h-.75v2.91h-.66V62.66h-.75v2.91h-.75V62.66h-.66v1.41H60.58v2.25h2.08Zm-9.31-2.91h9.31v.66H53.35ZM5.57,65.57H4.16v-.75H6.32v1.5H9.89V62.66H9.14v2.91H8.48V62.66H7.73v2.91H7V62.66H6.32v1.41H3.41v2.25H5.57Zm35,0h.67v.75h-.67Zm-1.41-1.5h3.57v1.5h2.08v-.75H43.38v-.75h2.16v2.25H42v-1.5H39.81v1.5h-.67Zm9.31,1.5H47v-.75h2.16v1.5h3.58V62.66h-.75v2.91h-.67V62.66h-.74v2.91h-.67V62.66h-.75v1.41H46.29v2.25h2.16Zm-9.31-2.91h9.31v.66H39.14Zm44.29,2.91h.67v.75h-.67Zm-1.49-1.5h3.57v1.5h2.16v-.75H86.26v-.75h2.16v2.25H84.85v-1.5H82.69v1.5h-.75Zm0-1.41h9.31v.66H81.94ZM26.26,65.57H27v.75h-.75Zm-1.41-1.5h3.57v1.5H30.5v-.75H29.09v-.75h2.16v2.25H27.67v-1.5H25.51v1.5h-.66Zm9.31,1.5h-1.5v-.75h2.16v1.5h3.57V62.66h-.74v2.91H37V62.66h-.75v2.91h-.66V62.66h-.75v1.41H32v2.25h2.17Zm-9.31-2.91h9.31v.66H24.85ZM46.29,29.92h6.4v1.41h-6.4Zm-42.88,0H9.89v1.41H3.41Zm71.38,0h6.4v1.41h-6.4Zm-42.8,0h6.4v1.41H32Zm28.51,0H67v1.41H60.5Zm-42.8,0h6.4v1.41H17.7Zm64.24,0h6.48v1.41H81.94Zm-42.8,0h6.4v1.41h-6.4Zm28.51,0h6.48v1.41H67.65Zm-42.8,0h6.4v1.41h-6.4Zm28.5,0h6.48v1.41H53.35Zm-42.8,0H17v1.41h-6.4ZM46.29,60.5h6.4v1.41h-6.4Zm-42.88,0H9.89v1.41H3.41Zm71.38,0h6.4v1.41h-6.4ZM32,60.5h6.4v1.41H32Zm28.51,0H67v1.41H60.5Zm-42.8,0h6.4v1.41H17.7Zm64.24,0h6.48v1.41H81.94Zm-42.8,0h6.4v1.41h-6.4Zm28.51,0h6.48v1.41H67.65Zm-42.8,0h6.4v1.41h-6.4Zm28.5,0h6.48v1.41H53.35Zm-42.8,0H17v1.41h-6.4Z"/><path class="cls-3" d="M40.22,35.15A10.77,10.77,0,0,0,37.89,55c-5.31-5.48-3.82-15.54,2.33-19.86Zm5.65-1.91H46a2.31,2.31,0,0,0,3.24-.66,2,2,0,0,1-3.33,1.82,1.92,1.92,0,0,1-3.24-1.82,2.31,2.31,0,0,0,3.24.66Zm0,1.66h0l1.75,1.33-.33,18.2a12.75,12.75,0,0,0,5.23-8.72s1.33-4.49-2.41-10.14a12.59,12.59,0,0,1,4.32,12.8,12.74,12.74,0,0,1-6.15,8.06,13.13,13.13,0,0,0,6,.66,13.18,13.18,0,0,1-7,.67v.16L45.87,59.5l-1.33-1.58v-.16a13,13,0,0,1-7-.67,13.42,13.42,0,0,0,6-.66,12.63,12.63,0,0,1-1.83-20.86c-3.83,5.65-2.5,10.14-2.5,10.14a13.09,13.09,0,0,0,5.24,8.72l-.25-18.2Zm5.74.25A10.77,10.77,0,0,1,53.93,55c5.32-5.48,3.83-15.54-2.32-19.86Z"/></svg>