<svg id="Layer_1" data-name="Layer 1" xmlns="http://www.w3.org/2000/svg" viewBox="0 0 96.56 96.65"><defs><style>.cls-1{fill:#2c3577;}.cls-1,.cls-2,.cls-3{fill-rule:evenodd;}.cls-2{fill:#fff;}.cls-3{fill:#c2293a;}</style></defs><path class="cls-1" d="M15.29,96.65h66A15.46,15.46,0,0,0,96.56,81.18V15.38A15.4,15.4,0,0,0,81.18,0H15.38A15.4,15.4,0,0,0,0,15.38v65.8A15.46,15.46,0,0,0,15.29,96.65Z"/><path class="cls-2" d="M.35,12.23,36.18,32.51V0H61.7V32.51L96.39,13a11,11,0,0,1,.17,2.36V32.16L91.67,35h4.89V63.62H91.67l4.89,2.79V81.18A15.53,15.53,0,0,1,96,85.29L61.7,66.07V96.65H36.18V66.07L.79,86A14.49,14.49,0,0,1,0,81.18v-14l6.29-3.58H0V35H6.29L0,31.37v-16a13,13,0,0,1,.35-3.15Z"/><path class="cls-3" d="M85.12,63.62l11.44,6.46v6.38L73.67,63.62ZM96.56,17.13v6.38L76.29,35H64.84Zm0,23.59V57.94H56.63V96.65H41.33V57.94H0V40.72H41.33V0h15.3V40.72ZM.09,83.11A13.3,13.3,0,0,1,0,81.18V76.81L23.42,63.62H34.87ZM0,26.74V20.27L26,35H14.59Z"/></svg>