<svg width="24" height="24" viewBox="0 0 24 24" fill="none" xmlns="http://www.w3.org/2000/svg">
<path d="M6.02395 20.702C5.28601 20.7437 4.562 20.1172 4.31138 19.435C3.85192 19.2679 3.44814 18.8919 3.30891 18.4186C3.16968 17.9452 3.3646 17.3325 3.75445 17.0402C3.22537 16.7338 3.05829 16.0098 3.23929 15.4251C3.4203 14.8403 3.87976 14.3808 4.381 14.0327C4.86832 13.6707 5.42524 13.3783 5.88471 12.9885C6.58088 12.4037 7.08211 11.6101 7.29096 10.7329H10.5629V20.7994L6.02395 20.702Z" fill="#DC653D"/>
<path d="M17.8866 20.7298C18.6246 20.7716 19.3486 20.145 19.5992 19.4628C20.0587 19.2957 20.4625 18.9198 20.6017 18.4464C20.7409 17.973 20.546 17.3604 20.1561 17.068C20.6852 16.7617 20.8523 16.0377 20.6713 15.4529C20.4903 14.8681 20.0308 14.4086 19.5296 14.0606C19.0423 13.6986 18.4853 13.4062 18.0259 13.0163C17.3297 12.4315 16.8285 11.6379 16.6196 10.7607H13.3477V20.8551L17.8866 20.7298Z" fill="#DC653D"/>
<path d="M15.3246 20.8274L15.6866 18.1263C15.4778 17.9314 15.2829 17.7225 15.1158 17.5137C13.6817 15.5923 13.8905 11.471 13.8905 11.3875L11.8438 14.3949L9.7971 11.3735C9.7971 11.4571 10.0059 15.5784 8.57185 17.4998C8.39085 17.7365 8.19592 17.9453 7.95923 18.1542L8.46046 20.8135H15.3246V20.8274Z" fill="#E1A0A1"/>
<path d="M19.4459 20.2843C19.4041 20.3261 19.3624 20.3539 19.3345 20.3957C17.3435 22.1779 14.7259 23.25 11.8438 23.25C8.906 23.25 6.23273 22.1222 4.2417 20.2843C4.39486 20.2147 4.54801 20.1451 4.70117 20.0755C5.77326 19.5882 7.0542 18.9895 7.97313 18.168L8.46045 20.7577L8.47437 20.8273H15.3246V20.7856L15.6727 18.1262C16.6473 19.0173 18.0397 19.6299 19.1535 20.1451C19.2649 20.2008 19.3624 20.2426 19.4459 20.2843Z" fill="#F1CE76"/>
<path d="M15.8815 9.54964C15.979 9.20155 16.2574 8.90916 16.6055 8.82563C16.7587 8.78386 16.9397 8.78386 17.0789 8.85347C17.2321 8.92309 17.3295 9.07624 17.3852 9.2294C17.5245 9.57748 17.4688 9.99518 17.3017 10.3293C17.1207 10.6635 16.8283 10.928 16.4941 11.123C16.2018 11.29 15.8537 11.4014 15.5474 11.2761L15.8815 9.54964Z" fill="#E1A0A1"/>
<path d="M15.8397 9.80032C15.9093 9.53578 16.1321 9.31301 16.3967 9.24339C16.522 9.21554 16.6473 9.21554 16.7587 9.27124C16.8701 9.32693 16.9536 9.43831 16.9954 9.5497C17.1067 9.81424 17.065 10.1345 16.9257 10.399C16.7865 10.6496 16.5637 10.8585 16.3131 10.9977C16.0904 11.123 15.8258 11.2066 15.5891 11.123L15.8397 9.80032Z" fill="#E1A0A1"/>
<path d="M7.80602 9.54964C7.70855 9.20155 7.43009 8.90916 7.08201 8.82563C6.92885 8.78386 6.74785 8.78386 6.60862 8.85347C6.45546 8.92309 6.35799 9.07624 6.3023 9.2294C6.16307 9.57748 6.21876 9.99518 6.38584 10.3293C6.56684 10.6635 6.85924 10.928 7.19339 11.123C7.48578 11.29 7.83386 11.4014 8.14017 11.2761L7.80602 9.54964Z" fill="#E1A0A1"/>
<path d="M7.84779 9.80032C7.77817 9.53578 7.5554 9.31301 7.29086 9.24339C7.16555 9.21554 7.04024 9.21554 6.92885 9.27124C6.81747 9.32693 6.73393 9.43831 6.69216 9.5497C6.58077 9.81424 6.62254 10.1345 6.76178 10.399C6.90101 10.6496 7.12378 10.8585 7.3744 10.9977C7.59717 11.123 7.86171 11.2066 8.09841 11.123L7.84779 9.80032Z" fill="#E1A0A1"/>
<path d="M8.39082 9.18752C8.53005 8.72806 8.58575 8.24074 8.59967 7.75343C9.29583 7.9762 10.0755 7.87874 10.716 7.53066C11.3704 7.18257 11.8716 6.56995 12.0805 5.85986C12.2615 6.47249 12.6513 7.08511 13.1804 7.44712C13.7095 7.80912 14.3639 7.99012 15.0044 7.93443C15.1297 8.36605 15.2828 8.82552 15.5056 9.21537C15.6448 9.46599 15.8258 9.68876 16.0625 9.86976C16.0765 9.78622 16.0904 9.71661 16.1043 9.63307C16.1461 9.32676 16.1739 9.03437 16.1739 8.76983C16.1739 6.38895 14.2386 4.45361 11.8577 4.45361C9.47684 4.45361 7.5415 6.38895 7.5415 8.76983C7.5415 9.02044 7.55543 9.28499 7.5972 9.56345C7.62504 9.80015 7.68074 10.0508 7.73643 10.3153C8.04274 10.009 8.25159 9.61915 8.39082 9.18752Z" fill="#DC653D"/>
<path d="M15.4916 9.2432C15.2688 8.85335 15.1157 8.39388 14.9904 7.96226C14.3499 8.01795 13.6955 7.83695 13.1664 7.47495C12.6373 7.11294 12.2475 6.50032 12.0665 5.8877C11.8576 6.59778 11.3564 7.21041 10.702 7.55849C10.0476 7.90657 9.28182 8.00403 8.58566 7.78126C8.57173 8.26857 8.51604 8.75589 8.37681 9.21536C8.2515 9.63305 8.02872 10.0368 7.72241 10.3431C8.26542 12.7379 9.90836 15.7175 11.8298 15.7175C13.8765 15.7175 15.5891 12.3481 16.0346 9.8976C15.8258 9.71659 15.6308 9.4799 15.4916 9.2432Z" fill="#E1A0A1"/>
<path d="M8.79468 13.1416C9.19845 13.7264 9.63007 14.2694 10.1313 14.715C10.3819 14.9377 10.6604 15.1327 10.9528 15.2719C11.1059 15.3415 11.2452 15.3972 11.3983 15.439C11.5515 15.4807 11.7046 15.4947 11.8578 15.4947C12.1641 15.4947 12.4843 15.3972 12.7628 15.258C13.0552 15.1187 13.3197 14.9099 13.5704 14.6871C14.0716 14.2276 14.5032 13.6846 14.8931 13.0999C14.7817 13.434 14.6146 13.7542 14.4336 14.0606C14.2526 14.3669 14.0437 14.6593 13.7931 14.9238C13.6678 15.063 13.5425 15.1883 13.4033 15.2997C13.264 15.4111 13.1109 15.5225 12.9438 15.62C12.6236 15.801 12.2337 15.9263 11.8578 15.9263C11.6629 15.9263 11.4679 15.8984 11.2869 15.8567C11.1059 15.801 10.9249 15.7314 10.7579 15.6478C10.4237 15.4668 10.1452 15.2301 9.89461 14.9656C9.4073 14.4226 9.03137 13.8099 8.79468 13.1416Z" fill="#382D21"/>
<path d="M10.3818 9.18746C10.6202 9.18746 10.8134 8.99422 10.8134 8.75584C10.8134 8.51746 10.6202 8.32422 10.3818 8.32422C10.1434 8.32422 9.9502 8.51746 9.9502 8.75584C9.9502 8.99422 10.1434 9.18746 10.3818 9.18746Z" fill="#382D21"/>
<path d="M13.5564 9.18746C13.7948 9.18746 13.988 8.99422 13.988 8.75584C13.988 8.51746 13.7948 8.32422 13.5564 8.32422C13.318 8.32422 13.1248 8.51746 13.1248 8.75584C13.1248 8.99422 13.318 9.18746 13.5564 9.18746Z" fill="#382D21"/>
<path d="M10.6047 10.8861C10.6047 11.2202 10.2009 11.4848 9.69969 11.4848C9.19845 11.4848 8.79468 11.2202 8.79468 10.8861C8.79468 10.5519 9.19845 10.2874 9.69969 10.2874C10.2009 10.2874 10.6047 10.5519 10.6047 10.8861Z" fill="#F0B9B6"/>
<path d="M15.0044 10.8861C15.0044 11.2202 14.6006 11.4848 14.0993 11.4848C13.5981 11.4848 13.1943 11.2202 13.1943 10.8861C13.1943 10.5519 13.5981 10.2874 14.0993 10.2874C14.6006 10.2874 15.0044 10.5519 15.0044 10.8861Z" fill="#F0B9B6"/>
<path d="M12.1224 8.50537C12.2198 8.85345 12.2895 9.18761 12.4844 9.45215C12.5819 9.59139 12.6932 9.7167 12.8046 9.86985C12.916 10.023 12.9996 10.1901 13.0692 10.3711C13.1249 10.5521 13.1666 10.747 13.1527 10.9419C13.1388 11.1369 13.0831 11.3318 12.9717 11.4989C12.8603 11.666 12.7072 11.7913 12.5262 11.8609C12.3452 11.9305 12.1502 11.9305 11.9832 11.8609C12.3452 11.8887 12.6375 11.666 12.7907 11.3875C12.8603 11.2483 12.9021 11.0951 12.9021 10.9419C12.9021 10.7888 12.8742 10.6217 12.8186 10.4686C12.7629 10.3154 12.6932 10.1622 12.6097 10.023C12.5262 9.88377 12.4148 9.73062 12.3312 9.57746C12.2338 9.41038 12.192 9.22938 12.1642 9.04838C12.1085 8.86738 12.1085 8.68637 12.1224 8.50537Z" fill="#382D21"/>
<path d="M10.9807 12.4178C11.1756 12.5431 11.3706 12.6684 11.5655 12.7659C11.7604 12.8634 11.9553 12.9469 12.1363 12.933C12.3173 12.9051 12.4984 12.7937 12.6794 12.6545C12.8604 12.5292 13.0414 12.376 13.2224 12.2368C13.1249 12.4596 12.9857 12.6406 12.8186 12.8216C12.735 12.9051 12.6515 12.9887 12.5401 13.0583C12.4287 13.1279 12.3034 13.1836 12.1642 13.2114C12.025 13.2254 11.8718 13.1975 11.7604 13.1558C11.6351 13.1001 11.5376 13.0304 11.4402 12.9608C11.2592 12.8077 11.0921 12.6267 10.9807 12.4178Z" fill="#382D21"/>
<path d="M12.3313 5.06641C12.4427 5.35879 12.5958 5.63726 12.7908 5.9018C12.9718 6.15242 13.1945 6.37519 13.4452 6.57012C13.6958 6.76505 13.9603 6.9182 14.2527 7.02959C14.3919 7.08528 14.5451 7.14097 14.6983 7.16882C14.8514 7.21059 15.0046 7.23844 15.1716 7.25236C15.0185 7.26628 14.8514 7.25236 14.6843 7.23844C14.5312 7.21059 14.3641 7.18274 14.2109 7.12705C13.9046 7.02959 13.6122 6.87643 13.3477 6.66758C13.0971 6.47266 12.8604 6.22204 12.6933 5.94357C12.5262 5.67903 12.387 5.37272 12.3313 5.06641Z" fill="#382D21"/>
<path d="M12.8882 4.95483C13.1527 5.33076 13.473 5.66492 13.835 5.92946C14.197 6.194 14.6147 6.40285 15.0463 6.55601C14.5729 6.51424 14.1274 6.31931 13.7514 6.04085C13.3755 5.77631 13.0553 5.38646 12.8882 4.95483Z" fill="#382D21"/>
<path d="M8.20996 7.01565C8.36312 7.07134 8.51627 7.11311 8.68335 7.14096C8.83651 7.1688 9.00359 7.18273 9.15674 7.1688C9.47698 7.15488 9.78329 7.08526 10.0757 6.94603C10.3681 6.82072 10.6187 6.61187 10.8275 6.3891C10.9389 6.27771 11.0364 6.13848 11.106 5.99925C11.1895 5.86002 11.2592 5.72078 11.3148 5.56763C11.287 5.73471 11.2313 5.88786 11.1617 6.04102C11.0921 6.19417 10.9946 6.33341 10.8971 6.45872C10.6883 6.72326 10.4238 6.93211 10.1174 7.07134C9.81114 7.21057 9.47698 7.28019 9.14282 7.26626C8.97574 7.26626 8.80866 7.23842 8.65551 7.19665C8.50235 7.15488 8.34919 7.09919 8.20996 7.01565Z" fill="#382D21"/>
<path d="M8.82251 6.58392C9.30982 6.52823 9.74145 6.31938 10.0895 5.99915C10.4376 5.67891 10.6882 5.27513 10.8692 4.82959C10.7857 5.30298 10.549 5.76245 10.1731 6.11053C9.99207 6.27761 9.76929 6.40292 9.5326 6.50038C9.32375 6.57 9.05921 6.61177 8.82251 6.58392Z" fill="#382D21"/>
<path d="M16.0906 11.3457C16.1184 11.6242 16.188 11.9026 16.2855 12.1672C16.383 12.4317 16.5222 12.6823 16.6893 12.919C17.0095 13.3785 17.469 13.7266 17.9702 13.9911C18.4575 14.2696 19.0005 14.5202 19.4043 14.9518C19.5992 15.1746 19.7524 15.4391 19.8081 15.7315C19.8359 15.8708 19.8499 16.0239 19.8359 16.1771C19.8081 16.3302 19.7663 16.4695 19.6828 16.5948V16.5391C19.8081 16.6783 19.8777 16.8593 19.9056 17.0403C19.9334 17.2213 19.9473 17.4023 19.9334 17.5694C19.9195 17.9314 19.7524 18.2795 19.5018 18.5162C19.7385 18.2516 19.8777 17.9175 19.8638 17.5694C19.8638 17.4023 19.8499 17.2213 19.822 17.0542C19.7802 16.8872 19.7245 16.734 19.5992 16.6087L19.5714 16.5809L19.5853 16.553C19.7246 16.3163 19.7385 16.0239 19.6828 15.7594C19.6271 15.4948 19.4879 15.2442 19.2929 15.0493C18.917 14.6455 18.4018 14.381 17.9006 14.1025C17.65 13.9633 17.3994 13.8101 17.1766 13.6152C16.9538 13.4203 16.7589 13.1975 16.6057 12.9608C16.2855 12.4874 16.1045 11.9166 16.0906 11.3457Z" fill="#382D21"/>
<path d="M15.3804 13.3506C15.4918 13.824 15.631 14.3113 15.8816 14.7151C16.1322 15.1328 16.536 15.4112 16.9119 15.7454C17.2739 16.0795 17.622 16.4694 17.803 16.9428C17.8866 17.1795 17.9423 17.4301 17.9283 17.6807C17.9144 17.9313 17.8587 18.182 17.7195 18.3908C17.8169 18.168 17.8726 17.9174 17.8587 17.6807C17.8448 17.444 17.7891 17.2073 17.6916 16.9846C17.4967 16.539 17.1765 16.177 16.8005 15.8568C16.6195 15.6897 16.4246 15.5365 16.2436 15.3695C16.0626 15.2024 15.8955 15.0075 15.7702 14.7847C15.6449 14.5619 15.5614 14.3252 15.4918 14.0885C15.45 13.8379 15.4082 13.6012 15.3804 13.3506Z" fill="#382D21"/>
<path d="M8.34924 14.033C8.25178 14.4924 8.07078 14.938 7.80624 15.3417C7.68093 15.5367 7.52777 15.7316 7.36069 15.8987C7.19361 16.0658 7.01261 16.2189 6.81768 16.3721C6.63668 16.5113 6.45568 16.6645 6.2886 16.8315C6.13545 16.9986 6.01014 17.1935 5.9266 17.4024C5.84306 17.6112 5.80129 17.8479 5.78736 18.0707C5.77344 18.3074 5.81521 18.5302 5.89875 18.7529C5.80129 18.5441 5.73167 18.3074 5.73167 18.0707C5.71775 17.834 5.75952 17.5834 5.82913 17.3606C5.89875 17.1239 6.03798 16.9151 6.19114 16.7341C6.35822 16.5531 6.53922 16.3999 6.72022 16.2607C7.09615 15.9822 7.43031 15.662 7.70877 15.2861C7.84801 15.1051 7.97332 14.8962 8.07078 14.6874C8.19609 14.4785 8.27963 14.2557 8.34924 14.033Z" fill="#382D21"/>
<path d="M7.72263 12.1951C7.65301 12.6406 7.43024 13.0722 7.08216 13.3785C6.73408 13.6849 6.31638 13.8798 5.92653 14.1026C5.73161 14.2139 5.5506 14.3393 5.39745 14.4924C5.24429 14.6456 5.11898 14.8266 5.02152 15.0215C4.84052 15.4253 4.79875 15.8847 4.93798 16.3024L4.9519 16.3581L4.89621 16.372C4.74305 16.4277 4.64559 16.5948 4.5342 16.748C4.43674 16.9011 4.38105 17.0821 4.3532 17.2631C4.32536 17.4441 4.33928 17.6391 4.38105 17.8201C4.42282 18.0011 4.50636 18.1681 4.61774 18.3213C4.49243 18.1821 4.39497 18.015 4.33928 17.834C4.28358 17.653 4.25574 17.4581 4.26966 17.2631C4.28358 17.0682 4.33928 16.8733 4.43674 16.7062C4.49243 16.6227 4.5342 16.5391 4.5899 16.4695C4.64559 16.386 4.72913 16.3164 4.82659 16.2746L4.78482 16.3442C4.63167 15.8987 4.65951 15.3974 4.85444 14.9658C4.9519 14.743 5.09113 14.5481 5.25821 14.3949C5.42529 14.2279 5.62022 14.1026 5.81514 13.9912C6.20499 13.7545 6.63662 13.5874 6.9847 13.3089C7.36063 13.0305 7.61124 12.6406 7.72263 12.1951Z" fill="#382D21"/>
</svg>
