<svg id="Layer_1" data-name="Layer 1" xmlns="http://www.w3.org/2000/svg" viewBox="0 0 116.41 11.41"><defs><style>.cls-1{fill:#25d9da;}</style></defs><path class="cls-1" d="M58.08,5.73s2.14-3.16,4.45-2.58c0,0-1.34-1.49-2.74-.39C58.57,3.74,61.16,2,58.08,0,55,2,57.71,3.56,56.36,2.76a2,2,0,0,0-2.73.39C56.35,3,58.08,5.73,58.08,5.73Z"/><path class="cls-1" d="M110.52,5.67s3.25,2.2,2.65,4.58c0,0,1.54-1.38.4-2.82-1-1.26.79,1.41,2.84-1.76-2-3.18-3.66-.38-2.84-1.77a2.09,2.09,0,0,0-.4-2.81C113.36,3.88,110.52,5.67,110.52,5.67Z"/><path class="cls-1" d="M5.89,5.67S2.64,3.46,3.24,1.09c0,0-1.53,1.38-.39,2.81,1,1.26-.8-1.41-2.85,1.77C2.05,8.84,3.66,6,2.85,7.43a2.1,2.1,0,0,0,.39,2.82C3.05,7.45,5.89,5.67,5.89,5.67Z"/><path class="cls-1" d="M58.08,5.69s-2.14,3.16-4.45,2.58c0,0,1.34,1.49,2.73.38,1.22-1-1.36.77,1.72,2.76,3.08-2,.36-3.56,1.71-2.76a2,2,0,0,0,2.74-.38C59.81,8.45,58.08,5.69,58.08,5.69Z"/><path class="cls-1" d="M58.57,5.08,111,5.44a.22.22,0,0,1,.22.23.22.22,0,0,1-.22.22l-52.44.36A.58.58,0,0,1,58,5.67a.58.58,0,0,1,.58-.59Z"/><path class="cls-1" d="M58.08,6.25,5.63,5.89a.22.22,0,0,1-.22-.23.22.22,0,0,1,.22-.22l52.45-.36a.59.59,0,1,1,0,1.17Z"/></svg>