<svg id="Layer_1" data-name="Layer 1" xmlns="http://www.w3.org/2000/svg" xmlns:xlink="http://www.w3.org/1999/xlink" viewBox="0 0 284.72 119.76"><defs><style>.cls-1{fill:none;}.cls-2{clip-path:url(#clip-path);}.cls-3{fill:#f7f8f8;}.cls-10,.cls-11,.cls-4,.cls-5{fill:#b6c0c8;}.cls-4{opacity:0.2;}.cls-13,.cls-5{opacity:0.4;}.cls-6{fill:#657384;}.cls-7{fill:#141f2d;}.cls-8{fill:#f79134;}.cls-9{fill:#e9e8e9;}.cls-11{opacity:0.5;}.cls-12{fill:#d4d5da;}.cls-13{fill:#f7fcfe;}.cls-14{fill:#f47859;}.cls-15{fill:#ec6343;}.cls-16{fill:#4899d4;}.cls-17{fill:#f9a03d;}.cls-18{fill:#e46224;}.cls-19{fill:#066fb8;}.cls-20{fill:#fff;}.cls-21{fill:#384254;}.cls-22{fill:#3f6bab;}</style><clipPath id="clip-path" transform="translate(42.56 -33.71)"><path class="cls-1" d="M197.69,127.5c-.17,2.17-.4,4.3-.7,6.36-.25,1.73-.55,3.42-.9,5-.08.34-.15.68-.23,1a38.84,38.84,0,0,1-5,12.66l-.07.1-2,0-9.64.19-20.37.39-16.64.17h-.84l-31.94-.18-95.61-.38-3.41,0a104.92,104.92,0,0,1-4.54-13c-.1-.33-.19-.67-.28-1-.93-3.39-1.83-7.24-2.53-11.36-1.64-9.77-2.13-21.1.86-31.61,5.89-20.69,13.5-27.4,22.59-31l.21-.08c8-3.09,17.11-3.82,27.22-9.49a67.91,67.91,0,0,0,12.26-9.24l.22-.19a61.75,61.75,0,0,1,8.45-6.53c.49-.3,1-.59,1.46-.86h0c.76-.42,1.52-.82,2.29-1.19.39-.19.78-.37,1.18-.54l0,0h0L81,36.28h0a35.15,35.15,0,0,1,14.28-2.55c9.88.33,19.72,4.93,28,13.77l.22.23c.29.32.59.64.88,1l.47.55c.23.27.47.53.7.79l0,.05c.12.14.25.27.38.41l.22.24c.15.17.31.33.47.5l.1.1c.37.39.74.75,1.11,1.11l.7.66.15.13.7.62.43.37.09.08c.49.4,1,.79,1.46,1.15a31.07,31.07,0,0,0,4.42,2.76l.22.11a26.69,26.69,0,0,0,2.47,1.1l.22.08a34.22,34.22,0,0,0,11.12,2H150l1.09,0h.22c7.42.06,14.66-1.06,21.74,1.42l.22.08,1.09.42.22.09A25.27,25.27,0,0,1,180,66.71c.62.48,1.24,1,1.86,1.55a45,45,0,0,1,8.31,10.57C196,88.74,199.08,109.56,197.69,127.5Z"/></clipPath></defs><g class="cls-2"><path class="cls-3" d="M197.69,127.5c-.17,2.17-.4,4.3-.7,6.36-.25,1.73-.55,3.42-.9,5-.08.34-.15.68-.23,1a38.84,38.84,0,0,1-5,12.66l-.07.1-2,0-9.64.19-20.37.39-16.64.17h-.84l-31.94-.18-95.61-.38-3.41,0a104.92,104.92,0,0,1-4.54-13c-.1-.33-.19-.67-.28-1-.93-3.39-1.83-7.24-2.53-11.36-1.64-9.77-2.13-21.1.86-31.61,5.89-20.69,13.5-27.4,22.59-31l.21-.08c8-3.09,17.11-3.82,27.22-9.49a67.91,67.91,0,0,0,12.26-9.24l.22-.19a61.75,61.75,0,0,1,8.45-6.53c.49-.3,1-.59,1.46-.86h0c.76-.42,1.52-.82,2.29-1.19.39-.19.78-.37,1.18-.54l0,0h0L81,36.28h0a35.15,35.15,0,0,1,14.28-2.55c9.88.33,19.72,4.93,28,13.77l.22.23c.29.32.59.64.88,1l.47.55c.23.27.47.53.7.79l0,.05c.12.14.25.27.38.41l.22.24c.15.17.31.33.47.5l.1.1c.37.39.74.75,1.11,1.11l.7.66.15.13.7.62.43.37.09.08c.49.4,1,.79,1.46,1.15a31.07,31.07,0,0,0,4.42,2.76l.22.11a26.69,26.69,0,0,0,2.47,1.1l.22.08a34.22,34.22,0,0,0,11.12,2H150l1.09,0h.22c7.42.06,14.66-1.06,21.74,1.42l.22.08,1.09.42.22.09A25.27,25.27,0,0,1,180,66.71c.62.48,1.24,1,1.86,1.55a45,45,0,0,1,8.31,10.57C196,88.74,199.08,109.56,197.69,127.5Z" transform="translate(42.56 -33.71)"/><path class="cls-4" d="M77.09,127.1v25.8H-31.72A93.58,93.58,0,0,1-42.56,127.1Z" transform="translate(42.56 -33.71)"/><path class="cls-5" d="M15.18,149.28H-2.42a2.82,2.82,0,0,0-2.83-2.83v-14a2.82,2.82,0,0,0,2.83-2.82h17.6A2.83,2.83,0,0,0,18,132.41v14A2.83,2.83,0,0,0,15.18,149.28Z" transform="translate(42.56 -33.71)"/><path class="cls-5" d="M40.9,149.28H23.3a2.83,2.83,0,0,0-2.83-2.83v-14a2.83,2.83,0,0,0,2.83-2.82H40.9a2.82,2.82,0,0,0,2.82,2.82v14A2.82,2.82,0,0,0,40.9,149.28Z" transform="translate(42.56 -33.71)"/><path class="cls-5" d="M67,149.28H49.35a2.82,2.82,0,0,0-2.82-2.83v-14a2.82,2.82,0,0,0,2.82-2.82H67a2.83,2.83,0,0,0,2.83,2.82v14A2.83,2.83,0,0,0,67,149.28Z" transform="translate(42.56 -33.71)"/><path class="cls-5" d="M154.08,149.28h-17.6a2.82,2.82,0,0,0-2.82-2.83v-14a2.82,2.82,0,0,0,2.82-2.82h17.6a2.83,2.83,0,0,0,2.83,2.82v14A2.83,2.83,0,0,0,154.08,149.28Z" transform="translate(42.56 -33.71)"/><path class="cls-5" d="M180.14,149.28h-17.6a2.83,2.83,0,0,0-2.83-2.83v-14a2.83,2.83,0,0,0,2.83-2.82h17.6a2.82,2.82,0,0,0,2.83,2.82v14A2.82,2.82,0,0,0,180.14,149.28Z" transform="translate(42.56 -33.71)"/><path class="cls-5" d="M205.85,149.28H188.26a2.83,2.83,0,0,0-2.83-2.83v-14a2.83,2.83,0,0,0,2.83-2.82h17.59a2.83,2.83,0,0,0,2.83,2.82v14A2.83,2.83,0,0,0,205.85,149.28Z" transform="translate(42.56 -33.71)"/><path class="cls-6" d="M25.9,139.71c4.27,0,8.84-.12,13.72-.41,12.51-.73,21.19-2.21,21.28-2.22l-.13-1a210.53,210.53,0,0,1-21.2,2.22c-11.51.68-28.72.84-45.35-2.22l-.14,1A177.32,177.32,0,0,0,25.9,139.71Z" transform="translate(42.56 -33.71)"/><rect class="cls-7" x="61.4" y="134.89" width="0.75" height="17.66" transform="translate(166.09 253.74) rotate(180)"/><path class="cls-7" d="M62.46,134.28a.7.7,0,1,0-.69.81A.76.76,0,0,0,62.46,134.28Z" transform="translate(42.56 -33.71)"/><rect class="cls-7" x="61.11" y="152.31" width="1.35" height="0.42" transform="translate(166.13 271.33) rotate(180)"/><rect class="cls-7" x="61.2" y="134.75" width="1.13" height="0.34" transform="translate(166.09 236.13) rotate(180)"/><polygon class="cls-7" points="101.81 102.49 101.99 103.71 103.57 103.4 103.37 102.22 101.81 102.49"/><path class="cls-7" d="M61.58,136.39a.47.47,0,0,0-.16-.32h0a.43.43,0,0,0-.29-.07l-.27.05-.47.09h0a.4.4,0,0,0-.23.18.58.58,0,0,0-.08.36.44.44,0,0,0,.42.42h.06l.39-.07H61l.25-.05a.37.37,0,0,0,.16-.07h0A.53.53,0,0,0,61.58,136.39Zm-.18.34h0a.34.34,0,0,1-.18.11l-.24,0-.1,0h0l-.4.07a.33.33,0,0,1-.36-.31.45.45,0,0,1,.06-.28.29.29,0,0,1,.21-.15l.39-.07h.07l.27-.05a.27.27,0,0,1,.24.07l0,0h0a.5.5,0,0,1,.09.21A.44.44,0,0,1,61.4,136.73Z" transform="translate(42.56 -33.71)"/><path class="cls-8" d="M-8.26,137.08l-1.48.23h0c-3,.45-10.28,1.44-19.79,2-3.09.19-6.07.3-8.91.36-.13-.34-.26-.68-.38-1,3.35-.06,6.46-.2,9.24-.36,9.44-.55,16.7-1.53,19.7-2l1.06-.16h0l.42-.07v.11l.1.74v.18Z" transform="translate(42.56 -33.71)"/><polygon class="cls-7" points="32.65 102.49 32.83 103.71 34.41 103.4 34.21 102.22 32.65 102.49"/><path class="cls-7" d="M-7.58,136.39a.47.47,0,0,0-.16-.32h0A.39.39,0,0,0-8,136l-.27.05-.47.09h0a.4.4,0,0,0-.23.18.58.58,0,0,0-.08.36.44.44,0,0,0,.42.42h.06l.39-.07h.1l.25-.05a.37.37,0,0,0,.16-.07A.53.53,0,0,0-7.58,136.39Zm-.18.34a.34.34,0,0,1-.18.11l-.24,0h0l-.1,0-.4.07a.33.33,0,0,1-.36-.31.45.45,0,0,1,.06-.28.29.29,0,0,1,.21-.15l.39-.07h.07l.27-.05a.27.27,0,0,1,.24.07l0,0a.4.4,0,0,1,.09.21A.44.44,0,0,1-7.76,136.73Z" transform="translate(42.56 -33.71)"/><polygon class="cls-7" points="37.52 103.61 37.66 102.39 36.07 102.13 35.95 103.33 37.52 103.61"/><path class="cls-7" d="M-5.79,136.16l-.15-.09-.06,0-.5-.09-.24,0A.36.36,0,0,0-7,136a.49.49,0,0,0-.21.35.67.67,0,0,0,.08.37.53.53,0,0,0,.13.13.34.34,0,0,0,.15.06l.27.05.46.08a.45.45,0,0,0,.23,0l.08-.06a.53.53,0,0,0,.17-.32A.57.57,0,0,0-5.79,136.16Zm0,.43a.34.34,0,0,1-.13.24h0a.29.29,0,0,1-.23.07l-.47-.09h0l-.27,0a.26.26,0,0,1-.16-.09l0-.06a.45.45,0,0,1-.06-.28.33.33,0,0,1,.11-.22.25.25,0,0,1,.25-.09l.25,0,.49.08a.32.32,0,0,1,.21.15A.42.42,0,0,1-5.75,136.59Z" transform="translate(42.56 -33.71)"/><path class="cls-9" d="M140.08,23.52h4.83A20.14,20.14,0,0,1,165,43.66v75.2a0,0,0,0,1,0,0h-45.1a0,0,0,0,1,0,0V43.66a20.14,20.14,0,0,1,20.14-20.14Z"/><path class="cls-10" d="M140.31,27.06h4.36a18.19,18.19,0,0,1,18.19,18.19V119a0,0,0,0,1,0,0H122.13a0,0,0,0,1,0,0V45.25a18.19,18.19,0,0,1,18.19-18.19Z"/><rect class="cls-7" x="246.22" y="101.18" width="0.83" height="17.66"/><path class="cls-7" d="M203.31,134.28a.77.77,0,1,1,.76.81A.78.78,0,0,1,203.31,134.28Z" transform="translate(42.56 -33.71)"/><rect class="cls-7" x="245.86" y="118.6" width="1.49" height="0.42"/><rect class="cls-7" x="246.01" y="101.04" width="1.25" height="0.34"/><path class="cls-6" d="M167.29,139.71c-4.72,0-9.78-.12-15.17-.41-13.82-.73-23.42-2.21-23.51-2.22l.14-1c.09,0,9.65,1.49,23.43,2.22,12.72.68,31.73.84,50.12-2.22l.15,1A216,216,0,0,1,167.29,139.71Z" transform="translate(42.56 -33.71)"/><rect class="cls-7" x="169.79" y="101.18" width="0.83" height="17.66"/><path class="cls-7" d="M126.88,134.28a.77.77,0,1,1,.76.81A.78.78,0,0,1,126.88,134.28Z" transform="translate(42.56 -33.71)"/><rect class="cls-7" x="169.43" y="118.6" width="1.49" height="0.42"/><rect class="cls-7" x="169.58" y="101.04" width="1.25" height="0.34"/><polygon class="cls-7" points="172.98 102.49 172.78 103.71 171.03 103.4 171.25 102.22 172.98 102.49"/><path class="cls-7" d="M129.49,136.31a.4.4,0,0,0-.26-.18h0l-.51-.09-.3-.05a.49.49,0,0,0-.32.07l0,0a.49.49,0,0,0-.18.32.5.5,0,0,0,.21.49.36.36,0,0,0,.18.07l.26.05h.12l.43.07h.07a.48.48,0,0,0,.46-.42A.59.59,0,0,0,129.49,136.31Zm0,.35a.36.36,0,0,1-.4.31l-.44-.07-.11,0-.27,0a.38.38,0,0,1-.29-.43.35.35,0,0,1,.1-.21l0,0a.31.31,0,0,1,.26-.07l.3.05h.07l.44.07a.31.31,0,0,1,.23.15A.4.4,0,0,1,129.47,136.66Z" transform="translate(42.56 -33.71)"/><path class="cls-8" d="M242.16,138.67c-.11.35-.22.7-.34,1-4.16,0-8.59-.16-13.26-.41-10.51-.55-18.57-1.54-21.88-2h0l-1.64-.23V137l0-.11.1-.74v-.11l.47.07h0l1.18.16c3.31.45,11.33,1.43,21.77,2C232.59,138.48,237.17,138.64,242.16,138.67Z" transform="translate(42.56 -33.71)"/><polygon class="cls-7" points="249.41 102.49 249.22 103.71 247.47 103.4 247.69 102.22 249.41 102.49"/><path class="cls-7" d="M205.92,136.31a.41.41,0,0,0-.25-.18h0l-.51-.09-.3-.05a.46.46,0,0,0-.32.08h0a.51.51,0,0,0-.19.32.5.5,0,0,0,.21.49.36.36,0,0,0,.18.07l.26.05h.12l.43.07h.07a.47.47,0,0,0,.46-.42A.48.48,0,0,0,205.92,136.31Zm0,.35a.36.36,0,0,1-.4.31l-.43-.07-.12,0-.27,0a.38.38,0,0,1-.29-.43.41.41,0,0,1,.1-.21l0,0a.32.32,0,0,1,.26-.07l.3.05h.08l.44.07a.35.35,0,0,1,.23.15A.45.45,0,0,1,205.9,136.66Z" transform="translate(42.56 -33.71)"/><polygon class="cls-7" points="244.03 103.61 243.88 102.39 245.64 102.13 245.76 103.33 244.03 103.61"/><path class="cls-7" d="M203.88,136.33a.47.47,0,0,0-.22-.35.44.44,0,0,0-.3-.06l-.27,0-.54.09-.07,0a.56.56,0,0,0-.17.09.51.51,0,0,0-.15.45.49.49,0,0,0,.18.32l.1.06h0a.48.48,0,0,0,.24,0l.51-.08.31-.05a.52.52,0,0,0,.16-.06.57.57,0,0,0,.14-.13A.54.54,0,0,0,203.88,136.33Zm-.17.3-.05.06a.31.31,0,0,1-.18.09l-.3,0-.51.09a.36.36,0,0,1-.26-.07h0a.39.39,0,0,1-.14-.24.37.37,0,0,1,.08-.28h0a.34.34,0,0,1,.22-.15l.55-.08.27,0a.3.3,0,0,1,.28.09.37.37,0,0,1,.05.5Z" transform="translate(42.56 -33.71)"/><rect class="cls-11" x="57.28" y="82.96" width="10.59" height="3.22"/><path class="cls-10" d="M26.28,120.75H13.76v-4.94H26.28ZM14,120.48H26v-4.4H14Z" transform="translate(42.56 -33.71)"/><rect class="cls-11" x="181.62" y="76.2" width="10.59" height="3.22"/><path class="cls-10" d="M150.62,114H138.1v-5h12.52Zm-12.24-.28h12v-4.39h-12Z" transform="translate(42.56 -33.71)"/><rect class="cls-11" x="225.74" y="74.86" width="10.59" height="3.22"/><path class="cls-10" d="M194.74,112.66H182.23v-5h12.51Zm-12.24-.28h12V108h-12Z" transform="translate(42.56 -33.71)"/><rect class="cls-12" x="172.92" y="35.81" width="27.02" height="37.09"/><path class="cls-10" d="M142.84,73.69a7.09,7.09,0,0,1,5,1.44c1.66,1.19,2.46.62,3.13,2.41s2.54,2.85,2,4.55.89,1.25.49,2.91.27,2.45.09,3.66-4.29,2.59-6.21,2.28-4.29-1.34-3.62-4S142.84,73.69,142.84,73.69Z" transform="translate(42.56 -33.71)"/><path class="cls-10" d="M138.85,75.76a5.8,5.8,0,0,1,6.54-1.85s1.68.7,2.29,3.58-1.32,5.15-2.33,4.6c-.65-.35-1.13.78-1.13.78Z" transform="translate(42.56 -33.71)"/><path class="cls-9" d="M149.24,97.13a9.55,9.55,0,0,1-.44,1.79c-.9,2.47-1.36,3.48-1.34,4.42s.42,1.6,1.23,3.28H137c1.35-5.7-.39-7.62-.51-10.64a7.91,7.91,0,0,1,0-.84c.25-3.9,3.27-8.08,3.27-8.08H140l.17,0c.2-.11.26-1,.25-1.85v-.72c0-.11,0-.21,0-.31V84a.07.07,0,0,1,0,0v-.19a.28.28,0,0,1,0-.09v-.22s0-.09,0-.13,0-.15,0-.21v0a.25.25,0,0,1,0-.08v0h0l3.41-.68h0l.19,0,.22,0h0c0,.22,0,.44,0,.66.11,2.39.83,3.85,1.27,4h.07a3,3,0,0,1,1.33,1.07,10.88,10.88,0,0,1,1.64,3A12.91,12.91,0,0,1,149.24,97.13Z" transform="translate(42.56 -33.71)"/><path class="cls-12" d="M140.37,83s.08,1.13.08,2.2c2,0,3.1-1.9,3.53-2.92Z" transform="translate(42.56 -33.71)"/><path class="cls-10" d="M144.36,81.86a10.61,10.61,0,0,0,1.31-3.11c.18-1-.34-4.81-4.15-4.27a5.13,5.13,0,0,0-2.14.82c-.83.55-2,1.76-.69,5.07l.35,1.11Z" transform="translate(42.56 -33.71)"/><path class="cls-9" d="M139.69,84s4.79.08,4.79-2.9.63-5-2.43-5.16-3.65,1-3.89,2S138.45,83.88,139.69,84Z" transform="translate(42.56 -33.71)"/><path class="cls-10" d="M139.87,75.85s1.31,3.5,3.32,4a4,4,0,0,0,2.88,0,5.67,5.67,0,0,1-1.86-3.36S140.86,74.19,139.87,75.85Z" transform="translate(42.56 -33.71)"/><path class="cls-10" d="M140.2,76.14A4.23,4.23,0,0,0,139,77.68c-.24.75-.35,2.32-.8,2.26,0,0-1-2.37.12-3.72S140.2,76.14,140.2,76.14Z" transform="translate(42.56 -33.71)"/><path class="cls-10" d="M148.72,100.54c.31,2.06.8,4.18,1.26,6.08H134.75c.3-3.39,1-7.2,1.15-9.83q0-.33,0-.63a18.56,18.56,0,0,1-.28-3.59c.06-2.77.87-4.32,1.5-4.94.17-.14.35-.22,1.06-.34.36-.07.87-.14,1.58-.23H140s0,0,0,0a1.93,1.93,0,0,0-.07.63,5.17,5.17,0,0,0,.28,1.93,2.35,2.35,0,0,0,4,0,.57.57,0,0,0,.08-.13,14.06,14.06,0,0,0,1.07-2.62h.09a11.67,11.67,0,0,1,2,.16,5.69,5.69,0,0,1,2,.91v0a.91.91,0,0,1,.29.3,15,15,0,0,1,.88,2.27c.84,2.67,1.63,6.49,2.23,9.43A5.71,5.71,0,0,1,148.72,100.54Z" transform="translate(42.56 -33.71)"/><path class="cls-9" d="M155.19,106.62H134.1c-.08-2.49.05-7.05,1.8-9.83a7.14,7.14,0,0,1,.61-.81,4.5,4.5,0,0,1,1.89-1.29,12.3,12.3,0,0,0,1.89-.83A19.15,19.15,0,0,0,145,90.14a26.68,26.68,0,0,0,1.87-2.22c.26-.35.44-.62.54-.77l.1-.14a8.87,8.87,0,0,1,3.75,1.87,4,4,0,0,1,.56,1.2C153,93.47,154.55,102.74,155.19,106.62Z" transform="translate(42.56 -33.71)"/><path class="cls-9" d="M141.68,96.09v10.53h-8.85c.61-4.85,2.33-17.66,3.25-18.74,1.14-1.34,4.12-.86,4.12-.86s-.09.25-.2.65a10,10,0,0,0-.43,4.16,7.7,7.7,0,0,0,.72,2A14.4,14.4,0,0,0,141.68,96.09Z" transform="translate(42.56 -33.71)"/><path class="cls-9" d="M138.85,75.76s1-.65,3.2.16,2.46,4.23,2.46,4.23a3.66,3.66,0,0,0,1-1.53c.14-.73-.54-3.12-1.34-3.67a4.78,4.78,0,0,0-3.69-.62A3.22,3.22,0,0,0,138.85,75.76Z" transform="translate(42.56 -33.71)"/><path class="cls-12" d="M148.54,94.87s-3.58,6.51-6.65,7.29-.79,2.29,1.5.93S148.54,94.87,148.54,94.87Z" transform="translate(42.56 -33.71)"/><path class="cls-12" d="M149.2,98.11a29.62,29.62,0,0,1-3.22,4.72c-1.34,1.34.66,1.51,1.48.51S149.2,98.11,149.2,98.11Z" transform="translate(42.56 -33.71)"/><path class="cls-12" d="M137.19,91.73l-.67,3.41c-.3,1.52-.24,4.68.35,4.47S137.19,91.73,137.19,91.73Z" transform="translate(42.56 -33.71)"/><path class="cls-10" d="M129.45,69v38.56H158.3V69Zm27,36.73H131.27V70.8h25.21Z" transform="translate(42.56 -33.71)"/><polygon class="cls-10" points="177.3 12.14 177.3 35.26 177.3 35.61 177.62 35.61 177.62 35.26 177.62 12.38 177.3 12.14"/><polygon class="cls-10" points="195.79 23.03 195.79 35.26 195.79 35.61 196.12 35.61 196.12 35.26 196.12 23.14 195.79 23.03"/><polygon class="cls-9" points="99.07 76.52 28.96 76.44 29.11 37.92 99.07 37.92 99.07 76.52"/><path class="cls-9" d="M-13.73,75.37A13.3,13.3,0,0,1-5.16,75C-.65,76.34,1,77.63,1,77.63a10.38,10.38,0,0,1,8.36-1.08c4.83,1.4,4.61,4.83,4.61,4.83a6.36,6.36,0,0,1,3.68,0c1.79.64,1.86,1.71,1.86,1.71A9.4,9.4,0,0,1,28.33,80a7,7,0,0,1,6.3,6.14A3.58,3.58,0,0,1,38.22,85s.64-3.54,5-3.32A5.56,5.56,0,0,1,49.05,79c4.07.7,4.29,3.06,4.29,3.06s1.55-1.77,3.48-1.08v7.78H-13.84S-13.84,75.27-13.73,75.37Z" transform="translate(42.56 -33.71)"/><path class="cls-10" d="M36.27,88.35a1.28,1.28,0,0,1,.18-.14,7.74,7.74,0,0,1,5.41-1.31c3.54.38,4.72-1.87,8.1-2s4.18-2.36,6.86-2.25v6.11Z" transform="translate(42.56 -33.71)"/><path class="cls-11" d="M-13.84,77.52s5.9-.64,9.86,1.93,8.9.64,12.66,2.57,7.72.32,10.58,1.83,5,3,8.29,2.86,5.36-.08,5.5,1.42-46.68-.07-46.68-.07l-.07-10.15Z" transform="translate(42.56 -33.71)"/><path class="cls-3" d="M-13.84,86.63s24.66-1.71,38.6.33,31.74.85,31.74.85v22.42H-13.45S-14,86.47-13.84,86.63Z" transform="translate(42.56 -33.71)"/><path class="cls-11" d="M-13.63,90.49s27.24,0,42.25,3.76a218.3,218.3,0,0,0,28.09,5v10.94H-13.45S-13.84,90.28-13.63,90.49Z" transform="translate(42.56 -33.71)"/><path class="cls-10" d="M-13.73,94.78s19.08-1,22.51,2.79-3.43,6,3.44,7.08,22.51.21,22.51,5.57H-13.45S-13.84,94.68-13.73,94.78Z" transform="translate(42.56 -33.71)"/><path class="cls-12" d="M-16.93,68.33v45.15h77V68.33Zm73.67,41.82H-13.6V71.66H56.74Z" transform="translate(42.56 -33.71)"/><polygon class="cls-10" points="93.12 10.73 93.12 34.62 93.12 34.7 93.44 34.7 93.44 34.62 93.44 10.54 93.12 10.73"/><polygon class="cls-10" points="34.9 29.75 34.9 34.7 34.57 34.7 34.57 29.83 34.9 29.75"/><polygon class="cls-10" points="215.6 26.37 215.6 33.74 215.6 37.8 215.6 38.13 215.6 40.2 215.6 42.67 215.34 42.67 215.34 40.2 215.34 38.13 215.34 37.8 215.34 33.74 215.34 26.36 215.6 26.37"/><polygon class="cls-10" points="242.54 26.56 242.54 33.74 242.54 37.8 242.54 38.13 242.54 40.2 242.54 42.67 242.79 42.67 242.79 40.2 242.79 38.13 242.79 37.8 242.79 33.74 242.79 26.58 242.54 26.56"/><rect class="cls-9" x="209.54" y="37.8" width="41.8" height="34.42"/><path class="cls-12" d="M206.34,73.91v16c0,5.42,0,12.13,0,13.19H169.8V73.91Z" transform="translate(42.56 -33.71)"/><rect class="cls-3" x="212.35" y="54.39" width="36.5" height="14.96"/><path class="cls-12" d="M190.5,78.92a1,1,0,1,1,1,1A1,1,0,0,1,190.5,78.92Z" transform="translate(42.56 -33.71)"/><path class="cls-10" d="M206.34,89.87c0,5.42,0,12.13,0,13.19H177c.39-4.84,15.14-10.41,15.65-11.31S179.84,90.22,179.5,89c-.08-.28.44-.59,1.34-.94,3-1.18,10.43-2.71,13.41-3.94,3.85-1.58,12.08-1.41,12.08-1.41s0,.27,0,.77C206.35,84.69,206.35,87.11,206.34,89.87Z" transform="translate(42.56 -33.71)"/><path class="cls-9" d="M176.85,80.34a1.9,1.9,0,0,1,1.82-.87,3.13,3.13,0,0,1,3.84-.22,7.77,7.77,0,0,1,3.68.3,3.44,3.44,0,0,1,1.38.9Z" transform="translate(42.56 -33.71)"/><path class="cls-13" d="M194.53,77.71a1.4,1.4,0,0,1,1.37-.66,2.37,2.37,0,0,1,2.89-.17,6,6,0,0,1,2.77.23,2.6,2.6,0,0,1,1,.68Z" transform="translate(42.56 -33.71)"/><path class="cls-9" d="M172.13,83.65a2.64,2.64,0,0,1,2.42-1,4.84,4.84,0,0,1,5.11-.24,12.35,12.35,0,0,1,4.88.34,4.57,4.57,0,0,1,1.84,1Z" transform="translate(42.56 -33.71)"/><path class="cls-9" d="M101.13,84.86l.59,1.63-6-.19L92,84.75l-.27-.11.37-.39a6.16,6.16,0,0,0,1.09-1.33c-.06-.37-.11-.73-.15-1.07l-.06,0a8,8,0,0,0-.45-2c-.08-.28-.17-.59-.28-.94a2.77,2.77,0,0,1-.12-.75,3.5,3.5,0,0,1,.37-1.37c0-.12.11-.26,0-.22-.46.33-2.52-1.51-2.76-2.41.12-.13.25-.25.37-.37h0a10.82,10.82,0,0,1,2.52-2.13,7.79,7.79,0,0,1,1.83-.16h.85a.78.78,0,0,0,.73-.68c0-.27.05-.58.08-1,0-.08,0-.16,0-.24.28-.34,2.79.57,2.79.57a.17.17,0,0,1,0,.08c0,.07,0,.14,0,.21A4.89,4.89,0,0,0,99,71v0a.6.6,0,0,0,.54.47l.25,0h0s2.69.28,3.19.87A4.34,4.34,0,0,1,103.7,74l.06.2a8.6,8.6,0,0,1-2.06,4.45.59.59,0,0,0,0,.14,2.81,2.81,0,0,1-.1.39c-.41,1.29-1,3.21-1.11,3.22a2.34,2.34,0,0,0,0,.75C100.57,83.33,100.86,84.11,101.13,84.86Z" transform="translate(42.56 -33.71)"/><path class="cls-9" d="M96.6,102.37a6.86,6.86,0,0,0-.37,3.74c1.1,5,.25,14,.25,14H94.76a40.74,40.74,0,0,1-2.84-12.78c-.15-1.62-4-12.12-4-14.37s2.33-6.11,2.33-6.11a41,41,0,0,1,5.43,2.58,4,4,0,0,1,1.4,1.2C97.53,91.53,97.88,98.26,96.6,102.37Z" transform="translate(42.56 -33.71)"/><path class="cls-9" d="M106.48,119.81h-1.94S97,108.88,96.72,106.1C96.39,102.63,94,88.91,94,88.91l7.76-2.42S102.4,88.24,103,90c.24.76.47,1.53.61,2.16.31,1.39-.56,6.63-1.16,10.36a36,36,0,0,0-.51,3.76C102,107.67,104.51,107.85,106.48,119.81Z" transform="translate(42.56 -33.71)"/><path class="cls-9" d="M103.58,92.16a23,23,0,0,0-4.63.71A7.6,7.6,0,0,0,95,95a11.1,11.1,0,0,0-4.84-3h0A4.72,4.72,0,0,0,88,92s.07-2.44,3.19-6.7q.3-.42.66-.87s3,1.72,7.91.65c.45-.1.91-.22,1.39-.36,0,0,1.13,2.71,1.49,3.8C102.86,89.32,103.58,92.16,103.58,92.16Z" transform="translate(42.56 -33.71)"/><path class="cls-9" d="M94.76,120.07a6,6,0,0,1-.25,1.36,3.57,3.57,0,0,1-1.44,1.27c-.7.26-2.69.13-2.84.85h7a5.06,5.06,0,0,0-.18-1.8c-.27-.71-.58-1.68-.58-1.68Z" transform="translate(42.56 -33.71)"/><path class="cls-9" d="M106.48,119.81a15,15,0,0,1,1,1.5,23.58,23.58,0,0,1,1.32,2.24c-.16,0-3.56,0-3.56,0a4.34,4.34,0,0,1-.31-1.43c0-.58-.46-1.68-.36-2.31S106.48,119.81,106.48,119.81Z" transform="translate(42.56 -33.71)"/><path class="cls-9" d="M92.06,84.25c0,.18-.07.35-.1.5l-.27-.11Z" transform="translate(42.56 -33.71)"/><path class="cls-10" d="M98.92,70.47s0,0,0,0c-.06.24-1,.28-1.59.15s-1.13-.45-1.25-.8a.28.28,0,0,1,0-.22v0c.28-.34,2.79.57,2.79.57a.17.17,0,0,1,0,.08A.35.35,0,0,1,98.92,70.47Z" transform="translate(42.56 -33.71)"/><path class="cls-12" d="M96.59,78.88a2.82,2.82,0,0,0,2,.77c1.22,0,2-1.2,1.87-1.56s-1.38.42-2.15.3S96.25,78.24,96.59,78.88Z" transform="translate(42.56 -33.71)"/><path class="cls-12" d="M92.12,78.32a2,2,0,0,0,1.16,1.07A1.44,1.44,0,0,0,95,78.71c0-.3-1.06,0-1.56-.32S92.06,77.76,92.12,78.32Z" transform="translate(42.56 -33.71)"/><path class="cls-12" d="M103.6,95.42c.25,5.28-2.08,11.63-4.41,16.55h0c-.76,1.6-1.52,3.06-2.19,4.28-1.29,2.34-2.24,3.81-2.24,3.81L92.27,113c-.61-.73-1.41-5.94-1.41-5.94-.74-1.1-2.12-8.94-2.12-8.94-1.07-1.11-.85-3.31-.85-3.31a2.18,2.18,0,0,1-.15-1.66C87.55,92.33,88,92,88,92c5.2-.44,13.75-5.55,13.75-5.55C104.49,89.57,103.6,95.42,103.6,95.42Z" transform="translate(42.56 -33.71)"/><path class="cls-10" d="M99.25,111.72l-.06.25h0c-.76,1.6-1.52,3.06-2.19,4.28,0,0,0-.09,0-.13-.36-3.62-1.34-9.07-.75-10S99.25,111.72,99.25,111.72Z" transform="translate(42.56 -33.71)"/><path class="cls-10" d="M102.42,87.17s-7,5.15-9.72,6.7,1.22,1.55,3.75-.82S102.42,87.17,102.42,87.17Z" transform="translate(42.56 -33.71)"/><path class="cls-10" d="M102.58,88.15s-3.7,7-7.86,9.35-4.66,3.25-3.31,3.07S97.9,97,99.07,95.18,102.58,88.15,102.58,88.15Z" transform="translate(42.56 -33.71)"/><path class="cls-10" d="M102.42,92.07s-1.07,6.78-2.21,9.15-.33,4.9.16,4.74a1.89,1.89,0,0,0,.78-1.35C101.15,103.81,103,96.5,102.42,92.07Z" transform="translate(42.56 -33.71)"/><path class="cls-10" d="M90.86,107.06s2,1.71,2.25.82S91.15,107.47,90.86,107.06Z" transform="translate(42.56 -33.71)"/><path class="cls-10" d="M88.74,98.12A3.43,3.43,0,0,0,90.43,98c.67-.3.89-1.07.43-.91S89.77,98.09,88.74,98.12Z" transform="translate(42.56 -33.71)"/><path class="cls-10" d="M87.89,94.81s1.13.83,1.62.64S87.89,94.81,87.89,94.81Z" transform="translate(42.56 -33.71)"/><rect class="cls-12" x="130.99" y="89.89" width="22.91" height="2.82"/><rect class="cls-9" x="127.92" y="92.68" width="29.03" height="26.3"/><rect class="cls-10" x="137.14" y="97.13" width="10.59" height="3.22"/><path class="cls-10" d="M106.14,134.92H93.63V130h12.51Zm-12.24-.27h12v-4.4h-12Z" transform="translate(42.56 -33.71)"/><path class="cls-14" d="M109.58,116.53s.42-.89.29-1-.38,0-.4.1A5.06,5.06,0,0,0,109.58,116.53Z" transform="translate(42.56 -33.71)"/><path class="cls-7" d="M115.82,105.8s2.45-3,3.74-1.06a2.71,2.71,0,0,1,1.32,2.05c.36,1.68-.76,2.95-1.34,2.64-.37-.2-.65.44-.65.44Z" transform="translate(42.56 -33.71)"/><path class="cls-14" d="M112.78,121.46c-2-.72-3.82-4-3.82-4l.61-.43a14.77,14.77,0,0,0,2.81,2.19,15.31,15.31,0,0,1,.23-1.72c.63-3.53,2.1-4.57,2.49-4.79l.1,0v.07c0,.11,0,.32,0,.62C115,115.48,114.41,122.06,112.78,121.46Z" transform="translate(42.56 -33.71)"/><path class="cls-7" d="M119.29,104.44s.33-1.32,2.27-.91c0,0-.93-.11-1.18.24a1.52,1.52,0,0,1,1.19,0c.46.28.54,1.23.47,1.52s-.58,1.14-.91,1.14a1.57,1.57,0,0,1-.74-.29Z" transform="translate(42.56 -33.71)"/><path class="cls-14" d="M122.19,125.06c-1-2.16-1.42-2.77-1.44-3.45a8.64,8.64,0,0,1,.77-2.54,5.07,5.07,0,0,0,.25-1c.41-2.74-1.17-5.7-2.16-5.9-.27-.07-.73-1.06-.73-2.66l-.12,0-2.07.41s0,.65,0,1.26,0,1-.14,1.06l-.24,0a10.75,10.75,0,0,0-1.87,4.64c-.15,2.23,1.38,3.2,0,7.66S122.72,126.25,122.19,125.06Z" transform="translate(42.56 -33.71)"/><path class="cls-15" d="M116.69,109.93s0,.65,0,1.26a2.46,2.46,0,0,0,2-1.67Z" transform="translate(42.56 -33.71)"/><path class="cls-7" d="M119,109.29a6.15,6.15,0,0,0,.76-1.78,2.1,2.1,0,0,0-2.38-2.45,3,3,0,0,0-1.23.47c-.48.32-1.16,1-.4,2.91l.2.64Z" transform="translate(42.56 -33.71)"/><path class="cls-14" d="M116.3,110.51s2.74,0,2.74-1.66.36-2.86-1.39-3-2.09.55-2.23,1.12S115.58,110.45,116.3,110.51Z" transform="translate(42.56 -33.71)"/><path class="cls-7" d="M116.4,105.85s.75,2,1.9,2.3a2.27,2.27,0,0,0,1.66,0,3.23,3.23,0,0,1-1.07-1.93S117,104.89,116.4,105.85Z" transform="translate(42.56 -33.71)"/><path class="cls-7" d="M116.59,106a2.49,2.49,0,0,0-.7.88c-.14.44-.2,1.34-.46,1.3,0,0-.57-1.36.07-2.13S116.59,106,116.59,106Z" transform="translate(42.56 -33.71)"/><path class="cls-14" d="M118.77,145.76a27.35,27.35,0,0,1-1.72,4.85l-1,.11a22.85,22.85,0,0,0,.55-5.13,21,21,0,0,0-1-6.6c-2.71-7.73,3.14-7.23,3.19-4.74,0,2.23.09,3.9.09,3.9C119.77,140.26,119.41,143.23,118.77,145.76Z" transform="translate(42.56 -33.71)"/><path class="cls-14" d="M125.76,127.35l-.83.25s-2.71-4.51-3-5.69c-.08-.38-.28-1.14-.51-2-.48-1.77-1.09-3.94-1.09-3.94l-.2-.88-.7-3a9,9,0,0,1,2.1.46.88.88,0,0,1,.52.38,39.5,39.5,0,0,1,1.54,6.66,24.68,24.68,0,0,0,.48,2.44C124.36,122.61,125.11,125.78,125.76,127.35Z" transform="translate(42.56 -33.71)"/><path class="cls-14" d="M122.68,145.32a12.5,12.5,0,0,1-1.58,5.15l-.43.31s-.41-2.2-.7-4.82a26,26,0,0,0-1.08-5.93c-1.7-3.18-2.21-15.22-2.21-15.22l5.16-.25a8.75,8.75,0,0,1,.8,3.93,56.05,56.05,0,0,1-1,10.23h0a.2.2,0,0,0,0,.17A11.84,11.84,0,0,1,122.68,145.32Z" transform="translate(42.56 -33.71)"/><path class="cls-7" d="M116.48,106.08a4.65,4.65,0,0,0,2,2.77,5.06,5.06,0,0,1-1.58-2.67C116.77,104.79,116.48,106.08,116.48,106.08Z" transform="translate(42.56 -33.71)"/><path class="cls-16" d="M122.84,126.61c0,.18,1.35,15.29,1.31,15.39-.11.34-10.36,1.92-10.65-.2-.32-2.33.59-22.08.64-24.3a10.67,10.67,0,0,1-.16-2.07,4.17,4.17,0,0,1,.86-2.83c.1-.08.2-.13.61-.19l.9-.14h.16a5.76,5.76,0,0,0-.69,1.72c.08.92,1.94.84,3,.2a4.06,4.06,0,0,0,1.25-2,5,5,0,0,1,1.89.59h0a.62.62,0,0,1,.16.17,45.22,45.22,0,0,1,2.47,7.83,2.67,2.67,0,0,1-2.14,2.22C122.54,124.89,122.78,125.42,122.84,126.61Z" transform="translate(42.56 -33.71)"/><path class="cls-14" d="M109.57,117c0-.08.07-1.31-.15-1.57s-.66-.62-.8-.61a1.37,1.37,0,0,0-.52,1.3,4.42,4.42,0,0,0,.86,1.31Z" transform="translate(42.56 -33.71)"/><path class="cls-17" d="M110.57,115.6l-1.59,0a.1.1,0,0,1-.1-.09l-.07-3a.1.1,0,0,1,.1-.1l1.59,0a.1.1,0,0,1,.1.09l.07,3A.12.12,0,0,1,110.57,115.6Z" transform="translate(42.56 -33.71)"/><rect class="cls-18" x="108.51" y="112.39" width="1.78" height="3.23" rx="0.8" transform="translate(40 -31.21) rotate(-1.3)"/><path class="cls-16" d="M115.05,121.68l-1.1.08a9.68,9.68,0,0,1-1.14.07.85.85,0,0,1-.38-.32,10.24,10.24,0,0,1-1-2.91c.14-.85,1.09-1.17,1.28-1.94.87-3.7,2.26-4.13,2.26-4.13S116,121.73,115.05,121.68Z" transform="translate(42.56 -33.71)"/><path class="cls-14" d="M108.49,114.9s.53-.82.66-.77-.48,1.09-.48,1.09.49-.77.57-.71-.43,1.38-.43,1.38l-.37-.43Z" transform="translate(42.56 -33.71)"/><path class="cls-14" d="M108.09,115.65a15,15,0,0,1,.41-1.86,8.44,8.44,0,0,1,0,1.19Z" transform="translate(42.56 -33.71)"/><path class="cls-14" d="M117.05,150.61l-.87-.65a2.18,2.18,0,0,1-.25.67,5.6,5.6,0,0,1-.85.69,9.64,9.64,0,0,1-1.18.59c0,.33,1.77.35,2.2.4s.82,0,.91-.29a4.82,4.82,0,0,0,0-1A1.11,1.11,0,0,1,117.05,150.61Z" transform="translate(42.56 -33.71)"/><path class="cls-7" d="M115.82,152.6a6.25,6.25,0,0,0-1.44.06c-.95.08-1.3-.21-1.36-.34s.4-.25.88-.41h0a2.68,2.68,0,0,0,1.4.15c.64-.11,1.27-.42,1.7-.5a1.56,1.56,0,0,1,.08.43C117.1,152.43,117,152.66,115.82,152.6Z" transform="translate(42.56 -33.71)"/><path class="cls-14" d="M121.86,148.86l-1.47.17a8.7,8.7,0,0,1,0,1.46,1.39,1.39,0,0,1-.9,1c-.31.14-1.19.42-1.19.43,0,.33,1.78.35,2.2.4s.82,0,.92-.29a5.57,5.57,0,0,0,0-1C121.38,150.8,121.86,148.86,121.86,148.86Z" transform="translate(42.56 -33.71)"/><path class="cls-7" d="M120.36,152.62a7.32,7.32,0,0,0-1.58,0c-1,.08-1.3-.21-1.35-.34s.39-.25.87-.41h0a2.71,2.71,0,0,0,1.41.15c.63-.11,1.26-.42,1.7-.5a1.56,1.56,0,0,1,.08.43C121.51,152.43,121.29,152.68,120.36,152.62Z" transform="translate(42.56 -33.71)"/><path class="cls-19" d="M122.43,123s-1.27-4.41-1.43-4.11,1.9,8.71,1.9,8.71Z" transform="translate(42.56 -33.71)"/><path class="cls-19" d="M114,121.76h0a9.68,9.68,0,0,1-1.14.07.85.85,0,0,1-.38-.32c.17-.23.84-.46,1.07-.62s.79-2.34.89-2A17,17,0,0,1,114,121.76Z" transform="translate(42.56 -33.71)"/><path class="cls-20" d="M116.9,109.59s-.05.21-.55.17c0,0-.42,0-.41-.24A1.37,1.37,0,0,1,116.9,109.59Z" transform="translate(42.56 -33.71)"/><path class="cls-14" d="M125.68,127.25a5.93,5.93,0,0,1,1.15.94c.15.28.51,1.3.51,1.3s-.26,0-.51-.4-1.09-.41-1.37-.65a3.68,3.68,0,0,1-.6-.94Z" transform="translate(42.56 -33.71)"/><path class="cls-14" d="M125,127.72a3.13,3.13,0,0,0,.37,1c.2.23.48.61.59.51s-.13-.95-.13-.95Z" transform="translate(42.56 -33.71)"/><path class="cls-14" d="M126.69,128.28l.9,1s-.32.15-.41,0S126.69,128.28,126.69,128.28Z" transform="translate(42.56 -33.71)"/><path class="cls-19" d="M42.92,112.09s3.45,3.48,3.62,4.89-1.73,3.61-1.73,3.61Z" transform="translate(42.56 -33.71)"/><path class="cls-7" d="M41.13,150.6s-.14,2-.52,2.07H38.67l-2.57,0a1.1,1.1,0,0,1,.87-.75,3.29,3.29,0,0,0,2.33-1.55C39.75,149.35,41.13,150.6,41.13,150.6Z" transform="translate(42.56 -33.71)"/><path class="cls-7" d="M46.52,150.61s-.13,2-.51,2H44.06l-2.45,0a.88.88,0,0,1,.75-.77,3.29,3.29,0,0,0,2.33-1.55C45.14,149.37,46.52,150.61,46.52,150.61Z" transform="translate(42.56 -33.71)"/><path class="cls-7" d="M38.49,129.27a80.89,80.89,0,0,0,3,11.24c2.35,7.19,2.66,10.31,2.66,10.31l2.54-.07s0-7.85-1-11.47-.21-13-.21-13Z" transform="translate(42.56 -33.71)"/><path class="cls-21" d="M37.27,126.45a97.58,97.58,0,0,0,.93,13.6c1,7.49.68,10.67.68,10.67l2.53.09s1.52-7.49,1.1-11.24,2.09-12.86,2.09-12.86Z" transform="translate(42.56 -33.71)"/><path class="cls-14" d="M42.19,112.19l-1.35.88-1.94-.37c0-.16.15-.81.27-1.4a.36.36,0,0,0,0-.1l.19-.94,1.82-.79.68-.3s-.05.56-.06.64A4.67,4.67,0,0,0,42.19,112.19Z" transform="translate(42.56 -33.71)"/><path class="cls-16" d="M45.58,127.22c-.4,1.79-6.91,2-8.58.36a4.55,4.55,0,0,1-.12-2.2c.14-2.26.6-5.66.62-7.4a14.26,14.26,0,0,1,.28-2.48,20.81,20.81,0,0,1,.84-3s3.18-1,3.77-.85C45.25,112.54,46,125.44,45.58,127.22Z" transform="translate(42.56 -33.71)"/><path class="cls-19" d="M36.88,125.38c.14-2.26.6-5.66.62-7.4a14.26,14.26,0,0,1,.28-2.48l1.92-.33S41.55,122.81,36.88,125.38Z" transform="translate(42.56 -33.71)"/><path class="cls-14" d="M37.92,122.23a.45.45,0,0,1-.15.52.89.89,0,0,0-.39.8c.07.24.66.65.87.58s.64-.39.59-.52.29-1.14-.22-1.53S37.92,122.23,37.92,122.23Z" transform="translate(42.56 -33.71)"/><path class="cls-16" d="M40.08,112.08a5.81,5.81,0,0,0-3.36,2.54c-1.49,2.18-2.47,3.81-2.2,4.6s2.76,3.53,3.19,3.53a1.16,1.16,0,0,0,1.17-1s-1.75-2.64-1.41-3c.15-.17,2.29-1.9,2.59-1.12C40.56,118.89,40.08,112.08,40.08,112.08Z" transform="translate(42.56 -33.71)"/><path class="cls-15" d="M41.68,109.83a5.55,5.55,0,0,1-2.51,1.47.36.36,0,0,0,0-.1l.19-.94,1.82-.79C41.6,109.46,41.85,109.55,41.68,109.83Z" transform="translate(42.56 -33.71)"/><path class="cls-14" d="M38.7,110.15s2.92.92,3.47-.91,1.29-2.95-.56-3.61-2.42-.07-2.75.49S38,109.87,38.7,110.15Z" transform="translate(42.56 -33.71)"/><path class="cls-7" d="M39,106s.18,2.13.62,2,.84-.16.78.48-.68,1.38.68,1.5,3.32-3.38,2.95-4C42.93,104,37.43,103.61,39,106Z" transform="translate(42.56 -33.71)"/><path class="cls-19" d="M39.4,111.73a16.25,16.25,0,0,1,2.59-.6c.25.08.4.56.4.56l-3.77.85A1.93,1.93,0,0,1,39.4,111.73Z" transform="translate(42.56 -33.71)"/><path class="cls-14" d="M72,116.84s.87.15,1,.85c.39,1.58.26,5.9.65,7.24s1.5,4.68,1.67,5.38c0,0-.46.29-.72.18a60.69,60.69,0,0,1-3.07-5.27C71.27,124.55,72,116.84,72,116.84Z" transform="translate(42.56 -33.71)"/><path class="cls-7" d="M69.28,146.34a12.23,12.23,0,0,0,.7,5.26l.37.38s.75-2.08,1.46-4.58a26.19,26.19,0,0,1,2-5.59c2.18-2.82,4.64-14.45,4.64-14.45l-5-1.09A8.69,8.69,0,0,0,72.07,130a55.19,55.19,0,0,0-.73,10.12h0a.25.25,0,0,1-.06.16A11.7,11.7,0,0,0,69.28,146.34Z" transform="translate(42.56 -33.71)"/><path class="cls-7" d="M69.28,146.34a12.23,12.23,0,0,0,.7,5.26l.36.47s.76-2.17,1.47-4.67A4.52,4.52,0,0,1,69.28,146.34Z" transform="translate(42.56 -33.71)"/><path class="cls-14" d="M73.08,126.13c1.38-4.4-.13-5.35,0-7.56A10.67,10.67,0,0,1,74.94,114l.24,0c.11-.06.14-.54.14-1s0-1.25,0-1.25l.56-.11,1.49-.3.12,0a8.7,8.7,0,0,0,0,.93,5.08,5.08,0,0,0,.3,1.2c.13.29.27.46.37.49,1,.2,2.54,3.12,2.13,5.82a5.14,5.14,0,0,1-.25,1,8.27,8.27,0,0,0-.75,2.51c0,.67.47,1.27,1.42,3.4C81.23,127.79,71.68,130.63,73.08,126.13Z" transform="translate(42.56 -33.71)"/><path class="cls-21" d="M75.4,147.05a26.57,26.57,0,0,0,1.71,4.79l.89-.07a24.85,24.85,0,0,1-.41-4.89,20.53,20.53,0,0,1,1-6.52,35.59,35.59,0,0,0,2.24-13.18l-5,.59-.23,0c0,2.3-.08,5.44-.13,7.89,0,2.2-.09,3.85-.09,3.85C74.42,141.62,74.78,144.55,75.4,147.05Z" transform="translate(42.56 -33.71)"/><path class="cls-16" d="M81.34,128.15a1.22,1.22,0,0,1,0,.41c-.11.34-.48.5-1.38.41-.55-.06-.79-1-.9-1.77-.33,1.12-.8,1.76-1.39,1.89-.88.19-5.28.73-5.56-1.36-.32-2.3.63-6.38.68-8.57a11.22,11.22,0,0,1-.16-2,4.18,4.18,0,0,1,.85-2.79,1.16,1.16,0,0,1,.6-.2l.89-.13h.16c-.07.13-1.07,1.64-1,2s3.62,0,3.86-.18a8.75,8.75,0,0,0,.63-1.94,4.85,4.85,0,0,1,1.86.59h0a.62.62,0,0,1,.16.17,35.66,35.66,0,0,1,1.76,6.62,3.22,3.22,0,0,1-2.38.35C80.39,124.21,81.29,127,81.34,128.15Z" transform="translate(42.56 -33.71)"/><path class="cls-7" d="M69.68,152.66h.57c.19,0,.33-.09.53-.11a.52.52,0,0,1,.46.11h2.43c.06-.08,0-.29-.06-.43a.32.32,0,0,0-.23-.21,2.66,2.66,0,0,1-1.22-.56,15.25,15.25,0,0,0-1.26-.87h0s-.12,0-.58.42c-.23.19-.63-.28-.63-.28a.47.47,0,0,0-.13.17.57.57,0,0,0,0,.38,2.61,2.61,0,0,1-.18.89c0,.17-.1.29-.1.29S69.19,152.6,69.68,152.66Z" transform="translate(42.56 -33.71)"/><path class="cls-22" d="M69.55,150.9a1.6,1.6,0,0,0,.61.31c.26,0,.74-.62.74-.62h0s-.12,0-.58.42c-.23.19-.63-.28-.63-.28A.47.47,0,0,0,69.55,150.9Z" transform="translate(42.56 -33.71)"/><path class="cls-22" d="M71.39,152.5a1.18,1.18,0,0,0-.91-.11,2.15,2.15,0,0,1-1.16-.22c0,.17-.1.29-.1.29s0,.14.46.2h.57c.19,0,.33-.09.53-.11a.52.52,0,0,1,.46.11h2.43c.06-.08,0-.29-.06-.43s-.09.28-.13.34Z" transform="translate(42.56 -33.71)"/><path class="cls-7" d="M76.63,152.66h.57c.19,0,.33-.09.52-.11a.54.54,0,0,1,.47.11h2.42c.06-.08,0-.29,0-.43a.34.34,0,0,0-.23-.21,2.69,2.69,0,0,1-1.23-.56,15.25,15.25,0,0,0-1.26-.87h0s-.13,0-.58.42c-.24.19-.64-.28-.64-.28a.65.65,0,0,0-.13.17.64.64,0,0,0,0,.38,2.36,2.36,0,0,1-.17.89c-.06.17-.11.29-.11.29S76.14,152.6,76.63,152.66Z" transform="translate(42.56 -33.71)"/><path class="cls-22" d="M76.49,150.9a1.72,1.72,0,0,0,.62.31c.25,0,.73-.62.73-.62h0s-.13,0-.58.42c-.24.19-.64-.28-.64-.28A.65.65,0,0,0,76.49,150.9Z" transform="translate(42.56 -33.71)"/><path class="cls-22" d="M78.34,152.5a1.21,1.21,0,0,0-.92-.11,2.12,2.12,0,0,1-1.15-.22c-.06.17-.11.29-.11.29s0,.14.47.2h.57c.19,0,.33-.09.52-.11a.54.54,0,0,1,.47.11h2.42c.06-.08,0-.29,0-.43s-.1.28-.14.34Z" transform="translate(42.56 -33.71)"/><path class="cls-16" d="M74.94,114a5.73,5.73,0,0,0-2.24.59c-.78.68-1.24,6-1.21,6.16s.39.67,1.33.56.79-5.4.93-5.69S74.94,114,74.94,114Z" transform="translate(42.56 -33.71)"/><path class="cls-14" d="M81.94,130.84l-.85.08s-1.77-4.88-1.79-6.06c0-.39,0-1.17-.11-2-.12-1.81-.3-4-.3-4l0-.88-.1-3a9.52,9.52,0,0,1,1.94.85.93.93,0,0,1,.43.47,38.52,38.52,0,0,1,.22,6.74c0,1.26,0,2.24,0,2.45C81.48,126,81.61,129.2,81.94,130.84Z" transform="translate(42.56 -33.71)"/><path class="cls-14" d="M81.74,130.5a6.18,6.18,0,0,1,.77,1.36,3.45,3.45,0,0,1-.24,1.25c-.06.1-.48-.43-.59-.7s-.27-.79-.32-.56,0,.51-.2.4,0-1.53,0-1.53Z" transform="translate(42.56 -33.71)"/><path class="cls-16" d="M82.38,121.28a5,5,0,0,1-3.91.32c-1.8-.82.29-6.73.29-6.73h1.59S81.78,116.24,82.38,121.28Z" transform="translate(42.56 -33.71)"/><path class="cls-7" d="M76.35,106.29a2.83,2.83,0,0,0-3,2.1c-.55,1.84-1.77,2.81-1.73,4.75s.41,1.94,0,3a1.64,1.64,0,0,0,1.63,2.08c1,0,6.21-1.65,6.4-2.63s-.7-2.78-.39-3.51-.44-1.84-.26-3.39A2.28,2.28,0,0,0,76.35,106.29Z" transform="translate(42.56 -33.71)"/><path class="cls-14" d="M146.48,118.71s2.29.05,2.46.71c.37,1.49-1.22,5.69-.85,7s1.43,4.43,1.59,5.09c0,0-.44.27-.69.18s-2.64-4.36-2.91-5S146.48,118.71,146.48,118.71Z" transform="translate(42.56 -33.71)"/><path class="cls-19" d="M147.65,147.33a9.22,9.22,0,0,0,1.74,4.45l.37.56s.29-2.07.45-4.53a23.66,23.66,0,0,1,.76-5.58c1.45-3,1.41-14.31,1.41-14.31l-4.83,0a8.25,8.25,0,0,0-.58,3.71,52,52,0,0,0,1.35,9.51h0a.3.3,0,0,1,0,.16A11,11,0,0,0,147.65,147.33Z" transform="translate(42.56 -33.71)"/><path class="cls-16" d="M152.79,141a33.63,33.63,0,0,0,2.12-12.48l-4.76.55-.22,0c0,2.19-.08,5.15-.12,7.47-.05,2.09-.09,3.65-.09,3.65C148.81,142.18,152.05,143.1,152.79,141Z" transform="translate(42.56 -33.71)"/><path class="cls-16" d="M149.72,140.21s-2.58,1-3.63,9.12l.78.34,5.92-8.68Z" transform="translate(42.56 -33.71)"/><path class="cls-7" d="M148.77,152.64h.54c.19,0,.32-.08.5-.11a.46.46,0,0,1,.44.11h2.3c.06-.08,0-.27-.05-.41a.34.34,0,0,0-.22-.2,2.45,2.45,0,0,1-1.16-.53c-.25-.22-1.19-.82-1.19-.82h0s-.12,0-.55.39c-.22.19-.6-.26-.6-.26a.6.6,0,0,0-.17.52,2.33,2.33,0,0,1-.17.85l-.09.27S148.31,152.58,148.77,152.64Z" transform="translate(42.56 -33.71)"/><path class="cls-22" d="M148.65,151a1.67,1.67,0,0,0,.58.29c.24,0,.7-.59.7-.59h0s-.12,0-.55.39c-.22.19-.6-.26-.6-.26A.53.53,0,0,0,148.65,151Z" transform="translate(42.56 -33.71)"/><path class="cls-22" d="M152.5,152.23c-.07-.06-.09.27-.13.32l-2-.06a1.06,1.06,0,0,0-.86-.1,2.14,2.14,0,0,1-1.1-.21l-.09.27s0,.13.43.19h.54c.19,0,.32-.08.5-.11a.46.46,0,0,1,.44.11h2.3C152.61,152.56,152.55,152.37,152.5,152.23Z" transform="translate(42.56 -33.71)"/><path class="cls-7" d="M144.9,150l.38.38c.15.11.28.16.43.28a.49.49,0,0,1,.24.38h0l1.63,1.61c.1,0,.19-.19.25-.33a.33.33,0,0,0,0-.29,2.5,2.5,0,0,1-.46-1.2c0-.33-.27-1.42-.27-1.42h0s-.11-.07-.67-.11c-.29,0-.24-.61-.24-.61a.54.54,0,0,0-.21,0,.6.6,0,0,0-.28.22,2.46,2.46,0,0,1-.71.49l-.26.12S144.61,149.63,144.9,150Z" transform="translate(42.56 -33.71)"/><path class="cls-22" d="M146,148.73a1.75,1.75,0,0,0,.21.62c.15.19.91.07.91.07h0s-.11-.07-.67-.11c-.29,0-.24-.61-.24-.61A.54.54,0,0,0,146,148.73Z" transform="translate(42.56 -33.71)"/><path class="cls-22" d="M147.51,152.47,146.15,151a1.11,1.11,0,0,0-.54-.69,2,2,0,0,1-.63-.91l-.26.12s-.11.07.18.44l.38.38c.15.11.28.16.43.28a.49.49,0,0,1,.24.38h0l1.63,1.61c.1,0,.19-.19.25-.33S147.58,152.46,147.51,152.47Z" transform="translate(42.56 -33.71)"/><path class="cls-21" d="M147,129.34c.55-4.53.14-7.2.27-9.29a7.61,7.61,0,0,1,2.06-4l.22,0c.11-.06.14-.51.14-1s0-1.19,0-1.19l.53-.1,1.41-.28.11,0a6,6,0,0,0,.06.88,4.21,4.21,0,0,0,.28,1.13c.12.28.25.44.35.47.92.19,2.4,3,2,5.51a5.19,5.19,0,0,1-.24,1,8.31,8.31,0,0,0-.72,2.37,16.14,16.14,0,0,0,1.27,4.91C155.18,130.77,146.76,131.09,147,129.34Z" transform="translate(42.56 -33.71)"/><path class="cls-21" d="M149.3,116a5.33,5.33,0,0,0-2.13.55c-.73.65-1.17,5.7-1.14,5.84s.37.63,1.26.52.75-5.1.88-5.38S149.3,116,149.3,116Z" transform="translate(42.56 -33.71)"/><path class="cls-14" d="M155.92,132l-.8.08s-1.68-4.62-1.69-5.74c0-.37-.05-1.11-.11-1.93-.11-1.71-.29-3.82-.29-3.82l0-.84-.1-2.87a8.56,8.56,0,0,1,1.84.8c.22.15.38.3.41.45a36.52,36.52,0,0,1,.21,6.38c0,1.2,0,2.12,0,2.32C155.49,127.38,155.61,130.42,155.92,132Z" transform="translate(42.56 -33.71)"/><path class="cls-14" d="M155.74,131.65a6,6,0,0,1,.73,1.29,3.31,3.31,0,0,1-.23,1.18c-.06.09-.46-.4-.56-.66s-.26-.75-.3-.53,0,.49-.19.38,0-1.45,0-1.45Z" transform="translate(42.56 -33.71)"/><path class="cls-21" d="M156.35,122.92a4.73,4.73,0,0,1-3.71.3c-1.7-.78.27-6.37.27-6.37h1.51S155.77,118.15,156.35,122.92Z" transform="translate(42.56 -33.71)"/><path class="cls-7" d="M150.63,108.72a2.68,2.68,0,0,0-2.87,2c-.52,1.74-1.67,2.66-1.64,4.5s.4,1.84,0,2.82.09,2.88,1,3.25c6.15,2.43,6.42-2.84,6.6-3.77s-.67-2.63-.37-3.32-.42-1.74-.25-3.22A2.15,2.15,0,0,0,150.63,108.72Z" transform="translate(42.56 -33.71)"/><path class="cls-7" d="M162.25,150.69s.13,2,.52,2c0,0,2,0,2,0l2.46,0a.8.8,0,0,0-.74-.71,3.36,3.36,0,0,1-2.36-1.58C163.65,149.42,162.25,150.69,162.25,150.69Z" transform="translate(42.56 -33.71)"/><path class="cls-7" d="M154.45,150.7s.13,2,.52,2.05h2l2.46,0a.8.8,0,0,0-.74-.72,3.31,3.31,0,0,1-2.36-1.58C155.85,149.43,154.45,150.7,154.45,150.7Z" transform="translate(42.56 -33.71)"/><path class="cls-7" d="M160.73,128.61a80.76,80.76,0,0,1-2.12,11.62c-1.82,7.48-1.89,10.66-1.89,10.66l-2.57.13s-.66-8,.15-11.71-.81-13.22-.81-13.22Z" transform="translate(42.56 -33.71)"/><path class="cls-21" d="M162,125.7a99,99,0,0,1,1.36,13.78c.22,7.69,1.13,10.82,1.13,10.82l-2.52.51s-2.8-7.25-3-11.08-4.27-12.54-4.27-12.54Z" transform="translate(42.56 -33.71)"/><path class="cls-14" d="M156.8,111.64l1.37.89,2-.37-.28-1.42s0-.07,0-.11c-.1-.51-.19-.95-.19-.95l-1.85-.81-.69-.3s0,.57.06.65A4.73,4.73,0,0,1,156.8,111.64Z" transform="translate(42.56 -33.71)"/><path class="cls-19" d="M159.64,111.18a16.58,16.58,0,0,0-2.64-.62c-.25.08-.4.58-.4.58l3.84.86A1.91,1.91,0,0,0,159.64,111.18Z" transform="translate(42.56 -33.71)"/><path class="cls-16" d="M162.08,127.29a4.22,4.22,0,0,1-2,.89,10.84,10.84,0,0,1-1.77.22c-2.28.1-4.69-.4-4.93-1.47-.4-1.82.33-14.93,3.24-15.79.6-.18,3.84.86,3.84.86a19.85,19.85,0,0,1,.84,3,13.69,13.69,0,0,1,.29,2.52c0,1.76.49,5.22.64,7.52A4.81,4.81,0,0,1,162.08,127.29Z" transform="translate(42.56 -33.71)"/><path class="cls-15" d="M157.32,109.24a5.74,5.74,0,0,0,2.55,1.5s0-.07,0-.11c-.1-.51-.19-.95-.19-.95l-1.85-.81C157.4,108.87,157.15,109,157.32,109.24Z" transform="translate(42.56 -33.71)"/><path class="cls-14" d="M160.35,109.57s-3,.94-3.52-.93-1.32-3,.56-3.67,2.46-.07,2.8.5S161.11,109.28,160.35,109.57Z" transform="translate(42.56 -33.71)"/><path class="cls-7" d="M160.2,105.29s-.19,2.17-.64,2.08-.85-.16-.79.49a2.12,2.12,0,0,1-1.5,1.78c-.92.11-2.45-2.79-2.13-4.06C155.69,103.41,161.81,102.18,160.2,105.29Z" transform="translate(42.56 -33.71)"/><path class="cls-21" d="M161.79,128.08a6.86,6.86,0,0,1-2.61,1.5c-1.5.43.55,2.31,1.32,2.17a2,2,0,0,0,1.2-.89Z" transform="translate(42.56 -33.71)"/><path class="cls-14" d="M160.1,128.85s.12.65.31.54.81-.58.76-.74S160.1,128.85,160.1,128.85Z" transform="translate(42.56 -33.71)"/><path class="cls-7" d="M157.94,130v-.23a5,5,0,0,0,3.87-1.9v.35A4.67,4.67,0,0,1,157.94,130Z" transform="translate(42.56 -33.71)"/><path class="cls-19" d="M160.06,128.18a10.84,10.84,0,0,1-1.77.22c-1.77-3.54-1-9.81-1-9.81Z" transform="translate(42.56 -33.71)"/><path class="cls-14" d="M161.09,128.62l-1,.23s-.95-2-1.75-4c-.12-.32-.25-.63-.36-.94h2.51c0,.18.05.36.08.54C160.86,126.52,161.09,128.62,161.09,128.62Z" transform="translate(42.56 -33.71)"/><path class="cls-16" d="M160.58,124.45l-2.23.4a17.81,17.81,0,0,1-1.08-3.34c-.29-2,.27-8.22.81-8.54a4.07,4.07,0,0,1,1.79-.24s.09,6.64.28,8.41C160.23,121.83,160.4,123.13,160.58,124.45Z" transform="translate(42.56 -33.71)"/></g><rect class="cls-7" x="46.18" y="118.91" width="193.61" height="0.83" rx="0.37"/></svg>