<svg id="Layer_1" data-name="Layer 1" xmlns="http://www.w3.org/2000/svg" xmlns:xlink="http://www.w3.org/1999/xlink" viewBox="0 0 128 128"><defs><style>.cls-1,.cls-3{fill:none;}.cls-2{fill:#ebebeb;}.cls-3{stroke:#aedcff;}.cls-4{clip-path:url(#clip-path);}.cls-5{fill:#693b2f;}.cls-6{fill:#231010;}.cls-13,.cls-6{opacity:0.8;}.cls-7{fill:#fff;}.cls-8{fill:#ef7443;}.cls-9{fill:#d6d3bf;}.cls-10{fill:#e9eadf;}.cls-11{fill:#bab9a8;}.cls-12{fill:#f4b694;}.cls-13,.cls-14,.cls-15{fill:#c97b5c;}.cls-14{opacity:0.7;}.cls-16{fill:#613125;}.cls-17{fill:#40211f;}.cls-18{fill:#2c1515;}</style><clipPath id="clip-path"><circle class="cls-1" cx="65.51" cy="65.51" r="59.06"/></clipPath></defs><rect class="cls-2" x="4.57" y="4.57" width="120" height="120" rx="53"/><rect class="cls-3" x="0.5" y="0.5" width="127" height="127" rx="52.5"/><g class="cls-4"><path class="cls-5" d="M38.2,89.76a10.93,10.93,0,0,1-1.78-4c-.69-3.23.41-5.78,3.32-12.78.56-1.34,1.75-4.21,3.37-8.15a14.94,14.94,0,0,1-2-3.52c-1.67-4.21-.67-7.54,2.21-18.31C46.07,32.77,46.55,30.64,49,27.92a13.9,13.9,0,0,1,6.91-4.54,13.59,13.59,0,0,1,8.44.62,13.75,13.75,0,0,1,7.86-.78c5.43,1.17,8.34,5.77,10.64,9.4,1.73,2.73,3,8.71,5.48,20.67.7,3.34,1.5,7.44-.79,9.86a5.54,5.54,0,0,1-2.15,1.37,52.5,52.5,0,0,0,3.26,9c2,4.28,3.83,6.58,4.1,10.52a15.15,15.15,0,0,1-.56,5.18Z"/><path class="cls-6" d="M50,58c-.92,1.39-1.7,2.6-2.52,3.83-.33.51-.72,1.11-.52,1.66.08.23.3.53,1.55,1a13,13,0,0,0,2.66.69Z"/><path class="cls-6" d="M79,58c.92,1.39,1.7,2.6,2.52,3.83.33.51.72,1.11.52,1.66-.06.17-.25.56-1.55,1a9.73,9.73,0,0,1-3.12.5Q78.15,61.54,79,58Z"/><path class="cls-7" d="M52.32,89.12a95.65,95.65,0,0,0,8.18,36.34h8.1a71.63,71.63,0,0,0,7.51-26,68.47,68.47,0,0,0,.15-10Z"/><path class="cls-8" d="M76.26,85l-23.41.66L53,89.4a18.88,18.88,0,0,0,23.25,0Z"/><path class="cls-9" d="M45.43,87.11c-5,1.71-9,3.31-11.77,4.53-1.55.68-4,1.78-4.35,3.73-.14.75.12,1.13.31,2.49a18.67,18.67,0,0,1-.08,4.86,76,76,0,0,1-1.68,9.75,47.61,47.61,0,0,0,18.93,10.09l5.39-5.67,1.52-11.66Z"/><path class="cls-10" d="M52.83,85a125.33,125.33,0,0,0,7.67,40.45,48.5,48.5,0,0,1-7.08-1,47.28,47.28,0,0,1-6.63-1.93q-2.07-4.84-4.15-9.68l8.93-4.55-9.75-1.8q1.8-9.72,3.61-19.42Z"/><path class="cls-11" d="M36.91,118.72c.85-10.65,1.14-12.92,1.24-12.92a52.41,52.41,0,0,1,0,5.6c-.07,3.23-.16,5.91-.23,7.79Z"/><path class="cls-11" d="M29.53,94.69q5.89,7.45,6,7.38t-5.72-7.85Z"/><path class="cls-9" d="M83.67,87.11c5,1.71,9,3.31,11.76,4.53,1.56.68,4,1.78,4.36,3.73a8.15,8.15,0,0,1-.32,2.49,18.73,18.73,0,0,0,.09,4.86,76,76,0,0,0,1.68,9.75,47.78,47.78,0,0,1-18.93,10.09l-5.39-5.67L75.4,105.23Z"/><path class="cls-10" d="M76.26,85a124.85,124.85,0,0,1-1.21,14.86,125.73,125.73,0,0,1-6.45,25.59,48.68,48.68,0,0,0,7.08-1,47.68,47.68,0,0,0,6.63-1.93l4.14-9.68-8.93-4.55,9.76-1.8q-1.8-9.72-3.61-19.42Z"/><path class="cls-11" d="M92.19,118.72c-.86-10.65-1.15-12.92-1.25-12.92a51.26,51.26,0,0,0,0,5.6c.07,3.23.16,5.91.23,7.79Z"/><path class="cls-11" d="M99.56,94.69q-5.9,7.45-6,7.38t5.72-7.85Z"/><path class="cls-12" d="M76.29,85a15.26,15.26,0,0,1-23.46,0,10.59,10.59,0,0,0,4.46-5.18,10.4,10.4,0,0,0,.56-5.54H71.4a9.46,9.46,0,0,0,1.12,7.58,8.55,8.55,0,0,0,1,1.28A8.82,8.82,0,0,0,76.29,85Z"/><path class="cls-13" d="M73.57,83.15a25,25,0,0,1-15.72-8.86H71.4a9.46,9.46,0,0,0,1.12,7.58A8.55,8.55,0,0,0,73.57,83.15Z"/><path class="cls-12" d="M79,58c-.09.42-.17.85-.26,1.27-.21,1-.47,2.27-.78,3.7-.83,3.88-1.25,5.83-1.45,6.31-1.69,4-7.09,6.68-12.16,6.61s-9.94-3-11.86-6.76a21.39,21.39,0,0,1-1.33-4,36.32,36.32,0,0,1-1.09-6.11c0-.39-.06-.74-.08-1.07A40,40,0,0,0,52.59,52c.47-1.42.83-2.75,1.11-4,.17-.73.31-1.44.43-2.11.9-4.76,1.07-8.2,3.86-10.53a4.33,4.33,0,0,1,3.3-1.25c2,.31,3.06,2.74,3.2,3.11.73-2,2.17-3.26,3.71-3.34a4.32,4.32,0,0,1,3.11,1.54,10.63,10.63,0,0,1,2.76,6.56,34,34,0,0,0,.75,4.25c.17.72.37,1.49.61,2.31A76.74,76.74,0,0,0,79,58Z"/><path class="cls-14" d="M79,58c-.09.42-.17.85-.26,1.27a32.89,32.89,0,0,1-2.2-4.18,49.83,49.83,0,0,1-3-10c-.86-4-.88-5.42-2.29-7.46-.7-1-1.87-2.74-3.46-2.64-1.37.08-2.65,1.48-3.22,3.47-.11-.25-1.41-2.94-3.67-3.06a3.66,3.66,0,0,0-2.23.73c-2.86,2-3.07,6.71-3.49,9.67a33.2,33.2,0,0,1-5.15,13.23L50,58A40,40,0,0,0,52.59,52c.47-1.42.83-2.75,1.11-4,.17-.73.31-1.44.43-2.11.9-4.76,1.07-8.2,3.86-10.53a4.33,4.33,0,0,1,3.3-1.25c2,.31,3.06,2.74,3.2,3.11.73-2,2.17-3.26,3.71-3.34a4.32,4.32,0,0,1,3.11,1.54,10.63,10.63,0,0,1,2.76,6.56,34,34,0,0,0,.75,4.25c.17.72.37,1.49.61,2.31A76.74,76.74,0,0,0,79,58Z"/><path class="cls-15" d="M64,55.12l-1.73,6a.82.82,0,0,0,.15.74,2.72,2.72,0,0,0,2.23,1,2.75,2.75,0,0,0,2-1,.81.81,0,0,0,.16-.76c-.6-2-1.19-4-1.79-6a.55.55,0,0,0-.41-.52A.56.56,0,0,0,64,55.12Z"/><path class="cls-16" d="M61.25,47.37a.71.71,0,0,1-.84.31,6.16,6.16,0,0,0-3.92-.83A6.07,6.07,0,0,0,53.7,48c.17-.73.31-1.44.43-2.11a6.72,6.72,0,0,1,2.23-.66A6.86,6.86,0,0,1,61,46.41.72.72,0,0,1,61.25,47.37Z"/><path class="cls-16" d="M75.43,48.5a6.09,6.09,0,0,0-7.13-.62.71.71,0,0,1-.85-.3.72.72,0,0,1,.29-1,6.76,6.76,0,0,1,4.61-1.22,6.59,6.59,0,0,1,2.47.79C75,46.91,75.19,47.68,75.43,48.5Z"/><path class="cls-17" d="M52.83,52.65a4.13,4.13,0,0,1,4.8-2.56,4.08,4.08,0,0,1,2.87,3.59,4.7,4.7,0,0,0-2.9-2.62A4.63,4.63,0,0,0,52.83,52.65Z"/><path class="cls-17" d="M76.29,52.65a4.13,4.13,0,0,0-4.81-2.56,4.07,4.07,0,0,0-2.86,3.59,4.7,4.7,0,0,1,2.9-2.62A4.63,4.63,0,0,1,76.29,52.65Z"/><ellipse class="cls-18" cx="57" cy="54.35" rx="1.58" ry="2.32"/><path class="cls-7" d="M57.85,53.35a.32.32,0,1,1-.32-.32A.32.32,0,0,1,57.85,53.35Z"/><ellipse class="cls-18" cx="71.99" cy="54.35" rx="1.58" ry="2.32"/><path class="cls-7" d="M72.84,53.35a.33.33,0,1,1-.32-.32A.32.32,0,0,1,72.84,53.35Z"/><path class="cls-15" d="M58.7,64.56a7.78,7.78,0,0,0,6.15,3.15,7.54,7.54,0,0,0,5.56-3.11c-.07-.1-2.14,2.19-5.28,2.38C61.48,67.2,58.79,64.43,58.7,64.56Z"/></g></svg>