<svg id="Layer_1" data-name="Layer 1" xmlns="http://www.w3.org/2000/svg" viewBox="0 0 128 128"><defs><style>.cls-1{fill:#ebebeb;}.cls-2{fill:none;stroke:#aedcff;}.cls-3{fill:#ef7443;}.cls-4{fill:#c44d23;}.cls-5{fill:#9e3207;}.cls-6{fill:#391b1b;}.cls-7{fill:#0f0707;}.cls-8{fill:#ae5552;}.cls-9{fill:#753735;}.cls-10,.cls-13{fill:#7c2f2f;}.cls-10{opacity:0.6;}.cls-11{fill:#2c1515;}.cls-12{fill:#fff;}</style></defs><rect class="cls-1" x="4.57" y="4.57" width="120" height="120" rx="53"/><rect class="cls-2" x="0.5" y="0.5" width="127" height="127" rx="52.5"/><path class="cls-3" d="M47.46,94.54c-1.32,0-10.83.45-15.33,2.1a6.94,6.94,0,0,0-2.49,1.47c-.69.66-1.31,1.56-2.25,4.66A47.81,47.81,0,0,0,26.11,108c3,2.87,17.3,16,39.61,16.12a58.19,58.19,0,0,0,37.52-13.91c-.36-1.78-.84-4-1.41-6.67-.66-3-.91-3.91-1.65-4.86-1.3-1.65-3.32-2.05-5.25-2.39-3.26-.58-7.72-1.25-13.23-1.75Z"/><path class="cls-4" d="M37.33,116.65a53.81,53.81,0,0,0-2.29-9,54.26,54.26,0,0,0-2.78-6.54,36.14,36.14,0,0,1,2.88,5.29,36.82,36.82,0,0,1,2.91,10.63Z"/><path class="cls-4" d="M91.5,118.31A37.88,37.88,0,0,1,93.24,109a42,42,0,0,1,3.45-7.83h0c-1.2,2.81-2,5.77-3,8.64a24.28,24.28,0,0,0-1.29,8.13Z"/><path class="cls-5" d="M50.28,94l-2.82.52c4.18,2,14.22,6,25.93,3.17a35,35,0,0,0,8.31-3.17l-3-.52a43.19,43.19,0,0,1-5.83,1.56A45.83,45.83,0,0,1,50.28,94Z"/><path class="cls-6" d="M58.14,88.2a3.47,3.47,0,0,0-2.2-1.3c-1.36-.14-2,.89-4,1.3a8.29,8.29,0,0,1-2.9,0c-2.5-.28-3.24-1.06-5.5-1.44a12.89,12.89,0,0,0-3.82-.05,5.14,5.14,0,0,0,.13-3.95c-.42-.93-1.12-1.45-1.16-2.59a3.51,3.51,0,0,1,.45-1.74c.87-1.76,2.06-1.66,2.91-3.11a5.22,5.22,0,0,0,.49-3.49c-.28-1.46-1-1.53-1.62-3.49a7,7,0,0,1-.48-3c.05-.54.19-1.15,1.61-3.82.55-1,1-1.87,1.36-2.46a12.68,12.68,0,0,1-3.56-7.31,13.23,13.23,0,0,1,2.67-9c2.87-4.16,5-3.27,10.37-8.1,4.71-4.24,4.58-6.3,8.29-7.81,1.26-.51,5.34-2.2,8.53,0,2.51,1.73,3.64,5.29,2.86,9,.55-.82,2-2.79,4.27-3,3.68-.36,6.46,4.35,6.9,5.12,3.4,6-.83,10.12,2.71,14.39,1.48,1.78,3.86,3,4.37,6.15a7.4,7.4,0,0,1,0,2c-.49,4.39-4.4,5.09-4.61,8.06-.25,3.43,4.8,4.89,4.35,9a14.34,14.34,0,0,0-.32,3.17,11.31,11.31,0,0,0,.84,3.69A33,33,0,0,0,87,83.86a5.36,5.36,0,0,0-1.81.07c-1.61.56-1.61,2.27-3.34,3.24a4.68,4.68,0,0,1-2.08.53c-2.81.2-4-1.74-6.23-1.25a4,4,0,0,0-1.62.8Z"/><path class="cls-7" d="M49.09,55.41a24.48,24.48,0,0,1,1.19,3.29l.3-.84a15.84,15.84,0,0,0-1.42-3.25,10.23,10.23,0,0,0-1.69-2.38C47.39,52.28,48.24,53.51,49.09,55.41Z"/><path class="cls-7" d="M79.29,55.28a7,7,0,0,1,1.38-3.15c.36-.45.89-1,.94-.92a7.61,7.61,0,0,1-.77,1.29A10.88,10.88,0,0,0,79.5,56Z"/><path class="cls-7" d="M83.14,86a19.46,19.46,0,0,0-2-9.7A11.41,11.41,0,0,1,80,74a10.88,10.88,0,0,1,1.29-8.56,11.48,11.48,0,0,0-.94,7.62A13.58,13.58,0,0,0,81.63,76a22.28,22.28,0,0,1,2.21,9Z"/><path class="cls-7" d="M77.12,87.25a12.55,12.55,0,0,0,.8-4.1A16,16,0,0,0,77.36,79a10.52,10.52,0,0,1,.88,3.91,12.36,12.36,0,0,1-.61,4.52Z"/><path class="cls-7" d="M47,87.77c-.09-4.66,1-7.43,2.06-9.12a7.74,7.74,0,0,0,1.13-2.33,8.16,8.16,0,0,0-1.05-6.21,8.9,8.9,0,0,1,.69,5.27,8.34,8.34,0,0,1-1.31,2.94c-1.08,1.71-2.2,4.52-2.21,9.22Z"/><path class="cls-7" d="M52.81,88a5.51,5.51,0,0,1-.61-4c.23-.8.56-1,.87-2.07a6.27,6.27,0,0,0,.17-3.25,9.6,9.6,0,0,1-.46,3A16.33,16.33,0,0,1,52,83.37c-.39.92-.6,2.38.37,4.74Z"/><path class="cls-8" d="M58.36,77.93a52.23,52.23,0,0,1,.18,5.22,18.4,18.4,0,0,1-.4,5C57,91.73,52.58,93.37,50.28,94a42,42,0,0,0,20.1,2.14A40.34,40.34,0,0,0,78.73,94a8.68,8.68,0,0,1-5.83-2.81c-1.15-1.38-1.44-2.84-1.84-4.95a26.53,26.53,0,0,1-.23-8.33Z"/><path class="cls-9" d="M58.36,77.93a15.53,15.53,0,0,0,12.7,8.33l-.23-8.33Z"/><path class="cls-8" d="M79.5,56c-.07.25-.14.5-.2.75a73.85,73.85,0,0,0-2,9.69c-.53,3.91-.45,5.84-2,8a14,14,0,0,1-5.2,3.91c-1.9,1-3.53,1.86-5.69,1.75a11.28,11.28,0,0,1-3.89-1.23c-3.65-1.63-5.47-2.44-6.73-4.08s-1-2.9-1.76-7.67c-.29-1.93-.75-4.55-1.51-7.65-.06-.26-.12-.51-.19-.78A10.18,10.18,0,0,1,53,54.22c1.75-1.59,2.84-1.28,4.29-2.9,1.9-2.11,1.19-3.89,2.7-4.61s2.17.72,5,.58a6.1,6.1,0,0,0,4.34-1.61,5.43,5.43,0,0,0,1.35-3.79,28.79,28.79,0,0,1,5.19,6A28.43,28.43,0,0,1,79.5,56Z"/><path class="cls-10" d="M79.5,56c-.07.25-.14.5-.2.75-1.51-3-2.56-5.15-3.33-6.77a14.68,14.68,0,0,0-1.9-3.2,14.14,14.14,0,0,0-2.57-2.47,7.81,7.81,0,0,1-3.4,3.3A8.12,8.12,0,0,1,63,48.2c-1.35-.33-2-.93-2.72-.58S59.42,49,59,50.09c-.91,2.29-2.56,2.54-5.09,5a20.25,20.25,0,0,0-3.41,4.39c-.06-.26-.12-.51-.19-.78A10.18,10.18,0,0,1,53,54.22c1.75-1.59,2.84-1.28,4.29-2.9,1.9-2.11,1.19-3.89,2.7-4.61s2.17.72,5,.58a6.1,6.1,0,0,0,4.34-1.61,5.43,5.43,0,0,0,1.35-3.79,28.79,28.79,0,0,1,5.19,6A28.43,28.43,0,0,1,79.5,56Z"/><path class="cls-11" d="M67.16,53.63a.65.65,0,1,0,.76,1c1.29-1.11,3.26-2.43,5.5-2.2s4,2.11,4.12,1.94-1.33-2.35-3.67-3C70.65,50.57,67.65,53.19,67.16,53.63Z"/><path class="cls-11" d="M61.94,53.63a.65.65,0,1,1-.76,1c-1.29-1.11-3.26-2.43-5.5-2.2s-4,2.11-4.12,1.94,1.33-2.35,3.67-3C58.45,50.57,61.45,53.19,61.94,53.63Z"/><path class="cls-11" d="M53.92,59.71a3.86,3.86,0,0,1,7.72,0,4,4,0,0,0-7.72,0Z"/><path class="cls-11" d="M54.25,58.37A12.66,12.66,0,0,0,52,57.54a11.74,11.74,0,0,0,2.09,1.16Z"/><path class="cls-11" d="M67.64,59.71a3.86,3.86,0,0,1,7.72,0,4,4,0,0,0-7.72,0Z"/><path class="cls-11" d="M74.89,58.37a12.66,12.66,0,0,1,2.22-.83A12.28,12.28,0,0,1,75,58.7Z"/><ellipse class="cls-11" cx="58.36" cy="60.49" rx="1.24" ry="1.79"/><path class="cls-12" d="M59,59.74a.26.26,0,0,1-.52,0,.26.26,0,0,1,.52,0Z"/><ellipse class="cls-11" cx="70.69" cy="60.49" rx="1.24" ry="1.79"/><path class="cls-12" d="M71.35,59.74a.26.26,0,0,1-.52,0,.26.26,0,0,1,.52,0Z"/><path class="cls-13" d="M64.27,63.19Q63,65.56,61.79,67.92a.26.26,0,0,0,.08.34,4.87,4.87,0,0,0,2.85.79,4.75,4.75,0,0,0,2.39-.78.25.25,0,0,0,.09-.33l-2.47-4.75A.26.26,0,0,0,64.27,63.19Z"/><path class="cls-13" d="M68.05,70a5.26,5.26,0,0,0,1.6-1.65.41.41,0,1,1,.57.55,6,6,0,0,1-2.11,1.88c-3.32,1.72-7.28-.62-7.25-.75S65.07,72,68.05,70Z"/></svg>