<svg id="Layer_1" data-name="Layer 1" xmlns="http://www.w3.org/2000/svg" viewBox="0 0 128 128"><defs><style>.cls-1{fill:#ebebeb;}.cls-2{fill:none;stroke:#aedcff;}.cls-3,.cls-6{fill:#513232;}.cls-4{fill:#110808;}.cls-5{fill:#704a4a;}.cls-6{opacity:0.7;}.cls-7{fill:#3a2222;}.cls-8{fill:#ea9466;}.cls-9{fill:#b96d52;}.cls-10,.cls-11{fill:#b76456;}.cls-10{opacity:0.64;}.cls-12{fill:#3f1f1c;}.cls-13{fill:#1e0f0f;}.cls-14{fill:#fff;}</style></defs><rect class="cls-1" x="4.57" y="4.57" width="120" height="120" rx="53"/><rect class="cls-2" x="0.5" y="0.5" width="127" height="127" rx="52.5"/><path class="cls-3" d="M50.55,86.67a87.13,87.13,0,0,1-12.27,5.27c-4.62,1.56-7.61,2.12-10,5a23,23,0,0,0-2.89,4.91,42.83,42.83,0,0,0-2.46,6.14,63.94,63.94,0,0,0,35.4,15c25.53,2.39,43.4-11.53,46.67-14.18a52.65,52.65,0,0,0-2.6-6.82,16.57,16.57,0,0,0-2.31-4.09,14,14,0,0,0-6.21-4c-4.16-1.55-9.51-3.9-16.62-7.22Z"/><path class="cls-4" d="M35.86,116.5a58.53,58.53,0,0,0-1.45-10.06,57,57,0,0,0-1.74-5.93,46.16,46.16,0,0,1,2.68,7.29,46.3,46.3,0,0,1,1.54,9.2Z"/><path class="cls-4" d="M92.48,116.5a58.53,58.53,0,0,1,1.45-10.06,59.61,59.61,0,0,1,1.73-5.93A47.22,47.22,0,0,0,93,107.8a46.3,46.3,0,0,0-1.54,9.2Z"/><path class="cls-5" d="M55.67,75.44a4.4,4.4,0,0,0-3.2.85c-.21.19-.84.8-1.24,3.4A21.62,21.62,0,0,0,51,83.11a18,18,0,0,1-1.19,6A26.5,26.5,0,0,0,54.13,91C64.29,94.4,74,90.94,78.2,89.15a17.66,17.66,0,0,1-1.71-6.92c-.07-2.31.39-3.9-.69-5.19a5.4,5.4,0,0,0-3.9-1.5Z"/><path class="cls-6" d="M53.16,78.79A23.52,23.52,0,0,0,67.59,81a22,22,0,0,0,6.94-2.49,39.23,39.23,0,0,0-5.84-1.05A42.32,42.32,0,0,0,53.16,78.79Z"/><path class="cls-3" d="M53.16,78.79A23.56,23.56,0,0,0,67.79,81a21.91,21.91,0,0,0,6.74-2.45,26.68,26.68,0,0,1-7.21,2A28.14,28.14,0,0,1,53.16,78.79Z"/><path class="cls-3" d="M53.26,76.26,51,72.88v2.77l-3.21-1.4,2.71,6.86-5.71-2.57L42.43,69.2l-.15,8.06-3-1.05a44.71,44.71,0,0,1-2.67-19,43.65,43.65,0,0,1,1.8-9.44,6.58,6.58,0,0,1-1.8-2.63C34.22,38.47,45.26,29.4,52,25.28c2.75-1.69,16.77-9.92,23.19-5.08a7,7,0,0,1,2.1,2.62c3.66.72,6.27,2.86,6.54,5.26a4.21,4.21,0,0,1-.47,2.38c1.05.79,6.61,5.13,6.23,11.1a9.58,9.58,0,0,1-.6,2.75,58.69,58.69,0,0,1,0,31.34L85,78.31c-.14-3-.27-6.07-.4-9.11l-1.88,9.34-4.41,1.85c.33-1.73.65-3.45,1-5.18L76.56,76c.26-1.09.51-2.18.76-3.27l-2.79,3.53Z"/><path class="cls-7" d="M81.22,52.06a64.46,64.46,0,0,1,.07,12,63.54,63.54,0,0,1-2,11.19L76.56,76l.76-3.27-2.79,3.53-21.27.05L51,72.88v2.77l-3.21-1.4a50.66,50.66,0,0,1-1-6.49,49.42,49.42,0,0,1-.17-6.54c.39-1,.79-2,1.19-3.07Z"/><path class="cls-7" d="M54.65,32A36.12,36.12,0,0,0,49,40.74a35.21,35.21,0,0,0-3.17,15.78,56,56,0,0,1,3.5-14.12A58.17,58.17,0,0,1,54.65,32Z"/><path class="cls-7" d="M77.25,22.82a19,19,0,0,1,1.37,2.53,17.89,17.89,0,0,1,1.3,4.23,16.86,16.86,0,0,0-.7-3.93,17.64,17.64,0,0,0-1-2.6Z"/><path class="cls-7" d="M55.81,44.15l6.11-5.79,5-4.76c-1.4,1.75-3,3.58-4.77,5.46s-3.39,3.42-5,4.88Z"/><path class="cls-8" d="M71.79,72.88l-.05,6.65a20.86,20.86,0,0,1-15.93,0V73.08Z"/><path class="cls-9" d="M55.81,73.08a24.33,24.33,0,0,0,6.5,4.25,25.58,25.58,0,0,0,9.43,2.2q0-3.32.05-6.65Z"/><path class="cls-8" d="M81.11,55.39C80.6,58.88,80,61.79,79.49,64c-.93,4-1.47,5.22-2.6,6.35-.83.81-2.26,1.41-5.1,2.55-4.23,1.72-6.35,2.58-8.12,2.56-1.41,0-3.18-.66-6.72-1.94s-5.54-2-6.39-3.07-.9-2.06-1.74-6.75c-.33-1.91-.66-3.51-.9-4.69q-.11-.47-.18-.84a35.17,35.17,0,0,1,3.8-8.43h0l.15-.25.23-.36a35.72,35.72,0,0,1,2.72-3.65c.34-.41.68-.79,1-1.15l.15-.16a35.08,35.08,0,0,0,12.63-4.31,32.93,32.93,0,0,0,7.2-5.63,34.12,34.12,0,0,1,3.63,7.27,33.66,33.66,0,0,1,1.84,13.91Z"/><path class="cls-10" d="M81.2,51.8v1.85A49.8,49.8,0,0,0,75.75,35.8a29.29,29.29,0,0,1-15.17,8.39,27.81,27.81,0,0,1-3.87.46,45.23,45.23,0,0,0-3.58,4.4A41.89,41.89,0,0,0,47.92,59q-.11-.47-.18-.84a35.16,35.16,0,0,1,4.19-9,36.19,36.19,0,0,1,3.88-5,35.08,35.08,0,0,0,12.63-4.31,32.93,32.93,0,0,0,7.2-5.63,34.12,34.12,0,0,1,3.63,7.27A33.23,33.23,0,0,1,81.2,51.8Z"/><path class="cls-11" d="M63.35,54l-2.48,8.5a.58.58,0,0,0,.13.57,3.92,3.92,0,0,0,5.77,0,.59.59,0,0,0,.12-.59C66,59.63,65,56.8,64.09,54A.37.37,0,0,0,63.35,54Z"/><path class="cls-12" d="M68.87,47.58a.93.93,0,0,1-1,.13c-.27-.2-.3-.81.2-1.29s3-2.78,6.12-2.18c2.5.48,4.1,2.66,4,2.83s-1.74-1.53-4.07-1.68A7.54,7.54,0,0,0,68.87,47.58Z"/><path class="cls-12" d="M68.81,51.09a4.76,4.76,0,0,1,4.57-2.69A4.35,4.35,0,0,1,76,49.72l-.13.15A5.29,5.29,0,0,0,73.31,49,5.83,5.83,0,0,0,68.81,51.09Z"/><path class="cls-12" d="M75.64,49.64l1.61-1.28-1.37,1.51Z"/><ellipse class="cls-13" cx="71.74" cy="52.7" rx="1.43" ry="1.91"/><path class="cls-14" d="M72.41,51.81a.26.26,0,0,1-.27.25.26.26,0,0,1-.26-.25.27.27,0,0,1,.53,0Z"/><path class="cls-12" d="M59.63,47.71a.91.91,0,0,1-1-.13,8.46,8.46,0,0,0-4-2.12c.34-.41.68-.79,1-1.15a8.87,8.87,0,0,1,3.78,2.11C59.94,46.9,59.9,47.51,59.63,47.71Z"/><path class="cls-12" d="M58.73,51.09A5.78,5.78,0,0,0,54.24,49a5.29,5.29,0,0,0-2.57.86l-.13-.15h0a1.37,1.37,0,0,1,.21-.2,4.23,4.23,0,0,1,2.41-1.12A4.77,4.77,0,0,1,58.73,51.09Z"/><path class="cls-12" d="M51.91,49.64l-.24.23-.13-.15h0l.15-.25.06.05Z"/><ellipse class="cls-13" cx="55.81" cy="52.7" rx="1.43" ry="1.91"/><path class="cls-14" d="M55.14,51.81a.26.26,0,0,0,.27.25.26.26,0,0,0,.26-.25.27.27,0,0,0-.53,0Z"/><path class="cls-11" d="M67.44,66.13A5.86,5.86,0,0,0,70,63.73a15.3,15.3,0,0,1-2.63,1.87c-3.77,1.79-8.25-.5-8.29-.39S63.83,68,67.44,66.13Z"/></svg>