<svg id="Layer_1" data-name="Layer 1" xmlns="http://www.w3.org/2000/svg" viewBox="0 0 128 128"><defs><style>.cls-1{fill:#ebebeb;}.cls-2{fill:none;stroke:#aedcff;}.cls-3{fill:#ef7443;}.cls-4,.cls-7,.cls-8{fill:#c44d23;}.cls-4{opacity:0.69;}.cls-5{fill:#9e3207;}.cls-6{fill:#af411e;}.cls-7{opacity:0.65;}.cls-9{fill:#391b1b;}.cls-10{fill:#ae5552;}.cls-11{fill:#753735;}.cls-12{fill:#2c1515;}.cls-13{fill:#fff;}.cls-14,.cls-15,.cls-16{fill:#7c2f2f;}.cls-14{opacity:0.47;}.cls-16{opacity:0.6;}</style></defs><rect class="cls-1" x="4.57" y="4.57" width="120" height="120" rx="53"/><rect class="cls-2" x="0.5" y="0.5" width="127" height="127" rx="52.5"/><path class="cls-3" d="M88.6,92.93a26.22,26.22,0,0,1,15.63,16.65c-3,2.71-19.35,17-43.53,15.37A59.55,59.55,0,0,1,25,109.58,22.48,22.48,0,0,1,40.23,92.73Z"/><path class="cls-4" d="M39.41,93a15.09,15.09,0,0,0,4.26,3.79C47.51,99.05,51.6,99,53.85,99s2.37-.36,4.38-.22c3.64.25,4,1.37,6.67,1.28,2.46-.08,2.7-1.08,6.18-1.6a21.47,21.47,0,0,1,4.8-.13c2.75.14,7.15-.63,14.31-4.72l-1.59-.68Z"/><path class="cls-5" d="M54.61,97.7q-.51,10.13-1,20.26l1.2.2q.51-10.27,1-20.57Z"/><path class="cls-5" d="M74.79,97.3l1,20.26-1.2.2q-.5-10.28-1-20.57Z"/><path class="cls-3" d="M54,74.09A13.29,13.29,0,0,0,42.64,84.42c-4,1.44-4.49,3.26-4.6,3.8-.68,3.45,5.29,7.42,9.89,8.88a19.12,19.12,0,0,0,10.37.23,16.55,16.55,0,0,0,12.77,0,25.19,25.19,0,0,0,11-1.23c1.26-.44,9.46-3.33,9.18-7.09-.17-2.24-3.29-3.79-4.89-4.45a16.83,16.83,0,0,0-11.1-10.14Z"/><path class="cls-6" d="M74.78,88.91l4.16-3.31a27,27,0,0,0-2.07-3.37s.37.78.93,2.19c.18.45.32.84.42,1.12l-3.44,2.68Z"/><path class="cls-6" d="M54.61,89.21l-4-3.35a29.15,29.15,0,0,1,2.06-3.37s-.36.78-.92,2.2c-.18.45-.32.84-.43,1.12l3.52,2.59Z"/><path class="cls-7" d="M52.65,82.49a34.13,34.13,0,0,1,24.22-.26l1.35,3.31-3.94,2.81-19.46.05L51.3,85.81Z"/><path class="cls-8" d="M42.64,84.42A20.7,20.7,0,0,0,47,90.15,22.16,22.16,0,0,0,56.15,95a18.36,18.36,0,0,1-10.19-5A19,19,0,0,1,42,84.66Z"/><path class="cls-8" d="M86.32,84.56A20.62,20.62,0,0,1,82,90.28a22.46,22.46,0,0,1-9.15,4.86,18.49,18.49,0,0,0,10.18-5,18.88,18.88,0,0,0,3.94-5.39Z"/><path class="cls-5" d="M55.59,117.78a1.35,1.35,0,1,1-1.34-1.35A1.34,1.34,0,0,1,55.59,117.78Z"/><path class="cls-5" d="M76.56,117.78a1.35,1.35,0,1,1-1.35-1.35A1.35,1.35,0,0,1,76.56,117.78Z"/><path class="cls-8" d="M35.19,117.06a33.84,33.84,0,0,0-2.1-7.78,33.61,33.61,0,0,0-2.47-4.89,25.28,25.28,0,0,1,3.4,5.52,25.87,25.87,0,0,1,2.09,7.67Z"/><path class="cls-8" d="M93.85,117.06a34.36,34.36,0,0,1,2.1-7.78,33.61,33.61,0,0,1,2.47-4.89,25.21,25.21,0,0,0-5.48,13.19Z"/><path class="cls-9" d="M48.39,56.54a6.89,6.89,0,0,0-1.23-4.45c-1.45-1.91-3.49-2-4-3.5-.23-.75-.14-2,1.6-4-.1-.06-2.12-1.2-2.15-3s2-3.82,4.92-3.69a4.39,4.39,0,0,1-1.63-4c.48-2,3.37-3.7,6.59-2.69a3.66,3.66,0,0,1,.2-4.29c1.23-1.21,4-1,5.58,1.19a3.51,3.51,0,0,1,.61-2.89c1.17-1.22,4-1.11,6.39,1.1,1.66-1.83,4-2.07,5.09-1.1a3.08,3.08,0,0,1,.83,2.39,3.79,3.79,0,0,1,5.16-.4,3.72,3.72,0,0,1,.83,4.16c3-.53,5.62,1,6.25,3.13a4.79,4.79,0,0,1-.8,3.86,4,4,0,0,1,3.7,3.5,3.63,3.63,0,0,1-1.2,2.62c.59,1,1.25,2.53.7,3.8-.63,1.44-2.32,1.39-3.46,2.79-.72.88-1.35,2.5-.6,5.73L63,61.3Z"/><path class="cls-10" d="M55.79,77a36.94,36.94,0,0,1-.08,6.17,36,36,0,0,1-1.1,6.09L64.76,94.9l10-6a55.34,55.34,0,0,1-.57-12.62Z"/><path class="cls-11" d="M55.79,77c.53.78,1.32,1.93,2.3,3.32s1.19,1.69,1.42,2a12.43,12.43,0,0,0,4.19,3c4.67,2,10.08-.25,10.58-.47-.07-3.28-.13-6.56-.2-9.84Z"/><path class="cls-10" d="M78.94,57q-.7,7.11-1.4,14.24a2.22,2.22,0,0,1-.44,1.13L71.48,80a1.93,1.93,0,0,1-1.1.73,23.9,23.9,0,0,1-6.95.69,24.23,24.23,0,0,1-4.57-.67,1.94,1.94,0,0,1-1.17-.83l-5.47-8.55a2.22,2.22,0,0,1-.35-1Q51.22,63.67,50.59,57c.15-.42.3-.86.44-1.33a32,32,0,0,0,1.24-5.73,32.69,32.69,0,0,0,.18-6.36,86.44,86.44,0,0,0,12.91.87,86.66,86.66,0,0,0,11.45-.87A30.56,30.56,0,0,0,78.6,56.09C78.71,56.4,78.82,56.7,78.94,57Z"/><ellipse class="cls-12" cx="59.33" cy="60.52" rx="1.23" ry="1.65"/><path class="cls-13" d="M59.84,59.79a.22.22,0,0,1-.22.22.21.21,0,0,1-.21-.22.21.21,0,0,1,.21-.21A.22.22,0,0,1,59.84,59.79Z"/><path class="cls-10" d="M50.77,56.15a3.88,3.88,0,0,0-3-.89c-2,.43-2.9,3.13-3,4.61-.23,3.14,2.6,6.45,7.08,8.31Z"/><path class="cls-14" d="M47.56,58.36a1.12,1.12,0,0,1,.83-.24c1.6.3,1.77,5.72,1.79,6.62-.32-.21-2.56-1.69-3.12-3.6A3,3,0,0,1,47,59.33,2.91,2.91,0,0,1,47.56,58.36Z"/><path class="cls-15" d="M48.54,57.87c1.08.09,1.64,2.64,1.73,3.07a7,7,0,0,1-.09,3.8c-.11,0,0-1.44-.51-3.69s-1-2.66-1.42-2.75-.66.13-.69.06A1.18,1.18,0,0,1,48.54,57.87Z"/><path class="cls-15" d="M48.42,60.93a2.27,2.27,0,0,0,0,2.2c.09,0-.28-1.24.4-1.94.39-.4,1-.54,1-.88a.28.28,0,0,0-.1-.2C49.47,60,48.77,60.41,48.42,60.93Z"/><path class="cls-10" d="M78.63,56.15a3.89,3.89,0,0,1,3-.89c2,.43,2.9,3.13,3,4.61.22,3.14-2.61,6.45-7.08,8.31Z"/><path class="cls-14" d="M81.84,58.36a1.1,1.1,0,0,0-.82-.24c-1.61.3-1.77,5.72-1.79,6.62.31-.21,2.55-1.69,3.11-3.6a2.86,2.86,0,0,0,.07-1.81A2.61,2.61,0,0,0,81.84,58.36Z"/><path class="cls-15" d="M80.86,57.87c-1.08.09-1.63,2.64-1.72,3.07a7,7,0,0,0,.09,3.8c.1,0,0-1.44.5-3.69s1-2.66,1.42-2.75.67.13.69.06A1.16,1.16,0,0,0,80.86,57.87Z"/><path class="cls-15" d="M81,60.93a2.24,2.24,0,0,1,0,2.2c-.09,0,.29-1.24-.39-1.94-.39-.4-1-.54-1-.88a.3.3,0,0,1,.09-.2C79.94,60,80.63,60.41,81,60.93Z"/><path class="cls-12" d="M54.32,54.14a1.09,1.09,0,0,0-.1,1.53,1,1,0,0,0,1,.17,4.78,4.78,0,0,1,2.7-1.26,4.7,4.7,0,0,1,3,.63.83.83,0,0,0,.9,0,.91.91,0,0,0-.1-1.32,5,5,0,0,0-2.79-1.47A5.49,5.49,0,0,0,54.32,54.14Z"/><path class="cls-12" d="M74.9,54.14a1.1,1.1,0,0,1,.1,1.53,1,1,0,0,1-1,.17,4.76,4.76,0,0,0-5.69-.63.83.83,0,0,1-.9,0,.92.92,0,0,1,.11-1.32,4.94,4.94,0,0,1,2.79-1.47A5.51,5.51,0,0,1,74.9,54.14Z"/><path class="cls-12" d="M61.43,58.12c.07-.19-.89-.92-2.07-1.1a3.72,3.72,0,0,0-2.62.55,3.94,3.94,0,0,0-1.58,3.19,5.44,5.44,0,0,1,3.3-2.89C60,57.56,61.34,58.33,61.43,58.12Z"/><path class="cls-12" d="M67.94,58.12c-.07-.19.89-.92,2.07-1.1a3.75,3.75,0,0,1,2.63.55,4,4,0,0,1,1.57,3.19,5.41,5.41,0,0,0-3.3-2.89C69.42,57.56,68,58.33,67.94,58.12Z"/><ellipse class="cls-12" cx="69.99" cy="60.52" rx="1.23" ry="1.65"/><path class="cls-13" d="M70.65,59.79a.22.22,0,1,1-.21-.21A.22.22,0,0,1,70.65,59.79Z"/><path class="cls-15" d="M63,65.22a.35.35,0,0,1,.14,0,11.38,11.38,0,0,1,1.72-.1,12.28,12.28,0,0,1,1.59.12.59.59,0,0,1,.28.1,3.12,3.12,0,0,1,1,1,3.21,3.21,0,0,1,.38,1,.68.68,0,0,1-.39.77,7.33,7.33,0,0,1-6,0,.69.69,0,0,1-.4-.7,2.59,2.59,0,0,1,.49-1.23A2.53,2.53,0,0,1,63,65.22Z"/><path class="cls-15" d="M71.38,67.64a.6.6,0,0,1,1,.59,9.72,9.72,0,0,1-3.3,2.67,10.53,10.53,0,0,1-9-.12c0-.18,5.38,1.66,9.27-1.1A7.82,7.82,0,0,0,71.38,67.64Z"/><path class="cls-15" d="M63,73.59a9.36,9.36,0,0,0,2.62.35,9.55,9.55,0,0,0,2.88-.47.34.34,0,0,1,.3.18.35.35,0,0,1-.29.42,7,7,0,0,1-2.87.32A6.93,6.93,0,0,1,63,73.59Z"/><path class="cls-16" d="M78.6,56.09a17.75,17.75,0,0,1-2.68-7.48,17,17,0,0,1,0-3.92,63.15,63.15,0,0,1-14,1,61.45,61.45,0,0,1-8.32-.9,23.75,23.75,0,0,1-.21,3.45A23.52,23.52,0,0,1,51,55.65a32,32,0,0,0,1.24-5.73,32.69,32.69,0,0,0,.18-6.36,86.44,86.44,0,0,0,12.91.87,86.66,86.66,0,0,0,11.45-.87A30.56,30.56,0,0,0,78.6,56.09Z"/></svg>