<svg width="128" height="129" viewBox="0 0 128 129" fill="none" xmlns="http://www.w3.org/2000/svg">
<rect x="4.57129" y="5.25098" width="120" height="120" rx="53" fill="#EBEBEB"/>
<rect x="0.5" y="1.17969" width="127" height="127" rx="52.5" stroke="#AEDCFF"/>
<path d="M80.5595 90.5422C75.7328 79.4847 76.6239 62.7871 76.6239 62.416L61.4753 78.5199L46.3268 62.416C46.3268 62.7871 47.2179 79.7815 42.2427 90.9132C54.1239 96.0338 68.6783 95.8854 80.5595 90.5422Z" fill="#B66D46"/>
<path d="M103.208 110.06C92.6634 119.188 79 124.679 64 124.679C48.0346 124.679 33.5544 118.446 22.7871 108.279C28.5049 105.087 35.1881 101.08 39.7178 95.1431C40.6831 93.8815 41.4257 92.4715 42.1683 90.913C54.198 96.0336 68.7525 95.8852 80.5594 90.542C81.302 92.1746 82.1188 93.7331 83.1584 95.0689C88.5049 102.193 97.0445 106.497 103.208 110.06Z" fill="#F1CE76"/>
<path d="M34.0742 51.2844C31.8464 50.0228 30.4355 47.3512 30.4355 44.6796C30.4355 42.0079 31.6979 39.4106 33.6286 37.7037C32.2177 35.4773 31.6979 32.8799 32.3662 30.3568C33.1088 27.8336 35.5593 25.7556 38.0098 26.1267C37.3415 23.1582 38.8266 19.8187 41.2029 18.1861C43.5791 16.5534 46.9207 16.7018 49.1484 18.5571C50.188 16.6276 52.1187 14.995 54.1979 14.7723C56.2771 14.6239 58.4306 15.6629 59.693 17.444C61.4752 14.7723 64.5197 13.3623 67.5643 13.7334C70.0148 14.0302 72.5395 15.2918 73.5049 17.6666C75.0643 17.1471 76.8464 16.5534 78.4058 17.0729C80.0395 17.5924 81.3019 19.0024 82.2672 20.4866C83.2326 21.9709 84.0494 23.6777 83.8266 25.4588C85.0148 25.3846 86.2771 25.1619 87.3167 25.6814C87.9108 25.9783 88.4306 26.4235 88.9504 26.943C90.1385 28.353 90.8811 30.2083 90.9553 32.1378C91.0296 34.0673 90.4355 35.9968 89.2474 37.4068C90.1385 37.9263 90.0643 39.1137 90.5098 40.0785C91.7722 42.8243 91.8464 46.0896 90.8068 48.9838C89.7672 51.8039 87.6138 54.1786 84.9405 55.2918L34.0742 51.2844Z" fill="#382D21"/>
<path d="M82.936 52.6945C83.4558 50.8392 84.9409 49.2808 86.7974 48.8355C87.6142 48.6129 88.5796 48.6129 89.3221 48.984C90.139 49.355 90.6588 50.1713 90.9558 50.9877C91.6984 52.8429 91.4013 55.0693 90.5102 56.8504C89.5449 58.6315 87.9855 60.0415 86.2033 61.0804C84.6439 61.971 82.7875 62.5647 81.1538 61.8968L82.936 52.6945Z" fill="#B66D46"/>
<path d="M82.7131 53.9561C83.0844 52.5461 84.2725 51.3587 85.6834 50.9876C86.3517 50.8392 87.02 50.8392 87.6141 51.1361C88.2082 51.4329 88.6537 52.0266 88.8765 52.6203C89.4705 54.0303 89.2478 55.7372 88.5052 57.1472C87.7626 58.483 86.5745 59.5962 85.2379 60.3383C84.0497 61.0062 82.6388 61.4514 81.3765 61.0062L82.7131 53.9561Z" fill="#B66D46"/>
<path d="M39.8665 52.6945C39.3467 50.8392 37.8615 49.2808 36.0051 48.8355C35.1882 48.6129 34.2229 48.6129 33.4803 48.984C32.6635 49.355 32.1437 50.1713 31.8467 50.9877C31.1041 52.8429 31.4011 55.0693 32.2922 56.8504C33.2575 58.6315 34.8169 60.0415 36.5991 61.0804C38.1585 61.971 40.015 62.5647 41.6486 61.8968L39.8665 52.6945Z" fill="#B66D46"/>
<path d="M40.0893 53.9561C39.718 52.5461 38.5299 51.3587 37.119 50.9876C36.4506 50.8392 35.7823 50.8392 35.1883 51.1361C34.5942 51.4329 34.1487 52.0266 33.9259 52.6203C33.3318 54.0303 33.5546 55.7372 34.2972 57.1472C35.0398 58.483 36.2279 59.5962 37.5645 60.3383C38.7526 61.0062 40.1635 61.4514 41.4259 61.0062L40.0893 53.9561Z" fill="#B66D46"/>
<path d="M41.2773 50.3198C42.0941 47.9451 42.1684 45.3477 42.2427 42.8245C44.4704 43.4924 46.7724 43.344 48.8516 42.0824C50.9308 40.895 52.6387 38.8171 53.5298 36.2939C55.5347 38.0007 57.911 38.6686 60.4357 38.5202C62.9605 38.3718 65.3367 37.1102 67.1932 35.1065C68.6783 37.3328 70.4605 38.8171 72.8367 39.6334C75.213 40.3755 77.7377 40.3013 80.0397 39.3365C79.8912 44.5314 81.3021 49.8004 84.1238 53.882C84.1238 53.6594 84.1981 53.4367 84.1981 53.2141C84.4209 51.5814 84.5694 50.023 84.5694 48.613C84.5694 35.9228 74.2476 25.6074 61.5496 25.6074C48.8516 25.6074 38.5298 35.9228 38.5298 48.613C38.5298 49.9488 38.604 51.3588 38.8268 52.843C38.9011 53.2883 38.9753 53.8078 39.0496 54.3273C40.0149 53.2141 40.7575 51.8041 41.2773 50.3198Z" fill="#382D21"/>
<path d="M79.891 39.3365C77.589 40.3013 75.0643 40.4497 72.688 39.6334C70.3118 38.8912 68.5296 37.3328 67.0445 35.1064C65.2623 37.1102 62.8118 38.2975 60.2871 38.5202C57.7623 38.6686 55.3861 38.0007 53.3811 36.2938C52.49 38.7428 50.7821 40.8949 48.7029 42.0823C46.6237 43.2697 44.396 43.4923 42.094 42.8244C42.094 45.3476 41.9455 47.945 41.1286 50.3198C40.6088 51.804 39.8663 53.214 38.8267 54.3272C41.1286 67.4627 50.2623 85.496 61.2524 85.496C72.391 85.496 81.5989 67.0174 83.7524 53.882C81.1534 49.8003 79.7425 44.5313 79.891 39.3365Z" fill="#B66D46"/>
<path d="M45.1387 71.8408C47.2921 74.9577 49.5941 77.8519 52.2674 80.2267C53.604 81.4141 55.0892 82.453 56.6486 83.1952C57.4654 83.5662 58.208 83.8631 59.0248 84.0857C59.8416 84.3083 60.6585 84.3825 61.4753 84.3825C63.109 84.3825 64.8169 83.8631 66.302 83.1209C67.8614 82.3788 69.2723 81.2657 70.609 80.0783C73.2822 77.6293 75.5842 74.735 77.6634 71.6182C77.0694 73.3992 76.1783 75.1061 75.2129 76.7388C74.2476 78.3714 73.1337 79.9299 71.7971 81.3399C71.1288 82.082 70.4604 82.7499 69.7179 83.3436C68.9753 83.9373 68.1585 84.531 67.2674 85.0505C65.5595 86.0152 63.4803 86.6831 61.4753 86.6831C60.4357 86.6831 59.3961 86.5347 58.4307 86.312C57.4654 86.0152 56.5001 85.6441 55.609 85.1989C53.8268 84.2341 52.3416 82.9725 51.005 81.5625C48.406 78.6683 46.401 75.3287 45.1387 71.8408Z" fill="#382D21"/>
<path d="M55.8315 48.3899C55.8315 49.6515 54.7919 50.6905 53.5295 50.6905C52.2671 50.6905 51.2275 49.6515 51.2275 48.3899C51.2275 47.1283 52.2671 46.0894 53.5295 46.0894C54.8662 46.1636 55.8315 47.1283 55.8315 48.3899Z" fill="#382D21"/>
<path d="M72.7622 48.3899C72.7622 49.6515 71.7226 50.6905 70.4602 50.6905C69.1978 50.6905 68.1582 49.6515 68.1582 48.3899C68.1582 47.1283 69.1978 46.0894 70.4602 46.0894C71.7968 46.1636 72.7622 47.1283 72.7622 48.3899Z" fill="#382D21"/>
<path d="M54.7921 59.7443C54.7921 61.5254 52.6387 62.9354 49.9654 62.9354C47.2921 62.9354 45.1387 61.5254 45.1387 59.7443C45.1387 57.9633 47.2921 56.5532 49.9654 56.5532C52.5644 56.5532 54.7921 58.0375 54.7921 59.7443Z" fill="#F0B9B6"/>
<path d="M78.2575 59.7443C78.2575 61.5254 76.104 62.9354 73.4307 62.9354C70.7575 62.9354 68.604 61.5254 68.604 59.7443C68.604 57.9633 70.7575 56.5532 73.4307 56.5532C76.104 56.5532 78.2575 58.0375 78.2575 59.7443Z" fill="#F0B9B6"/>
<path d="M60.9556 45.5703C62.218 47.0545 63.3319 48.6872 64.2972 50.3941C65.2626 52.1009 66.1537 53.8078 66.9705 55.6631L67.4903 56.9989C67.6388 57.4442 67.9358 57.9636 67.9358 58.7058C67.9358 59.0768 67.7873 59.4479 67.6388 59.6705C67.4903 59.9673 67.2675 60.19 67.119 60.4126C66.7477 60.7837 66.4507 61.1547 66.0051 61.4516C64.52 62.7874 62.6636 63.8264 60.8071 64.2716C62.4408 63.2327 63.9259 62.0453 65.1883 60.6352C65.7824 59.9673 66.5249 59.151 66.4507 58.6315C66.4507 58.3347 66.3022 57.9636 66.0794 57.5184L65.4853 56.1826C64.7428 54.4015 63.9259 52.6204 63.1834 50.9136C62.4408 49.2067 61.6982 47.4256 60.9556 45.5703Z" fill="#382D21"/>
<path d="M59.9902 62.8611C59.6189 62.9353 59.2476 62.9353 59.0248 62.8611C58.7278 62.7869 58.505 62.7127 58.2822 62.5643C58.0595 62.4159 57.8367 62.1932 57.6882 61.9706C57.5397 61.748 57.3912 61.4511 57.3169 61.0058C57.6882 60.8574 57.9852 60.9316 58.2822 60.9316C58.5793 61.0059 58.802 61.0801 59.0248 61.2285C59.2476 61.3769 59.4704 61.5995 59.6189 61.8222C59.8416 62.1932 59.9902 62.4159 59.9902 62.8611Z" fill="#382D21"/>
<path d="M55.6831 67.3139C56.9455 67.9818 58.0593 68.7239 59.2475 69.2434C60.4356 69.8371 61.6237 70.1339 62.8118 70.1339C63.4059 70.1339 63.9999 69.9855 64.5197 69.8371C65.0395 69.6144 65.5593 69.2434 66.1534 68.8723C67.193 68.056 68.3069 67.2397 69.3465 66.2749C68.7524 67.5365 67.7871 68.5755 66.896 69.6886C66.4504 70.2081 65.8564 70.7276 65.1138 71.0986C64.4455 71.4697 63.6287 71.6181 62.8861 71.6924C61.3267 71.7666 59.8415 71.1729 58.6534 70.3565C57.4653 69.466 56.4999 68.427 55.6831 67.3139Z" fill="#382D21"/>
<g opacity="0.6">
<g opacity="0.6">
<path opacity="0.6" d="M36.2277 44.7538C35.7079 43.1954 35.8564 41.3401 36.7475 39.7816C37.6386 38.2974 39.198 37.1842 40.9059 36.8132L40.6089 37.1842C40.6089 36.6648 40.7574 36.0711 40.9802 35.6258C41.2029 35.1805 41.5742 34.7353 42.0198 34.4384C42.8366 33.7705 43.9505 33.5479 44.9158 33.6963C43.9505 33.7705 42.9851 34.1416 42.3168 34.8095C41.6485 35.4774 41.2772 36.2937 41.2772 37.2584V37.5553L40.9802 37.6295C39.495 38.0006 38.1584 38.9653 37.2673 40.3011C36.4505 41.4885 36.0792 43.1211 36.2277 44.7538Z" fill="#B66D46"/>
</g>
<g opacity="0.6">
<path opacity="0.6" d="M42.5396 25.5329C44.0247 24.3456 46.1782 24.0487 47.9603 24.7908C49.8168 25.5329 51.1534 27.314 51.3762 29.2435L50.9306 28.9467C51.4504 28.7983 51.9702 28.6498 52.5643 28.6498C53.1584 28.6498 53.6782 28.7982 54.198 29.0209C55.2376 29.4661 56.0544 30.3567 56.2029 31.3956C55.8316 30.4309 55.0148 29.6888 54.0495 29.4662C53.6039 29.3177 53.0841 29.2435 52.6386 29.3177C52.193 29.3919 51.6732 29.4662 51.2277 29.6888L50.8564 29.8372L50.7821 29.3919C50.4851 27.6851 49.297 26.2008 47.7376 25.3845C46.1039 24.6424 44.1732 24.7166 42.5396 25.5329Z" fill="#B66D46"/>
</g>
<g opacity="0.6">
<path opacity="0.6" d="M54.3467 21.0061C55.9061 20.1156 57.9853 20.1898 59.619 21.0061C61.2526 21.8966 62.515 23.6035 62.7378 25.4588L62.2922 25.1619C62.9605 24.9393 63.6289 24.7167 64.3714 24.6425C65.114 24.494 65.9308 24.6425 66.5992 25.0135C67.2675 25.3104 67.8615 25.9041 68.1586 26.4978C68.5298 27.1657 68.7526 27.8336 68.9011 28.5015C68.6041 27.8336 68.3071 27.2399 67.9358 26.6462C67.5645 26.1267 67.0447 25.6814 66.3764 25.4588C65.7823 25.2362 65.114 25.1619 64.5199 25.3104C63.8516 25.4588 63.2576 25.6814 62.5893 25.9041L62.218 26.0525L62.1437 25.6072C61.8467 23.9746 60.8813 22.4161 59.3962 21.5998C57.911 20.635 56.0546 20.4866 54.3467 21.0061Z" fill="#B66D46"/>
</g>
<g opacity="0.6">
<path opacity="0.6" d="M70.6831 23.5291C71.4257 23.0096 72.4653 22.8612 73.3564 23.0096C74.3217 23.1581 75.2128 23.4549 75.9554 24.0486C77.5148 25.1618 78.4801 26.9428 78.9257 28.7239L78.5544 28.5013C79.2227 28.4271 79.9653 28.4271 80.6336 28.5013C81.3762 28.5755 82.0445 28.7981 82.6385 29.1692C83.2326 29.5402 83.8267 30.0597 84.1979 30.6534C84.5692 31.2471 84.8663 31.915 85.0148 32.5829C84.7177 31.9892 84.3465 31.3955 83.9752 30.876C83.5296 30.3566 83.0841 29.9113 82.49 29.6887C81.3019 29.095 79.9653 29.095 78.6286 29.2434H78.3316L78.2574 28.9465C77.7376 27.3139 76.9207 25.6812 75.5841 24.5681C74.9158 24.0486 74.0989 23.6033 73.2821 23.4549C72.4653 23.158 71.5742 23.158 70.6831 23.5291Z" fill="#B66D46"/>
</g>
<g opacity="0.6">
<path opacity="0.6" d="M74.7671 34.4384C75.9552 34.1415 77.2176 33.9931 78.48 34.3642C79.074 34.5868 79.6681 34.8836 80.1879 35.3289C80.6334 35.7742 81.079 36.3679 81.2275 37.0358L80.8562 36.7389C81.4503 36.6647 81.9701 36.8131 82.4899 37.0358C82.9354 37.2584 83.381 37.481 83.8265 37.7779C84.7176 38.2974 85.3859 39.1137 85.9057 40.0042C86.4255 40.8948 86.7968 41.8595 86.8711 42.8243C86.9453 43.8632 86.574 44.9022 85.8314 45.5701C86.4255 44.7538 86.574 43.789 86.4255 42.8985C86.277 42.0079 85.8315 41.1174 85.3116 40.3753C84.7918 39.559 84.1978 38.8911 83.381 38.4458C82.5641 37.9263 81.7473 37.481 80.9305 37.5552H80.6334L80.5592 37.2584C80.3364 36.2194 79.371 35.3289 78.3314 34.8836C77.2176 34.4384 76.0295 34.3642 74.7671 34.4384Z" fill="#B66D46"/>
</g>
</g>
</svg>
