<svg id="Layer_1" data-name="Layer 1" xmlns="http://www.w3.org/2000/svg" xmlns:xlink="http://www.w3.org/1999/xlink" viewBox="0 0 128 128"><defs><style>.cls-1,.cls-3{fill:none;}.cls-2{fill:#ebebeb;}.cls-3{stroke:#aedcff;}.cls-4{clip-path:url(#clip-path);}.cls-5{fill:#513232;}.cls-6{fill:#a37f79;}.cls-7{fill:#fff;}.cls-8{fill:#110808;}.cls-9{fill:#ea9466;}.cls-10{fill:#b96d52;}.cls-11,.cls-12,.cls-15{fill:#b76456;}.cls-11{opacity:0.57;}.cls-13{fill:#3f1f1c;}.cls-14{fill:#1e0f0f;}.cls-15{opacity:0.64;}</style><clipPath id="clip-path"><circle class="cls-1" cx="64" cy="71.72" r="52.85"/></clipPath></defs><rect class="cls-2" x="4.57" y="4.57" width="120" height="120" rx="53"/><rect class="cls-3" x="0.5" y="0.5" width="127" height="127" rx="52.5"/><g class="cls-4"><path class="cls-5" d="M82.61,84.28l20.32,12.07a4.69,4.69,0,0,1,2,2.3l1.82,4.63c-1.76,2.38-16,20.87-41.17,21.7-27.28.9-43.27-19.8-44.69-21.7l2.74-5.63a4.73,4.73,0,0,1,1.77-1.94L45.15,83.63Z"/><path class="cls-6" d="M53.87,79.14l-8.72,4.49A18.37,18.37,0,0,0,55.21,99.39c-.68-2.41-1.35-4.82-2-7.23h22l-2,7.23a21.82,21.82,0,0,0,7.73-9.09,21.5,21.5,0,0,0,1.67-6l-7.78-4.65Z"/><path class="cls-7" d="M53.18,92.16h22l-2,7.23-2.35.68c.65,4.53,1.17,9.41,1.48,14.59.2,3.32.3,6.53.32,9.59a30.36,30.36,0,0,1-8.23,1.29,30.74,30.74,0,0,1-9.17-1.25L56.77,100l-1.56-.56Z"/><path class="cls-8" d="M103.6,96.84a55.34,55.34,0,0,0-4.41,7.37,56.35,56.35,0,0,0-3.88,10.14l-.51.37a52,52,0,0,1,4.56-12.31,51.11,51.11,0,0,1,3.68-6Z"/><path class="cls-8" d="M24,96.84a55.34,55.34,0,0,1,4.41,7.37,56.35,56.35,0,0,1,3.88,10.14l.51.37a51.87,51.87,0,0,0-4.56-12.31,53.16,53.16,0,0,0-3.79-6.13Z"/><path class="cls-9" d="M76.05,87c-.3,1.73-.59,3.46-.89,5.19A25.85,25.85,0,0,1,69.31,94a28.12,28.12,0,0,1-16.13-1.85c-.29-1.71-.58-3.42-.86-5.13a45.81,45.81,0,0,0,1.73-10,43.91,43.91,0,0,0,0-5.5c0-.38,0-.75-.07-1.11l14.72-.09,5.43,0c0,.16,0,.33,0,.49s0,.29,0,.44c.08,2.28.24,4.7.53,7.25.09.78.19,1.56.3,2.36.18,1.24.37,2.44.58,3.6Q75.8,85.76,76.05,87Z"/><path class="cls-10" d="M74.83,79.63c-.83.4-2.54.61-5.21.61h0s-8.55.44-15.56-8.67c-.48-.63-1-1.32-1-1.32-.32-.46-.6-.88-.85-1.27l16.46,1.39,5.44.46c0,.15,0,.3,0,.44Q74.32,75.55,74.83,79.63Z"/><path class="cls-5" d="M48.21,53.49,45,47.82a3.33,3.33,0,0,1,0-3.29l1.5-2.63c-.35.09-.84.21-1.43.33-1.21.24-1.33.18-1.39.14-.5-.4.36-2.4.93-3.43.8-1.46,2.78-4.17,8-6.12-.56-.13-1.39-.3-2.4-.47-2.83-.46-3.6-.31-3.71-.64-.3-.85,3.87-3.71,8.71-4.87a21.47,21.47,0,0,1,8.67-.23,8,8,0,0,1-1.11-1.95c-.31-.79-.48-1.21-.33-1.53.51-1.06,4.13-.29,4.41-.23,1.79.39,5.1,1.52,8.61,5.47.41-2,.76-3,1-2.95s.62,1.69.78,5c3.79.77,4.72,1.3,4.7,1.66,0,.17-.34.37-1,.75a16.78,16.78,0,0,1-1.86.93q4.89,2.56,4.64,3.24-.16.43-2.46.09a7.77,7.77,0,0,1,2.46,4.18c.09.47.34,2.05-1.3,6.08a35.53,35.53,0,0,1-3.43,6.41Z"/><path class="cls-9" d="M79.08,53.75a3.48,3.48,0,0,1,2.75-.62c1.82.51,2.45,3,2.45,4.38,0,2.87-2.77,5.71-7,7.12Z"/><path class="cls-11" d="M82.1,56a1,1,0,0,0-.73-.27c-1.48.17-2,5.09-2,5.91.3-.17,2.43-1.38,3.06-3.08a2.67,2.67,0,0,0,.17-1.65A2.32,2.32,0,0,0,82.1,56Z"/><path class="cls-12" d="M81.25,55.44c-1,0-1.66,2.3-1.77,2.69a6.36,6.36,0,0,0-.15,3.46A33.34,33.34,0,0,1,80,58.26c.56-1.89,1-2.36,1.46-2.41s.6.15.62.1S81.69,55.43,81.25,55.44Z"/><path class="cls-12" d="M81.16,58.23a2,2,0,0,1-.13,2c-.08,0,.34-1.1-.24-1.79-.32-.39-.88-.55-.85-.86a.24.24,0,0,1,.1-.17C80.27,57.27,80.88,57.73,81.16,58.23Z"/><path class="cls-9" d="M49.35,53.77a3.5,3.5,0,0,0-2.74-.66c-1.83.48-2.49,3-2.52,4.34-.05,2.87,2.68,5.75,6.85,7.23Z"/><path class="cls-11" d="M46.53,55.94a1,1,0,0,1,.74-.26c1.48.2,1.89,5.13,1.95,5.94a7.14,7.14,0,0,1-3-3.12,2.62,2.62,0,0,1-.15-1.65A2.46,2.46,0,0,1,46.53,55.94Z"/><path class="cls-12" d="M47.4,55.45c1,0,1.62,2.32,1.72,2.71a6.39,6.39,0,0,1,.1,3.46c-.1,0-.07-1.31-.64-3.33s-1-2.38-1.42-2.43-.6.14-.63.08A1.09,1.09,0,0,1,47.4,55.45Z"/><path class="cls-12" d="M47.44,58.24a2.05,2.05,0,0,0,.09,2c.09,0-.31-1.11.27-1.79.33-.38.9-.53.87-.84a.27.27,0,0,0-.1-.18C48.34,57.3,47.73,57.74,47.44,58.24Z"/><path class="cls-9" d="M80,48c-.29,1.89-.59,3.77-.88,5.65q-1.15,7.44-2.32,14.87a2.93,2.93,0,0,1-1.1,1.89,18.75,18.75,0,0,1-9.87,4,19.14,19.14,0,0,1-13.25-4,3,3,0,0,1-1.12-1.82c-.5-2.76-1-5.57-1.45-8.44q-.54-3.36-1-6.64h0c-.27-1.93-.53-3.85-.76-5.73a14.91,14.91,0,0,1,5.1-6.59A14.37,14.37,0,0,1,58,38.94L56.7,40.55c-1.18,1.43-2.36,2.85-3.53,4.28a18.46,18.46,0,0,0,11.3-5h0a19,19,0,0,0,2.19-2.45,32.25,32.25,0,0,1-2,3.71,32.54,32.54,0,0,1-2,2.69A14.19,14.19,0,0,0,72.36,39c.35-.4.63-.76.85-1.06A22.79,22.79,0,0,1,76.11,41,23.85,23.85,0,0,1,80,48Z"/><path class="cls-13" d="M60.44,49.75a.76.76,0,0,1,.23.18.83.83,0,0,1,.1.88.86.86,0,0,1-.1.16.79.79,0,0,1-1,.14,7.15,7.15,0,0,0-3-1c-2.17-.23-3.89.7-4,.44s.89-1,2.05-1.45A7.4,7.4,0,0,1,60.44,49.75Z"/><path class="cls-13" d="M67.72,49.75a.58.58,0,0,0-.23.18.83.83,0,0,0-.11.88.91.91,0,0,0,.11.16.79.79,0,0,0,1,.14,7.1,7.1,0,0,1,3-1c2.18-.23,3.89.7,4,.44s-.89-1-2-1.45A7.39,7.39,0,0,0,67.72,49.75Z"/><path class="cls-13" d="M57,51.36a3.39,3.39,0,0,1,3.28,1A5.61,5.61,0,0,0,57.11,52c-1.19.35-1.79,1.24-1.89,1.15S55.75,51.77,57,51.36Z"/><path class="cls-13" d="M71.47,51.36a3.39,3.39,0,0,0-3.28,1A5.61,5.61,0,0,1,71.31,52c1.19.35,1.79,1.24,1.89,1.15S72.67,51.77,71.47,51.36Z"/><ellipse class="cls-14" cx="58.31" cy="54.47" rx="1.24" ry="1.96"/><path class="cls-7" d="M58.62,53.79a.29.29,0,0,1-.29.29.3.3,0,0,1-.3-.29.31.31,0,0,1,.3-.3A.3.3,0,0,1,58.62,53.79Z"/><ellipse class="cls-14" cx="69.81" cy="54.47" rx="1.24" ry="1.96"/><path class="cls-7" d="M70.1,53.79a.29.29,0,0,1-.58,0,.29.29,0,1,1,.58,0Z"/><path class="cls-12" d="M63.61,55.63l-2.13,5.66a.34.34,0,0,0,.11.38,4,4,0,0,0,4.94,0,.34.34,0,0,0,.1-.4l-2.4-5.66A.33.33,0,0,0,63.61,55.63Z"/><path class="cls-12" d="M70.44,61a.59.59,0,1,1,1,.67,9.56,9.56,0,0,1-3.82,3,9.44,9.44,0,0,1-7.48-.1c0-.16,4.1,1.12,7.65-1A8.86,8.86,0,0,0,70.44,61Z"/><path class="cls-15" d="M53.31,41.16A14.37,14.37,0,0,1,58,38.94L56.7,40.55A13.24,13.24,0,0,0,54,42a13.76,13.76,0,0,0-4.86,5.89L49,53.49h0c-.27-1.93-.53-3.85-.76-5.73A14.91,14.91,0,0,1,53.31,41.16Z"/><path class="cls-15" d="M66.66,37.36a32.25,32.25,0,0,1-2,3.71,32.54,32.54,0,0,1-2,2.69A13.92,13.92,0,0,0,64,41.3a15.35,15.35,0,0,0,.5-1.49h0A19,19,0,0,0,66.66,37.36Z"/><path class="cls-15" d="M80,48c-.29,1.89-.59,3.77-.88,5.65,0-1.91-.09-3.82-.14-5.74a23.76,23.76,0,0,0-4.52-7A25.85,25.85,0,0,0,72.36,39c.35-.4.63-.76.85-1.06A22.79,22.79,0,0,1,76.11,41,23.85,23.85,0,0,1,80,48Z"/></g></svg>