<svg width="128" height="129" viewBox="0 0 128 129" fill="none" xmlns="http://www.w3.org/2000/svg">
<rect x="4.57129" y="5.25098" width="120" height="120" rx="53" fill="#EBEBEB"/>
<rect x="0.5" y="1.17969" width="127" height="127" rx="52.5" stroke="#AEDCFF"/>
<path d="M89.9161 89.4595L95.0399 98.3016C95.3369 98.153 95.6339 98.0044 95.8567 97.7815L95.0399 92.3574L97.5646 96.6669C101.872 93.8434 104.025 91.4657 104.025 91.4657L85.5349 40.5679L41.7973 42.0539L26.8716 95.5524C26.8716 95.5524 29.0993 98.0044 34.5201 100.605C36.525 97.1128 39.7181 91.6143 39.7181 91.6143L38.9013 102.388C39.1983 102.463 39.4211 102.537 39.7181 102.686L42.0201 99.2676L42.0944 103.429C47.5151 104.989 54.5696 106.103 63.629 106.103C75.6587 106.103 84.8666 103.28 91.4755 100.085L89.9161 89.4595Z" fill="#382D21"/>
<path d="M81.8222 95.5525C81.6737 95.4039 81.5252 95.2553 81.4509 95.0324C73.8024 84.7785 74.9163 62.7847 74.9163 62.3389L64.0004 78.4627L53.0846 62.3389C53.0846 62.7847 54.1985 84.7785 46.5499 95.0324C46.4757 95.1067 46.4014 95.2553 46.3271 95.3296L65.3371 121.187L81.8222 95.5525Z" fill="#955221"/>
<path d="M103.802 109.521C103.579 109.67 103.431 109.893 103.208 110.042C92.6636 119.181 79.0002 124.679 64.0002 124.679C48.7032 124.679 34.8171 118.958 24.1982 109.596C28.7279 107.441 34.2973 105.063 39.0497 101.868C39.9408 101.274 40.9062 100.605 41.723 99.9362C41.8715 99.8619 42.02 99.7133 42.1685 99.639C43.728 98.3759 45.1388 97.0384 46.3269 95.478L53.827 105.732L65.3369 121.336L75.7329 105.212L81.8963 95.6266C83.6785 97.8557 85.9804 99.8619 88.5794 101.571C93.3319 104.766 99.124 107.292 103.802 109.521Z" fill="#DC653D"/>
<path d="M85.5351 52.6053C86.0549 50.7477 87.54 49.1873 89.3965 48.7415C90.2133 48.5186 91.1787 48.5186 91.9213 48.8901C92.7381 49.2616 93.2579 50.0789 93.5549 50.8963C94.2975 52.7539 94.0004 54.983 93.1094 56.7663C92.144 58.5495 90.5846 59.9613 88.8024 61.0015C87.243 61.8932 85.3866 62.4876 83.7529 61.8189L85.5351 52.6053Z" fill="#955221"/>
<path d="M85.3122 53.8686C85.6835 52.4568 86.8716 51.268 88.2825 50.8964C88.9508 50.7478 89.6191 50.7478 90.2132 51.0451C90.8073 51.3423 91.2528 51.9367 91.4756 52.5311C92.0696 53.9429 91.8469 55.6519 91.1043 57.0636C90.3617 58.4011 89.1736 59.5156 87.837 60.2587C86.6489 60.9274 85.238 61.3732 83.9756 60.9274L85.3122 53.8686Z" fill="#955221"/>
<path d="M42.4656 52.6053C41.9458 50.7477 40.4606 49.1873 38.6042 48.7415C37.7874 48.5186 36.822 48.5186 36.0794 48.8901C35.2626 49.2616 34.7428 50.0789 34.4458 50.8963C33.7032 52.7539 34.0002 54.983 34.8913 56.7663C35.8567 58.5495 37.4161 59.9613 39.1983 61.0015C40.7577 61.8932 42.6141 62.4876 44.2478 61.8189L42.4656 52.6053Z" fill="#955221"/>
<path d="M42.6884 53.8686C42.3171 52.4568 41.129 51.268 39.7181 50.8964C39.0498 50.7478 38.3814 50.7478 37.7874 51.0451C37.1933 51.3423 36.7478 51.9367 36.525 52.5311C35.931 53.9429 36.1537 55.6519 36.8963 57.0636C37.6389 58.4011 38.827 59.5156 40.1636 60.2587C41.3517 60.9274 42.7626 61.3732 44.025 60.9274L42.6884 53.8686Z" fill="#955221"/>
<path d="M46.1043 43.8374C51.6736 44.3575 57.0944 44.5804 62.5152 43.1687C67.936 41.7569 73.134 38.7105 76.3271 34.1037C77.2924 38.4133 78.6291 42.5742 80.634 46.5123C82.1192 49.3358 83.9756 52.0108 86.3519 54.1656C86.4261 53.7941 86.5004 53.4226 86.5004 53.051C86.7231 51.4164 86.8716 49.856 86.8716 48.4442C86.8716 35.7383 76.5499 25.4102 63.8518 25.4102C51.1538 25.4102 40.832 35.7383 40.832 48.4442C40.832 49.7817 40.9063 51.1934 41.1291 52.6795C41.2776 53.9427 41.5746 55.2058 41.8716 56.5433C45.0647 53.1253 46.6241 48.4442 46.1043 43.8374Z" fill="#382D21"/>
<path d="M80.7081 46.5864C78.7032 42.6483 77.3665 38.4873 76.4012 34.1777C73.1338 38.7845 68.0101 41.7567 62.5893 43.2427C57.1685 44.6545 51.7477 44.5059 46.1784 43.9115C46.6239 48.444 45.0645 53.1994 42.0942 56.6917V56.766C44.9903 69.5462 53.7527 85.4471 64.0002 85.4471C74.916 85.4471 84.0497 67.4657 86.4259 54.3883C86.4259 54.314 86.4259 54.3139 86.4259 54.2396C84.1239 52.0848 82.1933 49.4099 80.7081 46.5864Z" fill="#955221"/>
<path d="M47.7378 71.7756C49.8913 74.8964 52.1932 77.7942 54.8665 80.1719C56.2031 81.3608 57.6883 82.401 59.2477 83.1441C60.0645 83.5156 60.8071 83.8128 61.6239 84.0357C62.4407 84.2586 63.2576 84.3329 64.0744 84.3329C65.7081 84.3329 67.416 83.8128 68.9012 83.0698C70.4606 82.3267 71.8714 81.2122 73.2081 80.0233C75.8813 77.5713 78.1833 74.6735 80.2625 71.5527C79.6685 73.336 78.7774 75.045 77.812 76.6797C76.8467 78.3143 75.7328 79.8747 74.3962 81.2865C73.7279 82.0295 73.0596 82.6982 72.317 83.2927C71.5744 83.8871 70.7576 84.4815 69.8665 85.0017C68.1586 85.9676 66.0794 86.6363 64.0744 86.6363C63.0348 86.6363 61.9952 86.4877 61.0299 86.2648C60.0645 85.9676 59.0992 85.5961 58.2081 85.1503C56.4259 84.1843 54.9408 82.9212 53.6041 81.5094C51.0051 78.6116 49.0002 75.2679 47.7378 71.7756Z" fill="#382D21"/>
<path d="M56.2034 50.599C57.4747 50.599 58.5053 49.5677 58.5053 48.2956C58.5053 47.0234 57.4747 45.9922 56.2034 45.9922C54.932 45.9922 53.9014 47.0234 53.9014 48.2956C53.9014 49.5677 54.932 50.599 56.2034 50.599Z" fill="#382D21"/>
<path d="M73.134 50.599C74.4054 50.599 75.436 49.5677 75.436 48.2956C75.436 47.0234 74.4054 45.9922 73.134 45.9922C71.8627 45.9922 70.832 47.0234 70.832 48.2956C70.832 49.5677 71.8627 50.599 73.134 50.599Z" fill="#382D21"/>
<path d="M57.3913 59.6638C57.3913 61.4471 55.2378 62.8588 52.5645 62.8588C49.8913 62.8588 47.7378 61.4471 47.7378 59.6638C47.7378 57.8805 49.8913 56.4688 52.5645 56.4688C55.1635 56.4688 57.3913 57.9548 57.3913 59.6638Z" fill="#F0B9B6"/>
<path d="M80.8566 59.6638C80.8566 61.4471 78.7031 62.8588 76.0299 62.8588C73.3566 62.8588 71.2031 61.4471 71.2031 59.6638C71.2031 57.8805 73.3566 56.4688 76.0299 56.4688C78.7031 56.4688 80.8566 57.9548 80.8566 59.6638Z" fill="#F0B9B6"/>
<path d="M65.634 46.5122C65.7825 47.7011 65.8568 48.8156 66.0053 49.9302C66.1538 51.0447 66.3024 52.1593 66.6736 53.1995C66.9707 54.2398 67.4162 55.28 67.936 56.1716C68.5301 57.0633 69.1984 57.8806 70.0152 58.5494L70.4608 58.8466L70.3122 59.2924C69.8667 60.2583 69.2726 61.0757 68.3816 61.6701C67.936 61.9673 67.4905 62.1902 67.0449 62.3388C66.5251 62.4874 66.0796 62.4874 65.5598 62.4131C66.5251 62.1902 67.2677 61.6701 67.8617 61.0014C68.4558 60.3326 68.9014 59.5896 69.1241 58.7723L69.3469 59.5153C68.233 58.8466 67.3419 57.9549 66.7479 56.9147C66.0796 55.8744 65.634 54.6856 65.4113 53.4967C65.1885 52.3079 65.1142 51.119 65.1885 49.9302C65.1142 48.8156 65.337 47.6268 65.634 46.5122Z" fill="#382D21"/>
<path d="M65.1883 66.2772C61.4754 66.2772 58.0596 65.1626 58.0596 65.1626C58.0596 65.1626 59.2477 67.1688 60.8813 68.8778C63.4804 67.7632 66.5992 67.9118 69.1239 69.175C70.9804 67.2431 72.1685 64.7168 72.1685 64.7168C72.1685 64.7168 68.9754 66.2772 65.1883 66.2772Z" fill="#382D21"/>
<path d="M60.9556 68.8033C62.2179 70.0665 63.7773 71.181 65.3368 71.181C66.7476 71.181 68.0843 70.2151 69.1982 69.0263C66.6734 67.8374 63.5546 67.6888 60.9556 68.8033Z" fill="#DC653D"/>
<g opacity="0.6">
<g opacity="0.6">
<path opacity="0.6" d="M74.5451 30.2397C72.9857 32.4688 70.9808 34.475 68.753 36.1097C66.5253 37.7444 64.0006 39.0075 61.3273 39.8249C58.654 40.6422 55.8323 41.0137 53.0847 40.8651C51.6738 40.7908 50.3372 40.6422 49.0006 40.4193C47.6639 40.1221 46.3273 39.7506 45.0649 39.2305C46.4016 39.602 47.7382 39.8992 49.0748 40.0478C50.4115 40.2707 51.7481 40.345 53.159 40.345C55.9065 40.345 58.5798 39.8992 61.1788 39.1562C63.7778 38.4131 66.2283 37.2243 68.5303 35.7382C70.6838 34.1035 72.7629 32.3202 74.5451 30.2397Z" fill="#B66D46"/>
</g>
<g opacity="0.6">
<path opacity="0.6" d="M69.3471 29.0508C68.159 30.1653 66.7481 31.057 65.2629 31.8C63.7778 32.5431 62.1441 32.9889 60.5104 33.2861C58.8768 33.5833 57.2431 33.6576 55.5352 33.4347L54.2728 33.2861L53.0847 33.0632L51.8966 32.6917C51.5253 32.543 51.154 32.3944 50.7827 32.2458C51.154 32.3201 51.5996 32.3944 51.9708 32.4687L53.159 32.6917L54.3471 32.8403L55.5352 32.9146C57.1689 32.9889 58.7283 32.8403 60.2877 32.6173C61.8471 32.3201 63.4065 31.8743 64.8916 31.3542C66.5253 30.6855 67.9362 29.9424 69.3471 29.0508Z" fill="#B66D46"/>
</g>
<g opacity="0.6">
<path opacity="0.6" d="M89.0254 61.8931L91.7729 67.763C92.664 69.6949 93.6294 71.7011 94.5205 73.633C95.4116 75.5649 96.3769 77.4968 97.3422 79.4287L100.238 85.2243C99.6442 84.3327 99.0502 83.441 98.4561 82.4751C97.9363 81.5092 97.3422 80.6175 96.8224 79.6516C95.7828 77.794 94.7432 75.8621 93.8521 73.9302C92.961 71.9983 92.0699 69.9921 91.2531 67.9859C90.4363 65.9797 89.6937 63.9736 89.0254 61.8931Z" fill="#B66D46"/>
</g>
<g opacity="0.6">
<path opacity="0.6" d="M84.5698 68.1343C85.5352 70.4377 86.2777 72.8154 87.1688 75.1931C88.0599 77.4965 89.0253 79.7999 90.2134 82.029C88.5055 80.1714 87.3916 77.868 86.5005 75.4903C85.6094 73.0383 85.0154 70.5863 84.5698 68.1343Z" fill="#B66D46"/>
</g>
<g opacity="0.6">
<path opacity="0.6" d="M80.3369 74.4502C81.0052 75.9363 81.525 77.4223 82.0448 78.9827C82.5646 80.4688 83.0844 82.0291 83.6042 83.5152C84.0498 85.0756 84.5696 86.5616 85.0151 88.122L85.6834 90.4254C85.9062 91.2428 86.0547 91.9858 86.2775 92.8031C85.9805 92.0601 85.6834 91.3171 85.3864 90.574L84.5696 88.3449C84.0498 86.8589 83.53 85.2985 83.0102 83.7381C82.5646 82.1777 82.0448 80.6917 81.5993 79.1313C81.0795 77.5709 80.7082 76.0106 80.3369 74.4502Z" fill="#B66D46"/>
</g>
<g opacity="0.6">
<path opacity="0.6" d="M48.852 78.2397C48.4065 80.4688 47.8124 82.698 47.2183 84.9271C46.6243 87.1562 46.0302 89.3109 45.2134 91.4657C45.4362 89.1623 45.8817 86.9332 46.4758 84.7041C47.1441 82.475 47.8867 80.3202 48.852 78.2397Z" fill="#B66D46"/>
</g>
<g opacity="0.6">
<path opacity="0.6" d="M44.2482 71.5522C43.8026 73.7813 43.1343 75.8618 42.466 78.0166C41.7977 80.1714 41.1294 82.2519 40.2383 84.3324C40.5353 82.1033 41.1294 79.9485 41.7977 77.7937C42.466 75.6389 43.2086 73.5584 44.2482 71.5522Z" fill="#B66D46"/>
</g>
<g opacity="0.6">
<path opacity="0.6" d="M40.7579 63.9731C40.0896 65.9793 39.347 67.9112 38.6044 69.8431C37.8618 71.775 37.1193 73.7069 36.3024 75.6388C35.4856 77.5707 34.6688 79.4283 33.8519 81.3601L32.5896 84.1837C32.144 85.1496 31.6985 86.0413 31.2529 87.0072C31.55 86.0413 31.9212 85.0753 32.2925 84.0351L33.4064 81.1372C34.149 79.2053 34.8915 77.2735 35.7084 75.3416C36.5252 73.4097 37.342 71.5521 38.1589 69.6202C38.9014 67.7626 39.7925 65.8307 40.7579 63.9731Z" fill="#B66D46"/>
</g>
</g>
</svg>
