<?xml version="1.0" encoding="utf-8"?>
<!-- Generator: Adobe Illustrator 26.3.1, SVG Export Plug-In . SVG Version: 6.00 Build 0)  -->
<svg version="1.1" id="Layer_1" xmlns="http://www.w3.org/2000/svg" xmlns:xlink="http://www.w3.org/1999/xlink" x="0px" y="0px"
	 viewBox="0 0 128 129" style="enable-background:new 0 0 128 129;" xml:space="preserve">
<style type="text/css">
	.st0{fill:#EBEBEB;}
	.st1{fill:none;stroke:#AEDCFF;}
	.st2{fill:#F2F3E8;}
	.st3{fill:#CECEBE;}
	.st4{fill:#C6C5B5;}
	.st5{fill:#F4E9DD;}
	.st6{fill:#E66229;}
	.st7{opacity:0.47;fill:#7C2F2F;}
	.st8{fill:#693B2F;}
	.st9{fill:#231010;}
	.st10{fill:#F4B694;}
	.st11{opacity:0.8;fill:#C97B5C;}
	.st12{opacity:0.6;fill:#C97B5C;}
	.st13{fill:#C17256;}
	.st14{fill:#C97B5C;}
	.st15{fill:#613125;}
	.st16{fill:#40211F;}
	.st17{fill:#2C1515;}
	.st18{fill:#FFFFFF;}
	.st19{fill:#331315;}
	.st20{opacity:0.7;fill:#C97B5C;}
</style>
<path class="st0" d="M57.6,5.3h14c29.3,0,53,23.7,53,53v14c0,29.3-23.7,53-53,53h-14c-29.3,0-53-23.7-53-53v-14
	C4.6,29,28.3,5.3,57.6,5.3z"/>
<path class="st1" d="M53,1.2h22c29,0,52.5,23.5,52.5,52.5v22c0,29-23.5,52.5-52.5,52.5H53c-29,0-52.5-23.5-52.5-52.5v-22
	C0.5,24.7,24,1.2,53,1.2z"/>
<g>
	<g>
		<g>
			<path class="st2" d="M46.6,85.6c-2.1,0.2-10.2,1.1-16.8,7.8c-5.6,5.8-6.9,12.4-7.2,14.7c2.6,2.6,18.6,17.9,43.2,16.8
				c21.4-0.9,35-13.7,38.1-16.8c-0.4-2.5-1.8-8.6-6.9-14.1c-6.8-7.3-15.5-8.2-17.7-8.4C68.4,85.6,57.5,85.6,46.6,85.6z"/>
			<path class="st3" d="M33.7,116.6c-0.2-1-0.4-2.3-0.7-3.9c-1.5-7.1-3.2-11.9-3.1-11.9c0.1,0,0.9,1.9,3.7,9.8
				c0.2-5.9,0.3-7.3,0.4-7.3c0.1,0,0,4,0.5,9.7c0.2,1.8,0.4,3.3,0.5,4.3C34.6,117.1,34.2,116.8,33.7,116.6z"/>
			<path class="st3" d="M93,116.6c0.2-1,0.4-2.3,0.7-3.9c1.5-7.1,3.2-11.9,3.1-11.9c-0.1,0-0.9,1.9-3.7,9.8
				c-0.2-5.9-0.3-7.3-0.4-7.3c-0.1,0,0,4-0.5,9.7c-0.2,1.8-0.4,3.3-0.5,4.3C92.1,117.1,92.6,116.8,93,116.6z"/>
			<g>
				<path class="st4" d="M50.7,83.8l-4.1,1.8c4.3,6.9,12,10.6,19.5,9.4c8.4-1.4,12.7-8.4,13.3-9.4c-1.3-0.5-2.6-1-3.8-1.4L50.7,83.8
					z"/>
				<path class="st5" d="M72.6,82.7c1,0.5,1.9,0.9,2.9,1.4c-0.9,1-2,2-3.4,3.1c-1.9,1.5-3.8,2.4-5.3,3.1c-1.2-1.1-2.4-2.1-3.6-3.2
					c-1.2,1.1-2.3,2.1-3.5,3.2c-1.2-0.4-2.5-1.1-3.9-2c-2.3-1.5-4-3.2-5-4.5c1-0.4,2.1-0.7,3.1-1.1H72.6z"/>
				<path class="st6" d="M59.6,90.3l3.5-3.2l3.6,3.2c-0.6,0.2-1.2,0.4-2,0.6C62.5,91.2,60.7,90.7,59.6,90.3z"/>
			</g>
		</g>
		<path class="st7" d="M46.6,52.7c0,0.2,0.1,0.3,0.1,0.4c0,0,0,0,0,0C46.7,53,46.6,52.8,46.6,52.7z"/>
		<g>
			<g>
				<path class="st8" d="M46.9,54.1c-0.9-1.3-2.1-3.3-3.3-5.7c-1.2-2.3-2.1-4.3-2.4-5.7c-1.4-6.3,8-14.7,16.2-18.5
					c3.9-1.8,10.3-4.8,15.4-1.8c2.3,1.4,3.5,3.5,4.2,5c0.6-0.4,1-0.4,1.3-0.3c1.1,0.2,2,2,2,4.5c0.5-0.8,1.3-1.2,1.8-1
					c0.5,0.2,0.6,0.8,0.7,1.1c0.4,1.6-0.7,3.2-1.1,3.6c1.6,1.1,2.1,2.5,1.6,3.2c-0.4,0.6-1.4,0.6-1.6,0.5c0.7,0.8,1.9,2.5,2,4.8
					c0.1,1.7-0.4,3-1.2,5.1c-0.5,1.3-1.4,3.1-2.8,5.1C68.8,54.1,57.9,54.1,46.9,54.1z"/>
				<path class="st9" d="M63.2,38.3c1.2-0.4,2.7-1.2,4.3-2.5c1.2-0.9,2-1.9,2.7-2.7c-0.5,0.9-1.5,2.4-3.1,3.6
					c-1.1,0.9-2.3,1.4-3.1,1.6C63.7,38.5,63.5,38.4,63.2,38.3z"/>
			</g>
			<g>
				<g>
					<path class="st10" d="M72.6,72.8v10c-0.8,0.6-1.9,1.4-3.4,2.2c-2.6,1.4-3.8,2.1-5.4,2.2c-2.2,0.2-4-0.8-6.4-2.1
						c-1.6-0.8-2.8-1.7-3.6-2.3c0-3.3,0-6.6,0-10H72.6z"/>
					<path class="st11" d="M53.7,72.8c1.3,1.8,4.3,5.4,9.4,7.8c3.8,1.8,7.3,2.1,9.4,2.2c0-3.3,0-6.6,0-10H53.7z"/>
				</g>
				<g>
					<path class="st10" d="M80.8,46.1c-0.2,1.8-0.4,4-0.9,6.7c-0.2,1.2-0.5,2.6-0.8,4c-1.6,7.3-2.4,11-5.5,14.7
						c-1.4,1.7-4.9,5.7-10,6c-6.5,0.3-11.1-5.8-11.9-6.9c-2.5-3.3-3.2-7.4-4.8-15.7c-0.1-0.6-0.2-1.2-0.3-1.8c0-0.1,0-0.3-0.1-0.4
						c-0.1-0.3-0.1-0.7-0.2-1c-0.3-1.8-0.5-3.3-0.6-4.5c0-1.1,0-4.5,2.4-7.1c0.6-0.6,1.2-1.1,1.7-1.4c1.7,0.6,4.6,1.3,8.1,0.9
						c2.1-0.2,3.9-0.8,5.2-1.3c0.7,0.2,4.3,1.2,7.5-0.8c1.1-0.7,1.9-1.5,2.3-2.2c1.1,0.8,2.3,1.9,3.4,3.2
						C78.9,41.3,80.1,44.2,80.8,46.1z"/>
					<g>
						<g>
							<path class="st10" d="M79.7,54.1c0.5-0.3,1.7-0.9,2.9-0.4c1.9,0.7,2.3,3.3,2.2,4.7c-0.2,3-3.3,5.7-7.8,6.9
								C78,61.5,78.8,57.8,79.7,54.1z"/>
							<g>
								<path class="st12" d="M82.7,56.6c-0.3-0.3-0.5-0.3-0.7-0.3c-1.6,0.1-2.4,5.1-2.6,6c0.3-0.2,2.6-1.3,3.4-3
									c0.2-0.4,0.4-0.9,0.3-1.7C83,57.1,82.8,56.8,82.7,56.6z"/>
								<g>
									<path class="st13" d="M81.8,56c-1-0.1-1.9,2.3-2,2.7c-0.7,1.9-0.5,3.6-0.4,3.6c0.1,0,0.2-1.4,1-3.4
										c0.7-1.9,1.3-2.4,1.7-2.4c0.3,0,0.6,0.2,0.6,0.1C82.7,56.5,82.3,56,81.8,56z"/>
									<path class="st13" d="M81.5,58.9c0.5,0.9-0.2,2.1-0.3,2.1c-0.1,0,0.4-1.1-0.1-1.9c-0.3-0.4-0.9-0.6-0.8-1
										c0,0,0-0.1,0.1-0.2C80.7,57.8,81.3,58.3,81.5,58.9z"/>
								</g>
							</g>
						</g>
						<g>
							<path class="st10" d="M46.9,54.1c-0.5-0.3-1.7-0.9-2.9-0.4c-1.9,0.7-2.3,3.3-2.2,4.7c0.2,3,3.3,5.7,7.8,6.9
								C48.7,61.5,47.8,57.8,46.9,54.1z"/>
							<g>
								<path class="st12" d="M44.2,56.6c0.3-0.3,0.5-0.3,0.7-0.3c1.6,0.1,2.4,5.1,2.6,6c-0.3-0.2-2.6-1.3-3.4-3
									c-0.2-0.4-0.4-0.9-0.3-1.7C43.9,57.1,44.1,56.8,44.2,56.6z"/>
								<g>
									<path class="st13" d="M45.1,56c1-0.1,1.9,2.3,2,2.7c0.7,1.9,0.5,3.6,0.4,3.6c-0.1,0-0.2-1.4-1-3.4
										c-0.7-1.9-1.3-2.4-1.7-2.4c-0.3,0-0.6,0.2-0.6,0.1C44.2,56.5,44.6,56,45.1,56z"/>
									<path class="st13" d="M45.3,58.9c-0.5,0.9,0.2,2.1,0.3,2.1c0.1,0-0.4-1.1,0.1-1.9c0.3-0.4,0.9-0.6,0.8-1c0,0,0-0.1-0.1-0.2
										C46.2,57.8,45.6,58.3,45.3,58.9z"/>
								</g>
							</g>
						</g>
					</g>
					<g>
						<path class="st14" d="M62.7,56.4L61,62.3c-0.1,0.3,0,0.5,0.1,0.7c0.5,0.7,1.3,1,2.2,1c1,0,1.6-0.6,2-1
							c0.2-0.2,0.2-0.5,0.2-0.7c-0.6-2-1.2-3.9-1.7-5.9c0-0.3-0.2-0.5-0.4-0.5C63,55.8,62.7,56.1,62.7,56.4z"/>
						<path class="st14" d="M65.6,66.2c1.5-0.4,2.7-1.1,3.5-1.7c0.3-0.2,0.6-0.2,0.8,0c0.2,0.2,0.3,0.7-0.1,1
							c-0.9,0.7-2.2,1.6-4,1.9c-4.1,0.9-7.7-1.2-7.6-1.4C58.3,65.7,61.6,67.3,65.6,66.2z"/>
						<g>
							<g>
								<path class="st15" d="M51.8,47.8c-0.3,0.2-0.7,0.2-1-0.1c-0.2-0.3-0.2-0.6,0-0.9c0.3-0.3,1.8-2.1,4.4-2.4
									c2.4-0.3,4.1,0.9,4.5,1.2c0.3,0.2,0.5,0.6,0.3,0.9c-0.2,0.3-0.5,0.4-0.8,0.3c-0.4-0.3-1.9-1.1-3.8-0.8
									C53.4,46.2,52.2,47.4,51.8,47.8z"/>
								<path class="st15" d="M74.8,47.8c0.3,0.2,0.7,0.2,1-0.1c0.2-0.3,0.2-0.6,0-0.9c-0.3-0.3-1.8-2.1-4.4-2.4
									c-2.4-0.3-4.1,0.9-4.5,1.2c-0.3,0.2-0.5,0.6-0.3,0.9c0.2,0.3,0.5,0.4,0.8,0.3c0.4-0.3,1.9-1.1,3.8-0.8
									C73.2,46.2,74.5,47.4,74.8,47.8z"/>
							</g>
							<g>
								<path class="st16" d="M56.2,49.6c2,0,3.5,1.8,3.4,2c-0.1,0.2-1.3-0.9-3.2-0.9c-2.2,0-3.6,1.5-3.7,1.3
									C52.6,51.9,54.1,49.6,56.2,49.6z"/>
								<path class="st16" d="M70.1,49.6c-2,0-3.5,1.8-3.4,2c0.1,0.2,1.3-0.9,3.2-0.9c2.2,0,3.6,1.5,3.7,1.3
									C73.8,51.9,72.3,49.6,70.1,49.6z"/>
							</g>
							<g>
								<ellipse class="st17" cx="56.7" cy="54.6" rx="1.7" ry="1.8"/>
								<circle class="st18" cx="57" cy="53.7" r="0.3"/>
							</g>
							<g>
								<ellipse class="st17" cx="69.7" cy="54.6" rx="1.7" ry="1.8"/>
								<circle class="st18" cx="69.3" cy="53.7" r="0.3"/>
							</g>
							<g>
								<g>
									<path class="st19" d="M55.9,60c-3.4,0-6.1-2.7-6.1-6.1c0-3.4,2.8-6.1,6.1-6.1c3.4,0,6.1,2.7,6.1,6.1
										C62,57.2,59.3,60,55.9,60z M55.9,48.5c-2.9,0-5.3,2.4-5.3,5.3c0,2.9,2.4,5.3,5.3,5.3c2.9,0,5.3-2.4,5.3-5.3
										C61.2,50.9,58.8,48.5,55.9,48.5z"/>
								</g>
								<g>
									<path class="st19" d="M70.6,60c-3.4,0-6.1-2.7-6.1-6.1c0-3.4,2.8-6.1,6.1-6.1s6.1,2.7,6.1,6.1C76.8,57.2,74,60,70.6,60z
										 M70.6,48.5c-2.9,0-5.3,2.4-5.3,5.3c0,2.9,2.4,5.3,5.3,5.3c2.9,0,5.3-2.4,5.3-5.3C76,50.9,73.6,48.5,70.6,48.5z"/>
								</g>
								<g>
									<rect x="61.6" y="53.4" class="st19" width="3.3" height="0.8"/>
								</g>
								<g>
									<path class="st19" d="M49.9,54.6c-1-0.2-2-0.4-3-0.6c0-0.3-0.1-0.6-0.1-0.9c1.1,0.2,2.2,0.5,3.3,0.7L49.9,54.6z"/>
								</g>
								<g>
									<path class="st19" d="M76.4,54.9c0.1-0.3,0.2-0.7,0.3-1c1.1-0.2,2.2-0.5,3.3-0.7c0,0.3-0.1,0.6-0.1,0.9
										C78.7,54.3,77.5,54.6,76.4,54.9z"/>
								</g>
							</g>
						</g>
					</g>
					<path class="st20" d="M79.9,52.8v-6.7c-1-1.8-2.3-3.8-3.9-5.9c-1-1.4-2.1-2.6-3.1-3.7c-0.3,0.5-2,2.8-5.1,3.4
						c-2.2,0.4-3.9-0.2-4.6-0.5c-1.7,0.8-5.2,2.1-9.4,1.6c-1.4-0.2-2.6-0.6-3.7-0.9c-0.6,0.5-1.2,1.2-1.7,2c-2.4,3.5-2.3,7.4-2,9.8
						c-0.3-1.8-0.5-3.3-0.6-4.5c0-1.1,0-4.5,2.4-7.1c0.6-0.6,1.2-1.1,1.7-1.4c1.7,0.6,4.6,1.3,8.1,0.9c2.1-0.2,3.9-0.8,5.2-1.3
						c0.7,0.2,4.3,1.2,7.5-0.8c1.1-0.7,1.9-1.5,2.3-2.2c1.1,0.8,2.3,1.9,3.4,3.2c2.4,2.8,3.6,5.6,4.3,7.6
						C80.6,47.9,80.4,50.2,79.9,52.8z"/>
				</g>
			</g>
		</g>
	</g>
</g>
</svg>
