<svg id="Layer_1" data-name="Layer 1" xmlns="http://www.w3.org/2000/svg" viewBox="0 0 1817 1815.55"><defs><style>.cls-1{fill:none;stroke:#000;stroke-miterlimit:10;stroke-width:17px;}</style></defs><path class="cls-1" d="M450.07,1877.08c-41.88-28.6-63.05-80-53.77-130.77l76.53-466.17A53.3,53.3,0,0,0,461.65,1238L130.93,838.38c-33.24-40.16-40.33-95.89-18.14-142.31,20.92-43.76,64.7-72.63,113.68-75.1l423.07-6.11c17.09-.24,32.59-10.7,40.42-27.24L885,174.86a126.33,126.33,0,0,1,230.07,0v0l195,412.76c7.83,16.54,23.32,27,40.42,27.24L1773.52,621c49,2.47,92.75,31.34,113.68,75.1,22.19,46.4,15.13,102.1-18.06,142.27L1538.26,1238a53.6,53.6,0,0,0-11.11,42.14l76.53,466.17c9.29,50.74-11.88,102.16-53.76,130.77-39,26.63-90,29.49-132.53,7.55l-396.55-217.8a42.81,42.81,0,0,0-41.7,0L582.52,1884.67C540,1906.56,489,1903.69,450.07,1877.08Z" transform="translate(-91.5 -92.22)"/></svg>