<svg id="Layer_1" data-name="Layer 1" xmlns="http://www.w3.org/2000/svg" viewBox="0 0 558.88 492.36"><defs><style>.cls-1{fill:none;stroke:#010101;stroke-linecap:round;stroke-linejoin:round;stroke-width:6px;}.cls-2{fill:#231f20;}</style></defs><path class="cls-1" d="M463.13,188.59l8-6.75L469,176.78l8-9.28,1.69-9.28-1.69-7.17,4.22-3.38.85-7.17-3.8-8.85-.42-6.33.42-8-2.11-8.44v-5.06l-20.67,2.11-8-8.44-9.28-6.33-9.7-3.37-1.27-7.59-5.9-2.11L415.89,73l-10.12,2.1L402,77.66l-4.63-5.06-12.66-5.49h-6.33c-2.53,0-5.48-6.33-5.48-6.33l-4.22-3a36.71,36.71,0,0,1-5.9.85c-2.11,0-11.81-1.27-11.81-1.27l-9.7,5.49-8.86-1.27-10.55,2.11-10.54,8.43-4.64,7.6-3.8,4.64-5.48,2.1-7.59,2.11-3.57,2.67.19,10.62-5.9,3.59-9.28-2.11-6.75.84-6.33,2.11-18.56,5.06-17.71-.84L208,107.18,192.34,97.9l-8.43-11-8.44-6.33-13.92-.84-8-5.49L152.4,61.54l-.55-6.24L143,42.23h-5.06L130.76,33l8.86-5.07-3-8.85L140.46,14,130.34,6,112.2,14.81l-13.07,9.7-9.71,2.95L86.05,30l-4.64-.43L67.07,24.93l-5.9-6.32L57,8.06,51.88,3,39.65,5.11,36.28,6.8l-7.17.84L35,18.18,33,25a110.66,110.66,0,0,1,1.28,11.51v6.75L32.9,49"/><path class="cls-1" d="M171.08,336.37c4.8,8,12.8,15,13.8,25,0,3,5,2,7.1,4.63l-4.64,4.22c2.54,2.15,4.54,3.15,6.54,6.15,3,7,3,15,8,20,6,6,13,9,22,11,1,1,1,3,2,4,3,1,6,2,9,2,3,1,3,4,4,7,0,2-1,2-1.77,2.15,7.57,3.91,1.27-.84,0,0l22.69,11.71c3.16,1.63,3.79,2.31,5.7,5.44.65,1.08,1.53,3.37,2.6,4s3.85.34,5.15.45l14.06,1.22c-.14-.15-.28-.28-.42-.42,5,.49,7,6.49,12,6.49,6-1,12,1,18-2,9-6,18-11,24-20a7.58,7.58,0,0,1,4-2c6,2,12,0,17,3,7,5,10,14,9,23,3,7,7,13,10,20,1,1,2,2,3,2,6,2,12,0,17,6,2,1,4-1,7-2s5,0,8,0c18,4,35,4,53,4,11,6,24,5,36,6,3,0,4-3,5-5,1-10-1-21,2-31,2-5,8-4,12-6,2-1,2-4,4-6,7-5,15-3,23-5,1-6,4-12,5-18-5-4-12,0-18-.91.22-4.64,3.3-.31,0,0,0-10.09,3-21.09-2-30.09-2-5-10-6-15-8-6-4-14-3-19-10-8-13-14-25-25-34,0-5,6-8,8-11.69"/><path class="cls-1" d="M73.82,132.49c-3.94,4.87-2.94,10.87-.18,15.92"/><polyline class="cls-1" points="56.1 124.48 65.8 129.96 73.82 132.49"/><polyline class="cls-1" points="32.9 48.98 31.22 55.3 36.7 62.05 39.23 71.33 43.45 78.5 42.6 83.14 44.71 90.73 48.51 99.17 48.51 107.61 52.73 111.82 53.57 118.99 56.1 124.48"/><polygon class="cls-1" points="33.01 25.39 32.96 25.17 32.9 25.35 33.01 25.39"/><path class="cls-1" d="M33,25.17,33,25C32.83,24.8,33,25.09,33,25.17Z"/><path class="cls-2" d="M204.76,208.73q4-1.65,3.62,1c-.34,2.52-2.36,5.59-6,9.2a11.41,11.41,0,0,1-3.45,2.63q-17.6,6.9-40.54,16.42-5.69,24.48-17.5,74.65T123,388.41q-.87,3.45-7.59,7.89c-4.26,2.73-6.62,3.23-7.08,1.47a6.54,6.54,0,0,1,.18-1.31q4-17.25,8.88-38.27l8.88-37.94q4-16.92,9.06-38.35t8.88-38Q113,257,66.6,277.55q-6.72,27.92-13.28,56-.85,3.61-7.59,7.89-6.37,4.26-7.07,1.48a2,2,0,0,1,0-1.15q6.9-29.07,13.63-58L3.65,305.14C1,306.24-.2,306,0,304.32c.34-2.63,2.36-5.8,6-9.53a13.9,13.9,0,0,1,3.28-2.46q22.77-10,45.71-20,16.38-70,25.7-111.19.69-3.61,7.41-8,6.56-4.11,7.25-1.32a4.77,4.77,0,0,1-.17,1.15q-9.15,41.57-26,113.17,47.09-20.7,77.79-33.67,12.93-55,25.18-110c.46-2.4,2.93-5.09,7.42-8q6.55-4.11,7.24-1.32a4.77,4.77,0,0,1-.17,1.15Q174.07,170.46,161,226.47,182.85,217.44,204.76,208.73Z"/><path class="cls-2" d="M295.66,234q4-1.65,3.62,1-.52,3.78-5.87,9.2a10.9,10.9,0,0,1-3.45,2.46,270.44,270.44,0,0,1-32.25,11.17q5.34,13.47-1.12,25.63T235.81,302A29.08,29.08,0,0,1,221,304.54a33.41,33.41,0,0,1-13.45-4.19,31.81,31.81,0,0,1-10.35-9.61,32.55,32.55,0,0,1-5.52-13.55q-1.72-10.33,4.31-20.69a79.81,79.81,0,0,1,15.7-19.05,1.92,1.92,0,0,1,1.9,0,21.35,21.35,0,0,1,12.07-8.54,14.52,14.52,0,0,1,7.42.65,23.45,23.45,0,0,1,7.24,4.19,52.17,52.17,0,0,1,6.38,6.32,73,73,0,0,1,5.52,7.4A199.58,199.58,0,0,0,295.66,234Zm-70.2,55.51a49.92,49.92,0,0,0,17-11q7.85-7.56,8.71-16.1a24.33,24.33,0,0,0-.18-3q-26.39,5.75-34.84-4.93a64.86,64.86,0,0,0-11,14.78,59.25,59.25,0,0,0-3.19,6.65,14.5,14.5,0,0,0-.77,6.65,7.7,7.7,0,0,0,3.45,5.92A22.68,22.68,0,0,0,225.46,289.51Zm19.66-41.72a12.64,12.64,0,0,0-6.21-4.35,14.33,14.33,0,0,0-7.59-.41A19.07,19.07,0,0,0,245.12,247.79Z"/><path class="cls-2" d="M450.89,251.74q.69-.5,0,1.47-2.76,8.71-11.9,21.68-15.87,22.51-27.43,18.24a14.9,14.9,0,0,1-4.65-3.29q-7.95-8-8.11-30.71a269,269,0,0,1-38.12,37.77c-1.15.88-2.47.41-4-1.39a22.14,22.14,0,0,1-3.62-6.41c-.92-2.46-1.27-4.13-1-5A109,109,0,0,0,355,247q-4.32,5.26-12.07,15.44t-11.56,14.78q-.53.66-2.67,3.62T325,285.73a24.43,24.43,0,0,1-3.88,3.86,8.25,8.25,0,0,1-4.4,2.06c-1.38.22-2.82-.8-4.31-3a32.27,32.27,0,0,1-3.28-6,34.57,34.57,0,0,1-1.55-9.6,53.54,53.54,0,0,1,.86-11.17q1-5.83,2.33-10.84t2.93-11.17q1.63-6.17,2.5-9.61.35-2,4.31,2.46c3.68,4.17,5.29,7.39,4.83,9.69-.34,1.54-1.52,5.94-3.53,13.23s-3.37,13-4.06,17a127.74,127.74,0,0,0,9.06-12.31c3.73-5.59,5.78-8.65,6.12-9.2q14-17.9,19.49-24c.92-1.2,2.44-.36,4.57,2.54s3.37,5,3.71,6.16a113.16,113.16,0,0,1,4.14,37.12A460.27,460.27,0,0,0,399,236q2.76-3.28,7.24,5.25c1.39,2.74,2.07,4.71,2.07,5.92a9.94,9.94,0,0,1,.18,2.3c.23,3.61.48,6.68.77,9.19s.72,5.81,1.3,9.86a33.91,33.91,0,0,0,2.58,9.69c1.15,2.41,2.48,3.72,4,3.94s3.11-.44,5.18-2a48.56,48.56,0,0,0,6.72-6.24q3.63-3.95,7.33-8.13t7.68-8.21A38.87,38.87,0,0,1,450.89,251.74Z"/><path class="cls-2" d="M528,263.89c3.8-3.29,6.67-4.32,8.63-3.12s1.61,3.12-.69,6.08l-2.24,2.46c-3,2.63-5.95,5.09-8.89,7.39s-6.58,5-10.95,8a72.25,72.25,0,0,1-12.76,7.14,70.38,70.38,0,0,1-12.77,4,22.6,22.6,0,0,1-12.41-.66,23,23,0,0,1-10.27-7.47,20.38,20.38,0,0,1-4.74-12,27.32,27.32,0,0,1,2.59-13A67.64,67.64,0,0,1,470.29,251a74.28,74.28,0,0,1,8.88-10.1A67.34,67.34,0,0,1,495,229.73q14-7.06,13.28,4.76-.69,9.69-9.66,21.11a79.51,79.51,0,0,1-20.18,18.47,20.22,20.22,0,0,0,4.49,4.77Q498.83,290,528,263.89Zm-47.25-12.81a23.34,23.34,0,0,0-4.83,14.45,48,48,0,0,0,7.76-6.4,57.15,57.15,0,0,0,8.71-10.43q3.53-5.5,1.29-7.31c-1-.77-2.53-.44-4.48,1a30,30,0,0,0-5,4.52Q482.1,249.27,480.73,251.08Z"/></svg>